<svg width="757" height="1423" viewBox="0 0 757 1423" xmlns="http://www.w3.org/2000/svg"><path d="M244.153 711.424c0 50.666-14.167 97.833-42.5 141.5-28.334 43.666-65.834 74.833-112.5 93.5-6.667 3.333-15 5-25 5-17.334 0-32.334-6.167-45-18.5-12.667-12.334-19-27.5-19-45.5 0-14 4-25.834 12-35.5 8-9.667 17.666-18 29-25 11.333-7 22.666-14.667 34-23 11.333-8.334 21-20.167 29-35.5 8-15.334 12-34.334 12-57 0-22.667-4-41.667-12-57-8-15.334-17.667-27.167-29-35.5-11.334-8.334-22.667-16-34-23-11.334-7-21-15.334-29-25-8-9.667-12-21.5-12-35.5 0-18 6.333-33.167 19-45.5 12.666-12.334 27.666-18.5 45-18.5 10 0 18.333 1.666 25 5 46.666 18 84.166 49 112.5 93 28.333 44 42.5 91.333 42.5 142zm256 0c0 102-28.334 196.166-85 282.5-56.667 86.333-131.667 149.166-225 188.5-8.667 3.333-17 5-25 5-18 0-33.334-6.334-46-19-12.667-12.667-19-27.667-19-45 0-26 13-45.667 39-59 37.333-19.334 62.666-34 76-44 49.333-36 87.833-81.167 115.5-135.5 27.666-54.334 41.5-112.167 41.5-173.5 0-61.334-13.834-119.167-41.5-173.5-27.667-54.334-66.167-99.5-115.5-135.5-13.334-10-38.667-24.667-76-44-26-13.334-39-33-39-59 0-17.334 6.333-32.334 19-45 12.666-12.667 27.666-19 45-19 8.666 0 17.333 1.666 26 5 93.333 39.333 168.333 102.166 225 188.5 56.666 86.333 85 180.5 85 282.5zm256 0c0 153.333-42.334 294.166-127 422.5-84.667 128.333-197.334 222.833-338 283.5-8.667 3.333-17.334 5-26 5-17.334 0-32.334-6.334-45-19-12.667-12.667-19-27.667-19-45 0-24 13-43.667 39-59 4.666-2.667 12.166-6.167 22.5-10.5 10.333-4.334 17.833-7.834 22.5-10.5 30.666-16.667 58-33.667 82-51 82-60.667 146-136.334 192-227 46-90.667 69-187 69-289s-23-198.334-69-289c-46-90.667-110-166.334-192-227-24-17.334-51.334-34.334-82-51-4.667-2.667-12.167-6.167-22.5-10.5-10.334-4.334-17.834-7.834-22.5-10.5-26-15.334-39-35-39-59 0-17.334 6.333-32.334 19-45 12.666-12.667 27.666-19 45-19 8.666 0 17.333 1.666 26 5 140.666 60.666 253.333 155.166 338 283.5 84.666 128.333 127 269.166 127 422.5z" fill="#555" fill-rule="evenodd"/></svg>
