<svg viewBox="0 0 59 59" xmlns="http://www.w3.org/2000/svg"><g fill="none" fill-rule="evenodd"><path d="M9.45 7.75l5.1 6.55c.433.6 1.017.933 1.75 1 .733.1 1.383-.067 1.95-.5l.05-.05c.567-.467.9-1.05 1-1.75.1-.733-.067-1.4-.5-2l-5.1-6.55c-.467-.567-1.05-.9-1.75-1-.767-.1-1.433.083-2 .55l-.05.05c-.567.433-.883 1-.95 1.7-.133.767.033 1.433.5 2m-.75-5.3c.967-.833 2.133-1.15 3.5-.95h.05c1.2.133 2.2.7 3 1.7l.05.05 5.1 6.55.05.05c.733 1.033 1.017 2.183.85 3.45-.167 1.133-.683 2.1-1.55 2.9l-.05.05-.2.15c-1.033.767-2.183 1.067-3.45.9h.1c-1.367-.133-2.433-.733-3.2-1.8l.05.05L7.9 9v.05c-.833-1-1.15-2.167-.95-3.5.1-1.2.617-2.167 1.55-2.9l.05-.05.15-.15M29.35 1.4h-.05c1.233-.533 2.433-.55 3.6-.05l.4.2c.967.467 1.683 1.25 2.15 2.35l.05.1c.467 1.133.467 2.283 0 3.45v.05l-3.2 7.7v-.05c-.467 1.167-1.3 2.017-2.5 2.55h-.05c-1.167.467-2.333.467-3.5 0l-.4-.2c-.967-.467-1.683-1.217-2.15-2.25l-.05-.15c-.467-1.2-.467-2.367 0-3.5l3.2-7.7c.467-1.2 1.3-2.033 2.5-2.5m-.65 3.25l-3.2 7.7c-.267.667-.267 1.35 0 2.05.3.667.783 1.133 1.45 1.4l.05.05c.667.267 1.333.267 2 0 .7-.3 1.183-.783 1.45-1.45l3.2-7.7c.267-.667.25-1.333-.05-2-.267-.7-.733-1.183-1.4-1.45l-.05-.05-2.05.05c-.667.267-1.133.733-1.4 1.4M12.95 20.6h-8.3c-.733 0-1.367.25-1.9.75-.5.533-.75 1.167-.75 1.9v.05c0 .733.25 1.35.75 1.85.533.533 1.167.8 1.9.8h8.3c.733 0 1.35-.267 1.85-.8.533-.5.8-1.117.8-1.85v-.05c0-.733-.267-1.367-.8-1.9-.5-.5-1.117-.75-1.85-.75m4.65 2.65v.05c0 1.267-.45 2.35-1.35 3.25l-.05.05c-.9.9-1.983 1.35-3.25 1.35h-8.3c-1.3 0-2.4-.45-3.3-1.35-.9-.9-1.35-2-1.35-3.3v-.05C0 21.983.433 20.9 1.3 20l.1-.1c.9-.867 1.983-1.3 3.25-1.3h8.3c1.3 0 2.4.45 3.3 1.35.9.9 1.35 2 1.35 3.3" fill="#D0A600"/><path d="M9.45 7.75c-.467-.567-.633-1.233-.5-2 .067-.7.383-1.267.95-1.7L9.95 4c.567-.467 1.233-.65 2-.55.7.1 1.283.433 1.75 1L18.8 11c.433.6.6 1.267.5 2-.1.7-.433 1.283-1 1.75l-.05.05c-.567.433-1.217.6-1.95.5-.733-.067-1.317-.4-1.75-1l-5.1-6.55m3.5 12.85c.733 0 1.35.25 1.85.75.533.533.8 1.167.8 1.9v.05c0 .733-.267 1.35-.8 1.85-.5.533-1.117.8-1.85.8h-8.3c-.733 0-1.367-.267-1.9-.8-.5-.5-.75-1.117-.75-1.85v-.05c0-.733.25-1.367.75-1.9.533-.5 1.167-.75 1.9-.75h8.3M28.7 4.65c.267-.667.733-1.133 1.4-1.4l2.05-.05.05.05c.667.267 1.133.75 1.4 1.45.3.667.317 1.333.05 2l-3.2 7.7c-.267.667-.75 1.15-1.45 1.45-.667.267-1.333.267-2 0l-.05-.05c-.667-.267-1.15-.733-1.45-1.4-.267-.7-.267-1.383 0-2.05l3.2-7.7" fill="#FC0"/><path d="M58.15 43.6l-1.2 2.55c-1.5 2.467-3.833 4.617-7 6.45-3.167 1.767-6.133 2.683-8.9 2.75H41c-3.467.167-5.767-.833-6.9-3v-.05l-.55-.85-7.4-2.1c-1.8-.367-3.167-1.333-4.1-2.9l-.55-1.1c-.433-1.2-.467-2.433-.1-3.7l.2-.5c.367-1.167 1.033-2.133 2-2.9.2-.2.417-.367.65-.5l.2-.15.9-.35-4.65-8.1h-.05l-.4-.9c-.433-1.2-.467-2.433-.1-3.7.4-1.4 1.167-2.483 2.3-3.25l.5-.35c1.367-.733 2.817-.933 4.35-.6h.05c1.6.4 2.833 1.333 3.7 2.8l2.2 3.85 1.4-.85.05-.05c3.133-1.767 6.117-2.717 8.95-2.85h.1c3.4-.033 5.667 1.017 6.8 3.15l7.1 12.25c.9 1.433 1.067 3.083.5 4.95m-2.9 1.5c1.3-2.133 1.517-3.95.65-5.45L48.8 27.4c-.867-1.467-2.55-2.183-5.05-2.15-2.567.133-5.267 1-8.1 2.6-1.167.667-2.167 1.367-3 2.1h-.05l-3.3-5.8c-.567-.967-1.383-1.583-2.45-1.85-1.033-.233-2.017-.1-2.95.4l-.05.1c-.9.5-1.5 1.267-1.8 2.3l-.1.6c-.133.833.017 1.65.45 2.45l6.3 10.9c-1.167-.3-2.283-.183-3.35.35l-.7.6c-.6.567-1.017 1.233-1.25 2l-.1.15-.1.45c-.167 1 .017 1.933.55 2.8.633 1.067 1.55 1.717 2.75 1.95l8.3 2.35 1 1.6c.867 1.5 2.583 2.183 5.15 2.05 2.5-.067 5.167-.9 8-2.5 2.833-1.633 4.933-3.55 6.3-5.75" fill="#B8B8B8"/><path d="M55.25 45.1c-1.367 2.2-3.467 4.117-6.3 5.75-2.833 1.6-5.5 2.433-8 2.5-2.567.133-4.283-.55-5.15-2.05l-1-1.6-8.3-2.35c-1.2-.233-2.117-.883-2.75-1.95-.533-.867-.717-1.8-.55-2.8l.1-.45.1-.15c.233-.767.65-1.433 1.25-2l.7-.6c1.067-.533 2.183-.65 3.35-.35l-6.3-10.9c-.433-.8-.583-1.617-.45-2.45l.1-.6c.3-1.033.9-1.8 1.8-2.3l.05-.1c.933-.5 1.917-.633 2.95-.4 1.067.267 1.883.883 2.45 1.85l3.3 5.8h.05c.833-.733 1.833-1.433 3-2.1 2.833-1.6 5.533-2.467 8.1-2.6 2.5-.033 4.183.683 5.05 2.15l7.1 12.25c.867 1.5.65 3.317-.65 5.45" fill="#FFF"/><path d="M21.5 45.35l.55 1.1c.933 1.567 2.3 2.533 4.1 2.9l7.4 2.1.55.85v.05c1.133 2.167 3.433 3.167 6.9 3h.05c2.767-.067 5.733-.983 8.9-2.75 3.167-1.833 5.5-3.983 7-6.45l1.2-2.55c.7 1.867.3 4.05-1.2 6.55-1.5 2.467-3.833 4.617-7 6.45-3.167 1.767-6.133 2.683-8.9 2.75H41c-3.467.167-5.767-.833-6.9-3v-.05l-.55-.85-7.4-2.1c-1.8-.367-3.167-1.333-4.1-2.9-.9-1.5-1.117-3.1-.65-4.8l.1-.3" fill-opacity=".102" fill="#000"/></g></svg>