<svg viewBox="0 -30 118 118" xmlns="http://www.w3.org/2000/svg"><g fill="none" fill-rule="evenodd"><path d="M16.1 42.65v-26.6h9.15c30.467 1.367 46.067 18.117 46.8 50.25v5.75h-26.7v-4.3c-.7-11.833-5.833-19.45-15.4-22.85l.1.05c-3.533-1.5-7.8-2.267-12.8-2.3H16.1m33.35-6.3c0 .767.267 1.417.8 1.95.533.533 1.183.8 1.95.8.767 0 1.417-.267 1.95-.8.533-.533.8-1.183.8-1.95 0-.767-.267-1.417-.8-1.95-.533-.533-1.183-.8-1.95-.8-.767 0-1.417.267-1.95.8-.533.533-.8 1.183-.8 1.95M35.5 32.6c-1.033 1.067-1.55 2.35-1.55 3.85v.15c.033 1.433.55 2.65 1.55 3.65 1.067 1.067 2.35 1.6 3.85 1.6 1.167 0 2.2-.317 3.1-.95l.7-.65c1.033-1 1.567-2.217 1.6-3.65v-.15c0-1.5-.533-2.783-1.6-3.85l-.7-.6c-.9-.633-1.933-.95-3.1-.95-1.5 0-2.783.517-3.85 1.55" fill="#1EA7E1"/><path d="M35.5 32.6c1.067-1.033 2.35-1.55 3.85-1.55 1.167 0 2.2.317 3.1.95l.7.6c1.067 1.067 1.6 2.35 1.6 3.85v.15c-.033 1.433-.567 2.65-1.6 3.65l-.7.65c-.9.633-1.933.95-3.1.95-1.5 0-2.783-.533-3.85-1.6-1-1-1.517-2.217-1.55-3.65v-.15c0-1.5.517-2.783 1.55-3.85m13.95 3.75c0-.767.267-1.417.8-1.95.533-.533 1.183-.8 1.95-.8.767 0 1.417.267 1.95.8.533.533.8 1.183.8 1.95 0 .767-.267 1.417-.8 1.95-.533.533-1.183.8-1.95.8-.767 0-1.417-.267-1.95-.8-.533-.533-.8-1.183-.8-1.95" fill="#2CB8F3"/></g></svg>