<svg viewBox="0 -30 118 118" xmlns="http://www.w3.org/2000/svg"><g fill="none" fill-rule="evenodd"><path d="M16.05 50.65l.05-38.6h9.45c35.533 1.467 53.7 20.883 54.5 58.25v1.75h-42.7V68.2c-.467-8.1-3.9-13.383-10.3-15.85-3-1.2-6.667-1.767-11-1.7" fill="#E5E5E5"/><path d="M16.1 12.05v-4h9.45c35.533 1.467 53.7 20.883 54.5 58.25v4c-.8-37.367-18.967-56.783-54.5-58.25H16.1" fill="#F3F3F3"/><path d="M16.1 12.05l-.05 38.6v4h-12V4.05H16.1v8m63.95 60h3.9V84.1h-4l-38.6-.05h-8v-12h46.7" fill="#B6B6B6"/><path d="M25.75 4.05c38 1.5 57.433 22.233 58.3 62.2v1.8c1.067.033 1.983.433 2.75 1.2.767.767 1.15 1.7 1.15 2.8V84.1c0 1.1-.383 2.05-1.15 2.85-.8.767-1.75 1.15-2.85 1.15h-4l-38.6-.05h-8c-1.1 0-2.033-.383-2.8-1.15-.8-.8-1.2-1.75-1.2-2.85v-12c0-1.1.4-2.033 1.2-2.8.767-.8 1.7-1.2 2.8-1.2-.467-6.033-3.05-10.017-7.75-11.95-1.633-.633-3.483-1.067-5.55-1.3-.033 1.033-.417 1.933-1.15 2.7-.8.767-1.75 1.15-2.85 1.15h-12c-1.1 0-2.033-.383-2.8-1.15-.8-.8-1.2-1.75-1.2-2.85V4.05c0-1.1.4-2.033 1.2-2.8.767-.8 1.7-1.2 2.8-1.2H16.1c1.1 0 2.05.4 2.85 1.2.767.767 1.15 1.7 1.15 2.8h5.65m-9.65 4v-4H4.05v50.6h12v-4c4.333-.067 8 .5 11 1.7 6.4 2.467 9.833 7.75 10.3 15.85v3.85h-4v12h8l38.6.05h4V72.05h-3.9V66.3c-.8-37.367-18.967-56.783-54.5-58.25H16.1" fill="#777"/></g></svg>