<?xml version="1.0" encoding="UTF-8" standalone="no"?>
<svg viewBox="0 0 207 78" version="1.1" xmlns="http://www.w3.org/2000/svg" xmlns:xlink="http://www.w3.org/1999/xlink">
    <g id="Page-1" stroke="none" stroke-width="1" fill="none" fill-rule="evenodd">
        <g id="Group" transform="translate(-902.000000, -189.000000)">
            <g id="game" transform="translate(902.000000, 189.000000)">
                <path d="M34.45,9.2 L34.9,9.2 L40.4,9.6 L44.8,10.5 L44.9,10.5 L45,10.55 L44.95,10.55 L47.7,11.55 L47.65,11.5 C48.6166667,12 49.35,12.7166667 49.85,13.65 C50.3833333,14.6166667 50.5333333,15.6666667 50.3,16.8 L50.3,16.75 L48.4,26.7 L48.4,26.75 C48.1666667,27.65 47.7666667,28.4333333 47.2,29.1 C46.5,29.8 45.7333333,30.25 44.9,30.45 L44.85,30.45 L42.15,30.3 C40.6833333,29.7666667 39,29.3833333 37.1,29.15 C35.3666667,28.9166667 33.5166667,28.95 31.55,29.25 C27.7833333,29.8166667 25.1833333,31.1833333 23.75,33.35 L23.7,33.4 L23.7,33.45 L23.65,33.5 C22.35,36.0666667 22,39.2833333 22.6,43.15 C22.9,45.2166667 23.4,47.05 24.1,48.65 L24.15,48.8 C24.75,50.1 25.5166667,51.2 26.45,52.1 C26.5166667,52.1 26.5666667,52.1333333 26.6,52.2 C27.5,53.0666667 28.55,53.65 29.75,53.95 L34.2,54.1 L35.35,53.95 L33.25,40.1 C33.0166667,38.8 33.2833333,37.6166667 34.05,36.55 C34.85,35.4833333 35.9166667,34.85 37.25,34.65 L49,32.9 C50.3,32.6666667 51.4833333,32.95 52.55,33.75 C53.6166667,34.5166667 54.25,35.5666667 54.45,36.9 L55,40.25 L55.75,38.5 L55.8,38.55 C57.7333333,34.3833333 59.6333333,30.45 61.5,26.75 L61.55,26.55 L67.55,15.45 C67.9833333,14.6833333 68.6166667,14.0833333 69.45,13.65 C70.25,13.1833333 71.1,12.9833333 72,13.05 L83.4,13.75 C84.3,13.8166667 85.1333333,14.1166667 85.9,14.65 L85.85,14.65 C86.5833333,15.1833333 87.1166667,15.8833333 87.45,16.75 L91.9,28.1 L91.9,28.4 L96.35,41 L96.4,41.4 L97.65,45.05 L97.55,39.6 C97.4833333,34.8333333 97.5166667,30.2166667 97.65,25.75 L98.05,13.7 C98.1166667,12.5333333 98.5833333,11.5166667 99.45,10.65 C100.283333,9.81666667 101.266667,9.35 102.4,9.25 L113.8,8.3 C114.633333,8.23333333 115.433333,8.38333333 116.2,8.75 C117,9.15 117.633333,9.71666667 118.1,10.45 L121.9,16.6 L126.15,24 L126.4,24.4 L130,31.1 L132.55,23.9 L132.6,23.6 L135.65,15.45 C136.65,12.75 137.566667,10.5166667 138.4,8.75 C138.733333,7.98333333 139.266667,7.35 140,6.85 C140.7,6.31666667 141.483333,6.01666667 142.35,5.95 L153.2,5.05 C154.366667,4.95 155.433333,5.26666667 156.4,6 C157.333333,6.66666667 157.933333,7.58333333 158.2,8.75 L160.6,20.55 L161,22.8 L161.85,12.85 C161.983333,11.55 162.55,10.4666667 163.55,9.6 C164.583333,8.73333333 165.75,8.36666667 167.05,8.5 L202.65,11.6 C203.983333,11.7 205.066667,12.25 205.9,13.25 C206.733333,14.2833333 207.083333,15.4666667 206.95,16.8 L206.1,26.7 C206,28.0333333 205.45,29.1166667 204.45,29.95 C203.416667,30.75 202.25,31.1166667 200.95,31.05 L181.95,29.35 L181.85,30.25 L198.2,31.65 C199.5,31.7833333 200.6,32.35 201.5,33.35 C202.333333,34.3833333 202.683333,35.5666667 202.55,36.9 L201.75,46.55 C201.616667,47.8833333 201.05,48.9666667 200.05,49.8 C199.016667,50.6333333 197.85,50.9833333 196.55,50.85 L180.2,49.45 L179.95,52.65 L200.65,54.45 C201.983333,54.5833333 203.05,55.15 203.85,56.15 C204.716667,57.15 205.1,58.3166667 205,59.65 L204.15,69.55 C204.016667,70.8833333 203.433333,71.9666667 202.4,72.8 C201.466667,73.6666667 200.333333,74.05 199,73.95 L161.7,70.7 C160.366667,70.5666667 159.266667,70.0166667 158.4,69.05 C157.966667,68.5166667 157.666667,67.95 157.5,67.35 L150.9,67.9 C149.6,68 148.466667,67.65 147.5,66.85 L147.45,66.85 C146.45,66.0166667 145.9,64.9666667 145.8,63.7 L144.05,49.05 L142.8,52.7 L142.75,52.8 L142.7,52.9 L140.65,59.1 L140.65,59.05 C140.35,59.95 139.833333,60.7 139.1,61.3 L139.05,61.3 C138.316667,61.9333333 137.483333,62.2833333 136.55,62.35 L128.25,63.05 C127.316667,63.1166667 126.416667,62.9166667 125.55,62.45 C124.75,62.0166667 124.133333,61.4 123.7,60.6 L123.65,60.6 L120.5,54.65 L120.35,54.35 L118.6,51.05 L119.3,65.85 C119.366667,67.1166667 118.983333,68.25 118.15,69.25 C117.283333,70.2166667 116.2,70.7666667 114.9,70.9 L105.55,71.65 C105.716667,72.5166667 105.65,73.3666667 105.35,74.2 L105.3,74.25 C104.933333,75.25 104.316667,76.0166667 103.45,76.55 L103.45,76.6 C102.55,77.1333333 101.6,77.3666667 100.6,77.3 L87.85,76.55 C86.75,76.4833333 85.8,76.1 85,75.4 C84.2333333,74.7 83.7166667,73.8333333 83.45,72.8 L83.45,72.85 L82.1,67.7 L82.05,67.4 L81.2,64.65 L67.45,63.8 L66.45,66.4 L66.4,66.35 L64.2,71.8 C63.8666667,72.7333333 63.2666667,73.4833333 62.4,74.05 L62.35,74.05 C61.4833333,74.65 60.5333333,74.9 59.5,74.8 L47.15,74.05 C46.1166667,74.0166667 45.2,73.6666667 44.4,73 L44.4,72.95 L43.7,72.3 L36.5,73.7 C32.0666667,74.3666667 27.95,74.3166667 24.15,73.55 L23.85,73.5 C19.7166667,72.6333333 16.1,70.9833333 13,68.55 C9.83333333,66.25 7.18333333,63.1833333 5.05,59.35 C3.05,55.7166667 1.66666667,51.4333333 0.9,46.5 C0.133333333,41.5 0.25,36.9166667 1.25,32.75 C2.31666667,28.55 4.03333333,24.85 6.4,21.65 C8.76666667,18.45 11.6833333,15.85 15.15,13.85 L15.4,13.7 C18.8666667,11.7333333 22.7166667,10.4166667 26.95,9.75 L34.45,9.2" id="Path" fill-opacity="0.101960784" fill="#000000"></path>
                <path d="M177.85,20.35 C178.35,19.95 178.933333,19.75 179.6,19.75 L200.95,21.65 L201.8,11.7 L166.2,8.6 L161.7,61.3 L199,64.5 L199.85,54.6 L176.75,52.55 C176.083333,52.5166667 175.55,52.25 175.15,51.75 C174.716667,51.25 174.533333,50.6666667 174.6,50 L175.25,42.05 C175.316667,41.3833333 175.6,40.8333333 176.1,40.4 C176.633333,40 177.216667,39.8166667 177.85,39.85 L196.6,41.45 L197.4,31.8 L178.7,30.15 C178.033333,30.1166667 177.5,29.85 177.1,29.35 C176.666667,28.85 176.466667,28.2666667 176.5,27.6 L177,22 C177.066667,21.3333333 177.35,20.7833333 177.85,20.35 M178.9,27.8 L197.6,29.4 C198.266667,29.4666667 198.816667,29.7666667 199.25,30.3 C199.65,30.7666667 199.816667,31.3333333 199.75,32 L198.95,41.7 C198.883333,42.3333333 198.6,42.8833333 198.1,43.35 C197.6,43.7166667 197.016667,43.8833333 196.35,43.85 L177.65,42.2 L176.95,50.2 L200.1,52.2 C200.766667,52.2666667 201.283333,52.55 201.65,53.05 C202.083333,53.55 202.266667,54.1333333 202.2,54.8 L201.35,64.75 C201.283333,65.4166667 201.016667,65.95 200.55,66.35 C200.016667,66.7833333 199.433333,66.9666667 198.8,66.9 L161.45,63.65 C160.783333,63.6166667 160.266667,63.35 159.9,62.85 C159.433333,62.3166667 159.233333,61.7166667 159.3,61.05 L163.85,8.4 C163.916667,7.73333333 164.216667,7.2 164.75,6.8 C165.216667,6.36666667 165.783333,6.18333333 166.45,6.25 L202,9.35 C202.666667,9.41666667 203.233333,9.7 203.7,10.2 C204.066667,10.6666667 204.233333,11.2333333 204.2,11.9 L203.35,21.85 C203.283333,22.5166667 203,23.0666667 202.5,23.5 C202,23.9333333 201.416667,24.1166667 200.75,24.05 L179.4,22.15 L178.9,27.8" id="Shape" fill="#E55C5C"></path>
                <path d="M177.85,20.35 C177.35,20.7833333 177.066667,21.3333333 177,22 L176.5,27.6 C176.466667,28.2666667 176.666667,28.85 177.1,29.35 C177.5,29.85 178.033333,30.1166667 178.7,30.15 L197.4,31.8 L196.6,41.45 L177.85,39.85 C177.216667,39.8166667 176.633333,40 176.1,40.4 C175.6,40.8333333 175.316667,41.3833333 175.25,42.05 L174.6,50 C174.533333,50.6666667 174.716667,51.25 175.15,51.75 C175.55,52.25 176.083333,52.5166667 176.75,52.55 L199.85,54.6 L199,64.5 L161.7,61.3 L166.2,8.6 L201.8,11.7 L200.95,21.65 L179.6,19.75 C178.933333,19.75 178.35,19.95 177.85,20.35" id="Shape" fill="#C83E3E"></path>
                <path d="M181.45,25.6 L197.8,27 C199.1,27.1333333 200.2,27.7 201.1,28.7 C201.933333,29.7333333 202.283333,30.9166667 202.15,32.25 L201.35,41.9 C201.216667,43.2333333 200.65,44.3166667 199.65,45.15 C198.616667,45.9833333 197.45,46.3333333 196.15,46.2 L179.8,44.8 L179.55,48 L200.25,49.8 C201.583333,49.9333333 202.65,50.5 203.45,51.5 C204.316667,52.5 204.7,53.6666667 204.6,55 L203.75,64.95 C203.616667,66.25 203.033333,67.3166667 202,68.15 C201.066667,69.0166667 199.933333,69.4 198.6,69.3 L161.3,66.05 C159.966667,65.9166667 158.866667,65.3666667 158,64.4 C157.166667,63.3666667 156.8,62.2 156.9,60.9 L161.45,8.2 C161.583333,6.9 162.15,5.83333333 163.15,5 C164.183333,4.1 165.35,3.71666667 166.65,3.85 L202.25,6.95 C203.583333,7.05 204.666667,7.6 205.5,8.6 C206.333333,9.63333333 206.683333,10.8166667 206.55,12.15 L205.7,22.05 C205.6,23.3833333 205.05,24.4666667 204.05,25.3 C203.016667,26.1 201.85,26.4666667 200.55,26.4 L181.55,24.7 L181.45,25.6 M178.9,27.8 L179.4,22.15 L200.75,24.05 C201.416667,24.1166667 202,23.9333333 202.5,23.5 C203,23.0666667 203.283333,22.5166667 203.35,21.85 L204.2,11.9 C204.233333,11.2333333 204.066667,10.6666667 203.7,10.2 C203.233333,9.7 202.666667,9.41666667 202,9.35 L166.45,6.25 C165.783333,6.18333333 165.216667,6.36666667 164.75,6.8 C164.216667,7.2 163.916667,7.73333333 163.85,8.4 L159.3,61.05 C159.233333,61.7166667 159.433333,62.3166667 159.9,62.85 C160.266667,63.35 160.783333,63.6166667 161.45,63.65 L198.8,66.9 C199.433333,66.9666667 200.016667,66.7833333 200.55,66.35 C201.016667,65.95 201.283333,65.4166667 201.35,64.75 L202.2,54.8 C202.266667,54.1333333 202.083333,53.55 201.65,53.05 C201.283333,52.55 200.766667,52.2666667 200.1,52.2 L176.95,50.2 L177.65,42.2 L196.35,43.85 C197.016667,43.8833333 197.6,43.7166667 198.1,43.35 C198.6,42.8833333 198.883333,42.3333333 198.95,41.7 L199.75,32 C199.816667,31.3333333 199.65,30.7666667 199.25,30.3 C198.816667,29.7666667 198.266667,29.4666667 197.6,29.4 L178.9,27.8" id="Shape" fill="#8A2323"></path>
                <path d="M117.7,5.8 L121.5,11.95 L125.75,19.35 L126,19.75 L129.6,26.45 L132.15,19.25 L132.2,18.95 L135.25,10.8 C136.25,8.13333333 137.166667,5.9 138,4.1 C138.333333,3.33333333 138.866667,2.7 139.6,2.2 C140.3,1.66666667 141.083333,1.36666667 141.95,1.3 L152.8,0.4 C153.966667,0.3 155.033333,0.616666667 156,1.35 C156.933333,2.01666667 157.533333,2.93333333 157.8,4.1 L160.2,15.9 L162.5,29.5 L162.5,29.55 L164.55,43.6 L166.4,56.9 C166.533333,57.8 166.433333,58.65 166.1,59.45 C165.733333,60.25 165.183333,60.9 164.45,61.4 C163.75,61.9333333 162.95,62.2333333 162.05,62.3 L150.5,63.25 C149.2,63.35 148.066667,63 147.1,62.2 L147.05,62.2 C146.05,61.3666667 145.5,60.3166667 145.4,59.05 L143.65,44.4 C143.183333,45.6333333 142.766667,46.85 142.4,48.05 L142.35,48.15 L142.3,48.25 L140.25,54.45 L140.25,54.4 C139.95,55.3 139.433333,56.05 138.7,56.65 L138.65,56.65 C137.916667,57.2833333 137.083333,57.6333333 136.15,57.7 L127.85,58.4 C126.916667,58.4666667 126.016667,58.2666667 125.15,57.8 C124.35,57.3666667 123.733333,56.75 123.3,55.95 L123.25,55.95 L120.1,50 L119.95,49.7 L118.2,46.4 L118.9,61.2 C118.966667,62.5 118.583333,63.6333333 117.75,64.6 C116.883333,65.5666667 115.8,66.1166667 114.5,66.25 L102.95,67.2 L100.45,66.75 C99.6833333,66.35 99.0833333,65.7666667 98.65,65 L98.6,65 C98.0666667,64.2666667 97.7833333,63.4666667 97.75,62.6 L97.35,49.2 L97.15,34.95 C97.0833333,30.1833333 97.1166667,25.5666667 97.25,21.1 L97.65,9.05 C97.7166667,7.88333333 98.1833333,6.86666667 99.05,6 C99.8833333,5.16666667 100.866667,4.7 102,4.6 L113.4,3.65 C114.233333,3.58333333 115.033333,3.73333333 115.8,4.1 C116.6,4.5 117.233333,5.06666667 117.7,5.8 M114.8,6.3 L113.5,6.05 L102.2,7 C101.633333,7.03333333 101.133333,7.26666667 100.7,7.7 C100.266667,8.13333333 100.033333,8.65 100,9.25 C99.8,12.7833333 99.6833333,16.75 99.65,21.15 L99.55,34.95 L99.8,49.1 L100.15,62.5 C100.15,62.9333333 100.266667,63.3333333 100.5,63.7 C100.766667,64.1 101.116667,64.3833333 101.55,64.55 L102.75,64.8 L114.3,63.85 C114.933333,63.7833333 115.483333,63.5166667 115.95,63.05 C116.35,62.55 116.55,61.9833333 116.55,61.35 L115.75,44.55 L115.5,36.1 L118.45,41.7 L118.45,41.75 L122.25,48.85 L125.35,54.8 C125.55,55.2 125.883333,55.5166667 126.35,55.75 L127.65,56 L135.9,55.3 C136.4,55.2666667 136.833333,55.1 137.2,54.8 L138,53.7 L140.1,47.4 L140.05,47.45 L142.65,39.75 L144.6,33.65 L145.7,42.1 L147.75,58.75 C147.816667,59.3833333 148.1,59.9166667 148.6,60.35 C149.1,60.75 149.666667,60.9333333 150.3,60.9 L161.85,59.95 L163.1,59.5 L163.85,58.5 L164,57.2 L162.2,43.95 L160.15,29.9 L157.9,16.35 L155.5,4.65 C155.333333,4.05 155.016667,3.58333333 154.55,3.25 C154.05,2.91666667 153.516667,2.75 152.95,2.75 L142.1,3.65 C141.7,3.68333333 141.333333,3.83333333 141,4.1 C140.6,4.36666667 140.333333,4.7 140.2,5.1 C139.366667,6.86666667 138.45,9.06666667 137.45,11.7 L134.45,20.05 L131.25,29.15 L130.1,32.55 L128.45,29.4 L123.9,20.9 L119.45,13.15 L115.7,7.15 C115.466667,6.75 115.166667,6.46666667 114.8,6.3" id="Shape" fill="#8A2323"></path>
                <path d="M114.8,6.3 C115.166667,6.46666667 115.466667,6.75 115.7,7.15 L119.45,13.15 L123.9,20.9 L128.45,29.4 L130.1,32.55 L131.25,29.15 L134.45,20.05 L137.45,11.7 C138.45,9.06666667 139.366667,6.86666667 140.2,5.1 C140.333333,4.7 140.6,4.36666667 141,4.1 C141.333333,3.83333333 141.7,3.68333333 142.1,3.65 L152.95,2.75 C153.516667,2.75 154.05,2.91666667 154.55,3.25 C155.016667,3.58333333 155.333333,4.05 155.5,4.65 L157.9,16.35 L160.15,29.9 L162.2,43.95 L164,57.2 L163.85,58.5 L163.1,59.5 L161.85,59.95 L150.3,60.9 C149.666667,60.9333333 149.1,60.75 148.6,60.35 C148.1,59.9166667 147.816667,59.3833333 147.75,58.75 L145.7,42.1 L144.6,33.65 L142.65,39.75 L140.05,47.45 L140.1,47.4 L138,53.7 L137.2,54.8 C136.833333,55.1 136.4,55.2666667 135.9,55.3 L127.65,56 L126.35,55.75 C125.883333,55.5166667 125.55,55.2 125.35,54.8 L122.25,48.85 L118.45,41.75 L118.45,41.7 L115.5,36.1 L115.75,44.55 L116.55,61.35 C116.55,61.9833333 116.35,62.55 115.95,63.05 C115.483333,63.5166667 114.933333,63.7833333 114.3,63.85 L102.75,64.8 L101.55,64.55 C101.116667,64.3833333 100.766667,64.1 100.5,63.7 C100.266667,63.3333333 100.15,62.9333333 100.15,62.5 L99.8,49.1 L99.55,34.95 L99.65,21.15 C99.6833333,16.75 99.8,12.7833333 100,9.25 C100.033333,8.65 100.266667,8.13333333 100.7,7.7 C101.133333,7.26666667 101.633333,7.03333333 102.2,7 L113.5,6.05 L114.8,6.3 M113.7,8.45 L102.35,9.4 L102.4,9.45 L102,21.2 C101.9,25.5666667 101.883333,30.1166667 101.95,34.85 L101.95,34.9 L102.2,49.05 L102.55,62.4 L114.1,61.45 L113.4,44.65 L113.1,36.2 C113.1,35.6333333 113.25,35.1166667 113.55,34.65 L114.85,33.75 L116.45,33.95 C116.916667,34.1166667 117.3,34.4666667 117.6,35 L120.55,40.6 L124.3,47.75 L124.35,47.9 L127.45,53.65 L135.75,52.9 L137.7,47 L137.8,46.65 L140.35,39 L142.4,32.95 C142.533333,32.4166667 142.833333,32 143.3,31.7 C143.766667,31.4 144.266667,31.2666667 144.8,31.3 C145.366667,31.3666667 145.833333,31.5833333 146.2,31.95 C146.666667,32.35 146.933333,32.8333333 147,33.4 L148.1,41.75 L148.1,41.9 L150.1,58.5 L161.65,57.55 L159.9,44.3 L157.75,30.25 L155.5,16.8 C154.733333,12.5 153.966667,8.63333333 153.2,5.2 L153.15,5.15 L142.3,6.05 L139.7,12.55 C138.7,15.0833333 137.683333,17.85 136.65,20.85 L136.6,20.9 L133.55,29.9 L133.45,30.05 L132.4,33.25 C132.166667,33.9166667 131.783333,34.4 131.25,34.7 L129.4,34.85 C128.766667,34.65 128.316667,34.25 128.05,33.65 L126.35,30.5 L121.9,22.1 L121.85,22.05 L117.45,14.4 L113.7,8.45" id="Shape" fill="#E55C5C"></path>
                <path d="M113.7,8.45 L117.45,14.4 L121.85,22.05 L121.9,22.1 L126.35,30.5 L128.05,33.65 C128.316667,34.25 128.766667,34.65 129.4,34.85 L131.25,34.7 C131.783333,34.4 132.166667,33.9166667 132.4,33.25 L133.45,30.05 L133.55,29.9 L136.6,20.9 L136.65,20.85 C137.683333,17.85 138.7,15.0833333 139.7,12.55 L142.3,6.05 L153.15,5.15 L153.2,5.2 C153.966667,8.63333333 154.733333,12.5 155.5,16.8 L157.75,30.25 L159.9,44.3 L161.65,57.55 L150.1,58.5 L148.1,41.9 L148.1,41.75 L147,33.4 C146.933333,32.8333333 146.666667,32.35 146.2,31.95 C145.833333,31.5833333 145.366667,31.3666667 144.8,31.3 C144.266667,31.2666667 143.766667,31.4 143.3,31.7 C142.833333,32 142.533333,32.4166667 142.4,32.95 L140.35,39 L137.8,46.65 L137.7,47 L135.75,52.9 L127.45,53.65 L124.35,47.9 L124.3,47.75 L120.55,40.6 L117.6,35 C117.3,34.4666667 116.916667,34.1166667 116.45,33.95 L114.85,33.75 L113.55,34.65 C113.25,35.1166667 113.1,35.6333333 113.1,36.2 L113.4,44.65 L114.1,61.45 L102.55,62.4 L102.2,49.05 L101.95,34.9 L101.95,34.85 C101.883333,30.1166667 101.9,25.5666667 102,21.2 L102.4,9.45 L102.35,9.4 L113.7,8.45" id="Shape" fill="#C83E3E"></path>
                <path d="M49.45,47.05 L55.35,33.85 L55.4,33.9 C57.3333333,29.7333333 59.2333333,25.8 61.1,22.1 L61.15,21.9 C63.1166667,18.1333333 65.1166667,14.4333333 67.15,10.8 C67.5833333,10.0333333 68.2166667,9.45 69.05,9.05 L69.05,9 C69.85,8.53333333 70.7,8.33333333 71.6,8.4 L83,9.1 C83.9,9.16666667 84.7333333,9.46666667 85.5,10 L85.45,10 C86.1833333,10.5333333 86.7166667,11.2333333 87.05,12.1 L91.5,23.45 L91.5,23.75 L95.95,36.35 L96,36.75 L100.35,50.5 L105,66.65 L105.05,66.6 C105.316667,67.6 105.283333,68.5833333 104.95,69.55 L104.9,69.6 C104.533333,70.6 103.916667,71.3666667 103.05,71.9 L103.05,71.95 C102.15,72.4833333 101.2,72.7166667 100.2,72.65 L87.45,71.9 C86.35,71.8333333 85.4,71.45 84.6,70.75 C83.8333333,70.05 83.3166667,69.1833333 83.05,68.15 L83.05,68.2 L81.7,63.05 L81.65,62.75 L80.8,60 L67.05,59.15 L66.05,61.75 L66,61.7 L63.8,67.15 C63.4666667,68.0833333 62.8666667,68.8333333 62,69.4 L61.95,69.4 C61.0833333,70 60.1333333,70.25 59.1,70.15 L46.75,69.4 C45.7166667,69.3666667 44.8,69.0166667 44,68.35 L44,68.3 C43.1666667,67.6333333 42.6333333,66.8166667 42.4,65.85 L42.4,65.8 C42.1666667,64.7666667 42.2666667,63.7666667 42.7,62.8 L42.65,62.85 L49.25,47.35 L49.45,47.05 M45.55,66.5 C45.9166667,66.8333333 46.35,67.0166667 46.85,67.05 L59.25,67.75 L60.7,67.45 C61.1,67.15 61.3833333,66.7666667 61.55,66.3 L63.8,60.85 L65.55,56.7 L82.7,57.75 L83.95,62.1 L83.95,62.05 L85.35,67.65 C85.4833333,68.1833333 85.75,68.6166667 86.15,68.95 C86.55,69.2833333 87.0166667,69.4666667 87.55,69.5 L100.3,70.3 L101.8,69.9 L102.7,68.75 C102.833333,68.2833333 102.833333,67.7833333 102.7,67.25 L98.1,51.15 L93.7,37.1 L89.3,24.6 C87.8666667,20.6333333 86.3666667,16.7666667 84.8,13 C84.6666667,12.5666667 84.4166667,12.2166667 84.05,11.95 C83.65,11.6833333 83.2166667,11.5333333 82.75,11.5 L71.4,10.8 L70.15,11.1 C69.75,11.3 69.4166667,11.6 69.15,12 C67.15,15.6 65.2166667,19.25 63.35,22.95 L63.35,23 L57.55,34.85 L51.45,48.3 L44.85,63.75 C44.65,64.2166667 44.6,64.7166667 44.7,65.25 C44.8333333,65.7166667 45.1166667,66.1333333 45.55,66.5 M78.1,39.85 L78.05,39.9 L79.05,43.25 L70.85,42.75 L72.25,39.55 L74.75,34 L74.8,33.95 L75.65,32.2 L76.25,34.1 L78.1,39.85" id="Shape" fill="#8A2323"></path>
                <path d="M78.1,39.85 L76.25,34.1 L75.65,32.2 L74.8,33.95 L74.75,34 L72.25,39.55 L70.85,42.75 L79.05,43.25 L78.05,39.9 L78.1,39.85 M53.65,49.25 L53.65,49.3 L47,64.65 L59.35,65.4 L61.5,60.2 L61.55,59.9 L63.35,55.8 C63.55,55.3333333 63.85,54.95 64.25,54.65 C64.6833333,54.3833333 65.15,54.2666667 65.65,54.3 L82.85,55.35 C83.35,55.3833333 83.8,55.5833333 84.2,55.95 C84.6,56.2833333 84.8666667,56.6833333 85,57.15 L86.15,61.2 L86.2,61.35 L87.7,67.15 L100.45,67.9 L95.8,51.85 L95.8,51.9 L91.35,37.9 L91.3,37.6 L87.1,25.5 L87.05,25.45 L82.6,13.9 L71.3,13.15 C69.3333333,16.65 67.4166667,20.2333333 65.55,23.9 L65.45,24.15 C63.5833333,27.8166667 61.6666667,31.7166667 59.7,35.85 L53.65,49.25 M45.55,66.5 C45.1166667,66.1333333 44.8333333,65.7166667 44.7,65.25 C44.6,64.7166667 44.65,64.2166667 44.85,63.75 L51.45,48.3 L57.55,34.85 L63.35,23 L63.35,22.95 C65.2166667,19.25 67.15,15.6 69.15,12 C69.4166667,11.6 69.75,11.3 70.15,11.1 L71.4,10.8 L82.75,11.5 C83.2166667,11.5333333 83.65,11.6833333 84.05,11.95 C84.4166667,12.2166667 84.6666667,12.5666667 84.8,13 C86.3666667,16.7666667 87.8666667,20.6333333 89.3,24.6 L93.7,37.1 L98.1,51.15 L102.7,67.25 C102.833333,67.7833333 102.833333,68.2833333 102.7,68.75 L101.8,69.9 L100.3,70.3 L87.55,69.5 C87.0166667,69.4666667 86.55,69.2833333 86.15,68.95 C85.75,68.6166667 85.4833333,68.1833333 85.35,67.65 L83.95,62.05 L83.95,62.1 L82.7,57.75 L65.55,56.7 L63.8,60.85 L61.55,66.3 C61.3833333,66.7666667 61.1,67.15 60.7,67.45 L59.25,67.75 L46.85,67.05 C46.35,67.0166667 45.9166667,66.8333333 45.55,66.5 M73.45,31.15 C73.65,30.7166667 73.9666667,30.3666667 74.4,30.1 C74.8,29.8333333 75.2666667,29.7333333 75.8,29.8 C76.2666667,29.8 76.7,29.9666667 77.1,30.3 C77.4666667,30.5666667 77.7333333,30.9333333 77.9,31.4 L78.5,33.3 L78.5,33.35 L78.55,33.45 L80.35,39.2 L81.35,42.6 C81.5166667,43.1333333 81.5,43.6166667 81.3,44.05 C81.1,44.55 80.7833333,44.95 80.35,45.25 C79.9166667,45.55 79.45,45.6833333 78.95,45.65 L70.7,45.15 C70.1666667,45.1166667 69.6833333,44.9333333 69.25,44.6 C68.8833333,44.2333333 68.65,43.8166667 68.55,43.35 C68.3833333,42.85 68.4333333,42.35 68.7,41.85 L70.1,38.55 L72.6,33.05 L72.6,32.95 L72.6,32.9 L73.45,31.15" id="Shape" fill="#E55C5C"></path>
                <path d="M73.45,31.15 L72.6,32.9 L72.6,32.95 L72.6,33.05 L70.1,38.55 L68.7,41.85 C68.4333333,42.35 68.3833333,42.85 68.55,43.35 C68.65,43.8166667 68.8833333,44.2333333 69.25,44.6 C69.6833333,44.9333333 70.1666667,45.1166667 70.7,45.15 L78.95,45.65 C79.45,45.6833333 79.9166667,45.55 80.35,45.25 C80.7833333,44.95 81.1,44.55 81.3,44.05 C81.5,43.6166667 81.5166667,43.1333333 81.35,42.6 L80.35,39.2 L78.55,33.45 L78.5,33.35 L78.5,33.3 L77.9,31.4 C77.7333333,30.9333333 77.4666667,30.5666667 77.1,30.3 C76.7,29.9666667 76.2666667,29.8 75.8,29.8 C75.2666667,29.7333333 74.8,29.8333333 74.4,30.1 C73.9666667,30.3666667 73.65,30.7166667 73.45,31.15 M53.65,49.25 L59.7,35.85 C61.6666667,31.7166667 63.5833333,27.8166667 65.45,24.15 L65.55,23.9 C67.4166667,20.2333333 69.3333333,16.65 71.3,13.15 L82.6,13.9 L87.05,25.45 L87.1,25.5 L91.3,37.6 L91.35,37.9 L95.8,51.9 L95.8,51.85 L100.45,67.9 L87.7,67.15 L86.2,61.35 L86.15,61.2 L85,57.15 C84.8666667,56.6833333 84.6,56.2833333 84.2,55.95 C83.8,55.5833333 83.35,55.3833333 82.85,55.35 L65.65,54.3 C65.15,54.2666667 64.6833333,54.3833333 64.25,54.65 C63.85,54.95 63.55,55.3333333 63.35,55.8 L61.55,59.9 L61.5,60.2 L59.35,65.4 L47,64.65 L53.65,49.3 L53.65,49.25" id="Shape" fill="#C83E3E"></path>
                <path d="M44.5,5.9 L44.55,5.9 L47.3,6.9 L47.25,6.85 C48.2166667,7.35 48.95,8.08333333 49.45,9.05 C49.9833333,9.98333333 50.1333333,11.0166667 49.9,12.15 L49.9,12.1 L48,22.05 L48,22.1 C47.7666667,23 47.3666667,23.7833333 46.8,24.45 C46.1,25.15 45.3333333,25.6 44.5,25.8 L44.45,25.8 L41.75,25.65 L36.7,24.5 C34.9666667,24.2666667 33.1166667,24.3 31.15,24.6 C27.3833333,25.1666667 24.7833333,26.5333333 23.35,28.7 L23.3,28.75 L23.3,28.8 L23.25,28.85 C21.95,31.4166667 21.6,34.65 22.2,38.55 C22.5,40.5833333 23,42.4 23.7,44 L23.75,44.15 C24.35,45.45 25.1166667,46.55 26.05,47.45 L26.2,47.55 C27.1,48.4166667 28.15,49 29.35,49.3 L33.8,49.45 L34.95,49.3 L32.85,35.45 C32.6166667,34.15 32.8833333,32.9666667 33.65,31.9 C34.45,30.8333333 35.5166667,30.2166667 36.85,30.05 L48.6,28.25 C49.9,28.0166667 51.0833333,28.3 52.15,29.1 C53.2166667,29.8666667 53.85,30.9166667 54.05,32.25 L58,58.15 C58.1666667,59.0833333 58.0166667,60 57.55,60.9 C57.1166667,61.8 56.4833333,62.5 55.65,63 L55.7,63 C54.2333333,63.8666667 51.8,64.9 48.4,66.1 C45.1333333,67.3333333 41.0333333,68.3166667 36.1,69.05 C31.6666667,69.7166667 27.55,69.6666667 23.75,68.9 L23.45,68.85 C19.3166667,67.9833333 15.7,66.3333333 12.6,63.9 C9.43333333,61.6 6.78333333,58.5333333 4.65,54.7 C2.65,51.0666667 1.26666667,46.7833333 0.5,41.85 C-0.266666667,36.85 -0.15,32.2666667 0.85,28.1 C1.91666667,23.9 3.63333333,20.2 6,17 C8.36666667,13.8 11.2833333,11.2 14.75,9.2 L15,9.05 C18.4666667,7.08333333 22.3166667,5.76666667 26.55,5.1 L34.05,4.55 L34.5,4.55 L40,4.95 L44.4,5.85 L44.5,5.9 M34.05,6.9 L26.9,7.5 C23,8.1 19.4166667,9.3 16.15,11.1 C12.85,13 10.1,15.4333333 7.9,18.4 C5.66666667,21.3666667 4.1,24.8 3.2,28.7 C2.3,32.5333333 2.2,36.8 2.9,41.5 C3.6,46.1 4.9,50.1333333 6.8,53.6 C8.7,57.0333333 11.1,59.85 14,62.05 L14,62 C16.8666667,64.2 20.1833333,65.7 23.95,66.5 L23.95,66.45 C27.55,67.25 31.4833333,67.35 35.75,66.75 C40.4833333,66.0166667 44.4333333,65.0666667 47.6,63.9 C50.7666667,62.7333333 53.05,61.7333333 54.45,60.9 L55.4,59.9 L55.65,58.5 L51.7,32.6 C51.5666667,31.9333333 51.25,31.4 50.75,31 C50.2166667,30.6333333 49.6333333,30.5 49,30.6 L37.2,32.4 C36.5333333,32.5 36,32.8 35.6,33.3 C35.2,33.8333333 35.05,34.4333333 35.15,35.1 L37.65,51.25 L37.5,51.25 L34.2,51.8 L28.65,51.65 C27.1166667,51.1833333 25.7666667,50.4 24.6,49.3 C23.3666667,48.2 22.3833333,46.8166667 21.65,45.15 L21.65,45.2 C20.7833333,43.3333333 20.1666667,41.2333333 19.8,38.9 C19.1,34.2333333 19.6,30.4166667 21.3,27.45 C23.0333333,24.6833333 26.2,22.95 30.8,22.25 C33,21.8833333 35.0833333,21.85 37.05,22.15 C39.0833333,22.4166667 40.9,22.8166667 42.5,23.35 L43.8,23.45 C44.2666667,23.3833333 44.6666667,23.1833333 45,22.85 C45.3333333,22.4833333 45.55,22.05 45.65,21.55 L47.6,11.7 C47.6666667,11.1 47.5833333,10.5833333 47.35,10.15 C47.1166667,9.61666667 46.7666667,9.25 46.3,9.05 C45.7666667,8.78333333 44.95,8.48333333 43.85,8.15 L43.75,8.15 L39.65,7.3 L34.05,6.9" id="Shape" fill="#8A2323"></path>
                <path d="M27.25,9.85 L33.95,9.3 L39.3,9.65 L39.35,9.65 L43,10.4 L43.1,10.45 L43.15,10.5 L45.2,11.2 L43.25,21.15 C41.5166667,20.5166667 39.5666667,20.05 37.4,19.75 C35.2,19.45 32.8833333,19.4833333 30.45,19.85 C25.0833333,20.6833333 21.4,22.7333333 19.4,26 L19.3,26.2 L19.25,26.25 C17.2833333,29.6833333 16.6833333,34.0333333 17.45,39.3 C17.8833333,41.8666667 18.55,44.15 19.45,46.15 L19.55,46.3 C20.4166667,48.2333333 21.5666667,49.8166667 23,51.05 L23.15,51.25 C24.5166667,52.45 26.05,53.3166667 27.75,53.85 L28.05,53.95 L34.55,54.15 L37.9,53.65 L37.95,53.65 L38.35,53.5 C38.9166667,53.3 39.35,52.9333333 39.65,52.4 C39.95,51.9666667 40.0833333,51.4666667 40.05,50.9 L37.55,34.75 L49.35,32.95 L53.3,58.85 L46.8,61.65 C43.7666667,62.75 39.9666667,63.65 35.4,64.35 C31.4333333,64.95 27.7666667,64.8666667 24.4,64.1 L24.3,64.05 C20.9666667,63.3833333 18.0166667,62.0833333 15.45,60.15 L15.45,60.1 C12.7833333,58.1333333 10.5833333,55.5666667 8.85,52.4 C7.11666667,49.2 5.9,45.45 5.2,41.15 C4.56666667,36.75 4.66666667,32.7666667 5.5,29.2 C6.36666667,25.6333333 7.8,22.5166667 9.8,19.85 L9.8,19.8 C11.8,17.1 14.3166667,14.9 17.35,13.2 L17.4,13.15 C20.3666667,11.4833333 23.65,10.3833333 27.25,9.85" id="Shape" fill="#C83E3E"></path>
                <path d="M27.25,9.85 C23.65,10.3833333 20.3666667,11.4833333 17.4,13.15 L17.35,13.2 C14.3166667,14.9 11.8,17.1 9.8,19.8 L9.8,19.85 C7.8,22.5166667 6.36666667,25.6333333 5.5,29.2 C4.66666667,32.7666667 4.56666667,36.75 5.2,41.15 C5.9,45.45 7.11666667,49.2 8.85,52.4 C10.5833333,55.5666667 12.7833333,58.1333333 15.45,60.1 L15.45,60.15 C18.0166667,62.0833333 20.9666667,63.3833333 24.3,64.05 L24.4,64.1 C27.7666667,64.8666667 31.4333333,64.95 35.4,64.35 C39.9666667,63.65 43.7666667,62.75 46.8,61.65 L53.3,58.85 L49.35,32.95 L37.55,34.75 L40.05,50.9 C40.0833333,51.4666667 39.95,51.9666667 39.65,52.4 C39.35,52.9333333 38.9166667,53.3 38.35,53.5 L37.95,53.65 L37.9,53.65 L34.55,54.15 L28.05,53.95 L27.75,53.85 C26.05,53.3166667 24.5166667,52.45 23.15,51.25 L23,51.05 C21.5666667,49.8166667 20.4166667,48.2333333 19.55,46.3 L19.45,46.15 C18.55,44.15 17.8833333,41.8666667 17.45,39.3 C16.6833333,34.0333333 17.2833333,29.6833333 19.25,26.25 L19.3,26.2 L19.4,26 C21.4,22.7333333 25.0833333,20.6833333 30.45,19.85 C32.8833333,19.4833333 35.2,19.45 37.4,19.75 C39.5666667,20.05 41.5166667,20.5166667 43.25,21.15 L45.2,11.2 L43.15,10.5 L43.1,10.45 L43,10.4 L39.35,9.65 L39.3,9.65 L33.95,9.3 L27.25,9.85 M34.05,6.9 L39.65,7.3 L43.75,8.15 L43.85,8.15 C44.95,8.48333333 45.7666667,8.78333333 46.3,9.05 C46.7666667,9.25 47.1166667,9.61666667 47.35,10.15 C47.5833333,10.5833333 47.6666667,11.1 47.6,11.7 L45.65,21.55 C45.55,22.05 45.3333333,22.4833333 45,22.85 C44.6666667,23.1833333 44.2666667,23.3833333 43.8,23.45 L42.5,23.35 C40.9,22.8166667 39.0833333,22.4166667 37.05,22.15 C35.0833333,21.85 33,21.8833333 30.8,22.25 C26.2,22.95 23.0333333,24.6833333 21.3,27.45 C19.6,30.4166667 19.1,34.2333333 19.8,38.9 C20.1666667,41.2333333 20.7833333,43.3333333 21.65,45.2 L21.65,45.15 C22.3833333,46.8166667 23.3666667,48.2 24.6,49.3 C25.7666667,50.4 27.1166667,51.1833333 28.65,51.65 L34.2,51.8 L37.5,51.25 L37.65,51.25 L35.15,35.1 C35.05,34.4333333 35.2,33.8333333 35.6,33.3 C36,32.8 36.5333333,32.5 37.2,32.4 L49,30.6 C49.6333333,30.5 50.2166667,30.6333333 50.75,31 C51.25,31.4 51.5666667,31.9333333 51.7,32.6 L55.65,58.5 L55.4,59.9 L54.45,60.9 C53.05,61.7333333 50.7666667,62.7333333 47.6,63.9 C44.4333333,65.0666667 40.4833333,66.0166667 35.75,66.75 C31.4833333,67.35 27.55,67.25 23.95,66.45 L23.95,66.5 C20.1833333,65.7 16.8666667,64.2 14,62 L14,62.05 C11.1,59.85 8.7,57.0333333 6.8,53.6 C4.9,50.1333333 3.6,46.1 2.9,41.5 C2.2,36.8 2.3,32.5333333 3.2,28.7 C4.1,24.8 5.66666667,21.3666667 7.9,18.4 C10.1,15.4333333 12.85,13 16.15,11.1 C19.4166667,9.3 23,8.1 26.9,7.5 L34.05,6.9" id="Shape" fill="#E55C5C"></path>
            </g>
        </g>
    </g>
</svg>
