<?xml version="1.0" encoding="UTF-8" standalone="no"?>
<svg viewBox="0 0 173 72" version="1.1" xmlns="http://www.w3.org/2000/svg" xmlns:xlink="http://www.w3.org/1999/xlink">
    <g id="Page-1" stroke="none" stroke-width="1" fill="none" fill-rule="evenodd">
        <path d="M69.95,13.7 C70.8833333,14.6333333 71.45,15.7666667 71.65,17.1 L71.65,17.15 L71.7,17.75 L72.9,13.4 C73.2,12.2333333 73.7833333,11.2666667 74.65,10.5 C75.4166667,9.73333333 76.3833333,9.25 77.55,9.05 C78.65,8.78333333 79.75,8.88333333 80.85,9.35 L91.8,13.55 L92.65,13.35 L92.6,13.35 L122.6,7.35 L122.55,7.35 L125.85,7.6 L126.1,7.7 L126.55,7.6 L126.6,7.6 L137.75,5.85 L138.05,5.8 C140.95,5.4 143.733333,5.33333333 146.4,5.6 C152,6.06666667 156.733333,8.21666667 160.6,12.05 L160.65,12.05 L160.75,12.15 L160.75,12.2 C163.25,14.7666667 165.016667,17.9666667 166.05,21.8 L166.05,21.9 L166.2,22.55 L166.2,22.6 L166.35,23.75 C167.183333,29.75 165.916667,35.35 162.55,40.55 L170.4,48.6 C171.533333,49.7666667 172.1,51.1833333 172.1,52.85 L172.1,52.9 C172.033333,54.5333333 171.416667,55.9333333 170.25,57.1 L159.75,67.1 C158.95,67.8666667 158.05,68.3666667 157.05,68.6 L157,68.6 L153.9,68.55 L153.85,68.5 C152.816667,68.1666667 151.933333,67.6166667 151.2,66.85 L146,61.15 L145.8,64.45 C145.733333,65.6833333 145.333333,66.8 144.6,67.8 L144.55,67.85 C143.75,68.85 142.783333,69.5333333 141.65,69.9 L141.65,69.85 L138.1,69.95 L124.05,65.65 L124,65.6 L123.05,65.25 C122.083333,65.8833333 120.983333,66.2 119.75,66.2 L92.75,66.2 C91.65,66.2 90.65,65.9333333 89.75,65.4 L89.7,65.35 C88.8,64.8166667 88.0833333,64.0833333 87.55,63.15 C86.9833333,62.1833333 86.7166667,61.15 86.75,60.05 L86.85,56.65 L84.45,64.65 L84.4,64.7 C83.9,66.1666667 83.0166667,67.2833333 81.75,68.05 L81.75,68.1 C80.3833333,68.8666667 78.95,69.1 77.45,68.8 L58.45,64.8 L58.4,64.8 C57.1666667,64.5 56.1333333,63.9166667 55.3,63.05 C54.4333333,62.15 53.9166667,61.1 53.75,59.9 L53,55.25 C51.8666667,57.3166667 50.5333333,59.25 49,61.05 L48.9,61.15 C43.3666667,68.2833333 35.2333333,71.7833333 24.5,71.65 L24.45,71.65 C12.75,71.3166667 5.46666667,65.9166667 2.6,55.45 L2.45,54.7 C0.85,46.5 0.5,38.3 1.4,30.1 C2.63333333,18.4333333 7.11666667,10 14.85,4.8 L15.15,4.6 L15.25,4.55 C20.95,1.01666667 28.3333333,-0.0833333333 37.4,1.25 L37.5,1.25 L38.25,1.45 L38.3,1.45 C43.9666667,3.18333333 48.3833333,6.03333333 51.55,10 C52.1833333,9.86666667 52.85,9.86666667 53.55,10 L66.55,12 C67.85,12.1666667 68.9833333,12.7333333 69.95,13.7 M66.25,13.95 L53.25,11.95 C52.3833333,11.8166667 51.5833333,11.95 50.85,12.35 L50.8,12.4 C47.8333333,8.13333333 43.4666667,5.11666667 37.7,3.35 L37.1,3.2 C28.6,1.96666667 21.65,2.98333333 16.25,6.25 L15.95,6.45 C8.75,11.3833333 4.56666667,19.3333333 3.4,30.3 C2.5,38.4 2.85,46.4833333 4.45,54.55 L4.5,54.8 C7.1,64.4333333 13.7666667,69.3833333 24.5,69.65 C34.7,69.7833333 42.3833333,66.4333333 47.55,59.6 L47.45,59.75 C50.3833333,56.3166667 52.5166667,52.4 53.85,48 L55.7,59.55 C55.8333333,60.35 56.1833333,61.05 56.75,61.65 C57.3166667,62.25 58.0166667,62.65 58.85,62.85 L77.85,66.85 C78.85,67.05 79.8,66.8833333 80.7,66.35 C81.5666667,65.8166667 82.1666667,65.05 82.5,64.05 L89.2,41.9 L88.75,60.1 C88.7166667,60.8333333 88.8833333,61.5166667 89.25,62.15 C89.6166667,62.7833333 90.1166667,63.2833333 90.75,63.65 C91.35,64.0166667 92.0166667,64.2 92.75,64.2 L119.75,64.2 C120.716667,64.2 121.566667,63.9 122.3,63.3 L122.9,62.7 C123.366667,63.1666667 123.933333,63.5 124.6,63.7 L138.65,68 L141.05,67.95 C141.816667,67.7166667 142.466667,67.2666667 143,66.6 C143.5,65.9333333 143.766667,65.1833333 143.8,64.35 L144.25,56.25 L152.65,65.45 C153.15,65.9833333 153.75,66.3666667 154.45,66.6 L156.55,66.65 C157.216667,66.4833333 157.816667,66.15 158.35,65.65 L168.85,55.65 C169.65,54.8833333 170.066667,53.95 170.1,52.85 C170.1,51.7166667 169.716667,50.75 168.95,49.95 L159.95,40.75 C163.716667,35.6166667 165.183333,30.0333333 164.35,24 L164.2,22.85 L164.1,22.3 C163.166667,18.8333333 161.566667,15.9166667 159.3,13.55 L159.2,13.45 C155.666667,9.98333333 151.333333,8.03333333 146.2,7.6 C143.633333,7.33333333 140.95,7.4 138.15,7.8 L138.05,7.8 L126.9,9.55 L125.95,9.85 L125.15,9.45 L123,9.3 L93,15.3 L91.85,15.7 L80.1,11.2 L77.9,11 C77.1333333,11.1333333 76.4833333,11.4666667 75.95,12 C75.3833333,12.5 75,13.1333333 74.8,13.9 L71,28.1 L69.65,17.4 C69.5166667,16.5 69.1333333,15.7333333 68.5,15.1 C67.8666667,14.4666667 67.1166667,14.0833333 66.25,13.95 M28.85,27.55 L28.75,27.75 C29.4166667,26.65 30.0833333,25.9333333 30.75,25.6 C30.9833333,26 31.1166667,26.6333333 31.15,27.5 L31.2,27.95 C31.6,30.6833333 31.65,33.6166667 31.35,36.75 L31.35,36.8 C31.0166667,39.4 30.45,41.8166667 29.65,44.05 C28.8833333,45.6166667 28.1333333,46.5666667 27.4,46.9 C26.4666667,46.2666667 25.8,45.0666667 25.4,43.3 C25.1333333,40.4333333 25.35,37.55 26.05,34.65 L26.05,34.55 C26.6833333,32.0833333 27.6166667,29.75 28.85,27.55 M29.5,30.75 C28.9,32.05 28.4166667,33.4 28.05,34.8 L28,35.15 C27.3666667,37.7833333 27.1666667,40.4166667 27.4,43.05 L27.6,43.7 L27.85,43.2 C28.55,41.2 29.05,39.05 29.35,36.75 L29.35,36.55 L29.5,30.75" id="Shape" fill="#AA4F12"></path>
        <path d="M66.25,13.95 C67.1166667,14.0833333 67.8666667,14.4666667 68.5,15.1 C69.1333333,15.7333333 69.5166667,16.5 69.65,17.4 L71,28.1 L74.8,13.9 C75,13.1333333 75.3833333,12.5 75.95,12 C76.4833333,11.4666667 77.1333333,11.1333333 77.9,11 L80.1,11.2 L91.85,15.7 L93,15.3 L123,9.3 L125.15,9.45 L125.95,9.85 L126.9,9.55 L138.05,7.8 L138.15,7.8 C140.95,7.4 143.633333,7.33333333 146.2,7.6 C151.333333,8.03333333 155.666667,9.98333333 159.2,13.45 L159.3,13.55 C161.566667,15.9166667 163.166667,18.8333333 164.1,22.3 L164.2,22.85 L164.35,24 C165.183333,30.0333333 163.716667,35.6166667 159.95,40.75 L168.95,49.95 C169.716667,50.75 170.1,51.7166667 170.1,52.85 C170.066667,53.95 169.65,54.8833333 168.85,55.65 L158.35,65.65 C157.816667,66.15 157.216667,66.4833333 156.55,66.65 L154.45,66.6 C153.75,66.3666667 153.15,65.9833333 152.65,65.45 L144.25,56.25 L143.8,64.35 C143.766667,65.1833333 143.5,65.9333333 143,66.6 C142.466667,67.2666667 141.816667,67.7166667 141.05,67.95 L138.65,68 L124.6,63.7 C123.933333,63.5 123.366667,63.1666667 122.9,62.7 L122.3,63.3 C121.566667,63.9 120.716667,64.2 119.75,64.2 L92.75,64.2 C92.0166667,64.2 91.35,64.0166667 90.75,63.65 C90.1166667,63.2833333 89.6166667,62.7833333 89.25,62.15 C88.8833333,61.5166667 88.7166667,60.8333333 88.75,60.1 L89.2,41.9 L82.5,64.05 C82.1666667,65.05 81.5666667,65.8166667 80.7,66.35 C79.8,66.8833333 78.85,67.05 77.85,66.85 L58.85,62.85 C58.0166667,62.65 57.3166667,62.25 56.75,61.65 C56.1833333,61.05 55.8333333,60.35 55.7,59.55 L53.85,48 C52.5166667,52.4 50.3833333,56.3166667 47.45,59.75 L47.55,59.6 C42.3833333,66.4333333 34.7,69.7833333 24.5,69.65 C13.7666667,69.3833333 7.1,64.4333333 4.5,54.8 L4.45,54.55 C2.85,46.4833333 2.5,38.4 3.4,30.3 C4.56666667,19.3333333 8.75,11.3833333 15.95,6.45 L16.25,6.25 C21.65,2.98333333 28.6,1.96666667 37.1,3.2 L37.7,3.35 C43.4666667,5.11666667 47.8333333,8.13333333 50.8,12.4 L50.85,12.35 C51.5833333,11.95 52.3833333,11.8166667 53.25,11.95 L66.25,13.95 M51.35,38.9 C52.0166667,31.4333333 51.2833333,24.3333333 49.15,17.6 C46.7833333,12.5 42.5666667,9.01666667 36.5,7.15 C29.0666667,6.08333333 22.9833333,6.93333333 18.25,9.7 C12.0166667,14.1 8.38333333,21.1 7.35,30.7 C6.51666667,38.4 6.85,46.0833333 8.35,53.75 C10.45,61.5166667 15.85,65.4833333 24.55,65.65 C33.3166667,65.75 39.9333333,62.9166667 44.4,57.15 C48.6,52.2166667 50.9166667,46.1333333 51.35,38.9 M35.3,37.2 C34.9333333,40.3333333 34.25,43.2 33.25,45.8 C31.35,49.6666667 29.1,51.3666667 26.5,50.9 C23.9333333,50.1 22.25,47.8 21.45,44 C21.0833333,40.6 21.3166667,37.1333333 22.15,33.6 C22.8833333,30.8 23.95,28.1333333 25.35,25.6 C27.15,22.7333333 29.1333333,21.35 31.3,21.45 C33.7333333,21.9166667 35.0166667,23.8833333 35.15,27.35 C35.6166667,30.4166667 35.6666667,33.7 35.3,37.2 M52.65,15.9 L59.65,58.9 L78.65,62.9 L91.65,19.9 L78.65,14.9 L69.65,48.9 L65.65,17.9 L52.65,15.9 M107.75,25.2 L124.75,22.2 L123.75,13.2 L93.75,19.2 L92.75,60.2 L119.75,60.2 L121.75,49.2 L105.15,49.2 L105.75,42.2 L118.75,41.2 L118.75,32.2 L106.75,33.2 L107.75,25.2 M145.85,11.55 L138.65,11.75 L127.5,13.5 L125.75,59.85 L139.8,64.15 L140.7,46.45 L155.6,62.75 L166.1,52.75 L154.55,40.95 L155.25,40.2 C159.416667,35.4666667 161.116667,30.2333333 160.35,24.5 L160.2,23.35 L160.2,23.3 C159.466667,20.5333333 158.2,18.2 156.4,16.3 C153.533333,13.5 150.016667,11.9166667 145.85,11.55 M146.8,23.45 C148.5,24.5166667 149.316667,26.35 149.25,28.95 C149.15,31.5833333 148.25,33.15 146.55,33.65 L140.05,35.2 L140.05,22.55 L146.8,23.45 M28.85,27.55 C27.6166667,29.75 26.6833333,32.0833333 26.05,34.55 L26.05,34.65 C25.35,37.55 25.1333333,40.4333333 25.4,43.3 C25.8,45.0666667 26.4666667,46.2666667 27.4,46.9 C28.1333333,46.5666667 28.8833333,45.6166667 29.65,44.05 C30.45,41.8166667 31.0166667,39.4 31.35,36.8 L31.35,36.75 C31.65,33.6166667 31.6,30.6833333 31.2,27.95 L31.15,27.5 C31.1166667,26.6333333 30.9833333,26 30.75,25.6 C30.0833333,25.9333333 29.4166667,26.65 28.75,27.75 L28.85,27.55" id="Shape" fill="#E86A17"></path>
        <path d="M51.35,38.9 C50.9166667,46.1333333 48.6,52.2166667 44.4,57.15 C39.9333333,62.9166667 33.3166667,65.75 24.55,65.65 C15.85,65.4833333 10.45,61.5166667 8.35,53.75 C6.85,46.0833333 6.51666667,38.4 7.35,30.7 C8.38333333,21.1 12.0166667,14.1 18.25,9.7 C22.9833333,6.93333333 29.0666667,6.08333333 36.5,7.15 C42.5666667,9.01666667 46.7833333,12.5 49.15,17.6 C51.2833333,24.3333333 52.0166667,31.4333333 51.35,38.9 M107.75,25.2 L106.75,33.2 L118.75,32.2 L118.75,41.2 L105.75,42.2 L105.15,49.2 L121.75,49.2 L119.75,60.2 L92.75,60.2 L93.75,19.2 L123.75,13.2 L124.75,22.2 L107.75,25.2 M52.65,15.9 L65.65,17.9 L69.65,48.9 L78.65,14.9 L91.65,19.9 L78.65,62.9 L59.65,58.9 L52.65,15.9 M35.3,37.2 C35.6666667,33.7 35.6166667,30.4166667 35.15,27.35 C35.0166667,23.8833333 33.7333333,21.9166667 31.3,21.45 C29.1333333,21.35 27.15,22.7333333 25.35,25.6 C23.95,28.1333333 22.8833333,30.8 22.15,33.6 C21.3166667,37.1333333 21.0833333,40.6 21.45,44 C22.25,47.8 23.9333333,50.1 26.5,50.9 C29.1,51.3666667 31.35,49.6666667 33.25,45.8 C34.25,43.2 34.9333333,40.3333333 35.3,37.2 M145.85,11.55 C150.016667,11.9166667 153.533333,13.5 156.4,16.3 C158.2,18.2 159.466667,20.5333333 160.2,23.3 L160.2,23.35 L160.35,24.5 C161.116667,30.2333333 159.416667,35.4666667 155.25,40.2 L154.55,40.95 L166.1,52.75 L155.6,62.75 L140.7,46.45 L139.8,64.15 L125.75,59.85 L127.5,13.5 L138.65,11.75 L145.85,11.55 M146.8,23.45 L140.05,22.55 L140.05,35.2 L146.55,33.65 C148.25,33.15 149.15,31.5833333 149.25,28.95 C149.316667,26.35 148.5,24.5166667 146.8,23.45" id="Shape" fill="#FFFFFF"></path>
    </g>
</svg>
