<?xml version="1.0" encoding="UTF-8" standalone="no"?>
<svg viewBox="0 0 174 66" version="1.1" xmlns="http://www.w3.org/2000/svg" xmlns:xlink="http://www.w3.org/1999/xlink">
    <g id="Page-1" stroke="none" stroke-width="1" fill="none" fill-rule="evenodd">
        <path d="M78.45,7.05 C79.15,7.65 79.6833333,8.4 80.05,9.3 C80.1166667,8.26666667 80.45,7.33333333 81.05,6.5 C81.6833333,5.53333333 82.55,4.81666667 83.65,4.35 C84.7166667,3.88333333 85.8333333,3.75 87,3.95 L99.2,5.95 C100.2,6.11666667 101.1,6.51666667 101.9,7.15 L101.95,7.2 C102.75,7.83333333 103.35,8.61666667 103.75,9.55 L103.75,9.6 L107.5,18.65 L112.55,7.4 C113.083333,6.16666667 113.933333,5.23333333 115.1,4.6 L115.15,4.6 C116.316667,3.93333333 117.566667,3.71666667 118.9,3.95 L132.1,5.95 C133.566667,6.15 134.783333,6.8 135.75,7.9 L135.75,7.95 L135.95,8.2 L165.1,2.35 L165.05,2.35 L168.35,2.6 C169.383333,3 170.266667,3.65 171,4.55 C171.666667,5.41666667 172.083333,6.4 172.25,7.5 L172.25,7.55 L173.25,16.55 C173.416667,18.0833333 173.033333,19.5 172.1,20.8 L172.05,20.8 C171.116667,22.0333333 169.883333,22.8166667 168.35,23.15 L168.3,23.15 L166,23.55 L166.35,24.05 C166.95,24.9833333 167.25,26.0333333 167.25,27.2 L167.25,36.2 C167.25,37.1 167.066667,37.95 166.7,38.75 L167.6,39.25 L167.55,39.25 C168.55,39.8833333 169.3,40.75 169.8,41.85 L169.8,41.9 C170.233333,42.9666667 170.366667,44.1 170.2,45.3 L168.2,56.3 L168.15,56.4 C167.85,57.7666667 167.166667,58.9166667 166.1,59.85 C164.966667,60.75 163.683333,61.2 162.25,61.2 L136.5,61.2 L136.4,61.3 C135.666667,62.3666667 134.683333,63.1166667 133.45,63.55 C132.216667,63.95 131,63.9666667 129.8,63.6 L116.45,59.6 C115.116667,59.2 114.05,58.4333333 113.25,57.3 C112.45,56.1666667 112.083333,54.9166667 112.15,53.55 L112.25,51.85 L111.65,51.8 L103.55,50.8 L103.5,50.8 L103.4,57 C103.366667,58.2666667 102.966667,59.4166667 102.2,60.45 L102.2,60.4 C101.433333,61.4333333 100.45,62.15 99.25,62.55 C98.0166667,62.95 96.7833333,62.95 95.55,62.55 L87.4,59.9 L86.35,60.8 C85.35,61.5 84.2666667,61.85 83.1,61.85 L70.05,62.15 C68.5833333,62.1833333 67.3,61.75 66.2,60.85 L66.25,60.9 L65.3,59.95 L64.45,61.15 L64.4,61.2 C63.6333333,62 62.7166667,62.5666667 61.65,62.9 L61.6,62.95 C60.5,63.2166667 59.4,63.2166667 58.3,62.95 L58.25,62.95 L47.4,59.65 C45.1333333,62.5833333 41.7,64.3166667 37.1,64.85 L36.85,64.9 L27.95,65.75 L27.75,65.75 L27.65,65.75 L27.55,65.75 C19.25,66.0833333 12.9333333,63.8166667 8.6,58.95 L8.55,58.9 L8.5,58.85 L8.5,58.8 C6.06666667,56.2 4.15,52.9833333 2.75,49.15 L2.7,49.1 L2.55,48.55 C0.0166666667,40.25 -0.583333333,31.2666667 0.75,21.6 L0.9,20.8 L1.85,16.05 L1.85,16.1 C3.38333333,7.56666667 8.83333333,2.56666667 18.2,1.1 L18.4,1.05 C24.7666667,0.15 31.1166667,0.733333333 37.45,2.8 C43.95,4.46666667 47.4833333,9.36666667 48.05,17.5 L49.6,9.15 C49.8333333,7.61666667 50.55,6.38333333 51.75,5.45 C52.95,4.48333333 54.3333333,4.05 55.9,4.15 L74.9,5.5 C76.2666667,5.6 77.45,6.11666667 78.45,7.05 M46.2,27.8 L45.1,27.55 L45,27.55 L45.25,27.3 C45.95,26.5 46.2833333,25.5666667 46.25,24.5 L46.1,18.65 C45.8333333,10.8833333 42.7,6.23333333 36.7,4.7 L36.8,4.7 C30.7333333,2.7 24.65,2.15 18.55,3.05 L18.5,3.05 C10.1333333,4.38333333 5.23333333,8.85 3.8,16.45 L2.8,21.4 L2.75,21.65 C1.41666667,31.2166667 2.01666667,40.0833333 4.55,48.25 L4.6,48.45 C5.93333333,52.0166667 7.71666667,55.0166667 9.95,57.45 L10,57.5 C14,62 19.85,64.0833333 27.55,63.75 L27.75,63.75 L36.75,62.85 L36.85,62.85 C41.4166667,62.35 44.65,60.5 46.55,57.3 L58.8,61 C59.5666667,61.2 60.3166667,61.2 61.05,61 L62.95,59.8 C63.4833333,59.2 63.8,58.5166667 63.9,57.75 L64.8,51.8 L66,57.05 C66.2333333,57.9833333 66.7166667,58.7333333 67.45,59.3 C68.1833333,59.9 69.0333333,60.1833333 70,60.15 L83.05,59.85 C83.8166667,59.85 84.5333333,59.6166667 85.2,59.15 C85.8,58.7166667 86.2666667,58.1833333 86.6,57.55 L96.2,60.65 C97,60.9166667 97.8166667,60.9166667 98.65,60.65 C99.45,60.3833333 100.1,59.9166667 100.6,59.25 C101.1,58.55 101.366667,57.7833333 101.4,56.95 L101.55,47.75 L102.05,48.15 C102.583333,48.5166667 103.166667,48.75 103.8,48.85 L111.9,49.85 L114.1,49.5 L114.35,49.35 L114.15,53.65 C114.116667,54.55 114.366667,55.3833333 114.9,56.15 C115.433333,56.9166667 116.133333,57.4333333 117,57.7 L130.35,61.7 L132.8,61.65 C133.6,61.35 134.266667,60.85 134.8,60.15 L135.3,59.2 L162.25,59.2 C163.216667,59.2 164.066667,58.9 164.8,58.3 C165.533333,57.6666667 166,56.8833333 166.2,55.95 L168.2,44.95 C168.333333,44.15 168.25,43.3833333 167.95,42.65 C167.616667,41.9166667 167.116667,41.3333333 166.45,40.9 C165.783333,40.4333333 165.05,40.2 164.25,40.2 L161.55,40.2 C162.583333,40.1333333 163.466667,39.7166667 164.2,38.95 C164.9,38.15 165.25,37.2333333 165.25,36.2 L165.25,27.2 C165.25,26.4333333 165.05,25.7333333 164.65,25.1 C164.25,24.4666667 163.716667,23.9833333 163.05,23.65 C162.383333,23.2833333 161.683333,23.15 160.95,23.25 L151.9,24 L167.95,21.15 C168.983333,20.95 169.816667,20.4333333 170.45,19.6 C171.083333,18.7333333 171.35,17.7833333 171.25,16.75 L170.25,7.75 C170.15,7.01666667 169.866667,6.35 169.4,5.75 C168.933333,5.15 168.35,4.71666667 167.65,4.45 L165.5,4.3 L135.5,10.3 L134.95,10.45 L134.25,9.25 C133.583333,8.48333333 132.766667,8.03333333 131.8,7.9 L118.6,5.9 C117.7,5.76666667 116.866667,5.91666667 116.1,6.35 C115.3,6.78333333 114.716667,7.41666667 114.35,8.25 L107.4,23.75 L101.9,10.35 C101.633333,9.68333333 101.233333,9.15 100.7,8.75 C100.133333,8.28333333 99.5166667,8 98.85,7.9 L86.65,5.9 L84.45,6.2 C83.7166667,6.5 83.1333333,6.98333333 82.7,7.65 C82.2333333,8.28333333 82,8.98333333 82,9.75 L81.6,27.5 L78.4,10.75 C78.2,9.85 77.7666667,9.1 77.1,8.5 C76.4333333,7.9 75.65,7.56666667 74.75,7.5 L55.75,6.15 C54.7166667,6.08333333 53.8,6.36666667 53,7 C52.2,7.63333333 51.7166667,8.45 51.55,9.45 L47.95,29.2 L47.7,28.85 C47.2666667,28.35 46.7833333,28 46.25,27.8 L46.2,27.75 L46.2,27.8" id="Shape" fill="#AA4F12"></path>
        <path d="M46.25,27.8 C46.7833333,28 47.2666667,28.35 47.7,28.85 L47.95,29.2 L51.55,9.45 C51.7166667,8.45 52.2,7.63333333 53,7 C53.8,6.36666667 54.7166667,6.08333333 55.75,6.15 L74.75,7.5 C75.65,7.56666667 76.4333333,7.9 77.1,8.5 C77.7666667,9.1 78.2,9.85 78.4,10.75 L81.6,27.5 L82,9.75 C82,8.98333333 82.2333333,8.28333333 82.7,7.65 C83.1333333,6.98333333 83.7166667,6.5 84.45,6.2 L86.65,5.9 L98.85,7.9 C99.5166667,8 100.133333,8.28333333 100.7,8.75 C101.233333,9.15 101.633333,9.68333333 101.9,10.35 L107.4,23.75 L114.35,8.25 C114.716667,7.41666667 115.3,6.78333333 116.1,6.35 C116.866667,5.91666667 117.7,5.76666667 118.6,5.9 L131.8,7.9 C132.766667,8.03333333 133.583333,8.48333333 134.25,9.25 L134.95,10.45 L135.5,10.3 L165.5,4.3 L167.65,4.45 C168.35,4.71666667 168.933333,5.15 169.4,5.75 C169.866667,6.35 170.15,7.01666667 170.25,7.75 L171.25,16.75 C171.35,17.7833333 171.083333,18.7333333 170.45,19.6 C169.816667,20.4333333 168.983333,20.95 167.95,21.15 L151.9,24 L160.95,23.25 C161.683333,23.15 162.383333,23.2833333 163.05,23.65 C163.716667,23.9833333 164.25,24.4666667 164.65,25.1 C165.05,25.7333333 165.25,26.4333333 165.25,27.2 L165.25,36.2 C165.25,37.2333333 164.9,38.15 164.2,38.95 C163.466667,39.7166667 162.583333,40.1333333 161.55,40.2 L164.25,40.2 C165.05,40.2 165.783333,40.4333333 166.45,40.9 C167.116667,41.3333333 167.616667,41.9166667 167.95,42.65 C168.25,43.3833333 168.333333,44.15 168.2,44.95 L166.2,55.95 C166,56.8833333 165.533333,57.6666667 164.8,58.3 C164.066667,58.9 163.216667,59.2 162.25,59.2 L135.3,59.2 L134.8,60.15 C134.266667,60.85 133.6,61.35 132.8,61.65 L130.35,61.7 L117,57.7 C116.133333,57.4333333 115.433333,56.9166667 114.9,56.15 C114.366667,55.3833333 114.116667,54.55 114.15,53.65 L114.35,49.35 L114.1,49.5 L111.9,49.85 L103.8,48.85 C103.166667,48.75 102.583333,48.5166667 102.05,48.15 L101.55,47.75 L101.4,56.95 C101.366667,57.7833333 101.1,58.55 100.6,59.25 C100.1,59.9166667 99.45,60.3833333 98.65,60.65 C97.8166667,60.9166667 97,60.9166667 96.2,60.65 L86.6,57.55 C86.2666667,58.1833333 85.8,58.7166667 85.2,59.15 C84.5333333,59.6166667 83.8166667,59.85 83.05,59.85 L70,60.15 C69.0333333,60.1833333 68.1833333,59.9 67.45,59.3 C66.7166667,58.7333333 66.2333333,57.9833333 66,57.05 L64.8,51.8 L63.9,57.75 C63.8,58.5166667 63.4833333,59.2 62.95,59.8 L61.05,61 C60.3166667,61.2 59.5666667,61.2 58.8,61 L46.55,57.3 C44.65,60.5 41.4166667,62.35 36.85,62.85 L36.75,62.85 L27.75,63.75 L27.55,63.75 C19.85,64.0833333 14,62 10,57.5 L9.95,57.45 C7.71666667,55.0166667 5.93333333,52.0166667 4.6,48.45 L4.55,48.25 C2.01666667,40.0833333 1.41666667,31.2166667 2.75,21.65 L2.8,21.4 L3.8,16.45 C5.23333333,8.85 10.1333333,4.38333333 18.5,3.05 L18.55,3.05 C24.65,2.15 30.7333333,2.7 36.8,4.7 L36.7,4.7 C42.7,6.23333333 45.8333333,10.8833333 46.1,18.65 L46.25,24.5 C46.2833333,25.5666667 45.95,26.5 45.25,27.3 L45,27.55 L45.1,27.55 L46.2,27.8 L46.25,27.8 M55.45,10.15 L47.55,53.4 L59.95,57.15 L61.15,49 L68.1,48.3 L69.9,56.15 L82.95,55.85 L74.45,11.5 L55.45,10.15 M107.25,33.85 L98.2,11.85 L86,9.85 L85.05,52.85 L97.4,56.85 L97.8,33.1 L104.3,44.85 L112.4,45.85 L119.05,35.35 L118.15,53.85 L131.5,57.85 L131.2,11.85 L118,9.85 L107.25,33.85 M161.25,27.2 L149.25,28.2 L150.25,20.2 L167.25,17.2 L166.25,8.2 L136.25,14.2 L135.25,55.2 L162.25,55.2 L164.25,44.2 L147.65,44.2 L148.25,37.2 L161.25,36.2 L161.25,27.2 M20.7,22.55 L22.15,20.6 C24.6833333,18.3 27.7666667,18.3 31.4,20.6 L32.05,25.4 L42.25,24.6 L42.1,18.8 C41.9,13.1666667 39.7166667,9.73333333 35.55,8.5 C30.0833333,6.7 24.6,6.2 19.1,7 C12.6666667,8.03333333 8.86666667,11.45 7.7,17.25 L6.7,22.2 C5.46666667,31.1333333 6.01666667,39.4166667 8.35,47.05 C9.48333333,50.1166667 11,52.6833333 12.9,54.75 C16.2333333,58.35 21.05,60.0166667 27.35,59.75 L36.35,58.85 C41.8166667,58.15 44.5666667,54.65 44.6,48.35 L44.7,31.5 L27.2,29.8 L27,38.95 L31.35,39.1 C34.05,39.2666667 35.1333333,40.95 34.6,44.15 C33.1333333,46.75 30.7166667,48.05 27.35,48.05 C24.05,47.9166667 21.5333333,46.35 19.8,43.35 C19.3333333,42.45 18.95,41.5 18.65,40.5 C17.25,33.8666667 17.9333333,27.8833333 20.7,22.55 M66,37.45 L62.05,37.85 L62.55,22.75 L66,37.45" id="Shape" fill="#E86A17"></path>
        <path d="M66,37.45 L62.55,22.75 L62.05,37.85 L66,37.45 M55.45,10.15 L74.45,11.5 L82.95,55.85 L69.9,56.15 L68.1,48.3 L61.15,49 L59.95,57.15 L47.55,53.4 L55.45,10.15 M107.25,33.85 L118,9.85 L131.2,11.85 L131.5,57.85 L118.15,53.85 L119.05,35.35 L112.4,45.85 L104.3,44.85 L97.8,33.1 L97.4,56.85 L85.05,52.85 L86,9.85 L98.2,11.85 L107.25,33.85 M161.25,27.2 L161.25,36.2 L148.25,37.2 L147.65,44.2 L164.25,44.2 L162.25,55.2 L135.25,55.2 L136.25,14.2 L166.25,8.2 L167.25,17.2 L150.25,20.2 L149.25,28.2 L161.25,27.2 M20.7,22.55 C17.9333333,27.8833333 17.25,33.8666667 18.65,40.5 C18.95,41.5 19.3333333,42.45 19.8,43.35 C21.5333333,46.35 24.05,47.9166667 27.35,48.05 C30.7166667,48.05 33.1333333,46.75 34.6,44.15 C35.1333333,40.95 34.05,39.2666667 31.35,39.1 L27,38.95 L27.2,29.8 L44.7,31.5 L44.6,48.35 C44.5666667,54.65 41.8166667,58.15 36.35,58.85 L27.35,59.75 C21.05,60.0166667 16.2333333,58.35 12.9,54.75 C11,52.6833333 9.48333333,50.1166667 8.35,47.05 C6.01666667,39.4166667 5.46666667,31.1333333 6.7,22.2 L7.7,17.25 C8.86666667,11.45 12.6666667,8.03333333 19.1,7 C24.6,6.2 30.0833333,6.7 35.55,8.5 C39.7166667,9.73333333 41.9,13.1666667 42.1,18.8 L42.25,24.6 L32.05,25.4 L31.4,20.6 C27.7666667,18.3 24.6833333,18.3 22.15,20.6 L20.7,22.55" id="Shape" fill="#FFFFFF"></path>
    </g>
</svg>
