<?xml version="1.0" encoding="UTF-8" standalone="no"?>
<svg viewBox="0 0 199 77" version="1.1" xmlns="http://www.w3.org/2000/svg" xmlns:xlink="http://www.w3.org/1999/xlink">
    <g id="Page-1" stroke="none" stroke-width="1" fill="none" fill-rule="evenodd">
        <g id="Group" transform="translate(-1115.000000, -190.000000)">
            <g id="over" transform="translate(1115.000000, 190.000000)">
                <path d="M192.05,28.3 C192.516667,33.1666667 191.733333,37.2166667 189.7,40.45 L189.6,40.65 C188.666667,42.2166667 187.466667,43.6333333 186,44.9 L186.25,45.25 L190.45,50.45 L190.6,50.65 L194.3,55.9 L194.45,56.05 L198.2,61.9 C198.733333,62.8333333 198.933333,63.8666667 198.8,65 C198.633333,66.1 198.166667,67.0166667 197.4,67.75 L197.4,67.8 C196.566667,68.5666667 195.616667,68.9833333 194.55,69.05 L181.3,70.4 C180.433333,70.5 179.616667,70.3666667 178.85,70 L178.75,69.95 C178.016667,69.6166667 177.4,69.1166667 176.9,68.45 L176.85,68.4 L173.45,63.5 L170.05,58.8 L170,58.75 L166.55,54.5 L166.45,54.3 L166.35,54.15 L166.3,54.2 L167.55,66.95 C167.716667,68.2833333 167.383333,69.45 166.55,70.45 C165.716667,71.5166667 164.65,72.1 163.35,72.2 L151.5,73.4 C150.2,73.5333333 149.033333,73.1833333 148,72.35 C146.966667,71.5166667 146.383333,70.4333333 146.25,69.1 L142.6,32.85 L142.35,33.1 C141.283333,33.9 140.1,34.2166667 138.8,34.05 L119.9,31.55 L119.8,32.4 L136.05,34.55 C137.35,34.7166667 138.416667,35.3166667 139.25,36.35 C140.05,37.4166667 140.35,38.6 140.15,39.9 L138.9,49.55 C138.733333,50.8833333 138.116667,51.95 137.05,52.75 C136.016667,53.5166667 134.833333,53.8333333 133.5,53.7 L117.3,51.55 L116.9,54.7 L137.5,57.4 C138.8,57.6 139.85,58.2166667 140.65,59.25 C141.483333,60.3166667 141.8,61.5 141.6,62.8 L140.3,72.7 C140.133333,74 139.516667,75.05 138.45,75.85 C137.416667,76.65 136.25,76.9666667 134.95,76.8 L97.8,71.95 C96.5,71.7833333 95.45,71.1833333 94.65,70.15 C93.85,69.0833333 93.5333333,67.9166667 93.7,66.65 L95.65,52.1 L90.95,66.7 L90.95,66.65 C90.65,67.5166667 90.15,68.25 89.45,68.85 C88.6833333,69.3833333 87.8333333,69.7166667 86.9,69.85 L75.55,71.05 C74.6166667,71.1833333 73.7666667,71.05 73,70.65 L73,70.7 C72.1333333,70.2333333 71.4666667,69.6333333 71,68.9 L70.95,68.85 L63.25,55.6 L61.75,52.85 L61.15,54.45 C59.55,58.55 57.35,61.9666667 54.55,64.7 L54.5,64.75 C51.7,67.5166667 48.3666667,69.6166667 44.5,71.05 L44.15,71.2 C40.45,72.4333333 36.5166667,73.05 32.35,73.05 C28.1833333,73.05 24.25,72.3833333 20.55,71.05 L20.5,71 C16.6666667,69.5666667 13.3166667,67.4833333 10.45,64.75 L10.3,64.6 C7.53333333,61.8666667 5.33333333,58.4833333 3.7,54.45 C2.1,50.55 1.3,45.9833333 1.3,40.75 C1.3,35.5166667 2.11666667,30.9166667 3.75,26.95 C5.45,22.9166667 7.73333333,19.5166667 10.6,16.75 L10.6,16.7 C13.5333333,13.9 16.9,11.8 20.7,10.4 C24.4333333,9.03333333 28.3166667,8.35 32.35,8.35 C36.55,8.35 40.5,9.03333333 44.2,10.4 L46.95,11.55 L47.85,11.3 L60.95,9.9 C61.9166667,9.8 62.8666667,10 63.8,10.5 C64.7333333,11.0333333 65.4,11.75 65.8,12.65 L70.15,22.1 L74.85,32.15 L78,38.6 L79.7,31.6 L82.15,20.8 L84.35,10.65 C84.5833333,9.61666667 85.0833333,8.76666667 85.85,8.1 C86.6166667,7.4 87.5,7 88.5,6.9 L101.2,5.5 C102.166667,5.4 103.116667,5.61666667 104.05,6.15 L104.1,6.15 C104.966667,6.65 105.616667,7.38333333 106.05,8.35 L106.45,10.15 L141.35,14.7 L141.5,14.75 L141.85,14.05 C142.516667,13.1166667 143.383333,12.5 144.45,12.2 C147.116667,11.4 149.9,10.7333333 152.8,10.2 L160.65,9.1 C169.683333,8.2 176.766667,9.2 181.9,12.1 C187.866667,15.1666667 191.25,20.5666667 192.05,28.3 M169.65,29.05 L163.7,28.6 L164.25,33.6 C166.783333,33.2666667 168.65,32.7333333 169.85,32 C170.183333,31.6333333 170.316667,31.0833333 170.25,30.35 C170.183333,29.75 169.983333,29.3166667 169.65,29.05 M36.35,29.15 C35.1833333,28.6166667 33.85,28.35 32.35,28.35 L29.25,28.8 C27.5833333,29.3333333 26.2833333,30.3666667 25.35,31.9 C24.7166667,32.8 24.2166667,33.8833333 23.85,35.15 L23.85,35.1 C23.35,36.8333333 23.1,38.7166667 23.1,40.75 C23.1,42.85 23.35,44.7333333 23.85,46.4 C24.2833333,47.8 24.8833333,49.0166667 25.65,50.05 L25.65,50.1 L25.75,50.2 C26.5166667,51.1 27.4,51.8 28.4,52.3 C29.5333333,52.8333333 30.85,53.1 32.35,53.1 C33.85,53.1 35.1833333,52.8333333 36.35,52.3 C37.3833333,51.8 38.2666667,51.1 39,50.2 L39.05,50.2 C39.85,49.1333333 40.4666667,47.8666667 40.9,46.4 C41.4333333,44.7333333 41.7,42.85 41.7,40.75 C41.7,38.7166667 41.4666667,36.8833333 41,35.25 L40.9,35.05 C40.4666667,33.5833333 39.8333333,32.3 39,31.2 C38.3333333,30.4 37.5333333,29.7333333 36.6,29.2 L36.35,29.15 M77.45,42.8 L77.4,42.7 L77.4,42.8 L77.45,42.8 M89.05,11.7 L89.1,11.65 L89.05,11.65 L89.05,11.7" id="Shape" fill-opacity="0.101960784" fill="#000000"></path>
                <path d="M171.25,20.1 C173.216667,21 174.35,22.7166667 174.65,25.25 C174.916667,27.8833333 174.166667,29.8666667 172.4,31.2 L172.3,31.3 C170.466667,32.5666667 167.333333,33.4333333 162.9,33.9 L161.9,33.95 C161.233333,34.0166667 160.683333,33.85 160.25,33.45 C159.683333,33.0166667 159.383333,32.4666667 159.35,31.8 L158.35,22.15 C158.283333,21.5166667 158.45,20.9666667 158.85,20.5 C159.216667,19.9333333 159.7,19.6166667 160.3,19.55 L162.4,19.25 C166.066667,18.9166667 168.9,19.1666667 170.9,20 L171.25,20.1 M172.25,25.45 C172.05,23.8833333 171.35,22.8166667 170.15,22.25 C168.383333,21.5166667 165.866667,21.3166667 162.6,21.65 L160.7,21.9 L161.65,31.6 L162.65,31.5 C166.583333,31.0666667 169.333333,30.3333333 170.9,29.3 C171.933333,28.4333333 172.383333,27.15 172.25,25.45 M186.85,24.1 C186.25,18.1666667 183.716667,14 179.25,11.6 C174.75,9.23333333 168.566667,8.45 160.7,9.25 L153.25,10.3 C150.516667,10.8 147.9,11.3833333 145.4,12.05 L150.6,63.95 L162.45,62.8 L160.75,46 C160.683333,45.3333333 160.866667,44.75 161.3,44.25 C161.666667,43.7166667 162.183333,43.4166667 162.85,43.35 L165.2,43.1 C165.833333,43.0333333 166.433333,43.2333333 167,43.7 L167.05,43.75 L167.2,43.85 L169.8,46.8 L169.9,46.9 L173.35,51.2 L173.5,51.4 L176.95,56.1 L176.95,56.05 L180.4,61 L193.65,59.65 L190.15,54.15 L190.1,54.1 L186.25,48.7 L186.2,48.65 L186.2,48.6 L182.25,43.7 L180.45,41.6 C180.116667,41.2666667 179.916667,40.8666667 179.85,40.4 C179.75,39.9666667 179.8,39.5333333 180,39.1 C180.166667,38.6666667 180.433333,38.3166667 180.8,38.05 C182.7,36.7166667 184.166667,35.15 185.2,33.35 L185.25,33.3 L185.3,33.25 C186.7,30.75 187.216667,27.7 186.85,24.1 M189.25,23.85 C189.65,28.1166667 188.983333,31.6833333 187.25,34.55 L187.2,34.55 C186.033333,36.6166667 184.366667,38.4166667 182.2,39.95 L184.05,42.1 L188.1,47.3 L192.1,52.75 L195.7,58.45 C195.966667,58.95 196.083333,59.4666667 196.05,60 C195.95,60.5333333 195.683333,61 195.25,61.4 L193.85,62.05 L180.6,63.4 L179.45,63.15 L178.45,62.4 L175,57.5 L171.5,52.7 L167.95,48.3 L165.5,45.55 L165.45,45.5 L163.1,45.75 L164.8,62.6 C164.833333,63.2333333 164.683333,63.8166667 164.35,64.35 C163.883333,64.85 163.316667,65.1333333 162.65,65.2 L150.85,66.35 C150.183333,66.45 149.616667,66.2833333 149.15,65.85 C148.583333,65.45 148.283333,64.9166667 148.25,64.25 L143,12.35 C142.933333,11.7833333 143.066667,11.25 143.4,10.75 C143.733333,10.2833333 144.166667,9.96666667 144.7,9.8 C147.3,9.03333333 150.033333,8.41666667 152.9,7.95 L160.45,6.85 C168.916667,6.01666667 175.55,6.9 180.35,9.5 C185.583333,12.2666667 188.55,17.05 189.25,23.85" id="Shape" fill="#E55C5C"></path>
                <path d="M171.25,20.1 L170.9,20 C168.9,19.1666667 166.066667,18.9166667 162.4,19.25 L160.3,19.55 C159.7,19.6166667 159.216667,19.9333333 158.85,20.5 C158.45,20.9666667 158.283333,21.5166667 158.35,22.15 L159.35,31.8 C159.383333,32.4666667 159.683333,33.0166667 160.25,33.45 C160.683333,33.85 161.233333,34.0166667 161.9,33.95 L162.9,33.9 C167.333333,33.4333333 170.466667,32.5666667 172.3,31.3 L172.4,31.2 C174.166667,29.8666667 174.916667,27.8833333 174.65,25.25 C174.35,22.7166667 173.216667,21 171.25,20.1 M186.85,24.1 C187.216667,27.7 186.7,30.75 185.3,33.25 L185.25,33.3 L185.2,33.35 C184.166667,35.15 182.7,36.7166667 180.8,38.05 C180.433333,38.3166667 180.166667,38.6666667 180,39.1 C179.8,39.5333333 179.75,39.9666667 179.85,40.4 C179.916667,40.8666667 180.116667,41.2666667 180.45,41.6 L182.25,43.7 L186.2,48.6 L186.2,48.65 L186.25,48.7 L190.1,54.1 L190.15,54.15 L193.65,59.65 L180.4,61 L176.95,56.05 L176.95,56.1 L173.5,51.4 L173.35,51.2 L169.9,46.9 L169.8,46.8 L167.2,43.85 L167.05,43.75 L167,43.7 C166.433333,43.2333333 165.833333,43.0333333 165.2,43.1 L162.85,43.35 C162.183333,43.4166667 161.666667,43.7166667 161.3,44.25 C160.866667,44.75 160.683333,45.3333333 160.75,46 L162.45,62.8 L150.6,63.95 L145.4,12.05 C147.9,11.3833333 150.516667,10.8 153.25,10.3 L160.7,9.25 C168.566667,8.45 174.75,9.23333333 179.25,11.6 C183.716667,14 186.25,18.1666667 186.85,24.1" id="Shape" fill="#C83E3E"></path>
                <path d="M172.25,25.45 C172.383333,27.15 171.933333,28.4333333 170.9,29.3 C169.333333,30.3333333 166.583333,31.0666667 162.65,31.5 L161.65,31.6 L160.7,21.9 L162.6,21.65 C165.866667,21.3166667 168.383333,21.5166667 170.15,22.25 C171.35,22.8166667 172.05,23.8833333 172.25,25.45 M169.85,25.7 C169.783333,25.1 169.583333,24.6666667 169.25,24.4 L163.3,23.95 L163.85,28.95 C166.383333,28.6166667 168.25,28.0833333 169.45,27.35 C169.783333,26.9833333 169.916667,26.4333333 169.85,25.7 M189.25,23.85 C188.55,17.05 185.583333,12.2666667 180.35,9.5 C175.55,6.9 168.916667,6.01666667 160.45,6.85 L152.9,7.95 C150.033333,8.41666667 147.3,9.03333333 144.7,9.8 C144.166667,9.96666667 143.733333,10.2833333 143.4,10.75 C143.066667,11.25 142.933333,11.7833333 143,12.35 L148.25,64.25 C148.283333,64.9166667 148.583333,65.45 149.15,65.85 C149.616667,66.2833333 150.183333,66.45 150.85,66.35 L162.65,65.2 C163.316667,65.1333333 163.883333,64.85 164.35,64.35 C164.683333,63.8166667 164.833333,63.2333333 164.8,62.6 L163.1,45.75 L165.45,45.5 L165.5,45.55 L167.95,48.3 L171.5,52.7 L175,57.5 L178.45,62.4 L179.45,63.15 L180.6,63.4 L193.85,62.05 L195.25,61.4 C195.683333,61 195.95,60.5333333 196.05,60 C196.083333,59.4666667 195.966667,58.95 195.7,58.45 L192.1,52.75 L188.1,47.3 L184.05,42.1 L182.2,39.95 C184.366667,38.4166667 186.033333,36.6166667 187.2,34.55 L187.25,34.55 C188.983333,31.6833333 189.65,28.1166667 189.25,23.85 M191.65,23.65 C192.116667,28.5166667 191.333333,32.5666667 189.3,35.8 L189.2,36 C188.266667,37.5666667 187.066667,38.9833333 185.6,40.25 L185.85,40.6 L190.05,45.8 L190.2,46.05 L193.9,51.25 L194.05,51.4 L197.8,57.25 C198.333333,58.1833333 198.533333,59.2166667 198.4,60.35 C198.233333,61.45 197.766667,62.3666667 197,63.1 L197,63.15 C196.166667,63.9166667 195.216667,64.3333333 194.15,64.4 L180.9,65.75 C180.033333,65.85 179.216667,65.7166667 178.45,65.35 L178.35,65.3 C177.616667,65 177,64.5 176.5,63.8 L176.45,63.75 L173.05,58.85 L169.65,54.15 L169.6,54.1 L166.15,49.85 L166.05,49.65 L165.95,49.5 L165.9,49.55 L167.15,62.3 C167.316667,63.6333333 166.983333,64.8 166.15,65.8 C165.316667,66.8666667 164.25,67.45 162.95,67.55 L151.1,68.75 C149.8,68.8833333 148.633333,68.5333333 147.6,67.7 C146.566667,66.8666667 145.983333,65.7833333 145.85,64.45 L140.65,12.55 C140.516667,11.45 140.783333,10.4 141.45,9.4 C142.116667,8.5 142.983333,7.88333333 144.05,7.55 L152.4,5.55 L160.25,4.45 C169.283333,3.55 176.366667,4.55 181.5,7.45 C187.466667,10.5166667 190.85,15.9166667 191.65,23.65" id="Shape" fill="#8A2323"></path>
                <path d="M144.15,11.85 C144.916667,12.8833333 145.216667,14.0666667 145.05,15.4 L143.75,25.3 C143.55,26.6 142.95,27.65 141.95,28.45 C140.883333,29.25 139.7,29.5666667 138.4,29.4 L119.5,26.9 L119.4,27.75 L135.65,29.95 C136.95,30.0833333 138.016667,30.6833333 138.85,31.75 C139.65,32.7833333 139.95,33.95 139.75,35.25 L138.5,44.9 C138.333333,46.2333333 137.716667,47.3 136.65,48.1 C135.616667,48.8666667 134.433333,49.1833333 133.1,49.05 L116.9,46.9 L116.5,50.05 L137.1,52.75 C138.4,52.95 139.45,53.5666667 140.25,54.6 C141.083333,55.6666667 141.4,56.85 141.2,58.15 L139.9,68.05 C139.733333,69.35 139.116667,70.4 138.05,71.2 C137.016667,72.0333333 135.85,72.35 134.55,72.15 L97.4,67.3 C96.1,67.1333333 95.05,66.5333333 94.25,65.5 C93.45,64.4666667 93.1333333,63.3 93.3,62 L100.2,9.55 C100.366667,8.25 100.983333,7.18333333 102.05,6.35 C103.05,5.58333333 104.216667,5.26666667 105.55,5.4 L140.95,10.05 C142.25,10.2166667 143.316667,10.8166667 144.15,11.85 M142.25,13.35 C141.816667,12.7833333 141.283333,12.4666667 140.65,12.4 L105.25,7.75 C104.583333,7.65 104,7.83333333 103.5,8.3 C102.933333,8.66666667 102.616667,9.16666667 102.55,9.8 L95.65,62.25 C95.55,62.8833333 95.7166667,63.4833333 96.15,64.05 C96.55,64.55 97.0666667,64.8333333 97.7,64.9 L134.85,69.75 C135.516667,69.85 136.1,69.7 136.6,69.3 C137.133333,68.9 137.433333,68.3833333 137.5,67.75 L138.85,57.85 C138.916667,57.1833333 138.766667,56.6 138.4,56.1 C138,55.5666667 137.466667,55.25 136.8,55.15 L113.8,52.2 L114.85,44.25 L133.45,46.7 C134.083333,46.8 134.683333,46.65 135.25,46.25 C135.75,45.8166667 136.05,45.2833333 136.15,44.65 L137.4,34.95 C137.466667,34.3166667 137.316667,33.75 136.95,33.25 C136.516667,32.7166667 135.966667,32.4 135.3,32.3 L116.75,29.9 L117.45,24.25 L138.7,27 C139.366667,27.1 139.966667,26.9666667 140.5,26.6 C141,26.1666667 141.3,25.6333333 141.4,25 L142.7,15.1 C142.8,14.4333333 142.65,13.85 142.25,13.35" id="Shape" fill="#8A2323"></path>
                <path d="M142.25,13.35 C142.65,13.85 142.8,14.4333333 142.7,15.1 L141.4,25 C141.3,25.6333333 141,26.1666667 140.5,26.6 C139.966667,26.9666667 139.366667,27.1 138.7,27 L117.45,24.25 L116.75,29.9 L135.3,32.3 C135.966667,32.4 136.516667,32.7166667 136.95,33.25 C137.316667,33.75 137.466667,34.3166667 137.4,34.95 L136.15,44.65 C136.05,45.2833333 135.75,45.8166667 135.25,46.25 C134.683333,46.65 134.083333,46.8 133.45,46.7 L114.85,44.25 L113.8,52.2 L136.8,55.15 C137.466667,55.25 138,55.5666667 138.4,56.1 C138.766667,56.6 138.916667,57.1833333 138.85,57.85 L137.5,67.75 C137.433333,68.3833333 137.133333,68.9 136.6,69.3 C136.1,69.7 135.516667,69.85 134.85,69.75 L97.7,64.9 C97.0666667,64.8333333 96.55,64.55 96.15,64.05 C95.7166667,63.4833333 95.55,62.8833333 95.65,62.25 L102.55,9.8 C102.616667,9.16666667 102.933333,8.66666667 103.5,8.3 C104,7.83333333 104.583333,7.65 105.25,7.75 L140.65,12.4 C141.283333,12.4666667 141.816667,12.7833333 142.25,13.35 M139,24.65 L140.3,14.75 L104.9,10.15 L98.05,62.6 L135.2,67.45 L136.5,57.55 L113.5,54.55 C112.833333,54.4833333 112.316667,54.1833333 111.95,53.65 C111.516667,53.1166667 111.35,52.5166667 111.45,51.85 L112.45,43.95 C112.55,43.2833333 112.866667,42.7666667 113.4,42.4 C113.933333,41.9666667 114.516667,41.8 115.15,41.9 L133.75,44.3 L135,34.65 L116.45,32.2 C115.783333,32.1333333 115.25,31.85 114.85,31.35 C114.45,30.8166667 114.283333,30.2166667 114.35,29.55 L115.1,23.95 C115.166667,23.3166667 115.483333,22.8 116.05,22.4 C116.55,22 117.133333,21.8333333 117.8,21.9 L139,24.65" id="Shape" fill="#E55C5C"></path>
                <path d="M139,24.65 L117.8,21.9 C117.133333,21.8333333 116.55,22 116.05,22.4 C115.483333,22.8 115.166667,23.3166667 115.1,23.95 L114.35,29.55 C114.283333,30.2166667 114.45,30.8166667 114.85,31.35 C115.25,31.85 115.783333,32.1333333 116.45,32.2 L135,34.65 L133.75,44.3 L115.15,41.9 C114.516667,41.8 113.933333,41.9666667 113.4,42.4 C112.866667,42.7666667 112.55,43.2833333 112.45,43.95 L111.45,51.85 C111.35,52.5166667 111.516667,53.1166667 111.95,53.65 C112.316667,54.1833333 112.833333,54.4833333 113.5,54.55 L136.5,57.55 L135.2,67.45 L98.05,62.6 L104.9,10.15 L140.3,14.75 L139,24.65" id="Shape" fill="#C83E3E"></path>
                <path d="M76.9,37.9 L76.9,37.85 L76.75,37.55 L72.35,28.5 L67.6,18.4 L63.25,8.95 L62.25,7.95 C61.7833333,7.68333333 61.3,7.56666667 60.8,7.6 L47.7,9 C47.2,9.06666667 46.75,9.28333333 46.35,9.65 C45.9833333,10.0166667 45.75,10.45 45.65,10.95 C45.55,11.45 45.6,11.9666667 45.8,12.5 L51.1,23.4 L51.1,23.45 L57.6,36.25 L64.95,49.75 C67.4833333,54.35 70.05,58.7666667 72.65,63 L73.6,63.85 L74.9,64.05 L86.3,62.85 L87.5,62.35 L88.25,61.25 C89.8833333,56.5833333 91.45,51.75 92.95,46.75 L97.25,31.95 L100.85,18 L100.85,17.95 L103.6,6.2 C103.7,5.63333333 103.666667,5.13333333 103.5,4.7 L102.45,3.55 C101.983333,3.25 101.5,3.13333333 101,3.2 L88.35,4.6 C87.8833333,4.63333333 87.45,4.85 87.05,5.25 C86.6833333,5.61666667 86.4333333,6.01666667 86.3,6.45 L84.1,16.6 L81.6,27.5 L79.1,37.95 L78.35,40.7 L77.2,38.55 L77,38.15 L77.05,38.15 L76.9,37.9 M44.75,7.9 C45.5166667,7.2 46.4166667,6.8 47.45,6.7 L60.55,5.25 C61.5166667,5.15 62.4666667,5.35 63.4,5.85 C64.3333333,6.38333333 65,7.11666667 65.4,8.05 L69.75,17.45 L74.45,27.5 L77.6,33.95 L79.3,26.95 L81.75,16.15 L83.95,6 C84.1833333,4.96666667 84.6833333,4.11666667 85.45,3.45 C86.2166667,2.75 87.1,2.35 88.1,2.25 L100.8,0.85 C101.766667,0.75 102.716667,0.966666667 103.65,1.5 L103.7,1.5 C104.566667,2 105.216667,2.73333333 105.65,3.7 C106.016667,4.7 106.1,5.7 105.9,6.7 L103.2,18.3 L103.1,18.55 L99.5,32.55 L99.45,32.8 L95.25,47.4 L90.55,62.05 L90.55,62 C90.25,62.8666667 89.75,63.6 89.05,64.2 C88.2833333,64.7333333 87.4333333,65.0666667 86.5,65.2 L75.15,66.4 C74.2166667,66.5333333 73.3666667,66.4 72.6,66 L72.6,66.05 C71.7333333,65.5833333 71.0666667,64.9833333 70.6,64.25 L70.55,64.2 L62.85,50.95 L55.5,37.35 C53.1333333,32.8833333 50.95,28.5833333 48.95,24.45 L48.9,24.3 L43.6,13.4 C43.2,12.4666667 43.1,11.5 43.3,10.5 L43.3,10.45 C43.5333333,9.45 44.0333333,8.61666667 44.8,7.95 L44.75,7.9" id="Shape" fill="#8A2323"></path>
                <path d="M77,38.15 L77.2,38.55 L78.35,40.7 L79.1,37.95 L81.6,27.5 L84.1,16.6 L86.3,6.45 C86.4333333,6.01666667 86.6833333,5.61666667 87.05,5.25 C87.45,4.85 87.8833333,4.63333333 88.35,4.6 L101,3.2 C101.5,3.13333333 101.983333,3.25 102.45,3.55 L103.5,4.7 C103.666667,5.13333333 103.7,5.63333333 103.6,6.2 L100.85,17.95 L100.85,18 L97.25,31.95 L92.95,46.75 C91.45,51.75 89.8833333,56.5833333 88.25,61.25 L87.5,62.35 L86.3,62.85 L74.9,64.05 L73.6,63.85 L72.65,63 C70.05,58.7666667 67.4833333,54.35 64.95,49.75 L57.6,36.25 L51.1,23.45 L51.1,23.4 L45.8,12.5 C45.6,11.9666667 45.55,11.45 45.65,10.95 C45.75,10.45 45.9833333,10.0166667 46.35,9.65 C46.75,9.28333333 47.2,9.06666667 47.7,9 L60.8,7.6 C61.3,7.56666667 61.7833333,7.68333333 62.25,7.95 L63.25,8.95 L67.6,18.4 L72.35,28.5 L76.75,37.55 L76.9,37.85 L76.9,37.9 L77,38.15 M88.65,7 L86.45,17.15 L83.95,28.05 L81.4,38.45 L81.4,38.6 L80.65,41.4 L79.9,42.55 C79.5333333,42.85 79.1,43.0333333 78.6,43.1 C78.0666667,43.1333333 77.6,43.0333333 77.2,42.8 L76.2,41.85 L75.1,39.7 L74.9,39.2 L74.9,39.1 L74.6,38.6 L70.2,29.55 L65.4,19.4 L61.05,9.95 L48,11.4 L48,11.45 L53.2,22.35 L53.3,22.5 L59.7,35.1 C62.0333333,39.6 64.4833333,44.1 67.05,48.6 C69.5833333,53.1666667 72.1166667,57.5333333 74.65,61.7 L86.05,60.45 L90.7,46.05 L94.95,31.3 L94.9,31.3 L98.5,17.4 L101.25,5.65 L101.25,5.6 L88.7,7 L88.65,7" id="Shape" fill="#E55C5C"></path>
                <path d="M88.65,7 L88.65,7.05 L88.7,7 L101.25,5.6 L101.25,5.65 L98.5,17.4 L94.9,31.3 L94.95,31.3 L90.7,46.05 L86.05,60.45 L74.65,61.7 C72.1166667,57.5333333 69.5833333,53.1666667 67.05,48.6 C64.4833333,44.1 62.0333333,39.6 59.7,35.1 L53.3,22.5 L53.2,22.35 L48,11.45 L48,11.4 L61.05,9.95 L65.4,19.4 L70.2,29.55 L74.6,38.6 L74.9,39.1 L74.9,39.2 L75.1,39.7 L76.2,41.85 L77.2,42.8 C77.6,43.0333333 78.0666667,43.1333333 78.6,43.1 C79.1,43.0333333 79.5333333,42.85 79.9,42.55 L80.65,41.4 L81.4,38.6 L81.4,38.45 L83.95,28.05 L86.45,17.15 L88.65,7" id="Shape" fill="#C83E3E"></path>
                <path d="M0.9,36.1 C0.9,30.8666667 1.71666667,26.2833333 3.35,22.35 C5.05,18.2833333 7.33333333,14.8666667 10.2,12.1 L10.2,12.05 C13.1333333,9.25 16.5,7.15 20.3,5.75 C24.0333333,4.38333333 27.9166667,3.7 31.95,3.7 C36.15,3.7 40.1,4.38333333 43.8,5.75 C47.6666667,7.15 51.05,9.25 53.95,12.05 L54,12.1 C56.8,14.8666667 59.0166667,18.2833333 60.65,22.35 C62.2833333,26.2833333 63.1,30.8666667 63.1,36.1 C63.1,41.3 62.3166667,45.8666667 60.75,49.8 C59.15,53.9 56.95,57.3166667 54.15,60.05 L54.1,60.1 C51.3,62.8666667 47.9666667,64.9666667 44.1,66.4 L43.75,66.55 C40.05,67.7833333 36.1166667,68.4 31.95,68.4 C27.7833333,68.4 23.85,67.7333333 20.15,66.4 L20.1,66.35 C16.2666667,64.9166667 12.9166667,62.8333333 10.05,60.1 L9.9,59.95 C7.13333333,57.25 4.93333333,53.8666667 3.3,49.8 C1.7,45.9 0.9,41.3333333 0.9,36.1 M21.2,29.8 C21.7333333,28 22.5,26.4666667 23.5,25.2 C24.4666667,23.9666667 25.65,23.0166667 27.05,22.35 L27,22.35 C28.4666667,21.6833333 30.1166667,21.35 31.95,21.35 C33.7833333,21.35 35.45,21.6833333 36.95,22.35 C38.35,22.9833333 39.5166667,23.9 40.45,25.1 C41.4833333,26.4 42.2666667,27.95 42.8,29.75 L42.8,29.7 C43.3666667,31.6333333 43.65,33.7666667 43.65,36.1 C43.65,38.4333333 43.3666667,40.55 42.8,42.45 C42.2666667,44.2166667 41.4833333,45.75 40.45,47.05 C39.4833333,48.25 38.3,49.1666667 36.9,49.8 C35.4333333,50.5 33.7833333,50.85 31.95,50.85 C30.1166667,50.85 28.4666667,50.5 27,49.8 C25.6333333,49.1666667 24.4666667,48.25 23.5,47.05 C22.5,45.75 21.7333333,44.2166667 21.2,42.45 C20.6,40.55 20.3,38.4333333 20.3,36.1 C20.3,33.8 20.6,31.7 21.2,29.8 M52.3,13.85 L52.3,13.8 C49.6333333,11.2 46.55,9.26666667 43.05,8 C39.55,6.73333333 35.85,6.1 31.95,6.1 C28.1833333,6.1 24.6,6.73333333 21.2,8 C17.6666667,9.26666667 14.5666667,11.2 11.9,13.8 L11.85,13.8 C9.18333333,16.3333333 7.1,19.4833333 5.6,23.25 C4.06666667,26.95 3.3,31.2333333 3.3,36.1 C3.3,40.9666667 4.05,45.25 5.55,48.95 C7.05,52.7166667 9.11666667,55.8666667 11.75,58.4 C14.3833333,60.9 17.45,62.8166667 20.95,64.15 L21,64.2 C24.4333333,65.4333333 28.0833333,66.05 31.95,66.05 C35.95,66.05 39.7,65.4333333 43.2,64.2 L43.25,64.2 C46.7833333,62.8333333 49.85,60.9 52.45,58.4 C55.0166667,55.8333333 57.0333333,52.6666667 58.5,48.9 C59.9666667,45.2333333 60.7,40.9666667 60.7,36.1 C60.7,31.2333333 59.9666667,26.95 58.5,23.25 C56.9666667,19.5166667 54.9,16.3833333 52.3,13.85 M24.95,27.25 C24.3166667,28.15 23.8166667,29.2333333 23.45,30.5 L23.45,30.45 C22.95,32.1833333 22.7,34.0666667 22.7,36.1 C22.7,38.2 22.95,40.0833333 23.45,41.75 C23.8833333,43.15 24.4833333,44.3666667 25.25,45.4 L25.25,45.45 L25.35,45.55 C26.1166667,46.4833333 27,47.1833333 28,47.65 C29.1333333,48.1833333 30.45,48.45 31.95,48.45 C33.45,48.45 34.7833333,48.1833333 35.95,47.65 C36.9833333,47.1833333 37.8666667,46.5 38.6,45.6 L38.65,45.55 C39.45,44.4833333 40.0666667,43.2166667 40.5,41.75 C41.0333333,40.0833333 41.3,38.2 41.3,36.1 C41.3,34.1 41.0666667,32.2666667 40.6,30.6 L40.5,30.4 C40.0666667,28.9333333 39.4333333,27.65 38.6,26.55 C37.9333333,25.75 37.1333333,25.1 36.2,24.6 L35.95,24.5 C34.7833333,23.9666667 33.45,23.7 31.95,23.7 L28.85,24.15 C27.1833333,24.6833333 25.8833333,25.7166667 24.95,27.25" id="Shape" fill="#8A2323"></path>
                <path d="M56.25,24.15 C54.8833333,20.7166667 53.0166667,17.85 50.65,15.55 L50.6,15.5 C48.1666667,13.1666667 45.3666667,11.4166667 42.2,10.25 C38.9666667,9.05 35.55,8.45 31.95,8.45 C28.45,8.45 25.1166667,9.05 21.95,10.25 C18.7833333,11.4166667 16,13.15 13.6,15.45 L13.55,15.5 C11.1166667,17.8333333 9.2,20.7166667 7.8,24.15 C6.36666667,27.5833333 5.65,31.5666667 5.65,36.1 C5.65,40.6333333 6.35,44.6166667 7.75,48.05 C9.11666667,51.4833333 10.9833333,54.35 13.35,56.65 L13.55,56.8 C15.8833333,59.0333333 18.6333333,60.7333333 21.8,61.9 L22.05,62 C25.15,63.1 28.45,63.65 31.95,63.65 C35.6833333,63.65 39.1666667,63.0666667 42.4,61.9 L42.45,61.9 C45.65,60.7 48.4166667,58.95 50.75,56.65 C53.1166667,54.35 54.9666667,51.4833333 56.3,48.05 L56.35,48.05 C57.6833333,44.6166667 58.35,40.6333333 58.35,36.1 C58.35,31.5666667 57.65,27.5833333 56.25,24.15 M45.1,29.05 C45.7333333,31.15 46.05,33.5 46.05,36.1 C46.05,38.7 45.7333333,41.05 45.1,43.15 C44.4333333,45.2166667 43.5166667,47 42.35,48.5 L42.15,48.75 C40.9833333,50.15 39.5833333,51.2166667 37.95,51.95 C36.15,52.7833333 34.15,53.2 31.95,53.2 C29.75,53.2 27.7833333,52.7833333 26.05,51.95 L26,51.95 C24.3,51.1833333 22.85,50.05 21.65,48.55 L21.6,48.45 C20.4333333,46.95 19.5333333,45.1833333 18.9,43.15 C18.2666667,41.05 17.95,38.7 17.95,36.1 C17.95,33.5666667 18.2666667,31.2333333 18.9,29.1 C19.5333333,27 20.4166667,25.2333333 21.55,23.8 L21.65,23.7 C22.85,22.2 24.3,21.0166667 26,20.15 L26.3,20.05 C27.9666667,19.3166667 29.85,18.95 31.95,18.95 C34.1166667,18.95 36.0666667,19.3333333 37.8,20.1 L37.95,20.1 C39.65,20.9666667 41.1,22.1333333 42.3,23.6 L42.3,23.65 C43.5,25.1166667 44.4166667,26.8666667 45.05,28.9 L45.1,29 L45.1,29.05 M52.3,13.85 C54.9,16.3833333 56.9666667,19.5166667 58.5,23.25 C59.9666667,26.95 60.7,31.2333333 60.7,36.1 C60.7,40.9666667 59.9666667,45.2333333 58.5,48.9 C57.0333333,52.6666667 55.0166667,55.8333333 52.45,58.4 C49.85,60.9 46.7833333,62.8333333 43.25,64.2 L43.2,64.2 C39.7,65.4333333 35.95,66.05 31.95,66.05 C28.0833333,66.05 24.4333333,65.4333333 21,64.2 L20.95,64.15 C17.45,62.8166667 14.3833333,60.9 11.75,58.4 C9.11666667,55.8666667 7.05,52.7166667 5.55,48.95 C4.05,45.25 3.3,40.9666667 3.3,36.1 C3.3,31.2333333 4.06666667,26.95 5.6,23.25 C7.1,19.4833333 9.18333333,16.3333333 11.85,13.8 L11.9,13.8 C14.5666667,11.2 17.6666667,9.26666667 21.2,8 C24.6,6.73333333 28.1833333,6.1 31.95,6.1 C35.85,6.1 39.55,6.73333333 43.05,8 C46.55,9.26666667 49.6333333,11.2 52.3,13.8 L52.3,13.85 M21.2,29.8 C20.6,31.7 20.3,33.8 20.3,36.1 C20.3,38.4333333 20.6,40.55 21.2,42.45 C21.7333333,44.2166667 22.5,45.75 23.5,47.05 C24.4666667,48.25 25.6333333,49.1666667 27,49.8 C28.4666667,50.5 30.1166667,50.85 31.95,50.85 C33.7833333,50.85 35.4333333,50.5 36.9,49.8 C38.3,49.1666667 39.4833333,48.25 40.45,47.05 C41.4833333,45.75 42.2666667,44.2166667 42.8,42.45 C43.3666667,40.55 43.65,38.4333333 43.65,36.1 C43.65,33.7666667 43.3666667,31.6333333 42.8,29.7 L42.8,29.75 C42.2666667,27.95 41.4833333,26.4 40.45,25.1 C39.5166667,23.9 38.35,22.9833333 36.95,22.35 C35.45,21.6833333 33.7833333,21.35 31.95,21.35 C30.1166667,21.35 28.4666667,21.6833333 27,22.35 L27.05,22.35 C25.65,23.0166667 24.4666667,23.9666667 23.5,25.2 C22.5,26.4666667 21.7333333,28 21.2,29.8" id="Shape" fill="#E55C5C"></path>
                <path d="M56.25,24.15 C57.65,27.5833333 58.35,31.5666667 58.35,36.1 C58.35,40.6333333 57.6833333,44.6166667 56.35,48.05 L56.3,48.05 C54.9666667,51.4833333 53.1166667,54.35 50.75,56.65 C48.4166667,58.95 45.65,60.7 42.45,61.9 L42.4,61.9 C39.1666667,63.0666667 35.6833333,63.65 31.95,63.65 C28.45,63.65 25.15,63.1 22.05,62 L21.8,61.9 C18.6333333,60.7333333 15.8833333,59.0333333 13.55,56.8 L13.35,56.65 C10.9833333,54.35 9.11666667,51.4833333 7.75,48.05 C6.35,44.6166667 5.65,40.6333333 5.65,36.1 C5.65,31.5666667 6.36666667,27.5833333 7.8,24.15 C9.2,20.7166667 11.1166667,17.8333333 13.55,15.5 L13.6,15.45 C16,13.15 18.7833333,11.4166667 21.95,10.25 C25.1166667,9.05 28.45,8.45 31.95,8.45 C35.55,8.45 38.9666667,9.05 42.2,10.25 C45.3666667,11.4166667 48.1666667,13.1666667 50.6,15.5 L50.65,15.55 C53.0166667,17.85 54.8833333,20.7166667 56.25,24.15 M45.1,29.05 L45.1,29 L45.05,28.9 C44.4166667,26.8666667 43.5,25.1166667 42.3,23.65 L42.3,23.6 C41.1,22.1333333 39.65,20.9666667 37.95,20.1 L37.8,20.1 C36.0666667,19.3333333 34.1166667,18.95 31.95,18.95 C29.85,18.95 27.9666667,19.3166667 26.3,20.05 L26,20.15 C24.3,21.0166667 22.85,22.2 21.65,23.7 L21.55,23.8 C20.4166667,25.2333333 19.5333333,27 18.9,29.1 C18.2666667,31.2333333 17.95,33.5666667 17.95,36.1 C17.95,38.7 18.2666667,41.05 18.9,43.15 C19.5333333,45.1833333 20.4333333,46.95 21.6,48.45 L21.65,48.55 C22.85,50.05 24.3,51.1833333 26,51.95 L26.05,51.95 C27.7833333,52.7833333 29.75,53.2 31.95,53.2 C34.15,53.2 36.15,52.7833333 37.95,51.95 C39.5833333,51.2166667 40.9833333,50.15 42.15,48.75 L42.35,48.5 C43.5166667,47 44.4333333,45.2166667 45.1,43.15 C45.7333333,41.05 46.05,38.7 46.05,36.1 C46.05,33.5 45.7333333,31.15 45.1,29.05" id="Shape" fill="#C83E3E"></path>
            </g>
        </g>
    </g>
</svg>
