<svg viewBox="0 0 104 54" xmlns="http://www.w3.org/2000/svg"><g fill="none" fill-rule="evenodd"><path fill="#80BE1F" d="M12.95 40.95v-28h78v28h-78"/><path fill="#AADB5C" d="M12.95 12.95l-8-8h94l-8 8h-78"/><path d="M12.95 12.95v28l-8 8v-44l8 8m86-8v44l-8-8v-28l8-8" fill="#8CC92C"/><path fill="#6DA615" d="M4.95 48.95l8-8h78l8 8h-94"/><path d="M5 49h94V5H5v44M5 0h94c1.367 0 2.55.5 3.55 1.5.967.967 1.45 2.133 1.45 3.5v44c0 1.367-.483 2.55-1.45 3.55-1 .967-2.183 1.45-3.55 1.45H5c-1.367 0-2.533-.483-3.5-1.45-1-1-1.5-2.183-1.5-3.55V5c0-1.367.5-2.533 1.5-3.5C2.467.5 3.633 0 5 0" fill="#44690B"/></g></svg>