<svg viewBox="0 0 54 104" xmlns="http://www.w3.org/2000/svg"><g fill="none" fill-rule="evenodd"><path fill="#80BE1F" d="M40.95 91.05h-28v-78h28v78"/><path fill="#AADB5C" d="M12.95 91.05l-8 8v-94l8 8v78"/><path d="M12.95 91.05h28l8 8h-44l8-8m-8-86h44l-8 8h-28l-8-8" fill="#8CC92C"/><path fill="#6DA615" d="M48.95 99.05l-8-8v-78l8-8v94"/><path d="M49 99V5H5v94h44M0 99V5c0-1.367.5-2.55 1.5-3.55C2.467.483 3.633 0 5 0h44c1.367 0 2.55.483 3.55 1.45C53.517 2.45 54 3.633 54 5v94c0 1.367-.483 2.533-1.45 3.5-1 1-2.183 1.5-3.55 1.5H5c-1.367 0-2.533-.5-3.5-1.5-1-.967-1.5-2.133-1.5-3.5" fill="#44690B"/></g></svg>