<?xml version="1.0" encoding="UTF-8" standalone="no"?>
<svg width="104px" height="54px" viewBox="0 0 104 54" version="1.1" xmlns="http://www.w3.org/2000/svg" xmlns:xlink="http://www.w3.org/1999/xlink">
    <!-- Generator: Sketch 3.7.1 (28215) - http://www.bohemiancoding.com/sketch -->
    <title>Group</title>
    <desc>Created with Sketch.</desc>
    <defs></defs>
    <g id="Page-1" stroke="none" stroke-width="1" fill="none" fill-rule="evenodd">
        <g id="green-horizontal">
            <g id="Group">
                <polyline id="Shape" fill="#80BE1F" points="12.95 40.95 12.95 12.95 90.95 12.95 90.95 40.95 12.95 40.95"></polyline>
                <polyline id="Shape" fill="#AADB5C" points="12.95 12.95 4.95 4.95 98.95 4.95 90.95 12.95 12.95 12.95"></polyline>
                <path d="M12.95,12.95 L12.95,40.95 L4.95,48.95 L4.95,4.95 L12.95,12.95 M98.95,4.95 L98.95,48.95 L90.95,40.95 L90.95,12.95 L98.95,4.95" id="Shape" fill="#8CC92C"></path>
                <polyline id="Shape" fill="#6DA615" points="4.95 48.95 12.95 40.95 90.95 40.95 98.95 48.95 4.95 48.95"></polyline>
                <path d="M5,49 L99,49 L99,5 L5,5 L5,49 M5,0 L99,0 C100.366667,0 101.55,0.5 102.55,1.5 C103.516667,2.46666667 104,3.63333333 104,5 L104,49 C104,50.3666667 103.516667,51.55 102.55,52.55 C101.55,53.5166667 100.366667,54 99,54 L5,54 C3.63333333,54 2.46666667,53.5166667 1.5,52.55 C0.5,51.55 0,50.3666667 0,49 L0,5 C0,3.63333333 0.5,2.46666667 1.5,1.5 C2.46666667,0.5 3.63333333,0 5,0" id="Shape" fill="#44690B"></path>
            </g>
        </g>
    </g>
</svg>