<?xml version="1.0" encoding="UTF-8" standalone="no"?>
<svg viewBox="0 0 211 65" version="1.1" xmlns="http://www.w3.org/2000/svg" xmlns:xlink="http://www.w3.org/1999/xlink">
    <g id="Page-1" stroke="none" stroke-width="1" fill="none" fill-rule="evenodd">
        <path d="M159.642236,15.3 L159.642236,5.55 C159.642236,4.28333333 160.075569,3.2 160.942236,2.3 C161.842236,1.43333333 162.925569,1 164.192236,1 L205.892236,1 C207.125569,1 208.192236,1.43333333 209.092236,2.3 C209.958903,3.2 210.392236,4.28333333 210.392236,5.55 L210.392236,15.3 C210.358903,16.5 209.925569,17.5333333 209.092236,18.4 C208.192236,19.2666667 207.125569,19.7 205.892236,19.7 L195.192236,19.7 L195.192236,24.25 L195.192236,56.05 C195.158903,57.2166667 194.725569,58.2 193.892236,59 C192.992236,59.9 191.925569,60.35 190.692236,60.35 L179.392236,60.35 C178.125569,60.35 177.042236,59.9 176.142236,59 C175.308903,58.1666667 174.875569,57.1333333 174.842236,55.9 L174.842236,24.25 L174.842236,19.7 L164.192236,19.7 C162.925569,19.7 161.842236,19.2666667 160.942236,18.4 C160.108903,17.5333333 159.675569,16.5 159.642236,15.3 M207.492236,3.95 C207.025569,3.48333333 206.492236,3.25 205.892236,3.25 L164.192236,3.25 C163.558903,3.25 163.025569,3.48333333 162.592236,3.95 C162.125569,4.38333333 161.892236,4.91666667 161.892236,5.55 L161.892236,15.15 C161.892236,15.7833333 162.125569,16.3333333 162.592236,16.8 C163.025569,17.2333333 163.558903,17.45 164.192236,17.45 L177.092236,17.45 L177.092236,55.8 C177.092236,56.4333333 177.325569,56.9833333 177.792236,57.45 C178.225569,57.85 178.758903,58.05 179.392236,58.05 L190.692236,58.05 C191.292236,58.05 191.825569,57.85 192.292236,57.45 C192.725569,56.9833333 192.942236,56.4333333 192.942236,55.8 L192.942236,17.45 L205.892236,17.45 C206.492236,17.45 207.025569,17.2333333 207.492236,16.8 C207.925569,16.3333333 208.142236,15.7833333 208.142236,15.15 L208.142236,5.55 C208.142236,4.91666667 207.925569,4.38333333 207.492236,3.95" id="Shape" fill="#5DA3BD"></path>
        <path d="M207.242236,3.7 C207.675569,4.13333333 207.892236,4.66666667 207.892236,5.3 L207.892236,14.9 C207.892236,15.5333333 207.675569,16.0833333 207.242236,16.55 C206.775569,16.9833333 206.242236,17.2 205.642236,17.2 L192.692236,17.2 L192.692236,55.55 C192.692236,56.1833333 192.475569,56.7333333 192.042236,57.2 C191.575569,57.6 191.042236,57.8 190.442236,57.8 L179.142236,57.8 C178.508903,57.8 177.975569,57.6 177.542236,57.2 C177.075569,56.7333333 176.842236,56.1833333 176.842236,55.55 L176.842236,17.2 L163.942236,17.2 C163.308903,17.2 162.775569,16.9833333 162.342236,16.55 C161.875569,16.0833333 161.642236,15.5333333 161.642236,14.9 L161.642236,5.3 C161.642236,4.66666667 161.875569,4.13333333 162.342236,3.7 C162.775569,3.23333333 163.308903,3 163.942236,3 L205.642236,3 C206.242236,3 206.775569,3.23333333 207.242236,3.7 M205.642236,14.9 L205.642236,5.3 L163.942236,5.3 L163.942236,14.9 L179.142236,14.9 L179.142236,55.55 L190.442236,55.55 L190.442236,14.9 L205.642236,14.9" id="Shape" fill="#D5EDF7"></path>
        <path d="M210.392236,15 L210.392236,19.4 C210.392236,20.6666667 209.958903,21.7333333 209.092236,22.6 C208.192236,23.5 207.125569,23.95 205.892236,23.95 L195.192236,23.95 L195.192236,19.4 L205.892236,19.4 C207.125569,19.4 208.192236,18.9666667 209.092236,18.1 C209.925569,17.2333333 210.358903,16.2 210.392236,15 M195.192236,55.75 L195.192236,60.05 C195.192236,61.3166667 194.758903,62.3833333 193.892236,63.25 C192.992236,64.15 191.925569,64.6 190.692236,64.6 L179.392236,64.6 C178.125569,64.6 177.042236,64.15 176.142236,63.25 C175.275569,62.3833333 174.842236,61.3166667 174.842236,60.05 L174.842236,55.6 C174.875569,56.8333333 175.308903,57.8666667 176.142236,58.7 C177.042236,59.6 178.125569,60.05 179.392236,60.05 L190.692236,60.05 C191.925569,60.05 192.992236,59.6 193.892236,58.7 C194.725569,57.9 195.158903,56.9166667 195.192236,55.75 M174.842236,23.95 L164.192236,23.95 C162.925569,23.95 161.842236,23.5 160.942236,22.6 C160.075569,21.7333333 159.642236,20.6666667 159.642236,19.4 L159.642236,15 C159.675569,16.2 160.108903,17.2333333 160.942236,18.1 C161.842236,18.9666667 162.925569,19.4 164.192236,19.4 L174.842236,19.4 L174.842236,23.95" id="Shape" fill-opacity="0.101960784" fill="#000000"></path>
        <polyline id="Shape" fill="#ACDCEE" points="205.7 15.1 190.5 15.1 190.5 55.75 179.2 55.75 179.2 15.1 164 15.1 164 5.5 205.7 5.5 205.7 15.1"></polyline>
        <path d="M103.306522,7.8 C102.806522,6.93333333 102.623188,5.98333333 102.756522,4.95 C102.923188,3.81666667 103.423188,2.88333333 104.256522,2.15 C105.123188,1.38333333 106.123188,1 107.256522,1 L121.006522,1 C121.773188,1 122.489855,1.2 123.156522,1.6 C123.856522,1.96666667 124.423188,2.48333333 124.856522,3.15 L130.756522,12.6 L136.506522,3.15 L136.506522,3.2 C136.906522,2.53333333 137.456522,2 138.156522,1.6 L138.206522,1.6 C138.873188,1.2 139.589855,1 140.356522,1 L153.306522,1 C154.406522,1 155.389855,1.38333333 156.256522,2.15 C157.123188,2.91666667 157.623188,3.85 157.756522,4.95 C157.923188,5.95 157.739855,6.9 157.206522,7.8 L157.056522,8.05 L142.856522,29.75 L144.456522,31.85 C147.089855,35.4833333 149.406522,38.9333333 151.406522,42.2 C154.239855,46.7333333 156.473188,50.5666667 158.106522,53.7 C158.606522,54.6666667 158.756522,55.6833333 158.556522,56.75 L158.006522,58.15 L156.956522,59.35 C156.123188,60.0166667 155.173188,60.35 154.106522,60.35 L140.506522,60.35 C139.673188,60.35 138.889855,60.1333333 138.156522,59.7 C137.423188,59.2333333 136.856522,58.6166667 136.456522,57.85 L136.456522,57.8 L132.006522,49.6 L130.106522,46.5 L128.356522,49.35 L128.106522,49.65 L125.406522,54.35 L123.606522,57.7 C123.206522,58.5 122.639855,59.15 121.906522,59.65 C121.173188,60.1166667 120.356522,60.35 119.456522,60.35 L106.556522,60.35 C105.456522,60.35 104.489855,60.0166667 103.656522,59.35 L103.656522,59.3 L102.606522,58.15 L102.106522,56.75 L102.106522,56.7 C101.873188,55.6 102.023188,54.5833333 102.556522,53.65 C104.756522,49.6166667 107.306522,45.4 110.206522,41 L116.406522,31.9 L117.956522,29.7 L103.456522,8.1 L103.306522,7.8 M139.256522,3.6 L138.456522,4.35 L130.806522,16.9 L122.906522,4.35 L122.056522,3.6 L121.006522,3.3 L107.256522,3.3 C106.689855,3.3 106.206522,3.48333333 105.806522,3.85 C105.339855,4.21666667 105.073188,4.68333333 105.006522,5.25 L105.056522,6.1 L105.356522,6.85 L120.706522,29.75 L117.756522,33.95 L112.106522,42.25 C109.773188,45.8166667 107.656522,49.3 105.756522,52.7 L104.556522,54.75 C104.289855,55.2166667 104.206522,55.7166667 104.306522,56.25 C104.406522,56.7833333 104.673188,57.2166667 105.106522,57.55 C105.539855,57.9166667 106.023188,58.1 106.556522,58.1 L119.456522,58.1 L120.706522,57.75 L121.556522,56.75 L123.456522,53.2 L126.406522,48.2 L129.456522,43.4 L129.456522,43.35 L130.106522,42.4 L134.006522,48.45 C135.639855,51.25 137.139855,54.05 138.506522,56.85 C138.706522,57.2166667 138.989855,57.5166667 139.356522,57.75 C139.723188,57.9833333 140.106522,58.1 140.506522,58.1 L154.106522,58.1 C154.639855,58.1 155.123188,57.9333333 155.556522,57.6 C155.956522,57.2333333 156.206522,56.7833333 156.306522,56.25 C156.406522,55.75 156.339855,55.25 156.106522,54.75 L154.006522,51 L149.506522,43.4 L143.156522,33.9 L140.106522,29.8 L155.156522,6.8 L155.456522,6.1 L155.556522,5.25 C155.456522,4.68333333 155.189855,4.21666667 154.756522,3.85 C154.356522,3.48333333 153.856522,3.3 153.256522,3.3 L140.356522,3.3 C139.956522,3.3 139.589855,3.4 139.256522,3.6" id="Shape" fill="#5DA3BD"></path>
        <path d="M139.256522,3.6 C139.589855,3.4 139.956522,3.3 140.356522,3.3 L153.256522,3.3 C153.856522,3.3 154.356522,3.48333333 154.756522,3.85 C155.189855,4.21666667 155.456522,4.68333333 155.556522,5.25 L155.456522,6.1 L155.156522,6.8 L140.106522,29.8 L143.156522,33.9 L149.506522,43.4 L154.006522,51 L156.106522,54.75 C156.339855,55.25 156.406522,55.75 156.306522,56.25 C156.206522,56.7833333 155.956522,57.2333333 155.556522,57.6 C155.123188,57.9333333 154.639855,58.1 154.106522,58.1 L140.506522,58.1 C140.106522,58.1 139.723188,57.9833333 139.356522,57.75 C138.989855,57.5166667 138.706522,57.2166667 138.506522,56.85 C137.139855,54.05 135.639855,51.25 134.006522,48.45 L130.106522,42.4 L129.456522,43.35 L129.456522,43.4 L126.406522,48.2 L123.456522,53.2 L121.556522,56.75 L120.706522,57.75 L119.456522,58.1 L106.556522,58.1 C106.023188,58.1 105.539855,57.9166667 105.106522,57.55 C104.673188,57.2166667 104.406522,56.7833333 104.306522,56.25 C104.206522,55.7166667 104.289855,55.2166667 104.556522,54.75 L105.756522,52.7 C107.656522,49.3 109.773188,45.8166667 112.106522,42.25 L117.756522,33.95 L120.706522,29.75 L105.356522,6.85 L105.056522,6.1 L105.006522,5.25 C105.073188,4.68333333 105.339855,4.21666667 105.806522,3.85 C106.206522,3.48333333 106.689855,3.3 107.256522,3.3 L121.006522,3.3 L122.056522,3.6 L122.906522,4.35 L130.806522,16.9 L138.456522,4.35 L139.256522,3.6 M130.806522,21.2 L121.006522,5.55 L107.256522,5.55 L123.456522,29.8 C119.956522,34.6333333 116.806522,39.2 114.006522,43.5 C111.173188,47.7666667 108.689855,51.8666667 106.556522,55.8 L119.456522,55.8 L121.456522,52.1 L124.406522,47.05 L127.556522,42.1 L130.106522,38.5 C132.306522,41.5 134.239855,44.4333333 135.906522,47.3 L140.506522,55.8 L154.106522,55.8 L147.556522,44.55 C144.823188,40.0833333 141.406522,35.2166667 137.306522,29.95 L153.256522,5.55 L140.356522,5.55 L130.806522,21.2" id="Shape" fill="#D5EDF7"></path>
        <path d="M130.806522,21.2 L140.356522,5.55 L153.256522,5.55 L137.306522,29.95 C141.406522,35.2166667 144.823188,40.0833333 147.556522,44.55 L154.106522,55.8 L140.506522,55.8 L135.906522,47.3 C134.239855,44.4333333 132.306522,41.5 130.106522,38.5 L127.556522,42.1 L124.406522,47.05 L121.456522,52.1 L119.456522,55.8 L106.556522,55.8 C108.689855,51.8666667 111.173188,47.7666667 114.006522,43.5 C116.806522,39.2 119.956522,34.6333333 123.456522,29.8 L107.256522,5.55 L121.006522,5.55 L130.806522,21.2" id="Shape" fill="#ACDCEE"></path>
        <path d="M157.206522,7.8 L157.756522,9.5 C157.923188,10.6 157.689855,11.6333333 157.056522,12.6 L144.456522,31.85 L142.856522,29.75 L157.056522,8.05 L157.206522,7.8 M158.006522,58.15 L158.106522,58.25 C158.606522,59.2166667 158.756522,60.2166667 158.556522,61.25 C158.323188,62.3166667 157.789855,63.1833333 156.956522,63.85 C156.123188,64.55 155.173188,64.9 154.106522,64.9 L140.506522,64.9 C139.673188,64.9 138.889855,64.6666667 138.156522,64.2 C137.423188,63.7666667 136.856522,63.1666667 136.456522,62.4 L136.456522,62.35 L132.006522,54.1 L130.106522,51 L128.356522,53.9 L128.106522,54.2 L125.406522,58.9 L123.606522,62.25 C123.206522,63.05 122.639855,63.7 121.906522,64.2 C121.173188,64.6666667 120.356522,64.9 119.456522,64.9 L106.556522,64.9 C105.456522,64.9 104.489855,64.55 103.656522,63.85 C102.823188,63.15 102.306522,62.2833333 102.106522,61.25 C101.873188,60.15 102.023188,59.1333333 102.556522,58.2 L102.606522,58.15 L103.656522,59.3 L103.656522,59.35 C104.489855,60.0166667 105.456522,60.35 106.556522,60.35 L119.456522,60.35 C120.356522,60.35 121.173188,60.1166667 121.906522,59.65 C122.639855,59.15 123.206522,58.5 123.606522,57.7 L125.406522,54.35 L128.106522,49.65 L128.356522,49.35 L130.106522,46.5 L132.006522,49.6 L136.456522,57.8 L136.456522,57.85 C136.856522,58.6166667 137.423188,59.2333333 138.156522,59.7 C138.889855,60.1333333 139.673188,60.35 140.506522,60.35 L154.106522,60.35 C155.173188,60.35 156.123188,60.0166667 156.956522,59.35 L158.006522,58.15 M116.406522,31.9 L103.456522,12.6 C102.856522,11.6666667 102.623188,10.6333333 102.756522,9.5 C102.823188,8.86666667 103.006522,8.3 103.306522,7.8 L103.456522,8.1 L117.956522,29.7 L116.406522,31.9" id="Shape" fill-opacity="0.101960784" fill="#000000"></path>
        <path d="M98.45,15.05 L98.45,19.35 C98.45,20.6166667 98.0166667,21.6833333 97.15,22.55 C96.75,22.95 96.3,23.2666667 95.8,23.5 C95.6,22.7666667 95.2,22.1 94.6,21.5 C93.7333333,20.6333333 92.6666667,20.2 91.4,20.2 L75.85,20.2 L75.85,19.35 L93.95,19.35 C95.2166667,19.35 96.2833333,18.9166667 97.15,18.05 C97.9833333,17.2166667 98.4166667,16.2166667 98.45,15.05 M95.95,34.1 L95.95,38.5 C95.95,39.7 95.55,40.7333333 94.75,41.6 L75.85,41.6 L75.85,38.5 L91.4,38.5 C92.6666667,38.5 93.7333333,38.0666667 94.6,37.2 C95.4666667,36.3333333 95.9166667,35.3 95.95,34.1 M100.15,55.7 L100.15,60.15 C100.15,61.4166667 99.7,62.4833333 98.8,63.35 C97.9333333,64.25 96.8666667,64.7 95.6,64.7 L60,64.7 C58.7333333,64.7 57.6666667,64.25 56.8,63.35 C55.9,62.4833333 55.45,61.4166667 55.45,60.15 L55.45,55.7 C55.4833333,56.9333333 55.9333333,57.9666667 56.8,58.8 C57.6666667,59.7 58.7333333,60.15 60,60.15 L95.6,60.15 C96.8666667,60.15 97.9333333,59.7 98.8,58.8 C99.6666667,57.9666667 100.116667,56.9333333 100.15,55.7" id="Shape" fill-opacity="0.101960784" fill="#000000"></path>
        <path d="M100.15,55.7 C100.116667,56.9333333 99.6666667,57.9666667 98.8,58.8 C97.9333333,59.7 96.8666667,60.15 95.6,60.15 L60,60.15 C58.7333333,60.15 57.6666667,59.7 56.8,58.8 C55.9333333,57.9666667 55.4833333,56.9333333 55.45,55.7 L55.45,5.35 C55.45,4.08333333 55.9,3 56.8,2.1 C57.6666667,1.23333333 58.7333333,0.8 60,0.8 L93.95,0.8 C95.2166667,0.8 96.2833333,1.23333333 97.15,2.1 C98.0166667,3 98.45,4.08333333 98.45,5.35 L98.45,15.05 C98.4166667,16.2166667 97.9833333,17.2166667 97.15,18.05 C96.2833333,18.9166667 95.2166667,19.35 93.95,19.35 L75.85,19.35 L75.85,20.2 L91.4,20.2 C92.6666667,20.2 93.7333333,20.6333333 94.6,21.5 C95.2,22.1 95.6,22.7666667 95.8,23.5 L95.95,24.7 L95.95,34.1 C95.9166667,35.3 95.4666667,36.3333333 94.6,37.2 C93.7333333,38.0666667 92.6666667,38.5 91.4,38.5 L75.85,38.5 L75.85,41.6 L94.75,41.6 L95.6,41.6 C96.8666667,41.6 97.9333333,42.0333333 98.8,42.9 C99.7,43.8 100.15,44.8666667 100.15,46.1 L100.15,55.7 M58.4,3.75 C57.9333333,4.18333333 57.7,4.71666667 57.7,5.35 L57.7,55.6 C57.7,56.2333333 57.9333333,56.7833333 58.4,57.25 C58.8333333,57.65 59.3666667,57.85 60,57.85 L95.6,57.85 C96.2333333,57.85 96.7833333,57.65 97.25,57.25 C97.65,56.7833333 97.85,56.2333333 97.85,55.6 L97.85,46.1 C97.85,45.4666667 97.65,44.95 97.25,44.55 C96.7833333,44.0833333 96.2333333,43.85 95.6,43.85 L73.55,43.85 L73.55,36.25 L91.4,36.25 C92.0333333,36.25 92.5833333,36.0333333 93.05,35.6 C93.45,35.1666667 93.65,34.6333333 93.65,34 L93.65,24.7 L93.5,23.9 L93.05,23.15 C92.5833333,22.6833333 92.0333333,22.45 91.4,22.45 L73.55,22.45 L73.55,17.1 L93.95,17.1 C94.5833333,17.1 95.1166667,16.8833333 95.55,16.45 C95.9833333,15.9833333 96.2,15.4333333 96.2,14.8 L96.2,5.35 C96.2,4.71666667 95.9833333,4.18333333 95.55,3.75 C95.1166667,3.28333333 94.5833333,3.05 93.95,3.05 L60,3.05 C59.3666667,3.05 58.8333333,3.28333333 58.4,3.75" id="Shape" fill="#5DA3BD"></path>
        <path d="M58.4,3.75 C58.8333333,3.28333333 59.3666667,3.05 60,3.05 L93.95,3.05 C94.5833333,3.05 95.1166667,3.28333333 95.55,3.75 C95.9833333,4.18333333 96.2,4.71666667 96.2,5.35 L96.2,14.8 C96.2,15.4333333 95.9833333,15.9833333 95.55,16.45 C95.1166667,16.8833333 94.5833333,17.1 93.95,17.1 L73.55,17.1 L73.55,22.45 L91.4,22.45 C92.0333333,22.45 92.5833333,22.6833333 93.05,23.15 L93.5,23.9 L93.65,24.7 L93.65,34 C93.65,34.6333333 93.45,35.1666667 93.05,35.6 C92.5833333,36.0333333 92.0333333,36.25 91.4,36.25 L73.55,36.25 L73.55,43.85 L95.6,43.85 C96.2333333,43.85 96.7833333,44.0833333 97.25,44.55 C97.65,44.95 97.85,45.4666667 97.85,46.1 L97.85,55.6 C97.85,56.2333333 97.65,56.7833333 97.25,57.25 C96.7833333,57.65 96.2333333,57.85 95.6,57.85 L60,57.85 C59.3666667,57.85 58.8333333,57.65 58.4,57.25 C57.9333333,56.7833333 57.7,56.2333333 57.7,55.6 L57.7,5.35 C57.7,4.71666667 57.9333333,4.18333333 58.4,3.75 M71.3,24.7 L71.3,14.8 L93.95,14.8 L93.95,5.35 L60,5.35 L60,55.6 L95.6,55.6 L95.6,46.1 L71.3,46.1 L71.3,34 L91.4,34 L91.4,24.7 L71.3,24.7" id="Shape" fill="#D5EDF7"></path>
        <polyline id="Shape" fill="#ACDCEE" points="71.3 24.7 91.4 24.7 91.4 34 71.3 34 71.3 46.1 95.6 46.1 95.6 55.6 60 55.6 60 5.35 93.95 5.35 93.95 14.8 71.3 14.8 71.3 24.7"></polyline>
        <path d="M49.45,3.75 C48.9833333,3.31666667 48.4333333,3.1 47.8,3.1 L36.55,3.1 C35.9166667,3.1 35.3833333,3.31666667 34.95,3.75 C34.4833333,4.18333333 34.25,4.71666667 34.25,5.35 L34.25,27.65 L32.8,25.55 L32,24.45 L26.8,17.3 L20.8,9.75 L15.4,3.75 C14.9666667,3.31666667 14.4333333,3.1 13.8,3.1 L4.55,3.1 C3.91666667,3.1 3.38333333,3.31666667 2.95,3.75 C2.51666667,4.18333333 2.3,4.71666667 2.3,5.35 L2.3,55.6 C2.3,56.2333333 2.51666667,56.7833333 2.95,57.25 C3.38333333,57.6833333 3.91666667,57.9 4.55,57.9 L15.7,57.9 C16.3333333,57.9 16.8833333,57.6833333 17.35,57.25 C17.7833333,56.7833333 18,56.2333333 18,55.6 L18,29 C20.7333333,32.4666667 23.3666667,36.0833333 25.9,39.85 C29.6333333,45.3833333 33.1,51.0166667 36.3,56.75 L37.15,57.6 L38.3,57.9 L47.8,57.9 C48.4333333,57.9 48.9833333,57.6833333 49.45,57.25 C49.85,56.7833333 50.05,56.2333333 50.05,55.6 L50.05,5.35 C50.05,4.71666667 49.85,4.18333333 49.45,3.75 M0.05,55.85 L0.05,5.35 C0.05,4.08333333 0.483333333,3.01666667 1.35,2.15 C2.21666667,1.25 3.28333333,0.8 4.55,0.8 L13.8,0.8 C15.0666667,0.8 16.1333333,1.25 17,2.15 L22.55,8.35 L28.4,15.7 L28.6,15.95 L32,20.55 L32,5.35 C32,4.08333333 32.45,3.01666667 33.35,2.15 C34.2166667,1.25 35.2833333,0.8 36.55,0.8 L47.8,0.8 C49.0666667,0.8 50.1333333,1.25 51,2.15 C51.9,3.01666667 52.35,4.08333333 52.35,5.35 L52.35,55.75 C52.3166667,56.95 51.8666667,57.9833333 51,58.85 C50.1333333,59.7166667 49.0666667,60.15 47.8,60.15 L38.3,60.15 C37.4666667,60.15 36.6833333,59.9333333 35.95,59.5 L36,59.55 C35.2666667,59.1166667 34.7166667,58.55 34.35,57.85 L34.3,57.85 C31.2,52.2833333 27.8333333,46.8 24.2,41.4 L24,41.1 L20.25,35.75 L20.25,40.25 L20.25,55.75 C20.2166667,56.95 19.7833333,57.9833333 18.95,58.85 C18.05,59.7166667 16.9666667,60.15 15.7,60.15 L4.55,60.15 C3.28333333,60.15 2.21666667,59.7166667 1.35,58.85 C0.516666667,58.0166667 0.0833333333,57.0166667 0.05,55.85" id="Shape" fill="#5DA3BD"></path>
        <path d="M49.45,3.75 C49.85,4.18333333 50.05,4.71666667 50.05,5.35 L50.05,55.6 C50.05,56.2333333 49.85,56.7833333 49.45,57.25 C48.9833333,57.6833333 48.4333333,57.9 47.8,57.9 L38.3,57.9 L37.15,57.6 L36.3,56.75 C33.1,51.0166667 29.6333333,45.3833333 25.9,39.85 C23.3666667,36.0833333 20.7333333,32.4666667 18,29 L18,55.6 C18,56.2333333 17.7833333,56.7833333 17.35,57.25 C16.8833333,57.6833333 16.3333333,57.9 15.7,57.9 L4.55,57.9 C3.91666667,57.9 3.38333333,57.6833333 2.95,57.25 C2.51666667,56.7833333 2.3,56.2333333 2.3,55.6 L2.3,5.35 C2.3,4.71666667 2.51666667,4.18333333 2.95,3.75 C3.38333333,3.31666667 3.91666667,3.1 4.55,3.1 L13.8,3.1 C14.4333333,3.1 14.9666667,3.31666667 15.4,3.75 L20.8,9.75 L26.8,17.3 L32,24.45 L32.8,25.55 L34.25,27.65 L34.25,5.35 C34.25,4.71666667 34.4833333,4.18333333 34.95,3.75 C35.3833333,3.31666667 35.9166667,3.1 36.55,3.1 L47.8,3.1 C48.4333333,3.1 48.9833333,3.31666667 49.45,3.75 M36.55,35 L30.95,26.85 L24.95,18.65 L19.05,11.2 L13.8,5.35 L4.55,5.35 L4.55,55.6 L15.7,55.6 L15.7,22.65 C19.9666667,27.65 23.9833333,32.95 27.75,38.55 C31.55,44.15 35.0666667,49.8333333 38.3,55.6 L47.8,55.6 L47.8,5.35 L36.55,5.35 L36.55,35" id="Shape" fill="#D5EDF7"></path>
        <path d="M36.55,35 L36.55,5.35 L47.8,5.35 L47.8,55.6 L38.3,55.6 C35.0666667,49.8333333 31.55,44.15 27.75,38.55 C23.9833333,32.95 19.9666667,27.65 15.7,22.65 L15.7,55.6 L4.55,55.6 L4.55,5.35 L13.8,5.35 L19.05,11.2 L24.95,18.65 L30.95,26.85 L36.55,35" id="Shape" fill="#ACDCEE"></path>
        <path d="M52.35,55.75 L52.35,60.15 C52.35,61.4166667 51.9,62.4833333 51,63.35 C50.1333333,64.25 49.0666667,64.7 47.8,64.7 L38.3,64.7 C37.4666667,64.7 36.6833333,64.4833333 35.95,64.05 L36,64.1 C35.2666667,63.6666667 34.7166667,63.1 34.35,62.4 L34.3,62.4 C31.2,56.8333333 27.8333333,51.35 24.2,45.95 L24,45.65 L20.25,40.25 L20.25,35.75 L24,41.1 L24.2,41.4 C27.8333333,46.8 31.2,52.2833333 34.3,57.85 L34.35,57.85 C34.7166667,58.55 35.2666667,59.1166667 36,59.55 L35.95,59.5 C36.6833333,59.9333333 37.4666667,60.15 38.3,60.15 L47.8,60.15 C49.0666667,60.15 50.1333333,59.7166667 51,58.85 C51.8666667,57.9833333 52.3166667,56.95 52.35,55.75 M20.25,55.75 L20.25,60.15 C20.25,61.4166667 19.8166667,62.4833333 18.95,63.35 C18.05,64.25 16.9666667,64.7 15.7,64.7 L4.55,64.7 C3.28333333,64.7 2.21666667,64.25 1.35,63.35 C0.483333333,62.4833333 0.05,61.4166667 0.05,60.15 L0.05,55.85 C0.0833333333,57.0166667 0.516666667,58.0166667 1.35,58.85 C2.21666667,59.7166667 3.28333333,60.15 4.55,60.15 L15.7,60.15 C16.9666667,60.15 18.05,59.7166667 18.95,58.85 C19.7833333,57.9833333 20.2166667,56.95 20.25,55.75" id="Shape" fill-opacity="0.101960784" fill="#000000"></path>
    </g>
</svg>
