<?xml version="1.0" encoding="UTF-8" standalone="no"?>
<svg viewBox="0 0 330 67" version="1.1" xmlns="http://www.w3.org/2000/svg" xmlns:xlink="http://www.w3.org/1999/xlink">
    <!-- Generator: Sketch 3.7.2 (28276) - http://www.bohemiancoding.com/sketch -->
    <title>restart</title>
    <desc>Created with Sketch.</desc>
    <defs></defs>
    <g id="Page-1" stroke="none" stroke-width="1" fill="none" fill-rule="evenodd">
        <g id="restart">
            <g id="Page-1">
                <g id="restart">
                    <path d="M278.55,15.1 L278.55,5.35 C278.55,4.08333333 278.983333,3 279.85,2.1 C280.75,1.23333333 281.833333,0.8 283.1,0.8 L324.8,0.8 C326.033333,0.8 327.1,1.23333333 328,2.1 C328.866667,3 329.3,4.08333333 329.3,5.35 L329.3,15.1 C329.266667,16.3 328.833333,17.3333333 328,18.2 C327.1,19.0666667 326.033333,19.5 324.8,19.5 L314.1,19.5 L314.1,24.05 L314.1,55.85 C314.066667,57.0166667 313.633333,58 312.8,58.8 C311.9,59.7 310.833333,60.15 309.6,60.15 L298.3,60.15 C297.033333,60.15 295.95,59.7 295.05,58.8 C294.216667,57.9666667 293.783333,56.9333333 293.75,55.7 L293.75,24.05 L293.75,19.5 L283.1,19.5 C281.833333,19.5 280.75,19.0666667 279.85,18.2 C279.016667,17.3333333 278.583333,16.3 278.55,15.1 M326.4,3.75 C325.933333,3.28333333 325.4,3.05 324.8,3.05 L283.1,3.05 C282.466667,3.05 281.933333,3.28333333 281.5,3.75 C281.033333,4.18333333 280.8,4.71666667 280.8,5.35 L280.8,14.95 C280.8,15.5833333 281.033333,16.1333333 281.5,16.6 C281.933333,17.0333333 282.466667,17.25 283.1,17.25 L296,17.25 L296,55.6 C296,56.2333333 296.233333,56.7833333 296.7,57.25 C297.133333,57.65 297.666667,57.85 298.3,57.85 L309.6,57.85 C310.2,57.85 310.733333,57.65 311.2,57.25 C311.633333,56.7833333 311.85,56.2333333 311.85,55.6 L311.85,17.25 L324.8,17.25 C325.4,17.25 325.933333,17.0333333 326.4,16.6 C326.833333,16.1333333 327.05,15.5833333 327.05,14.95 L327.05,5.35 C327.05,4.71666667 326.833333,4.18333333 326.4,3.75" id="Shape" fill="#417505"></path>
                    <path d="M326.4,3.75 C326.833333,4.18333333 327.05,4.71666667 327.05,5.35 L327.05,14.95 C327.05,15.5833333 326.833333,16.1333333 326.4,16.6 C325.933333,17.0333333 325.4,17.25 324.8,17.25 L311.85,17.25 L311.85,55.6 C311.85,56.2333333 311.633333,56.7833333 311.2,57.25 C310.733333,57.65 310.2,57.85 309.6,57.85 L298.3,57.85 C297.666667,57.85 297.133333,57.65 296.7,57.25 C296.233333,56.7833333 296,56.2333333 296,55.6 L296,17.25 L283.1,17.25 C282.466667,17.25 281.933333,17.0333333 281.5,16.6 C281.033333,16.1333333 280.8,15.5833333 280.8,14.95 L280.8,5.35 C280.8,4.71666667 281.033333,4.18333333 281.5,3.75 C281.933333,3.28333333 282.466667,3.05 283.1,3.05 L324.8,3.05 C325.4,3.05 325.933333,3.28333333 326.4,3.75 M324.8,14.95 L324.8,5.35 L283.1,5.35 L283.1,14.95 L298.3,14.95 L298.3,55.6 L309.6,55.6 L309.6,14.95 L324.8,14.95" id="Shape" fill="#B0E17E"></path>
                    <path d="M329.3,15.1 L329.3,19.5 C329.3,20.7666667 328.866667,21.8333333 328,22.7 C327.1,23.6 326.033333,24.05 324.8,24.05 L314.1,24.05 L314.1,19.5 L324.8,19.5 C326.033333,19.5 327.1,19.0666667 328,18.2 C328.833333,17.3333333 329.266667,16.3 329.3,15.1 M314.1,55.85 L314.1,60.15 C314.1,61.4166667 313.666667,62.4833333 312.8,63.35 C311.9,64.25 310.833333,64.7 309.6,64.7 L298.3,64.7 C297.033333,64.7 295.95,64.25 295.05,63.35 C294.183333,62.4833333 293.75,61.4166667 293.75,60.15 L293.75,55.7 C293.783333,56.9333333 294.216667,57.9666667 295.05,58.8 C295.95,59.7 297.033333,60.15 298.3,60.15 L309.6,60.15 C310.833333,60.15 311.9,59.7 312.8,58.8 C313.633333,58 314.066667,57.0166667 314.1,55.85 M293.75,24.05 L283.1,24.05 C281.833333,24.05 280.75,23.6 279.85,22.7 C278.983333,21.8333333 278.55,20.7666667 278.55,19.5 L278.55,15.1 C278.583333,16.3 279.016667,17.3333333 279.85,18.2 C280.75,19.0666667 281.833333,19.5 283.1,19.5 L293.75,19.5 L293.75,24.05" id="Shape" fill-opacity="0.101960784" fill="#000000"></path>
                    <polyline id="Shape" fill="#7ED321" points="324.8 14.95 309.6 14.95 309.6 55.6 298.3 55.6 298.3 14.95 283.1 14.95 283.1 5.35 324.8 5.35 324.8 14.95"></polyline>
                    <path d="M252.65,4.5 L252.25,4.5 L247.1,4.7 L245.15,4.85 L237.5,5.8 L237.5,55.4 L248.8,55.4 L248.8,37.05 L254.4,37.05 L257.35,40.95 L260.25,45.45 L263.2,50.4 L266,55.4 L278.65,55.4 L275.8,49.75 L272.65,44.3 L269.4,39.2 L266.15,34.85 C269.216667,33.6166667 271.55,31.8833333 273.15,29.65 C274.783333,27.45 275.6,24.6 275.6,21.1 C275.6,15.4333333 273.583333,11.25 269.55,8.55 C267.083333,6.88333333 263.966667,5.73333333 260.2,5.1 L252.65,4.5 M248.8,14.4 L250.7,14.3 L252.9,14.2 C256.533333,14.2 259.266667,14.7166667 261.1,15.75 C262.966667,16.7833333 263.9,18.5333333 263.9,21 C263.9,23.5666667 262.983333,25.3833333 261.15,26.45 C259.75,27.2833333 257.566667,27.7833333 254.6,27.95 L253.35,28.05 L252,28.05 L248.8,28.05 L248.8,14.4 M251.1,16.55 L251.1,25.75 L252,25.75 L253.35,25.75 C255.883333,25.65 257.85,25.3333333 259.25,24.8 L260,24.5 C261.1,23.7666667 261.65,22.6 261.65,21 C261.65,19.5 261.1,18.4166667 260,17.75 C258.4,16.8833333 256.033333,16.45 252.9,16.45 L251.1,16.55 M245,2.55 L252.25,2.25 C260.35,2.25 266.55,3.73333333 270.85,6.7 C273.416667,8.36666667 275.283333,10.5666667 276.45,13.3 C277.416667,15.5333333 277.9,18.1333333 277.9,21.1 C277.9,25.1666667 276.933333,28.4666667 275,31 C273.633333,32.8666667 271.866667,34.4166667 269.7,35.65 L271.25,37.9 L273.15,40.65 L274.65,43.1 L274.6,43.1 L277,47.15 L277.8,48.7 L280.7,54.45 C280.933333,54.95 281,55.45 280.9,55.95 L280.05,57.2 L278.65,57.65 L266,57.65 L264.85,57.35 L264,56.55 L261.2,51.55 L258.35,46.65 L258.4,46.65 L255.45,42.2 L253.3,39.3 L251.1,39.3 L251.1,55.4 C251.1,56.0333333 250.883333,56.5833333 250.45,57.05 C249.983333,57.45 249.433333,57.65 248.8,57.65 L237.5,57.65 C236.866667,57.65 236.35,57.45 235.95,57.05 C235.483333,56.5833333 235.25,56.0333333 235.25,55.4 L235.25,5.8 C235.25,5.26666667 235.433333,4.78333333 235.8,4.35 C236.133333,3.95 236.566667,3.7 237.1,3.6 L245,2.55" id="Shape" fill="#B0E17E"></path>
                    <path d="M252.65,4.5 L260.2,5.1 C263.966667,5.73333333 267.083333,6.88333333 269.55,8.55 C273.583333,11.25 275.6,15.4333333 275.6,21.1 C275.6,24.6 274.783333,27.45 273.15,29.65 C271.55,31.8833333 269.216667,33.6166667 266.15,34.85 L269.4,39.2 L272.65,44.3 L275.8,49.75 L278.65,55.4 L266,55.4 L263.2,50.4 L260.25,45.45 L257.35,40.95 L254.4,37.05 L248.8,37.05 L248.8,55.4 L237.5,55.4 L237.5,5.8 L245.15,4.85 L247.1,4.7 L252.25,4.5 L252.65,4.5 M248.8,14.4 L248.8,28.05 L252,28.05 L253.35,28.05 L254.6,27.95 C257.566667,27.7833333 259.75,27.2833333 261.15,26.45 C262.983333,25.3833333 263.9,23.5666667 263.9,21 C263.9,18.5333333 262.966667,16.7833333 261.1,15.75 C259.266667,14.7166667 256.533333,14.2 252.9,14.2 L250.7,14.3 L248.8,14.4" id="Shape" fill="#7ED321"></path>
                    <path d="M253.35,23.25 L253.35,23.5 L255.15,23.4 C256.716667,23.2 257.95,22.9 258.85,22.5 C259.183333,22.2 259.35,21.7 259.35,21 C259.35,20.4333333 259.2,20 258.9,19.7 C257.6,19.1 255.75,18.7833333 253.35,18.75 L253.35,23.25 M251.1,16.55 L252.9,16.45 C256.033333,16.45 258.4,16.8833333 260,17.75 C261.1,18.4166667 261.65,19.5 261.65,21 C261.65,22.6 261.1,23.7666667 260,24.5 L259.25,24.8 C257.85,25.3333333 255.883333,25.65 253.35,25.75 L252,25.75 L251.1,25.75 L251.1,16.55 M233,55.65 L233,5.8 C233,4.73333333 233.35,3.76666667 234.05,2.9 C234.75,2.06666667 235.633333,1.55 236.7,1.35 L244.8,0.3 L252.25,0 C260.916667,0 267.55,1.61666667 272.15,4.85 L272.1,4.8 C277.466667,8.26666667 280.15,13.7 280.15,21.1 L280.1,23.35 C279.766667,26.9833333 278.683333,30 276.85,32.4 L276.7,32.55 C275.666667,33.95 274.4,35.2 272.9,36.3 L273.15,36.6 L274.85,39.2 L276.55,41.95 L276.7,42.15 L279.7,47.45 L279.8,47.6 L282.75,53.5 C283.216667,54.4333333 283.316667,55.4166667 283.05,56.45 L283.05,56.5 L282.6,57.65 L281.5,58.95 L281.45,59 C280.616667,59.6333333 279.683333,59.95 278.65,59.95 L266,59.95 C265.166667,59.95 264.4,59.7333333 263.7,59.3 C262.966667,58.9 262.416667,58.35 262.05,57.65 L262,57.65 L259.2,52.65 L256.45,47.9 L256.4,47.85 L253.55,43.45 L253.45,43.3 L253.4,43.15 L253.35,43.2 L253.35,47.75 L253.35,55.5 C253.316667,56.7333333 252.883333,57.7666667 252.05,58.6 C251.15,59.5 250.066667,59.95 248.8,59.95 L237.5,59.95 C236.266667,59.95 235.2,59.5 234.3,58.6 C233.466667,57.8 233.033333,56.8166667 233,55.65 M245,2.55 L237.1,3.6 C236.566667,3.7 236.133333,3.95 235.8,4.35 C235.433333,4.78333333 235.25,5.26666667 235.25,5.8 L235.25,55.4 C235.25,56.0333333 235.483333,56.5833333 235.95,57.05 C236.35,57.45 236.866667,57.65 237.5,57.65 L248.8,57.65 C249.433333,57.65 249.983333,57.45 250.45,57.05 C250.883333,56.5833333 251.1,56.0333333 251.1,55.4 L251.1,39.3 L253.3,39.3 L255.45,42.2 L258.4,46.65 L258.35,46.65 L261.2,51.55 L264,56.55 L264.85,57.35 L266,57.65 L278.65,57.65 L280.05,57.2 L280.9,55.95 C281,55.45 280.933333,54.95 280.7,54.45 L277.8,48.7 L277,47.15 L274.6,43.1 L274.65,43.1 L273.15,40.65 L271.25,37.9 L269.7,35.65 C271.866667,34.4166667 273.633333,32.8666667 275,31 C276.933333,28.4666667 277.9,25.1666667 277.9,21.1 C277.9,18.1333333 277.416667,15.5333333 276.45,13.3 C275.283333,10.5666667 273.416667,8.36666667 270.85,6.7 C266.55,3.73333333 260.35,2.25 252.25,2.25 L245,2.55" id="Shape" fill="#417505"></path>
                    <path d="M255.15,23.4 L253.35,23.25 L253.35,18.75 C255.75,18.7833333 257.6,19.1 258.9,19.7 C259.2,20 259.35,20.4333333 259.35,21 C259.35,21.7 259.183333,22.2 258.85,22.5 C257.95,22.9 256.716667,23.2 255.15,23.4 M280.1,23.35 L280.15,25.6 C280.15,30.2666667 279.05,34.0333333 276.85,36.9 L276.7,37.1 L274.85,39.2 L273.15,36.6 L272.9,36.3 C274.4,35.2 275.666667,33.95 276.7,32.55 L276.85,32.4 C278.683333,30 279.766667,26.9833333 280.1,23.35 M282.6,57.65 L282.75,58 L282.75,58.05 C283.216667,58.9833333 283.316667,59.9666667 283.05,61 L283.05,61.05 C282.816667,62.05 282.3,62.8666667 281.5,63.5 L281.45,63.55 C280.616667,64.1833333 279.683333,64.5 278.65,64.5 L266,64.5 C265.166667,64.5 264.4,64.2833333 263.7,63.85 C262.966667,63.45 262.416667,62.9 262.05,62.2 L262,62.15 L259.2,57.2 L256.45,52.45 L256.4,52.4 L253.55,48 L253.45,47.85 L253.4,47.7 L253.35,47.75 L253.35,43.2 L253.4,43.15 L253.45,43.3 L253.55,43.45 L256.4,47.85 L256.45,47.9 L259.2,52.65 L262,57.65 L262.05,57.65 C262.416667,58.35 262.966667,58.9 263.7,59.3 C264.4,59.7333333 265.166667,59.95 266,59.95 L278.65,59.95 C279.683333,59.95 280.616667,59.6333333 281.45,59 L281.5,58.95 L282.6,57.65 M253.35,55.5 L253.35,59.95 C253.35,61.2166667 252.916667,62.2833333 252.05,63.15 C251.15,64.05 250.066667,64.5 248.8,64.5 L237.5,64.5 C236.266667,64.5 235.2,64.05 234.3,63.15 C233.433333,62.2833333 233,61.2166667 233,59.95 L233,55.65 C233.033333,56.8166667 233.466667,57.8 234.3,58.6 C235.2,59.5 236.266667,59.95 237.5,59.95 L248.8,59.95 C250.066667,59.95 251.15,59.5 252.05,58.6 C252.883333,57.7666667 253.316667,56.7333333 253.35,55.5" id="Shape" fill-opacity="0.101960784" fill="#000000"></path>
                    <path d="M174.588235,58 L174.238235,57.15 L174.188235,57.15 C173.921569,56.1833333 173.938235,55.2333333 174.238235,54.3 L174.238235,54.35 L179.638235,39.25 L179.788235,38.95 L184.638235,26.1 L184.688235,26.1 C186.288235,22.0333333 187.871569,18.2 189.438235,14.6 L189.488235,14.4 L194.488235,3.55 C194.854902,2.78333333 195.404902,2.16666667 196.138235,1.7 L196.188235,1.7 C196.921569,1.23333333 197.721569,1 198.588235,1 L209.438235,1 C210.271569,1 211.071569,1.23333333 211.838235,1.7 L211.788235,1.7 C212.521569,2.16666667 213.071569,2.78333333 213.438235,3.55 L218.288235,14.15 L218.438235,14.4 L223.288235,26.1 L223.388235,26.45 L228.338235,39.25 L233.688235,54.35 L233.688235,54.3 C234.021569,55.2333333 234.038235,56.1833333 233.738235,57.15 L233.388235,58.05 C233.088235,58.5833333 232.671569,59.05 232.138235,59.45 L232.088235,59.5 C231.288235,60.0666667 230.404902,60.35 229.438235,60.35 L217.288235,60.35 C216.288235,60.35 215.371569,60.05 214.538235,59.45 C213.738235,58.8166667 213.204902,58.0166667 212.938235,57.05 L212.938235,57.1 L211.388235,52.25 L211.288235,52.05 L210.338235,49.45 L195.738235,49.45 L196.388235,50.45 C196.521569,50.8833333 196.538235,51.3333333 196.438235,51.8 L196.388235,51.9 L194.588235,57.2 L194.638235,57.2 C194.338235,58.1333333 193.788235,58.9 192.988235,59.5 C192.188235,60.0666667 191.288235,60.35 190.288235,60.35 L178.538235,60.35 C177.538235,60.35 176.638235,60.0666667 175.838235,59.5 L175.838235,59.45 C175.304902,59.05 174.888235,58.5666667 174.588235,58 M210.588235,3.65 C210.221569,3.38333333 209.821569,3.25 209.388235,3.25 L198.588235,3.25 C198.154902,3.25 197.738235,3.36666667 197.338235,3.6 C196.971569,3.83333333 196.704902,4.15 196.538235,4.55 L195.488235,6.8 C194.154902,9.6 192.854902,12.45 191.588235,15.35 C190.021569,18.9833333 188.421569,22.85 186.788235,26.95 C185.154902,31.05 183.488235,35.4 181.788235,40 L181.788235,40.05 L176.438235,55.05 C176.238235,55.5166667 176.221569,56 176.388235,56.5 L177.188235,57.65 C177.588235,57.95 178.038235,58.1 178.538235,58.1 L190.288235,58.1 L191.638235,57.65 C192.038235,57.35 192.304902,56.9666667 192.438235,56.5 L194.238235,51.2 L195.638235,47.2 L211.988235,47.2 L213.438235,51.25 L215.138235,56.45 C215.271569,56.9166667 215.538235,57.3166667 215.938235,57.65 C216.338235,57.95 216.788235,58.1 217.288235,58.1 L229.438235,58.1 L230.788235,57.65 C231.188235,57.3166667 231.454902,56.9333333 231.588235,56.5 C231.721569,56 231.721569,55.5166667 231.588235,55.05 L226.188235,40.05 L221.188235,26.95 L216.338235,15.35 L212.488235,6.8 L211.438235,4.55 L210.588235,3.65 M203.788235,23.3 L204.488235,25.1 L206.538235,30.45 L206.538235,30.5 L207.738235,33.65 L199.838235,33.65 L201.038235,30.5 L203.088235,25.1 L203.088235,25.05 L203.788235,23.3 M204.338235,31 L203.838235,29.6 L203.138235,31.3 L203.088235,31.4 L204.488235,31.4 L204.388235,31.25 L204.338235,31" id="Shape" fill="#417505"></path>
                    <path d="M210.313636,3.4 L211.163636,4.3 L212.213636,6.55 L216.063636,15.1 L220.913636,26.7 L225.913636,39.8 L231.313636,54.8 C231.44697,55.2666667 231.44697,55.75 231.313636,56.25 C231.180303,56.6833333 230.913636,57.0666667 230.513636,57.4 L229.163636,57.85 L217.013636,57.85 C216.513636,57.85 216.063636,57.7 215.663636,57.4 C215.263636,57.0666667 214.99697,56.6666667 214.863636,56.2 L213.163636,51 L211.713636,46.95 L195.363636,46.95 L193.963636,50.95 L192.163636,56.25 C192.030303,56.7166667 191.763636,57.1 191.363636,57.4 L190.013636,57.85 L178.263636,57.85 C177.763636,57.85 177.313636,57.7 176.913636,57.4 L176.113636,56.25 C175.94697,55.75 175.963636,55.2666667 176.163636,54.8 L181.513636,39.8 L181.513636,39.75 C183.213636,35.15 184.880303,30.8 186.513636,26.7 C188.14697,22.6 189.74697,18.7333333 191.313636,15.1 C192.580303,12.2 193.880303,9.35 195.213636,6.55 L196.263636,4.3 C196.430303,3.9 196.69697,3.58333333 197.063636,3.35 C197.463636,3.11666667 197.880303,3 198.313636,3 L209.113636,3 C209.54697,3 209.94697,3.13333333 210.313636,3.4 M202.363636,19.6 L203.413636,16.65 L204.613636,19.6 L206.313636,24 L208.363636,29.45 L210.663636,35.7 L196.313636,35.7 L198.613636,29.45 L200.663636,24 L202.363636,19.6 M203.513636,23.05 L202.813636,24.8 L202.813636,24.85 L200.763636,30.25 L199.563636,33.4 L207.463636,33.4 L206.263636,30.25 L206.263636,30.2 L204.213636,24.85 L203.513636,23.05 M213.963636,16 L209.113636,5.3 L198.313636,5.3 C196.613636,8.76666667 194.963636,12.3333333 193.363636,16 L188.613636,27.5 L183.613636,40.55 L178.263636,55.55 L190.013636,55.55 L191.813636,50.2 L193.713636,44.7 L213.363636,44.7 L215.263636,50.2 L217.013636,55.55 L229.163636,55.55 L223.763636,40.55 L218.763636,27.5 L213.963636,16" id="Shape" fill="#B0E17E"></path>
                    <path d="M213.7,15.7 L218.5,27.2 L223.5,40.25 L228.9,55.25 L216.75,55.25 L215,49.9 L213.1,44.4 L193.45,44.4 L191.55,49.9 L189.75,55.25 L178,55.25 L183.35,40.25 L188.35,27.2 L193.1,15.7 C194.7,12.0333333 196.35,8.46666667 198.05,5 L208.85,5 L213.7,15.7 M202.1,19.3 L200.4,23.7 L198.35,29.15 L196.05,35.4 L210.4,35.4 L208.1,29.15 L206.05,23.7 L204.35,19.3 L203.15,16.35 L202.1,19.3" id="Shape" fill="#7ED321"></path>
                    <path d="M233.388235,57.45 L233.688235,58.25 C234.021569,59.1833333 234.038235,60.1166667 233.738235,61.05 L233.738235,61.1 C233.438235,62.0333333 232.904902,62.8 232.138235,63.4 L232.088235,63.4 C231.288235,64 230.404902,64.3 229.438235,64.3 L217.288235,64.3 C216.288235,64.3 215.371569,64 214.538235,63.4 C213.738235,62.7666667 213.204902,61.9666667 212.938235,61 L212.938235,61.05 L211.388235,56.2 L211.288235,55.95 L210.338235,53.4 L195.738235,53.4 L196.388235,54.4 C196.521569,54.8 196.538235,55.25 196.438235,55.75 L196.388235,55.85 L194.588235,61.15 L194.638235,61.1 L194.638235,61.15 C194.338235,62.0833333 193.788235,62.8333333 192.988235,63.4 C192.188235,64 191.288235,64.3 190.288235,64.3 L178.538235,64.3 C177.538235,64.3 176.638235,64 175.838235,63.4 C175.038235,62.8 174.504902,62.0333333 174.238235,61.1 L174.188235,61.05 C173.921569,60.1166667 173.938235,59.1833333 174.238235,58.25 L174.588235,57.4 C174.888235,57.9666667 175.304902,58.45 175.838235,58.85 L175.838235,58.9 C176.638235,59.4666667 177.538235,59.75 178.538235,59.75 L190.288235,59.75 C191.288235,59.75 192.188235,59.4666667 192.988235,58.9 C193.788235,58.3 194.338235,57.5333333 194.638235,56.6 L194.638235,56.55 L194.588235,56.6 L196.388235,51.3 L196.438235,51.2 C196.538235,50.7333333 196.521569,50.2833333 196.388235,49.85 L195.738235,48.85 L210.338235,48.85 L211.288235,51.45 L211.388235,51.65 L212.938235,56.5 L212.938235,56.45 C213.204902,57.4166667 213.738235,58.2166667 214.538235,58.85 C215.371569,59.45 216.288235,59.75 217.288235,59.75 L229.438235,59.75 C230.404902,59.75 231.288235,59.4666667 232.088235,58.9 L232.138235,58.85 C232.671569,58.45 233.088235,57.9833333 233.388235,57.45 M204.338235,30.4 L204.388235,30.65 L204.488235,30.8 L203.088235,30.8 L203.138235,30.7 L203.838235,29 L204.338235,30.4" id="Shape" fill-opacity="0.101960784" fill="#000000"></path>
                    <path d="M136.55,15.1 L136.55,5.35 C136.55,4.08333333 136.983333,3 137.85,2.1 C138.75,1.23333333 139.833333,0.8 141.1,0.8 L182.8,0.8 C184.033333,0.8 185.1,1.23333333 186,2.1 C186.866667,3 187.3,4.08333333 187.3,5.35 L187.3,15.1 C187.266667,16.3 186.833333,17.3333333 186,18.2 C185.1,19.0666667 184.033333,19.5 182.8,19.5 L172.1,19.5 L172.1,24.05 L172.1,55.85 C172.066667,57.0166667 171.633333,58 170.8,58.8 C169.9,59.7 168.833333,60.15 167.6,60.15 L156.3,60.15 C155.033333,60.15 153.95,59.7 153.05,58.8 C152.216667,57.9666667 151.783333,56.9333333 151.75,55.7 L151.75,24.05 L151.75,19.5 L141.1,19.5 C139.833333,19.5 138.75,19.0666667 137.85,18.2 C137.016667,17.3333333 136.583333,16.3 136.55,15.1 M184.4,3.75 C183.933333,3.28333333 183.4,3.05 182.8,3.05 L141.1,3.05 C140.466667,3.05 139.933333,3.28333333 139.5,3.75 C139.033333,4.18333333 138.8,4.71666667 138.8,5.35 L138.8,14.95 C138.8,15.5833333 139.033333,16.1333333 139.5,16.6 C139.933333,17.0333333 140.466667,17.25 141.1,17.25 L154,17.25 L154,55.6 C154,56.2333333 154.233333,56.7833333 154.7,57.25 C155.133333,57.65 155.666667,57.85 156.3,57.85 L167.6,57.85 C168.2,57.85 168.733333,57.65 169.2,57.25 C169.633333,56.7833333 169.85,56.2333333 169.85,55.6 L169.85,17.25 L182.8,17.25 C183.4,17.25 183.933333,17.0333333 184.4,16.6 C184.833333,16.1333333 185.05,15.5833333 185.05,14.95 L185.05,5.35 C185.05,4.71666667 184.833333,4.18333333 184.4,3.75" id="Shape" fill="#417505"></path>
                    <path d="M184.4,3.75 C184.833333,4.18333333 185.05,4.71666667 185.05,5.35 L185.05,14.95 C185.05,15.5833333 184.833333,16.1333333 184.4,16.6 C183.933333,17.0333333 183.4,17.25 182.8,17.25 L169.85,17.25 L169.85,55.6 C169.85,56.2333333 169.633333,56.7833333 169.2,57.25 C168.733333,57.65 168.2,57.85 167.6,57.85 L156.3,57.85 C155.666667,57.85 155.133333,57.65 154.7,57.25 C154.233333,56.7833333 154,56.2333333 154,55.6 L154,17.25 L141.1,17.25 C140.466667,17.25 139.933333,17.0333333 139.5,16.6 C139.033333,16.1333333 138.8,15.5833333 138.8,14.95 L138.8,5.35 C138.8,4.71666667 139.033333,4.18333333 139.5,3.75 C139.933333,3.28333333 140.466667,3.05 141.1,3.05 L182.8,3.05 C183.4,3.05 183.933333,3.28333333 184.4,3.75 M182.8,14.95 L182.8,5.35 L141.1,5.35 L141.1,14.95 L156.3,14.95 L156.3,55.6 L167.6,55.6 L167.6,14.95 L182.8,14.95" id="Shape" fill="#B0E17E"></path>
                    <path d="M187.3,15.1 L187.3,19.5 C187.3,20.7666667 186.866667,21.8333333 186,22.7 C185.1,23.6 184.033333,24.05 182.8,24.05 L172.1,24.05 L172.1,19.5 L182.8,19.5 C184.033333,19.5 185.1,19.0666667 186,18.2 C186.833333,17.3333333 187.266667,16.3 187.3,15.1 M172.1,55.85 L172.1,60.15 C172.1,61.4166667 171.666667,62.4833333 170.8,63.35 C169.9,64.25 168.833333,64.7 167.6,64.7 L156.3,64.7 C155.033333,64.7 153.95,64.25 153.05,63.35 C152.183333,62.4833333 151.75,61.4166667 151.75,60.15 L151.75,55.7 C151.783333,56.9333333 152.216667,57.9666667 153.05,58.8 C153.95,59.7 155.033333,60.15 156.3,60.15 L167.6,60.15 C168.833333,60.15 169.9,59.7 170.8,58.8 C171.633333,58 172.066667,57.0166667 172.1,55.85 M151.75,24.05 L141.1,24.05 C139.833333,24.05 138.75,23.6 137.85,22.7 C136.983333,21.8333333 136.55,20.7666667 136.55,19.5 L136.55,15.1 C136.583333,16.3 137.016667,17.3333333 137.85,18.2 C138.75,19.0666667 139.833333,19.5 141.1,19.5 L151.75,19.5 L151.75,24.05" id="Shape" fill-opacity="0.101960784" fill="#000000"></path>
                    <polyline id="Shape" fill="#7ED321" points="182.8 14.95 167.6 14.95 167.6 55.6 156.3 55.6 156.3 14.95 141.1 14.95 141.1 5.35 182.8 5.35 182.8 14.95"></polyline>
                    <path d="M95.05,21.85 L94.95,19.6 C94.95,16.5666667 95.516667,13.85 96.65,11.45 L96.75,11.25 C97.916667,8.81666667 99.55,6.75 101.65,5.05 C103.616667,3.45 105.966667,2.21666667 108.7,1.35 L108.95,1.25 C111.616667,0.416666667 114.633333,0 118,0 C121.866667,0 125.216667,0.416666667 128.05,1.25 L128.25,1.35 C130.983333,2.11666667 133.266667,3 135.1,4 C136.033333,4.56666667 136.7,5.36666667 137.1,6.4 C137.5,7.43333333 137.5,8.48333333 137.1,9.55 L136.8,10.35 L133.85,18.45 L133.85,18.5 C133.55,19.3 133.05,19.9666667 132.35,20.5 C131.65,21.0333333 130.866667,21.35 130,21.45 L130.05,21.4 C129.183333,21.5 128.35,21.35 127.55,20.95 L127.5,20.95 C126.333333,20.3166667 125.016667,19.7833333 123.55,19.35 C122.183333,18.9166667 120.566667,18.7 118.7,18.7 L116.05,18.9 L116.05,18.95 C116.55,19.2833333 117.133333,19.5666667 117.8,19.8 L118.05,19.9 L121.2,21.1 L121.4,21.15 C124.133333,22.15 126.533333,23.1666667 128.6,24.2 L128.85,24.35 L131.25,25.7 L134.65,28.35 L134.85,28.65 C136.483333,30.2833333 137.7,32.2 138.5,34.4 L138.55,34.4 L138.6,34.6 L138.65,34.65 C139.416667,36.7166667 139.8,39.2166667 139.8,42.15 L139.75,44.3 C139.25,49.5666667 137.033333,53.7 133.1,56.7 L133,56.75 C129.1,59.9166667 123.25,61.5 115.45,61.5 L108.75,61.05 L103.5,60 L103.15,59.9 L99.3,58.55 L96.3,57 L96.3,57.05 C95.566667,56.6166667 95.016667,56.05 94.65,55.35 L94.35,54.7 C93.95,53.6666667 93.95,52.6333333 94.35,51.6 L97.55,42.6 C97.85,41.7666667 98.366667,41.0833333 99.1,40.55 L99.05,40.55 C99.783333,39.9833333 100.6,39.6666667 101.5,39.6 C102.4,39.5333333 103.25,39.7166667 104.05,40.15 C105.15,40.7833333 106.533333,41.3666667 108.2,41.9 L108.6,42 L108.65,42 C110.483333,42.5 112.75,42.75 115.45,42.75 L118.35,42.5 L119,42.3 L119,42.2 L118.7,41.75 C117.333333,40.8833333 115.033333,39.9 111.8,38.8 L111.55,38.7 L111.45,38.65 L106.75,36.7 L106.45,36.6 C104.383333,35.7 102.533333,34.5333333 100.9,33.1 L100.85,33.05 C99.116667,31.5166667 97.733333,29.6833333 96.7,27.55 L96.7,27.6 C95.833333,25.9333333 95.283333,24.0166667 95.05,21.85 M131.75,54.9 C135.616667,51.9 137.55,47.65 137.55,42.15 C137.55,39.45 137.183333,37.15 136.45,35.25 L136.4,35.2 L136.2,34.7 C135.466667,32.9333333 134.416667,31.3666667 133.05,30 L133,29.95 C131.6,28.55 129.8,27.3166667 127.6,26.25 L127.65,26.25 C125.616667,25.2833333 123.283333,24.3 120.65,23.3 L120.6,23.3 L117.2,22 C116.3,21.6666667 115.516667,21.3 114.85,20.9 L114.8,20.85 C114.3,20.55 113.9,20.2 113.6,19.8 L113.35,18.75 C113.316667,18.05 113.566667,17.5333333 114.1,17.2 C115.033333,16.6666667 116.566667,16.4 118.7,16.4 C120.866667,16.4 122.716667,16.65 124.25,17.15 L128.6,18.95 L129.85,19.2 L131,18.75 L131.75,17.7 L135,8.8 L135.1,8.55 C135.2,8.11666667 135.15,7.66666667 134.95,7.2 C134.75,6.66666667 134.416667,6.28333333 133.95,6.05 C132.25,5.08333333 130.066667,4.21666667 127.4,3.45 C124.766667,2.65 121.633333,2.25 118,2.25 C114.933333,2.25 112.166667,2.63333333 109.7,3.4 C107.1,4.16666667 104.9,5.3 103.1,6.8 C101.2,8.33333333 99.733333,10.2 98.7,12.4 L98.55,12.85 C97.65,14.8833333 97.2,17.1333333 97.2,19.6 C97.2,22.3333333 97.7,24.65 98.7,26.55 C99.633333,28.3833333 100.866667,29.9833333 102.4,31.35 L102.4,31.4 C103.866667,32.6666667 105.533333,33.7166667 107.4,34.55 L107.35,34.55 L112.45,36.6 L112.5,36.65 C116,37.8166667 118.483333,38.9 119.95,39.9 C120.783333,40.4666667 121.233333,41.2 121.3,42.1 L121.1,43.45 L120.6,44 L120.5,44.05 C120.1,44.3166667 119.566667,44.55 118.9,44.75 L116.3,45.05 L115.45,45.05 C112.516667,45.05 110.033333,44.7666667 108,44.2 C106,43.6 104.316667,42.9166667 102.95,42.15 L101.65,41.85 C101.216667,41.8833333 100.816667,42.05 100.45,42.35 L99.7,43.35 L96.5,52.35 C96.3,52.8833333 96.3,53.4 96.5,53.9 C96.666667,54.4333333 96.983333,54.8333333 97.45,55.1 L100.2,56.45 L104.1,57.8 L109.1,58.85 L115.45,59.25 C122.683333,59.25 128.1,57.7833333 131.7,54.85 L131.7,54.9 L131.75,54.9" id="Shape" fill="#417505"></path>
                    <path d="M131.45,54.65 L131.4,54.6 C127.8,57.5333333 122.383333,59 115.15,59 L108.8,58.6 L103.8,57.55 L99.9,56.2 L97.15,54.85 C96.683333,54.5833333 96.366667,54.1833333 96.2,53.65 C96,53.15 96,52.6333333 96.2,52.1 L99.4,43.1 L100.15,42.1 C100.516667,41.8 100.916667,41.6333333 101.35,41.6 L102.65,41.9 C104.016667,42.6666667 105.7,43.35 107.7,43.95 C109.733333,44.5166667 112.216667,44.8 115.15,44.8 L116,44.8 L118.6,44.5 C119.266667,44.3 119.8,44.0666667 120.2,43.8 L120.3,43.75 L120.8,43.2 L121,41.85 C120.933333,40.95 120.483333,40.2166667 119.65,39.65 C118.183333,38.65 115.7,37.5666667 112.2,36.4 L112.15,36.35 L107.05,34.3 L107.1,34.3 C105.233333,33.4666667 103.566667,32.4166667 102.1,31.15 L102.1,31.1 C100.566667,29.7333333 99.333333,28.1333333 98.4,26.3 C97.4,24.4 96.9,22.0833333 96.9,19.35 C96.9,16.8833333 97.35,14.6333333 98.25,12.6 L98.4,12.15 C99.433333,9.95 100.9,8.08333333 102.8,6.55 C104.6,5.05 106.8,3.91666667 109.4,3.15 C111.866667,2.38333333 114.633333,2 117.7,2 C121.333333,2 124.466667,2.4 127.1,3.2 C129.766667,3.96666667 131.95,4.83333333 133.65,5.8 C134.116667,6.03333333 134.45,6.41666667 134.65,6.95 C134.85,7.41666667 134.9,7.86666667 134.8,8.3 L134.7,8.55 L131.45,17.45 L130.7,18.5 L129.55,18.95 L128.3,18.7 L123.95,16.9 C122.416667,16.4 120.566667,16.15 118.4,16.15 C116.266667,16.15 114.733333,16.4166667 113.8,16.95 C113.266667,17.2833333 113.016667,17.8 113.05,18.5 L113.3,19.55 C113.6,19.95 114,20.3 114.5,20.6 L114.55,20.65 C115.216667,21.05 116,21.4166667 116.9,21.75 L120.3,23.05 L120.35,23.05 C122.983333,24.05 125.316667,25.0333333 127.35,26 L127.3,26 C129.5,27.0666667 131.3,28.3 132.7,29.7 L132.75,29.75 C134.116667,31.1166667 135.166667,32.6833333 135.9,34.45 L136.1,34.95 L136.15,35 C136.883333,36.9 137.25,39.2 137.25,41.9 C137.25,47.4 135.316667,51.65 131.45,54.65 M132.55,7.75 C130.95,6.85 128.916667,6.05 126.45,5.35 L122.55,4.55 L118.05,4.25 L117.9,4.25 L117.7,4.25 L117.55,4.25 L114.45,4.4 C112.85,4.6 111.366667,4.9 110,5.3 C107.733333,6 105.8,7.01666667 104.2,8.35 C102.6,9.65 101.35,11.2166667 100.45,13.05 C99.583333,14.9166667 99.15,17.0166667 99.15,19.35 C99.15,21.6833333 99.566667,23.6666667 100.4,25.3 C101.233333,26.8666667 102.3,28.2333333 103.6,29.4 C104.9,30.5333333 106.366667,31.4666667 108,32.2 L112.95,34.25 C116.716667,35.5166667 119.383333,36.6833333 120.95,37.75 C122.483333,38.85 123.25,40.2166667 123.25,41.85 C123.25,42.6166667 123.133333,43.3166667 122.9,43.95 C122.666667,44.5833333 122.233333,45.1333333 121.6,45.6 C121,46.0666667 120.183333,46.4333333 119.15,46.7 L116.45,47 L115.3,47.05 L115.15,47.05 L114.9,47.05 L111.35,46.85 L107.05,46.1 C104.85,45.4666667 103,44.7333333 101.5,43.9 L98.3,52.9 L100.8,54.1 L104.4,55.35 L109.1,56.3 L115.15,56.75 C121.75,56.75 126.7,55.45 130,52.85 C133.3,50.2833333 134.95,46.6333333 134.95,41.9 C134.95,39.5 134.633333,37.45 134,35.75 C133.4,34.05 132.433333,32.5833333 131.1,31.35 C129.833333,30.0833333 128.233333,28.9833333 126.3,28.05 C124.366667,27.0833333 122.1,26.1166667 119.5,25.15 L116.05,23.9 C115.016667,23.5 114.1,23.0333333 113.3,22.5 C112.5,22 111.866667,21.4333333 111.4,20.8 C111,20.1666667 110.8,19.4 110.8,18.5 C110.8,16.9333333 111.383333,15.7833333 112.55,15.05 C113.75,14.2833333 115.7,13.9 118.4,13.9 C120.8,13.9 122.866667,14.1833333 124.6,14.75 C126.333333,15.2833333 127.9,15.9166667 129.3,16.65 L132.55,7.75" id="Shape" fill="#B0E17E"></path>
                    <path d="M136.8,11 L137.1,11.6 C137.5,12.6333333 137.5,13.6833333 137.1,14.75 L133.85,23.65 L133.85,23.7 C133.55,24.5 133.05,25.1666667 132.35,25.7 L131.25,26.35 L128.85,25 L128.6,24.85 C126.533333,23.8166667 124.133333,22.8 121.4,21.8 L121.2,21.75 L118.05,20.55 L117.8,20.45 C117.133333,20.2166667 116.55,19.9333333 116.05,19.6 L116.05,19.55 L118.7,19.35 C120.566667,19.35 122.183333,19.5666667 123.55,20 C125.016667,20.4333333 126.333333,20.9666667 127.5,21.6 L127.55,21.6 C128.35,22 129.183333,22.15 130.05,22.05 L130,22.1 C130.866667,22 131.65,21.6833333 132.35,21.15 C133.05,20.6166667 133.55,19.95 133.85,19.15 L133.85,19.1 L136.8,11 M139.75,44.95 L139.8,47.35 C139.8,53.6166667 137.566667,58.45 133.1,61.85 L133,61.95 C129.1,65.1166667 123.25,66.7 115.45,66.7 L108.75,66.25 L103.5,65.2 L103.15,65.1 C101.616667,64.6333333 100.333333,64.1666667 99.3,63.7 L96.3,62.2 L96.3,62.25 C95.366667,61.6833333 94.716667,60.9 94.35,59.9 L94.35,59.85 C93.95,58.8166667 93.95,57.8 94.35,56.8 L94.65,56 C95.016667,56.7 95.566667,57.2666667 96.3,57.7 L96.3,57.65 L99.3,59.2 L103.15,60.55 L103.5,60.65 L108.75,61.7 L115.45,62.15 C123.25,62.15 129.1,60.5666667 133,57.4 L133.1,57.35 C137.033333,54.35 139.25,50.2166667 139.75,44.95 M108.2,42.55 L106.75,41.9 L106.45,41.8 C104.383333,40.9 102.533333,39.7333333 100.9,38.3 L100.85,38.25 C99.116667,36.7166667 97.733333,34.8833333 96.7,32.75 L96.7,32.8 C95.533333,30.5666667 94.95,27.9 94.95,24.8 L95.05,22.5 C95.283333,24.6666667 95.833333,26.5833333 96.7,28.25 L96.7,28.2 C97.733333,30.3333333 99.116667,32.1666667 100.85,33.7 L100.9,33.75 C102.533333,35.1833333 104.383333,36.35 106.45,37.25 L106.75,37.35 L111.45,39.3 L111.55,39.35 L111.8,39.45 C115.033333,40.55 117.333333,41.5333333 118.7,42.4 L119,42.85 L119,42.95 L118.35,43.15 L115.45,43.4 C112.75,43.4 110.483333,43.15 108.65,42.65 L108.6,42.65 L108.2,42.55" id="Shape" fill-opacity="0.101960784" fill="#000000"></path>
                    <path d="M132.3,7.5 L129.05,16.4 C127.65,15.6666667 126.083333,15.0333333 124.35,14.5 C122.616667,13.9333333 120.55,13.65 118.15,13.65 C115.45,13.65 113.5,14.0333333 112.3,14.8 C111.133333,15.5333333 110.55,16.6833333 110.55,18.25 C110.55,19.15 110.75,19.9166667 111.15,20.55 C111.616667,21.1833333 112.25,21.75 113.05,22.25 C113.85,22.7833333 114.766667,23.25 115.8,23.65 L119.25,24.9 C121.85,25.8666667 124.116667,26.8333333 126.05,27.8 C127.983333,28.7333333 129.583333,29.8333333 130.85,31.1 C132.183333,32.3333333 133.15,33.8 133.75,35.5 C134.383333,37.2 134.7,39.25 134.7,41.65 C134.7,46.3833333 133.05,50.0333333 129.75,52.6 C126.45,55.2 121.5,56.5 114.9,56.5 L108.85,56.05 L104.15,55.1 L100.55,53.85 L98.05,52.65 L101.25,43.65 C102.75,44.4833333 104.6,45.2166667 106.8,45.85 L111.1,46.6 L114.65,46.8 L114.9,46.8 L115.05,46.8 L116.2,46.75 L118.9,46.45 C119.933333,46.1833333 120.75,45.8166667 121.35,45.35 C121.983333,44.8833333 122.416667,44.3333333 122.65,43.7 C122.883333,43.0666667 123,42.3666667 123,41.6 C123,39.9666667 122.233333,38.6 120.7,37.5 C119.133333,36.4333333 116.466667,35.2666667 112.7,34 L107.75,31.95 C106.116667,31.2166667 104.65,30.2833333 103.35,29.15 C102.05,27.9833333 100.983333,26.6166667 100.15,25.05 C99.316667,23.4166667 98.9,21.4333333 98.9,19.1 C98.9,16.7666667 99.333333,14.6666667 100.2,12.8 C101.1,10.9666667 102.35,9.4 103.95,8.1 C105.55,6.76666667 107.483333,5.75 109.75,5.05 C111.116667,4.65 112.6,4.35 114.2,4.15 L117.3,4 L117.45,4 L117.65,4 L117.8,4 L122.3,4.3 L126.2,5.1 C128.666667,5.8 130.7,6.6 132.3,7.5" id="Shape" fill="#7ED321"></path>
                    <path d="M93,15 L93,19.3 C93,20.5666667 92.5666667,21.6333333 91.7,22.5 C91.3,22.9 90.85,23.2166667 90.35,23.45 C90.15,22.7166667 89.75,22.05 89.15,21.45 C88.2833333,20.5833333 87.2166667,20.15 85.95,20.15 L70.4,20.15 L70.4,19.3 L88.5,19.3 C89.7666667,19.3 90.8333333,18.8666667 91.7,18 C92.5333333,17.1666667 92.9666667,16.1666667 93,15 M90.5,34.05 L90.5,38.45 C90.5,39.65 90.1,40.6833333 89.3,41.55 L70.4,41.55 L70.4,38.45 L85.95,38.45 C87.2166667,38.45 88.2833333,38.0166667 89.15,37.15 C90.0166667,36.2833333 90.4666667,35.25 90.5,34.05 M94.7,55.65 L94.7,60.1 C94.7,61.3666667 94.25,62.4333333 93.35,63.3 C92.4833333,64.2 91.4166667,64.65 90.15,64.65 L54.55,64.65 C53.2833333,64.65 52.2166667,64.2 51.35,63.3 C50.45,62.4333333 50,61.3666667 50,60.1 L50,55.65 C50.0333333,56.8833333 50.4833333,57.9166667 51.35,58.75 C52.2166667,59.65 53.2833333,60.1 54.55,60.1 L90.15,60.1 C91.4166667,60.1 92.4833333,59.65 93.35,58.75 C94.2166667,57.9166667 94.6666667,56.8833333 94.7,55.65" id="Shape" fill-opacity="0.101960784" fill="#000000"></path>
                    <path d="M94.7,55.9 C94.6666667,57.1333333 94.2166667,58.1666667 93.35,59 C92.4833333,59.9 91.4166667,60.35 90.15,60.35 L54.55,60.35 C53.2833333,60.35 52.2166667,59.9 51.35,59 C50.4833333,58.1666667 50.0333333,57.1333333 50,55.9 L50,5.55 C50,4.28333333 50.45,3.2 51.35,2.3 C52.2166667,1.43333333 53.2833333,1 54.55,1 L88.5,1 C89.7666667,1 90.8333333,1.43333333 91.7,2.3 C92.5666667,3.2 93,4.28333333 93,5.55 L93,15.25 C92.9666667,16.4166667 92.5333333,17.4166667 91.7,18.25 C90.8333333,19.1166667 89.7666667,19.55 88.5,19.55 L70.4,19.55 L70.4,20.4 L85.95,20.4 C87.2166667,20.4 88.2833333,20.8333333 89.15,21.7 C89.75,22.3 90.15,22.9666667 90.35,23.7 L90.5,24.9 L90.5,34.3 C90.4666667,35.5 90.0166667,36.5333333 89.15,37.4 C88.2833333,38.2666667 87.2166667,38.7 85.95,38.7 L70.4,38.7 L70.4,41.8 L89.3,41.8 L90.15,41.8 C91.4166667,41.8 92.4833333,42.2333333 93.35,43.1 C94.25,44 94.7,45.0666667 94.7,46.3 L94.7,55.9 M52.95,3.95 C52.4833333,4.38333333 52.25,4.91666667 52.25,5.55 L52.25,55.8 C52.25,56.4333333 52.4833333,56.9833333 52.95,57.45 C53.3833333,57.85 53.9166667,58.05 54.55,58.05 L90.15,58.05 C90.7833333,58.05 91.3333333,57.85 91.8,57.45 C92.2,56.9833333 92.4,56.4333333 92.4,55.8 L92.4,46.3 C92.4,45.6666667 92.2,45.15 91.8,44.75 C91.3333333,44.2833333 90.7833333,44.05 90.15,44.05 L68.1,44.05 L68.1,36.45 L85.95,36.45 C86.5833333,36.45 87.1333333,36.2333333 87.6,35.8 C88,35.3666667 88.2,34.8333333 88.2,34.2 L88.2,24.9 L88.05,24.1 L87.6,23.35 C87.1333333,22.8833333 86.5833333,22.65 85.95,22.65 L68.1,22.65 L68.1,17.3 L88.5,17.3 C89.1333333,17.3 89.6666667,17.0833333 90.1,16.65 C90.5333333,16.1833333 90.75,15.6333333 90.75,15 L90.75,5.55 C90.75,4.91666667 90.5333333,4.38333333 90.1,3.95 C89.6666667,3.48333333 89.1333333,3.25 88.5,3.25 L54.55,3.25 C53.9166667,3.25 53.3833333,3.48333333 52.95,3.95" id="Shape" fill="#417505"></path>
                    <path d="M52.7,3.7 C53.1333333,3.23333333 53.6666667,3 54.3,3 L88.25,3 C88.8833333,3 89.4166667,3.23333333 89.85,3.7 C90.2833333,4.13333333 90.5,4.66666667 90.5,5.3 L90.5,14.75 C90.5,15.3833333 90.2833333,15.9333333 89.85,16.4 C89.4166667,16.8333333 88.8833333,17.05 88.25,17.05 L67.85,17.05 L67.85,22.4 L85.7,22.4 C86.3333333,22.4 86.8833333,22.6333333 87.35,23.1 L87.8,23.85 L87.95,24.65 L87.95,33.95 C87.95,34.5833333 87.75,35.1166667 87.35,35.55 C86.8833333,35.9833333 86.3333333,36.2 85.7,36.2 L67.85,36.2 L67.85,43.8 L89.9,43.8 C90.5333333,43.8 91.0833333,44.0333333 91.55,44.5 C91.95,44.9 92.15,45.4166667 92.15,46.05 L92.15,55.55 C92.15,56.1833333 91.95,56.7333333 91.55,57.2 C91.0833333,57.6 90.5333333,57.8 89.9,57.8 L54.3,57.8 C53.6666667,57.8 53.1333333,57.6 52.7,57.2 C52.2333333,56.7333333 52,56.1833333 52,55.55 L52,5.3 C52,4.66666667 52.2333333,4.13333333 52.7,3.7 M65.6,24.65 L65.6,14.75 L88.25,14.75 L88.25,5.3 L54.3,5.3 L54.3,55.55 L89.9,55.55 L89.9,46.05 L65.6,46.05 L65.6,33.95 L85.7,33.95 L85.7,24.65 L65.6,24.65" id="Shape" fill="#B0E17E"></path>
                    <polyline id="Shape" fill="#7ED321" points="65.3 24.35 85.4 24.35 85.4 33.65 65.3 33.65 65.3 45.75 89.6 45.75 89.6 55.25 54 55.25 54 5 87.95 5 87.95 14.45 65.3 14.45 65.3 24.35"></polyline>
                    <path d="M19.65,4.5 L19.25,4.5 L14.1,4.7 L12.15,4.85 L4.5,5.8 L4.5,55.4 L15.8,55.4 L15.8,37.05 L21.4,37.05 L24.35,40.95 L27.25,45.45 L30.2,50.4 L33,55.4 L45.65,55.4 L42.8,49.75 L39.65,44.3 L36.4,39.2 L33.15,34.85 C36.2166667,33.6166667 38.55,31.8833333 40.15,29.65 C41.7833333,27.45 42.6,24.6 42.6,21.1 C42.6,15.4333333 40.5833333,11.25 36.55,8.55 C34.0833333,6.88333333 30.9666667,5.73333333 27.2,5.1 L19.65,4.5 M15.8,14.4 L17.7,14.3 L19.9,14.2 C23.5333333,14.2 26.2666667,14.7166667 28.1,15.75 C29.9666667,16.7833333 30.9,18.5333333 30.9,21 C30.9,23.5666667 29.9833333,25.3833333 28.15,26.45 C26.75,27.2833333 24.5666667,27.7833333 21.6,27.95 L20.35,28.05 L19,28.05 L15.8,28.05 L15.8,14.4 M18.1,16.55 L18.1,25.75 L19,25.75 L20.35,25.75 C22.8833333,25.65 24.85,25.3333333 26.25,24.8 L27,24.5 C28.1,23.7666667 28.65,22.6 28.65,21 C28.65,19.5 28.1,18.4166667 27,17.75 C25.4,16.8833333 23.0333333,16.45 19.9,16.45 L18.1,16.55 M12,2.55 L19.25,2.25 C27.35,2.25 33.55,3.73333333 37.85,6.7 C40.4166667,8.36666667 42.2833333,10.5666667 43.45,13.3 C44.4166667,15.5333333 44.9,18.1333333 44.9,21.1 C44.9,25.1666667 43.9333333,28.4666667 42,31 C40.6333333,32.8666667 38.8666667,34.4166667 36.7,35.65 L38.25,37.9 L40.15,40.65 L41.65,43.1 L41.6,43.1 L44,47.15 L44.8,48.7 L47.7,54.45 C47.9333333,54.95 48,55.45 47.9,55.95 L47.05,57.2 L45.65,57.65 L33,57.65 L31.85,57.35 L31,56.55 L28.2,51.55 L25.35,46.65 L25.4,46.65 L22.45,42.2 L20.3,39.3 L18.1,39.3 L18.1,55.4 C18.1,56.0333333 17.8833333,56.5833333 17.45,57.05 C16.9833333,57.45 16.4333333,57.65 15.8,57.65 L4.5,57.65 C3.86666667,57.65 3.35,57.45 2.95,57.05 C2.48333333,56.5833333 2.25,56.0333333 2.25,55.4 L2.25,5.8 C2.25,5.26666667 2.43333333,4.78333333 2.8,4.35 C3.13333333,3.95 3.56666667,3.7 4.1,3.6 L12,2.55" id="Shape" fill="#B0E17E"></path>
                    <path d="M19.65,4.5 L27.2,5.1 C30.9666667,5.73333333 34.0833333,6.88333333 36.55,8.55 C40.5833333,11.25 42.6,15.4333333 42.6,21.1 C42.6,24.6 41.7833333,27.45 40.15,29.65 C38.55,31.8833333 36.2166667,33.6166667 33.15,34.85 L36.4,39.2 L39.65,44.3 L42.8,49.75 L45.65,55.4 L33,55.4 L30.2,50.4 L27.25,45.45 L24.35,40.95 L21.4,37.05 L15.8,37.05 L15.8,55.4 L4.5,55.4 L4.5,5.8 L12.15,4.85 L14.1,4.7 L19.25,4.5 L19.65,4.5 M15.8,14.4 L15.8,28.05 L19,28.05 L20.35,28.05 L21.6,27.95 C24.5666667,27.7833333 26.75,27.2833333 28.15,26.45 C29.9833333,25.3833333 30.9,23.5666667 30.9,21 C30.9,18.5333333 29.9666667,16.7833333 28.1,15.75 C26.2666667,14.7166667 23.5333333,14.2 19.9,14.2 L17.7,14.3 L15.8,14.4" id="Shape" fill="#7ED321"></path>
                    <path d="M20.35,23.25 L20.35,23.5 L22.15,23.4 C23.7166667,23.2 24.95,22.9 25.85,22.5 C26.1833333,22.2 26.35,21.7 26.35,21 C26.35,20.4333333 26.2,20 25.9,19.7 C24.6,19.1 22.75,18.7833333 20.35,18.75 L20.35,23.25 M18.1,16.55 L19.9,16.45 C23.0333333,16.45 25.4,16.8833333 27,17.75 C28.1,18.4166667 28.65,19.5 28.65,21 C28.65,22.6 28.1,23.7666667 27,24.5 L26.25,24.8 C24.85,25.3333333 22.8833333,25.65 20.35,25.75 L19,25.75 L18.1,25.75 L18.1,16.55 M0,55.65 L0,5.8 C0,4.73333333 0.35,3.76666667 1.05,2.9 C1.75,2.06666667 2.63333333,1.55 3.7,1.35 L11.8,0.3 L19.25,0 C27.9166667,0 34.55,1.61666667 39.15,4.85 L39.1,4.8 C44.4666667,8.26666667 47.15,13.7 47.15,21.1 L47.1,23.35 C46.7666667,26.9833333 45.6833333,30 43.85,32.4 L43.7,32.55 C42.6666667,33.95 41.4,35.2 39.9,36.3 L40.15,36.6 L41.85,39.2 L43.55,41.95 L43.7,42.15 L46.7,47.45 L46.8,47.6 L49.75,53.5 C50.2166667,54.4333333 50.3166667,55.4166667 50.05,56.45 L50.05,56.5 L49.6,57.65 L48.5,58.95 L48.45,59 C47.6166667,59.6333333 46.6833333,59.95 45.65,59.95 L33,59.95 C32.1666667,59.95 31.4,59.7333333 30.7,59.3 C29.9666667,58.9 29.4166667,58.35 29.05,57.65 L29,57.65 L26.2,52.65 L23.45,47.9 L23.4,47.85 L20.55,43.45 L20.45,43.3 L20.4,43.15 L20.35,43.2 L20.35,47.75 L20.35,55.5 C20.3166667,56.7333333 19.8833333,57.7666667 19.05,58.6 C18.15,59.5 17.0666667,59.95 15.8,59.95 L4.5,59.95 C3.26666667,59.95 2.2,59.5 1.3,58.6 C0.466666667,57.8 0.0333333333,56.8166667 0,55.65 M12,2.55 L4.1,3.6 C3.56666667,3.7 3.13333333,3.95 2.8,4.35 C2.43333333,4.78333333 2.25,5.26666667 2.25,5.8 L2.25,55.4 C2.25,56.0333333 2.48333333,56.5833333 2.95,57.05 C3.35,57.45 3.86666667,57.65 4.5,57.65 L15.8,57.65 C16.4333333,57.65 16.9833333,57.45 17.45,57.05 C17.8833333,56.5833333 18.1,56.0333333 18.1,55.4 L18.1,39.3 L20.3,39.3 L22.45,42.2 L25.4,46.65 L25.35,46.65 L28.2,51.55 L31,56.55 L31.85,57.35 L33,57.65 L45.65,57.65 L47.05,57.2 L47.9,55.95 C48,55.45 47.9333333,54.95 47.7,54.45 L44.8,48.7 L44,47.15 L41.6,43.1 L41.65,43.1 L40.15,40.65 L38.25,37.9 L36.7,35.65 C38.8666667,34.4166667 40.6333333,32.8666667 42,31 C43.9333333,28.4666667 44.9,25.1666667 44.9,21.1 C44.9,18.1333333 44.4166667,15.5333333 43.45,13.3 C42.2833333,10.5666667 40.4166667,8.36666667 37.85,6.7 C33.55,3.73333333 27.35,2.25 19.25,2.25 L12,2.55" id="Shape" fill="#417505"></path>
                    <path d="M22.15,23.4 L20.35,23.25 L20.35,18.75 C22.75,18.7833333 24.6,19.1 25.9,19.7 C26.2,20 26.35,20.4333333 26.35,21 C26.35,21.7 26.1833333,22.2 25.85,22.5 C24.95,22.9 23.7166667,23.2 22.15,23.4 M47.1,23.35 L47.15,25.6 C47.15,30.2666667 46.05,34.0333333 43.85,36.9 L43.7,37.1 L41.85,39.2 L40.15,36.6 L39.9,36.3 C41.4,35.2 42.6666667,33.95 43.7,32.55 L43.85,32.4 C45.6833333,30 46.7666667,26.9833333 47.1,23.35 M49.6,57.65 L49.75,58 L49.75,58.05 C50.2166667,58.9833333 50.3166667,59.9666667 50.05,61 L50.05,61.05 C49.8166667,62.05 49.3,62.8666667 48.5,63.5 L48.45,63.55 C47.6166667,64.1833333 46.6833333,64.5 45.65,64.5 L33,64.5 C32.1666667,64.5 31.4,64.2833333 30.7,63.85 C29.9666667,63.45 29.4166667,62.9 29.05,62.2 L29,62.15 L26.2,57.2 L23.45,52.45 L23.4,52.4 L20.55,48 L20.45,47.85 L20.4,47.7 L20.35,47.75 L20.35,43.2 L20.4,43.15 L20.45,43.3 L20.55,43.45 L23.4,47.85 L23.45,47.9 L26.2,52.65 L29,57.65 L29.05,57.65 C29.4166667,58.35 29.9666667,58.9 30.7,59.3 C31.4,59.7333333 32.1666667,59.95 33,59.95 L45.65,59.95 C46.6833333,59.95 47.6166667,59.6333333 48.45,59 L48.5,58.95 L49.6,57.65 M20.35,55.5 L20.35,59.95 C20.35,61.2166667 19.9166667,62.2833333 19.05,63.15 C18.15,64.05 17.0666667,64.5 15.8,64.5 L4.5,64.5 C3.26666667,64.5 2.2,64.05 1.3,63.15 C0.433333333,62.2833333 0,61.2166667 0,59.95 L0,55.65 C0.0333333333,56.8166667 0.466666667,57.8 1.3,58.6 C2.2,59.5 3.26666667,59.95 4.5,59.95 L15.8,59.95 C17.0666667,59.95 18.15,59.5 19.05,58.6 C19.8833333,57.7666667 20.3166667,56.7333333 20.35,55.5" id="Shape" fill-opacity="0.101960784" fill="#000000"></path>
                </g>
            </g>
        </g>
    </g>
</svg>
