<svg viewBox="0 0 118 59" xmlns="http://www.w3.org/2000/svg"><g fill="none" fill-rule="evenodd"><path d="M16.05 42.6V16.05h85.45V42.6H16.05M56.2 22.3c-.767 0-1.417.267-1.95.8-.533.533-.8 1.183-.8 1.95 0 .767.267 1.417.8 1.95.533.533 1.183.8 1.95.8.767 0 1.417-.267 1.95-.8.533-.533.8-1.183.8-1.95 0-.767-.267-1.417-.8-1.95-.533-.533-1.183-.8-1.95-.8m-18.25 2.85v.15c.033 1.433.55 2.65 1.55 3.65 1.067 1.067 2.35 1.6 3.85 1.6 1.167 0 2.2-.317 3.1-.95l.7-.65c1.033-1 1.567-2.217 1.6-3.65v-.15c0-1.5-.533-2.783-1.6-3.85l-.7-.6c-.9-.633-1.933-.95-3.1-.95-1.5 0-2.783.517-3.85 1.55-1.033 1.067-1.55 2.35-1.55 3.85m47.25 6.7c-.533.533-.8 1.183-.8 1.95 0 .767.267 1.417.8 1.95.533.533 1.183.8 1.95.8.767 0 1.417-.267 1.95-.8.533-.533.8-1.183.8-1.95 0-.767-.267-1.417-.8-1.95-.533-.533-1.183-.8-1.95-.8-.767 0-1.417.267-1.95.8" fill="#1EA7E1"/><path d="M85.2 31.85c.533-.533 1.183-.8 1.95-.8.767 0 1.417.267 1.95.8.533.533.8 1.183.8 1.95 0 .767-.267 1.417-.8 1.95-.533.533-1.183.8-1.95.8-.767 0-1.417-.267-1.95-.8-.533-.533-.8-1.183-.8-1.95 0-.767.267-1.417.8-1.95m-47.25-6.7c0-1.5.517-2.783 1.55-3.85 1.067-1.033 2.35-1.55 3.85-1.55 1.167 0 2.2.317 3.1.95l.7.6c1.067 1.067 1.6 2.35 1.6 3.85v.15c-.033 1.433-.567 2.65-1.6 3.65l-.7.65c-.9.633-1.933.95-3.1.95-1.5 0-2.783-.533-3.85-1.6-1-1-1.517-2.217-1.55-3.65v-.15M56.2 22.3c.767 0 1.417.267 1.95.8.533.533.8 1.183.8 1.95 0 .767-.267 1.417-.8 1.95-.533.533-1.183.8-1.95.8-.767 0-1.417-.267-1.95-.8-.533-.533-.8-1.183-.8-1.95 0-.767.267-1.417.8-1.95.533-.533 1.183-.8 1.95-.8" fill="#2CB8F3"/></g></svg>