<?xml version="1.0" encoding="UTF-8" standalone="no"?>
<svg viewBox="-30 -30 118 118" version="1.1" xmlns="http://www.w3.org/2000/svg" xmlns:xlink="http://www.w3.org/1999/xlink">
    <g id="Page-1" stroke="none" stroke-width="1" fill="none" fill-rule="evenodd">
        <path d="M72,50.7 L68.15,50.7 C60.05,51.1666667 54.7666667,54.6 52.3,61 C51.1,64 50.5333333,67.6666667 50.6,72 L8,71.95 L8,66.5 C9.46666667,30.9666667 28.8833333,12.8 66.25,12 L67.85,12 L72,12 L72,50.7" id="Shape" fill="#E5E5E5"></path>
        <path d="M72,8 L72,12 L67.85,12 L66.25,12 C28.8833333,12.8 9.46666667,30.9666667 8,66.5 L8,62.5 C9.46666667,26.9666667 28.8833333,8.8 66.25,8 L67.85,8 L72,8" id="Shape" fill="#F3F3F3"></path>
        <path d="M72,8 L72,4.1 L84.05,4.1 L84.05,8.1 L84,46.7 L84,54.7 L72,54.7 L72,50.7 L72,12 L72,8 M50.6,72 L54.6,72 L54.6,84 L4,84 L4,71.95 L8,71.95 L50.6,72" id="Shape" fill="#B6B6B6"></path>
        <path d="M88.05,8.1 L88,46.7 L88,54.7 C88,55.8 87.6166667,56.75 86.85,57.55 C86.05,58.3166667 85.1,58.7 84,58.7 L72,58.7 C70.9,58.7 69.9666667,58.3166667 69.2,57.55 C68.4,56.75 68,55.8166667 68,54.75 C61.9666667,55.1833333 57.9833333,57.75 56.05,62.45 L56.05,62.5 C55.4166667,64.1 54.9833333,65.9333333 54.75,68 C55.7833333,68.0333333 56.6833333,68.4333333 57.45,69.2 C58.2166667,69.9666667 58.6,70.9 58.6,72 L58.6,84 C58.6,85.1 58.2166667,86.05 57.45,86.85 C56.65,87.6166667 55.7,88 54.6,88 L4,88 C2.9,88 1.96666667,87.6166667 1.2,86.85 C0.4,86.05 7.10542736e-15,85.1 7.10542736e-15,84 L7.10542736e-15,71.95 C7.10542736e-15,70.85 0.4,69.9166667 1.2,69.15 C1.96666667,68.35 2.9,67.95 4,67.95 L4,62.5 L4,62.35 C5.5,24.3166667 26.2333333,4.86666667 66.2,4 L66.25,4 L67.85,4 L68,4 C68.0333333,2.93333333 68.4333333,2.03333333 69.2,1.3 C69.9666667,0.5 70.9,0.1 72,0.1 L84.05,0.1 C85.15,0.1 86.1,0.5 86.9,1.3 C87.6666667,2.06666667 88.05,3 88.05,4.1 L88.05,8.1 M72,50.7 L72,54.7 L84,54.7 L84,46.7 L84.05,8.1 L84.05,4.1 L72,4.1 L72,8 L67.85,8 L66.25,8 C28.8833333,8.8 9.46666667,26.9666667 8,62.5 L8,66.5 L8,71.95 L4,71.95 L4,84 L54.6,84 L54.6,72 L50.6,72 C50.5333333,67.6666667 51.1,64 52.3,61 C54.7666667,54.6 60.05,51.1666667 68.15,50.7 L72,50.7" id="Shape" fill="#777777"></path>
    </g>
</svg>
