<svg viewBox="-30 -30 118 118" xmlns="http://www.w3.org/2000/svg"><g fill="none" fill-rule="evenodd"><path d="M72 50.7h-3.85c-8.1.467-13.383 3.9-15.85 10.3-1.2 3-1.767 6.667-1.7 11L8 71.95V66.5C9.467 30.967 28.883 12.8 66.25 12H72v38.7" fill="#E5E5E5"/><path d="M72 8v4h-5.75C28.883 12.8 9.467 30.967 8 66.5v-4C9.467 26.967 28.883 8.8 66.25 8H72" fill="#F3F3F3"/><path d="M72 8V4.1h12.05v4L84 46.7v8H72V8M50.6 72h4v12H4V71.95h4l42.6.05" fill="#B6B6B6"/><path d="M88.05 8.1L88 46.7v8c0 1.1-.383 2.05-1.15 2.85-.8.767-1.75 1.15-2.85 1.15H72c-1.1 0-2.033-.383-2.8-1.15-.8-.8-1.2-1.733-1.2-2.8-6.033.433-10.017 3-11.95 7.7v.05c-.633 1.6-1.067 3.433-1.3 5.5 1.033.033 1.933.433 2.7 1.2.767.767 1.15 1.7 1.15 2.8v12c0 1.1-.383 2.05-1.15 2.85-.8.767-1.75 1.15-2.85 1.15H4c-1.1 0-2.033-.383-2.8-1.15C.4 86.05 0 85.1 0 84V71.95c0-1.1.4-2.033 1.2-2.8.767-.8 1.7-1.2 2.8-1.2V62.35C5.5 24.317 26.233 4.867 66.2 4H68c.033-1.067.433-1.967 1.2-2.7C69.967.5 70.9.1 72 .1h12.05c1.1 0 2.05.4 2.85 1.2.767.767 1.15 1.7 1.15 2.8v4M72 50.7v4h12v-8l.05-38.6v-4H72V8h-5.75C28.883 8.8 9.467 26.967 8 62.5v9.45H4V84h50.6V72h-4c-.067-4.333.5-8 1.7-11 2.467-6.4 7.75-9.833 15.85-10.3H72" fill="#777"/></g></svg>