<svg viewBox="-30 -30 118 118" xmlns="http://www.w3.org/2000/svg"><g fill="none" fill-rule="evenodd"><path d="M47.45 36.45v.15c.033 1.433.55 2.65 1.55 3.65 1.067 1.067 2.35 1.6 3.85 1.6s2.767-.533 3.8-1.6c1.033-1 1.567-2.217 1.6-3.65v-.15c0-1.5-.533-2.783-1.6-3.85-1.033-1.033-2.3-1.55-3.8-1.55s-2.783.517-3.85 1.55c-1.033 1.067-1.55 2.35-1.55 3.85M34.6 32.2c-1.1 1.1-1.65 2.433-1.65 4 0 .5.05.967.15 1.4.233.967.733 1.833 1.5 2.6 1.1 1.1 2.433 1.65 4 1.65 1.567 0 2.9-.55 4-1.65.767-.767 1.267-1.633 1.5-2.6l.15-1.4c0-1.567-.55-2.9-1.65-4-1.1-1.1-2.433-1.65-4-1.65-1.567 0-2.9.55-4 1.65M72 16v26.7h-3.85l-.45.05c-11.833.667-19.45 5.8-22.85 15.4l.05-.1c-1.567 3.667-2.333 8.133-2.3 13.4V72H16v-9.15C17.367 32.35 34.117 16.733 66.25 16H72M33.95 51.85c0-.767-.267-1.417-.8-1.95-.533-.533-1.183-.8-1.95-.8-.767 0-1.417.267-1.95.8-.533.533-.8 1.183-.8 1.95 0 .767.267 1.417.8 1.95.533.533 1.183.8 1.95.8.767 0 1.417-.267 1.95-.8.533-.533.8-1.183.8-1.95" fill="#1EA7E1"/><path d="M33.95 51.85c0 .767-.267 1.417-.8 1.95-.533.533-1.183.8-1.95.8-.767 0-1.417-.267-1.95-.8-.533-.533-.8-1.183-.8-1.95 0-.767.267-1.417.8-1.95.533-.533 1.183-.8 1.95-.8.767 0 1.417.267 1.95.8.533.533.8 1.183.8 1.95m.65-19.65c1.1-1.1 2.433-1.65 4-1.65 1.567 0 2.9.55 4 1.65 1.1 1.1 1.65 2.433 1.65 4l-.15 1.4c-.233.967-.733 1.833-1.5 2.6-1.1 1.1-2.433 1.65-4 1.65-1.567 0-2.9-.55-4-1.65-.767-.767-1.267-1.633-1.5-2.6-.1-.433-.15-.9-.15-1.4 0-1.567.55-2.9 1.65-4m12.85 4.25c0-1.5.517-2.783 1.55-3.85 1.067-1.033 2.35-1.55 3.85-1.55s2.767.517 3.8 1.55c1.067 1.067 1.6 2.35 1.6 3.85v.15c-.033 1.433-.567 2.65-1.6 3.65-1.033 1.067-2.3 1.6-3.8 1.6s-2.783-.533-3.85-1.6c-1-1-1.517-2.217-1.55-3.65v-.15" fill="#2CB8F3"/></g></svg>