<?xml version="1.0" encoding="UTF-8" standalone="no"?>
<svg viewBox="0 0 118 59" version="1.1" xmlns="http://www.w3.org/2000/svg" xmlns:xlink="http://www.w3.org/1999/xlink">
    <g id="Page-1" stroke="none" stroke-width="1" fill="none" fill-rule="evenodd">
        <polyline id="Shape" fill="#E5E5E5" points="16 50.6 16.05 12.05 101.5 12.05 101.5 50.6 16 50.6"></polyline>
        <polyline id="Shape" fill="#F3F3F3" points="16.05 12.05 16.05 8.05 101.5 8.05 101.5 12.05 16.05 12.05"></polyline>
        <path d="M16.05,12.05 L16,50.6 L16,54.6 L4,54.6 L4,4 L16.05,4 L16.05,8.05 L16.05,12.05 M101.5,8.05 L101.5,4 L113.55,4 L113.5,54.6 L101.5,54.6 L101.5,50.6 L101.5,12.05 L101.5,8.05" id="Shape" fill="#B6B6B6"></path>
        <path d="M101.5,8.05 L16.05,8.05 L16.05,4 L4,4 L4,54.6 L16,54.6 L16,50.6 L101.5,50.6 L101.5,54.6 L113.5,54.6 L113.55,4 L101.5,4 L101.5,8.05 M16.05,0 C17.15,0 18.1,0.4 18.9,1.2 C19.6666667,1.96666667 20.05,2.9 20.05,4 L20.05,4.05 L97.5,4.05 L97.5,4 C97.5,2.9 97.9,1.96666667 98.7,1.2 C99.4666667,0.4 100.4,0 101.5,0 L113.55,0 C114.65,0 115.6,0.4 116.4,1.2 C117.166667,1.96666667 117.55,2.9 117.55,4 L117.5,54.6 C117.5,55.7 117.116667,56.65 116.35,57.45 C115.55,58.2166667 114.6,58.6 113.5,58.6 L101.5,58.6 C100.4,58.6 99.4666667,58.2166667 98.7,57.45 C97.9,56.65 97.5,55.7 97.5,54.6 L20,54.6 C20,55.7 19.6166667,56.65 18.85,57.45 C18.05,58.2166667 17.1,58.6 16,58.6 L4,58.6 C2.9,58.6 1.96666667,58.2166667 1.2,57.45 C0.4,56.65 0,55.7 0,54.6 L0,4 C0,2.9 0.4,1.96666667 1.2,1.2 C1.96666667,0.4 2.9,0 4,0 L16.05,0" id="Shape" fill="#777777"></path>
    </g>
</svg>
