<svg viewBox="0 0 118 59" xmlns="http://www.w3.org/2000/svg"><g fill="none" fill-rule="evenodd"><path fill="#E5E5E5" d="M16 50.6l.05-38.55h85.45V50.6H16"/><path fill="#F3F3F3" d="M16.05 12.05v-4h85.45v4H16.05"/><path d="M16.05 12.05L16 50.6v4H4V4h12.05v8.05m85.45-4V4h12.05l-.05 50.6h-12V8.05" fill="#B6B6B6"/><path d="M101.5 8.05H16.05V4H4v50.6h12v-4h85.5v4h12l.05-50.6H101.5v4.05M16.05 0c1.1 0 2.05.4 2.85 1.2.767.767 1.15 1.7 1.15 2.8v.05H97.5V4c0-1.1.4-2.033 1.2-2.8.767-.8 1.7-1.2 2.8-1.2h12.05c1.1 0 2.05.4 2.85 1.2.767.767 1.15 1.7 1.15 2.8l-.05 50.6c0 1.1-.383 2.05-1.15 2.85-.8.767-1.75 1.15-2.85 1.15h-12c-1.1 0-2.033-.383-2.8-1.15-.8-.8-1.2-1.75-1.2-2.85H20c0 1.1-.383 2.05-1.15 2.85-.8.767-1.75 1.15-2.85 1.15H4c-1.1 0-2.033-.383-2.8-1.15C.4 56.65 0 55.7 0 54.6V4c0-1.1.4-2.033 1.2-2.8C1.967.4 2.9 0 4 0h12.05" fill="#777"/></g></svg>