<?xml version="1.0" encoding="UTF-8" standalone="no"?>
<svg viewBox="0 0 284 133" version="1.1" xmlns="http://www.w3.org/2000/svg" xmlns:xlink="http://www.w3.org/1999/xlink">
    <g id="Page-1" stroke="none" stroke-width="1" fill="none" fill-rule="evenodd">
        <g id="box">
            <path d="M269.088447,3.325 L14.6535502,3.325 C7.70177704,3.325 4.22589048,6.09583333 4.22589048,11.6375 L4.22589048,109.725 C4.22589048,115.266667 7.70177704,118.0375 14.6535502,118.0375 L269.088447,118.0375 C276.04022,118.0375 279.516106,115.266667 279.516106,109.725 L279.516106,11.6375 C279.516106,6.09583333 276.04022,3.325 269.088447,3.325 M0.0548266068,110.473125 L0.0548266068,11.6375 C0.0548266068,3.87916667 4.9210678,0 14.6535502,0 L269.088447,0 C278.820929,0 283.68717,3.87916667 283.68717,11.6375 L283.68717,110.473125 C283.409099,117.732708 278.542858,121.3625 269.088447,121.3625 L14.6535502,121.3625 C5.19913872,121.3625 0.332897532,117.732708 0.0548266068,110.473125" id="Shape" fill="#C6A726"></path>
            <path d="M275.345042,11.6375 C275.345042,8.3125 273.25951,6.65 269.088447,6.65 L14.6535502,6.65 C10.4824863,6.65 8.39695434,8.3125 8.39695434,11.6375 L8.39695434,109.725 C8.39695434,113.05 10.4824863,114.7125 14.6535502,114.7125 L269.088447,114.7125 C273.25951,114.7125 275.345042,113.05 275.345042,109.725 L275.345042,11.6375 M269.088447,3.325 C276.04022,3.325 279.516106,6.09583333 279.516106,11.6375 L279.516106,109.725 C279.516106,115.266667 276.04022,118.0375 269.088447,118.0375 L14.6535502,118.0375 C7.70177704,118.0375 4.22589048,115.266667 4.22589048,109.725 L4.22589048,11.6375 C4.22589048,6.09583333 7.70177704,3.325 14.6535502,3.325 L269.088447,3.325" id="Shape" fill="#FADD69"></path>
            <path d="M275.345042,11.6375 L275.345042,109.725 C275.345042,113.05 273.25951,114.7125 269.088447,114.7125 L14.6535502,114.7125 C10.4824863,114.7125 8.39695434,113.05 8.39695434,109.725 L8.39695434,11.6375 C8.39695434,8.3125 10.4824863,6.65 14.6535502,6.65 L269.088447,6.65 C273.25951,6.65 275.345042,8.3125 275.345042,11.6375" id="Shape" fill="#F1CC36"></path>
            <path d="M283.68717,110.473125 L283.68717,121.3625 C283.68717,129.120833 278.820929,133 269.088447,133 L14.6535502,133 C4.9210678,133 0.0548266068,129.120833 0.0548266068,121.3625 L0.0548266068,110.473125 C0.332897532,117.732708 5.19913872,121.3625 14.6535502,121.3625 L269.088447,121.3625 C278.542858,121.3625 283.409099,117.732708 283.68717,110.473125" id="Shape" fill="#C29B00"></path>
        </g>
        <g id="word" transform="translate(26.000000, 29.000000)">
            <path d="M188,22.85 L187.9,20.6 C187.9,17.5666667 188.466667,14.85 189.6,12.45 L189.7,12.25 C190.866667,9.81666667 192.5,7.75 194.6,6.05 C196.566667,4.45 198.916667,3.21666667 201.65,2.35 L201.9,2.25 C204.566667,1.41666667 207.583333,1 210.95,1 C214.816667,1 218.166667,1.41666667 221,2.25 L221.2,2.35 C223.933333,3.11666667 226.216667,4 228.05,5 C228.983333,5.56666667 229.65,6.36666667 230.05,7.4 C230.45,8.43333333 230.45,9.48333333 230.05,10.55 L229.75,11.35 L226.8,19.45 L226.8,19.5 C226.5,20.3 226,20.9666667 225.3,21.5 C224.6,22.0333333 223.816667,22.35 222.95,22.45 L223,22.4 C222.133333,22.5 221.3,22.35 220.5,21.95 L220.45,21.95 C219.283333,21.3166667 217.966667,20.7833333 216.5,20.35 C215.133333,19.9166667 213.516667,19.7 211.65,19.7 L209,19.9 L209,19.95 C209.5,20.2833333 210.083333,20.5666667 210.75,20.8 L211,20.9 L214.15,22.1 L214.35,22.15 C217.083333,23.15 219.483333,24.1666667 221.55,25.2 L221.8,25.35 L224.2,26.7 L227.6,29.35 L227.8,29.65 C229.433333,31.2833333 230.65,33.2 231.45,35.4 L231.5,35.4 L231.55,35.6 L231.6,35.65 C232.366667,37.7166667 232.75,40.2166667 232.75,43.15 L232.7,45.3 C232.2,50.5666667 229.983333,54.7 226.05,57.7 L225.95,57.75 C222.05,60.9166667 216.2,62.5 208.4,62.5 L201.7,62.05 L196.45,61 L196.1,60.9 L192.25,59.55 L189.25,58 L189.25,58.05 C188.516667,57.6166667 187.966667,57.05 187.6,56.35 L187.3,55.7 C186.9,54.6666667 186.9,53.6333333 187.3,52.6 L190.5,43.6 C190.8,42.7666667 191.316667,42.0833333 192.05,41.55 L192,41.55 C192.733333,40.9833333 193.55,40.6666667 194.45,40.6 C195.35,40.5333333 196.2,40.7166667 197,41.15 C198.1,41.7833333 199.483333,42.3666667 201.15,42.9 L201.55,43 L201.6,43 C203.433333,43.5 205.7,43.75 208.4,43.75 L211.3,43.5 L211.95,43.3 L211.95,43.2 L211.65,42.75 C210.283333,41.8833333 207.983333,40.9 204.75,39.8 L204.5,39.7 L204.4,39.65 L199.7,37.7 L199.4,37.6 C197.333333,36.7 195.483333,35.5333333 193.85,34.1 L193.8,34.05 C192.066667,32.5166667 190.683333,30.6833333 189.65,28.55 L189.65,28.6 C188.783333,26.9333333 188.233333,25.0166667 188,22.85 M224.7,55.9 C228.566667,52.9 230.5,48.65 230.5,43.15 C230.5,40.45 230.133333,38.15 229.4,36.25 L229.35,36.2 L229.15,35.7 C228.416667,33.9333333 227.366667,32.3666667 226,31 L225.95,30.95 C224.55,29.55 222.75,28.3166667 220.55,27.25 L220.6,27.25 C218.566667,26.2833333 216.233333,25.3 213.6,24.3 L213.55,24.3 L210.15,23 C209.25,22.6666667 208.466667,22.3 207.8,21.9 L207.75,21.85 C207.25,21.55 206.85,21.2 206.55,20.8 L206.3,19.75 C206.266667,19.05 206.516667,18.5333333 207.05,18.2 C207.983333,17.6666667 209.516667,17.4 211.65,17.4 C213.816667,17.4 215.666667,17.65 217.2,18.15 L221.55,19.95 L222.8,20.2 L223.95,19.75 L224.7,18.7 L227.95,9.8 L228.05,9.55 C228.15,9.11666667 228.1,8.66666667 227.9,8.2 C227.7,7.66666667 227.366667,7.28333333 226.9,7.05 C225.2,6.08333333 223.016667,5.21666667 220.35,4.45 C217.716667,3.65 214.583333,3.25 210.95,3.25 C207.883333,3.25 205.116667,3.63333333 202.65,4.4 C200.05,5.16666667 197.85,6.3 196.05,7.8 C194.15,9.33333333 192.683333,11.2 191.65,13.4 L191.5,13.85 C190.6,15.8833333 190.15,18.1333333 190.15,20.6 C190.15,23.3333333 190.65,25.65 191.65,27.55 C192.583333,29.3833333 193.816667,30.9833333 195.35,32.35 L195.35,32.4 C196.816667,33.6666667 198.483333,34.7166667 200.35,35.55 L200.3,35.55 L205.4,37.6 L205.45,37.65 C208.95,38.8166667 211.433333,39.9 212.9,40.9 C213.733333,41.4666667 214.183333,42.2 214.25,43.1 L214.05,44.45 L213.55,45 L213.45,45.05 C213.05,45.3166667 212.516667,45.55 211.85,45.75 L209.25,46.05 L208.4,46.05 C205.466667,46.05 202.983333,45.7666667 200.95,45.2 C198.95,44.6 197.266667,43.9166667 195.9,43.15 L194.6,42.85 C194.166667,42.8833333 193.766667,43.05 193.4,43.35 L192.65,44.35 L189.45,53.35 C189.25,53.8833333 189.25,54.4 189.45,54.9 C189.616667,55.4333333 189.933333,55.8333333 190.4,56.1 L193.15,57.45 L197.05,58.8 L202.05,59.85 L208.4,60.25 C215.633333,60.25 221.05,58.7833333 224.65,55.85 L224.65,55.9 L224.7,55.9" id="Shape" fill="#8A2323"></path>
            <path d="M224.7,55.9 L224.65,55.85 C221.05,58.7833333 215.633333,60.25 208.4,60.25 L202.05,59.85 L197.05,58.8 L193.15,57.45 L190.4,56.1 C189.933333,55.8333333 189.616667,55.4333333 189.45,54.9 C189.25,54.4 189.25,53.8833333 189.45,53.35 L192.65,44.35 L193.4,43.35 C193.766667,43.05 194.166667,42.8833333 194.6,42.85 L195.9,43.15 C197.266667,43.9166667 198.95,44.6 200.95,45.2 C202.983333,45.7666667 205.466667,46.05 208.4,46.05 L209.25,46.05 L211.85,45.75 C212.516667,45.55 213.05,45.3166667 213.45,45.05 L213.55,45 L214.05,44.45 L214.25,43.1 C214.183333,42.2 213.733333,41.4666667 212.9,40.9 C211.433333,39.9 208.95,38.8166667 205.45,37.65 L205.4,37.6 L200.3,35.55 L200.35,35.55 C198.483333,34.7166667 196.816667,33.6666667 195.35,32.4 L195.35,32.35 C193.816667,30.9833333 192.583333,29.3833333 191.65,27.55 C190.65,25.65 190.15,23.3333333 190.15,20.6 C190.15,18.1333333 190.6,15.8833333 191.5,13.85 L191.65,13.4 C192.683333,11.2 194.15,9.33333333 196.05,7.8 C197.85,6.3 200.05,5.16666667 202.65,4.4 C205.116667,3.63333333 207.883333,3.25 210.95,3.25 C214.583333,3.25 217.716667,3.65 220.35,4.45 C223.016667,5.21666667 225.2,6.08333333 226.9,7.05 C227.366667,7.28333333 227.7,7.66666667 227.9,8.2 C228.1,8.66666667 228.15,9.11666667 228.05,9.55 L227.95,9.8 L224.7,18.7 L223.95,19.75 L222.8,20.2 L221.55,19.95 L217.2,18.15 C215.666667,17.65 213.816667,17.4 211.65,17.4 C209.516667,17.4 207.983333,17.6666667 207.05,18.2 C206.516667,18.5333333 206.266667,19.05 206.3,19.75 L206.55,20.8 C206.85,21.2 207.25,21.55 207.75,21.85 L207.8,21.9 C208.466667,22.3 209.25,22.6666667 210.15,23 L213.55,24.3 L213.6,24.3 C216.233333,25.3 218.566667,26.2833333 220.6,27.25 L220.55,27.25 C222.75,28.3166667 224.55,29.55 225.95,30.95 L226,31 C227.366667,32.3666667 228.416667,33.9333333 229.15,35.7 L229.35,36.2 L229.4,36.25 C230.133333,38.15 230.5,40.45 230.5,43.15 C230.5,48.65 228.566667,52.9 224.7,55.9 M225.8,9 C224.2,8.1 222.166667,7.3 219.7,6.6 L215.8,5.8 L211.3,5.5 L211.15,5.5 L210.95,5.5 L210.8,5.5 L207.7,5.65 C206.1,5.85 204.616667,6.15 203.25,6.55 C200.983333,7.25 199.05,8.26666667 197.45,9.6 C195.85,10.9 194.6,12.4666667 193.7,14.3 C192.833333,16.1666667 192.4,18.2666667 192.4,20.6 C192.4,22.9333333 192.816667,24.9166667 193.65,26.55 C194.483333,28.1166667 195.55,29.4833333 196.85,30.65 C198.15,31.7833333 199.616667,32.7166667 201.25,33.45 L206.2,35.5 C209.966667,36.7666667 212.633333,37.9333333 214.2,39 C215.733333,40.1 216.5,41.4666667 216.5,43.1 C216.5,43.8666667 216.383333,44.5666667 216.15,45.2 C215.916667,45.8333333 215.483333,46.3833333 214.85,46.85 C214.25,47.3166667 213.433333,47.6833333 212.4,47.95 L209.7,48.25 L208.55,48.3 L208.4,48.3 L208.15,48.3 L204.6,48.1 L200.3,47.35 C198.1,46.7166667 196.25,45.9833333 194.75,45.15 L191.55,54.15 L194.05,55.35 L197.65,56.6 L202.35,57.55 L208.4,58 C215,58 219.95,56.7 223.25,54.1 C226.55,51.5333333 228.2,47.8833333 228.2,43.15 C228.2,40.75 227.883333,38.7 227.25,37 C226.65,35.3 225.683333,33.8333333 224.35,32.6 C223.083333,31.3333333 221.483333,30.2333333 219.55,29.3 C217.616667,28.3333333 215.35,27.3666667 212.75,26.4 L209.3,25.15 C208.266667,24.75 207.35,24.2833333 206.55,23.75 C205.75,23.25 205.116667,22.6833333 204.65,22.05 C204.25,21.4166667 204.05,20.65 204.05,19.75 C204.05,18.1833333 204.633333,17.0333333 205.8,16.3 C207,15.5333333 208.95,15.15 211.65,15.15 C214.05,15.15 216.116667,15.4333333 217.85,16 C219.583333,16.5333333 221.15,17.1666667 222.55,17.9 L225.8,9" id="Shape" fill="#E55C5C"></path>
            <path d="M229.75,11.35 L230.05,11.95 C230.45,12.9833333 230.45,14.0333333 230.05,15.1 L226.8,24 L226.8,24.05 C226.5,24.85 226,25.5166667 225.3,26.05 L224.2,26.7 L221.8,25.35 L221.55,25.2 C219.483333,24.1666667 217.083333,23.15 214.35,22.15 L214.15,22.1 L211,20.9 L210.75,20.8 C210.083333,20.5666667 209.5,20.2833333 209,19.95 L209,19.9 L211.65,19.7 C213.516667,19.7 215.133333,19.9166667 216.5,20.35 C217.966667,20.7833333 219.283333,21.3166667 220.45,21.95 L220.5,21.95 C221.3,22.35 222.133333,22.5 223,22.4 L222.95,22.45 C223.816667,22.35 224.6,22.0333333 225.3,21.5 C226,20.9666667 226.5,20.3 226.8,19.5 L226.8,19.45 L229.75,11.35 M232.7,45.3 L232.75,47.7 C232.75,53.9666667 230.516667,58.8 226.05,62.2 L225.95,62.3 C222.05,65.4666667 216.2,67.05 208.4,67.05 L201.7,66.6 L196.45,65.55 L196.1,65.45 C194.566667,64.9833333 193.283333,64.5166667 192.25,64.05 L189.25,62.55 L189.25,62.6 C188.316667,62.0333333 187.666667,61.25 187.3,60.25 L187.3,60.2 C186.9,59.1666667 186.9,58.15 187.3,57.15 L187.6,56.35 C187.966667,57.05 188.516667,57.6166667 189.25,58.05 L189.25,58 L192.25,59.55 L196.1,60.9 L196.45,61 L201.7,62.05 L208.4,62.5 C216.2,62.5 222.05,60.9166667 225.95,57.75 L226.05,57.7 C229.983333,54.7 232.2,50.5666667 232.7,45.3 M201.15,42.9 L199.7,42.25 L199.4,42.15 C197.333333,41.25 195.483333,40.0833333 193.85,38.65 L193.8,38.6 C192.066667,37.0666667 190.683333,35.2333333 189.65,33.1 L189.65,33.15 C188.483333,30.9166667 187.9,28.25 187.9,25.15 L188,22.85 C188.233333,25.0166667 188.783333,26.9333333 189.65,28.6 L189.65,28.55 C190.683333,30.6833333 192.066667,32.5166667 193.8,34.05 L193.85,34.1 C195.483333,35.5333333 197.333333,36.7 199.4,37.6 L199.7,37.7 L204.4,39.65 L204.5,39.7 L204.75,39.8 C207.983333,40.9 210.283333,41.8833333 211.65,42.75 L211.95,43.2 L211.95,43.3 L211.3,43.5 L208.4,43.75 C205.7,43.75 203.433333,43.5 201.6,43 L201.55,43 L201.15,42.9" id="Shape" fill-opacity="0.101960784" fill="#000000"></path>
            <path d="M225.8,9 L222.55,17.9 C221.15,17.1666667 219.583333,16.5333333 217.85,16 C216.116667,15.4333333 214.05,15.15 211.65,15.15 C208.95,15.15 207,15.5333333 205.8,16.3 C204.633333,17.0333333 204.05,18.1833333 204.05,19.75 C204.05,20.65 204.25,21.4166667 204.65,22.05 C205.116667,22.6833333 205.75,23.25 206.55,23.75 C207.35,24.2833333 208.266667,24.75 209.3,25.15 L212.75,26.4 C215.35,27.3666667 217.616667,28.3333333 219.55,29.3 C221.483333,30.2333333 223.083333,31.3333333 224.35,32.6 C225.683333,33.8333333 226.65,35.3 227.25,37 C227.883333,38.7 228.2,40.75 228.2,43.15 C228.2,47.8833333 226.55,51.5333333 223.25,54.1 C219.95,56.7 215,58 208.4,58 L202.35,57.55 L197.65,56.6 L194.05,55.35 L191.55,54.15 L194.75,45.15 C196.25,45.9833333 198.1,46.7166667 200.3,47.35 L204.6,48.1 L208.15,48.3 L208.4,48.3 L208.55,48.3 L209.7,48.25 L212.4,47.95 C213.433333,47.6833333 214.25,47.3166667 214.85,46.85 C215.483333,46.3833333 215.916667,45.8333333 216.15,45.2 C216.383333,44.5666667 216.5,43.8666667 216.5,43.1 C216.5,41.4666667 215.733333,40.1 214.2,39 C212.633333,37.9333333 209.966667,36.7666667 206.2,35.5 L201.25,33.45 C199.616667,32.7166667 198.15,31.7833333 196.85,30.65 C195.55,29.4833333 194.483333,28.1166667 193.65,26.55 C192.816667,24.9166667 192.4,22.9333333 192.4,20.6 C192.4,18.2666667 192.833333,16.1666667 193.7,14.3 C194.6,12.4666667 195.85,10.9 197.45,9.6 C199.05,8.26666667 200.983333,7.25 203.25,6.55 C204.616667,6.15 206.1,5.85 207.7,5.65 L210.8,5.5 L210.95,5.5 L211.15,5.5 L211.3,5.5 L215.8,5.8 L219.7,6.6 C222.166667,7.3 224.2,8.1 225.8,9" id="Shape" fill="#C83E3E"></path>
            <path d="M185,15.25 L185,19.55 C185,20.8166667 184.566667,21.8833333 183.7,22.75 C183.3,23.15 182.85,23.4666667 182.35,23.7 C182.15,22.9666667 181.75,22.3 181.15,21.7 C180.283333,20.8333333 179.216667,20.4 177.95,20.4 L162.4,20.4 L162.4,19.55 L180.5,19.55 C181.766667,19.55 182.833333,19.1166667 183.7,18.25 C184.533333,17.4166667 184.966667,16.4166667 185,15.25 M182.5,34.3 L182.5,38.7 C182.5,39.9 182.1,40.9333333 181.3,41.8 L162.4,41.8 L162.4,38.7 L177.95,38.7 C179.216667,38.7 180.283333,38.2666667 181.15,37.4 C182.016667,36.5333333 182.466667,35.5 182.5,34.3 M186.7,55.9 L186.7,60.35 C186.7,61.6166667 186.25,62.6833333 185.35,63.55 C184.483333,64.45 183.416667,64.9 182.15,64.9 L146.55,64.9 C145.283333,64.9 144.216667,64.45 143.35,63.55 C142.45,62.6833333 142,61.6166667 142,60.35 L142,55.9 C142.033333,57.1333333 142.483333,58.1666667 143.35,59 C144.216667,59.9 145.283333,60.35 146.55,60.35 L182.15,60.35 C183.416667,60.35 184.483333,59.9 185.35,59 C186.216667,58.1666667 186.666667,57.1333333 186.7,55.9" id="Shape" fill-opacity="0.101960784" fill="#000000"></path>
            <path d="M186.7,55.9 C186.666667,57.1333333 186.216667,58.1666667 185.35,59 C184.483333,59.9 183.416667,60.35 182.15,60.35 L146.55,60.35 C145.283333,60.35 144.216667,59.9 143.35,59 C142.483333,58.1666667 142.033333,57.1333333 142,55.9 L142,5.55 C142,4.28333333 142.45,3.2 143.35,2.3 C144.216667,1.43333333 145.283333,1 146.55,1 L180.5,1 C181.766667,1 182.833333,1.43333333 183.7,2.3 C184.566667,3.2 185,4.28333333 185,5.55 L185,15.25 C184.966667,16.4166667 184.533333,17.4166667 183.7,18.25 C182.833333,19.1166667 181.766667,19.55 180.5,19.55 L162.4,19.55 L162.4,20.4 L177.95,20.4 C179.216667,20.4 180.283333,20.8333333 181.15,21.7 C181.75,22.3 182.15,22.9666667 182.35,23.7 L182.5,24.9 L182.5,34.3 C182.466667,35.5 182.016667,36.5333333 181.15,37.4 C180.283333,38.2666667 179.216667,38.7 177.95,38.7 L162.4,38.7 L162.4,41.8 L181.3,41.8 L182.15,41.8 C183.416667,41.8 184.483333,42.2333333 185.35,43.1 C186.25,44 186.7,45.0666667 186.7,46.3 L186.7,55.9 M144.95,3.95 C144.483333,4.38333333 144.25,4.91666667 144.25,5.55 L144.25,55.8 C144.25,56.4333333 144.483333,56.9833333 144.95,57.45 C145.383333,57.85 145.916667,58.05 146.55,58.05 L182.15,58.05 C182.783333,58.05 183.333333,57.85 183.8,57.45 C184.2,56.9833333 184.4,56.4333333 184.4,55.8 L184.4,46.3 C184.4,45.6666667 184.2,45.15 183.8,44.75 C183.333333,44.2833333 182.783333,44.05 182.15,44.05 L160.1,44.05 L160.1,36.45 L177.95,36.45 C178.583333,36.45 179.133333,36.2333333 179.6,35.8 C180,35.3666667 180.2,34.8333333 180.2,34.2 L180.2,24.9 L180.05,24.1 L179.6,23.35 C179.133333,22.8833333 178.583333,22.65 177.95,22.65 L160.1,22.65 L160.1,17.3 L180.5,17.3 C181.133333,17.3 181.666667,17.0833333 182.1,16.65 C182.533333,16.1833333 182.75,15.6333333 182.75,15 L182.75,5.55 C182.75,4.91666667 182.533333,4.38333333 182.1,3.95 C181.666667,3.48333333 181.133333,3.25 180.5,3.25 L146.55,3.25 C145.916667,3.25 145.383333,3.48333333 144.95,3.95" id="Shape" fill="#8A2323"></path>
            <path d="M144.95,3.95 C145.383333,3.48333333 145.916667,3.25 146.55,3.25 L180.5,3.25 C181.133333,3.25 181.666667,3.48333333 182.1,3.95 C182.533333,4.38333333 182.75,4.91666667 182.75,5.55 L182.75,15 C182.75,15.6333333 182.533333,16.1833333 182.1,16.65 C181.666667,17.0833333 181.133333,17.3 180.5,17.3 L160.1,17.3 L160.1,22.65 L177.95,22.65 C178.583333,22.65 179.133333,22.8833333 179.6,23.35 L180.05,24.1 L180.2,24.9 L180.2,34.2 C180.2,34.8333333 180,35.3666667 179.6,35.8 C179.133333,36.2333333 178.583333,36.45 177.95,36.45 L160.1,36.45 L160.1,44.05 L182.15,44.05 C182.783333,44.05 183.333333,44.2833333 183.8,44.75 C184.2,45.15 184.4,45.6666667 184.4,46.3 L184.4,55.8 C184.4,56.4333333 184.2,56.9833333 183.8,57.45 C183.333333,57.85 182.783333,58.05 182.15,58.05 L146.55,58.05 C145.916667,58.05 145.383333,57.85 144.95,57.45 C144.483333,56.9833333 144.25,56.4333333 144.25,55.8 L144.25,5.55 C144.25,4.91666667 144.483333,4.38333333 144.95,3.95 M157.85,24.9 L157.85,15 L180.5,15 L180.5,5.55 L146.55,5.55 L146.55,55.8 L182.15,55.8 L182.15,46.3 L157.85,46.3 L157.85,34.2 L177.95,34.2 L177.95,24.9 L157.85,24.9" id="Shape" fill="#E55C5C"></path>
            <polyline id="Shape" fill="#C83E3E" points="157.85 24.9 177.95 24.9 177.95 34.2 157.85 34.2 157.85 46.3 182.15 46.3 182.15 55.8 146.55 55.8 146.55 5.55 180.5 5.55 180.5 15 157.85 15 157.85 24.9"></polyline>
            <path d="M99,55.95 L99,5.55 C99,4.28333333 99.45,3.2 100.35,2.3 C101.216667,1.43333333 102.283333,1 103.55,1 L114.85,1 C116.116667,1 117.183333,1.43333333 118.05,2.3 C118.95,3.2 119.4,4.28333333 119.4,5.55 L119.4,41.55 L137.15,41.55 C138.416667,41.55 139.483333,42 140.35,42.9 C141.25,43.7666667 141.7,44.8333333 141.7,46.1 L141.7,55.95 C141.666667,57.15 141.216667,58.1833333 140.35,59.05 C139.483333,59.9166667 138.416667,60.35 137.15,60.35 L103.55,60.35 C102.283333,60.35 101.216667,59.9166667 100.35,59.05 C99.4833333,58.1833333 99.0333333,57.15 99,55.95 M116.45,3.95 C116.016667,3.48333333 115.483333,3.25 114.85,3.25 L103.55,3.25 C102.916667,3.25 102.383333,3.48333333 101.95,3.95 C101.516667,4.38333333 101.3,4.91666667 101.3,5.55 L101.3,55.8 C101.3,56.4333333 101.516667,56.9833333 101.95,57.45 C102.383333,57.8833333 102.916667,58.1 103.55,58.1 L137.15,58.1 C137.783333,58.1 138.333333,57.8833333 138.8,57.45 C139.2,56.9833333 139.4,56.4333333 139.4,55.8 L139.4,46.1 C139.4,45.4666667 139.2,44.9333333 138.8,44.5 C138.333333,44.0666667 137.783333,43.85 137.15,43.85 L117.1,43.85 L117.1,5.55 C117.1,4.91666667 116.883333,4.38333333 116.45,3.95" id="Shape" fill="#8A2323"></path>
            <path d="M116.45,3.95 C116.883333,4.38333333 117.1,4.91666667 117.1,5.55 L117.1,43.85 L137.15,43.85 C137.783333,43.85 138.333333,44.0666667 138.8,44.5 C139.2,44.9333333 139.4,45.4666667 139.4,46.1 L139.4,55.8 C139.4,56.4333333 139.2,56.9833333 138.8,57.45 C138.333333,57.8833333 137.783333,58.1 137.15,58.1 L103.55,58.1 C102.916667,58.1 102.383333,57.8833333 101.95,57.45 C101.516667,56.9833333 101.3,56.4333333 101.3,55.8 L101.3,5.55 C101.3,4.91666667 101.516667,4.38333333 101.95,3.95 C102.383333,3.48333333 102.916667,3.25 103.55,3.25 L114.85,3.25 C115.483333,3.25 116.016667,3.48333333 116.45,3.95 M137.15,55.8 L137.15,46.1 L114.85,46.1 L114.85,5.55 L103.55,5.55 L103.55,55.8 L137.15,55.8" id="Shape" fill="#E55C5C"></path>
            <path d="M141.7,55.95 L141.7,60.35 C141.7,61.6166667 141.25,62.6833333 140.35,63.55 C139.483333,64.45 138.416667,64.9 137.15,64.9 L103.55,64.9 C102.283333,64.9 101.216667,64.45 100.35,63.55 C99.45,62.6833333 99,61.6166667 99,60.35 L99,55.95 C99.0333333,57.15 99.4833333,58.1833333 100.35,59.05 C101.216667,59.9166667 102.283333,60.35 103.55,60.35 L137.15,60.35 C138.416667,60.35 139.483333,59.9166667 140.35,59.05 C141.216667,58.1833333 141.666667,57.15 141.7,55.95" id="Shape" fill-opacity="0.101960784" fill="#000000"></path>
            <polyline id="Shape" fill="#C83E3E" points="137.15 55.8 103.55 55.8 103.55 5.55 114.85 5.55 114.85 46.1 137.15 46.1 137.15 55.8"></polyline>
            <path d="M48,37.9 L48,5.55 C48,4.28333333 48.45,3.2 49.35,2.3 C50.2166667,1.43333333 51.2833333,1 52.55,1 L63.9,1 C65.1666667,1 66.2333333,1.43333333 67.1,2.3 C67.9666667,3.2 68.4,4.28333333 68.4,5.55 L68.4,36.35 C68.4666667,37.6166667 68.6333333,38.7 68.9,39.6 L68.9,39.65 C69.1666667,40.4166667 69.5166667,41.05 69.95,41.55 L70.05,41.7 L70.75,42.15 L70.85,42.2 L73.1,42.5 C74.5,42.5 75.6333333,42.1333333 76.5,41.4 L76.55,41.35 C77.3166667,40.3166667 77.75,38.6666667 77.85,36.4 L77.85,5.55 C77.85,4.28333333 78.2833333,3.2 79.15,2.3 C80.05,1.43333333 81.1166667,1 82.35,1 L93.7,1 C94.9666667,1 96.05,1.43333333 96.95,2.3 C97.8166667,3.2 98.25,4.28333333 98.25,5.55 L98.25,37.9 C98.15,40.8666667 97.7,43.6166667 96.9,46.15 L96.8,46.35 C95.7666667,49.5166667 94.15,52.2166667 91.95,54.45 L91.8,54.6 C89.8,56.6666667 87.25,58.3 84.15,59.5 L83.85,59.65 C80.7833333,60.7833333 77.15,61.35 72.95,61.35 C68.8166667,61.35 65.2666667,60.7833333 62.3,59.65 L62.15,59.6 C58.9166667,58.3 56.25,56.55 54.15,54.35 L54.15,54.3 C52.05,52.0666667 50.4833333,49.4 49.45,46.3 C48.5833333,43.7666667 48.1,40.9666667 48,37.9 M50.95,3.95 C50.5166667,4.38333333 50.3,4.91666667 50.3,5.55 L50.3,36.8 C50.3,40 50.7333333,42.9333333 51.6,45.6 C52.5,48.3666667 53.9166667,50.75 55.85,52.75 C57.7166667,54.75 60.1,56.3166667 63,57.45 C65.7666667,58.55 69.0833333,59.1 72.95,59.1 C76.85,59.1 80.2166667,58.5833333 83.05,57.55 L83.05,57.5 C86.0166667,56.4 88.4333333,54.85 90.3,52.85 L90.35,52.8 C92.2833333,50.8333333 93.7166667,48.45 94.65,45.65 C95.55,42.95 96,40 96,36.8 L96,5.55 C96,4.91666667 95.7833333,4.38333333 95.35,3.95 C94.8833333,3.48333333 94.3333333,3.25 93.7,3.25 L82.35,3.25 C81.75,3.25 81.2333333,3.48333333 80.8,3.95 C80.3333333,4.38333333 80.1,4.91666667 80.1,5.55 L80.1,35.85 C80.1,39.1166667 79.4666667,41.4666667 78.2,42.9 L77.55,43.5 C76.35,44.3333333 74.8666667,44.75 73.1,44.75 L70.1,44.35 L70.05,44.3 L68.75,43.55 L68.25,43.05 L68.2,43.05 C67.6,42.3166667 67.1,41.4 66.7,40.3 L66.7,40.35 C66.3333333,39.1166667 66.15,37.6166667 66.15,35.85 L66.15,5.55 C66.15,4.91666667 65.9333333,4.38333333 65.5,3.95 C65.0666667,3.48333333 64.5333333,3.25 63.9,3.25 L52.55,3.25 C51.9166667,3.25 51.3833333,3.48333333 50.95,3.95" id="Shape" fill="#8A2323"></path>
            <path d="M50.95,3.95 C51.3833333,3.48333333 51.9166667,3.25 52.55,3.25 L63.9,3.25 C64.5333333,3.25 65.0666667,3.48333333 65.5,3.95 C65.9333333,4.38333333 66.15,4.91666667 66.15,5.55 L66.15,35.85 C66.15,37.6166667 66.3333333,39.1166667 66.7,40.35 L66.7,40.3 C67.1,41.4 67.6,42.3166667 68.2,43.05 L68.25,43.05 L68.75,43.55 L70.05,44.3 L70.1,44.35 L73.1,44.75 C74.8666667,44.75 76.35,44.3333333 77.55,43.5 L78.2,42.9 C79.4666667,41.4666667 80.1,39.1166667 80.1,35.85 L80.1,5.55 C80.1,4.91666667 80.3333333,4.38333333 80.8,3.95 C81.2333333,3.48333333 81.75,3.25 82.35,3.25 L93.7,3.25 C94.3333333,3.25 94.8833333,3.48333333 95.35,3.95 C95.7833333,4.38333333 96,4.91666667 96,5.55 L96,36.8 C96,40 95.55,42.95 94.65,45.65 C93.7166667,48.45 92.2833333,50.8333333 90.35,52.8 L90.3,52.85 C88.4333333,54.85 86.0166667,56.4 83.05,57.5 L83.05,57.55 C80.2166667,58.5833333 76.85,59.1 72.95,59.1 C69.0833333,59.1 65.7666667,58.55 63,57.45 C60.1,56.3166667 57.7166667,54.75 55.85,52.75 C53.9166667,50.75 52.5,48.3666667 51.6,45.6 C50.7333333,42.9333333 50.3,40 50.3,36.8 L50.3,5.55 C50.3,4.91666667 50.5166667,4.38333333 50.95,3.95 M52.55,36.8 C52.55,39.7333333 52.95,42.4333333 53.75,44.9 C54.55,47.3333333 55.7833333,49.4333333 57.45,51.2 C59.1166667,52.9666667 61.2333333,54.35 63.8,55.35 C66.3666667,56.3166667 69.4166667,56.8 72.95,56.8 C76.55,56.8 79.65,56.3333333 82.25,55.4 C84.8833333,54.4 87.0333333,53.0166667 88.7,51.25 C90.4,49.4833333 91.6666667,47.3666667 92.5,44.9 C93.3,42.4333333 93.7,39.7333333 93.7,36.8 L93.7,5.55 L82.35,5.55 L82.35,35.85 C82.35,39.9166667 81.5,42.8 79.8,44.5 C78.2,46.1 76.0833333,46.95 73.45,47.05 L73.2,47.05 L73.1,47.05 L73.05,47.05 L72.45,47.05 L69.35,46.45 C68.2166667,46.05 67.2666667,45.4166667 66.5,44.55 C65.7,43.65 65.05,42.4666667 64.55,41 C64.1166667,39.6 63.9,37.8833333 63.9,35.85 L63.9,5.55 L52.55,5.55 L52.55,36.8" id="Shape" fill="#E55C5C"></path>
            <path d="M98.25,37.9 L98.25,41.35 C98.25,44.7166667 97.8,47.8166667 96.9,50.65 L96.8,50.9 C95.7666667,54.0333333 94.15,56.7333333 91.95,59 L91.8,59.15 C89.8,61.2166667 87.25,62.85 84.15,64.05 L83.85,64.2 C80.7833333,65.3333333 77.15,65.9 72.95,65.9 C68.8166667,65.9 65.2666667,65.3333333 62.3,64.2 L62.15,64.1 C58.9166667,62.8333333 56.25,61.0833333 54.15,58.85 C52.05,56.6166667 50.4833333,53.95 49.45,50.85 C48.4833333,47.9833333 48,44.8166667 48,41.35 L48,37.9 C48.1,40.9666667 48.5833333,43.7666667 49.45,46.3 C50.4833333,49.4 52.05,52.0666667 54.15,54.3 L54.15,54.35 C56.25,56.55 58.9166667,58.3 62.15,59.6 L62.3,59.65 C65.2666667,60.7833333 68.8166667,61.35 72.95,61.35 C77.15,61.35 80.7833333,60.7833333 83.85,59.65 L84.15,59.5 C87.25,58.3 89.8,56.6666667 91.8,54.6 L91.95,54.45 C94.15,52.2166667 95.7666667,49.5166667 96.8,46.35 L96.9,46.15 C97.7,43.6166667 98.15,40.8666667 98.25,37.9" id="Shape" fill-opacity="0.101960784" fill="#000000"></path>
            <path d="M52.55,36.8 L52.55,5.55 L63.9,5.55 L63.9,35.85 C63.9,37.8833333 64.1166667,39.6 64.55,41 C65.05,42.4666667 65.7,43.65 66.5,44.55 C67.2666667,45.4166667 68.2166667,46.05 69.35,46.45 L72.45,47.05 L73.05,47.05 L73.1,47.05 L73.2,47.05 L73.45,47.05 C76.0833333,46.95 78.2,46.1 79.8,44.5 C81.5,42.8 82.35,39.9166667 82.35,35.85 L82.35,5.55 L93.7,5.55 L93.7,36.8 C93.7,39.7333333 93.3,42.4333333 92.5,44.9 C91.6666667,47.3666667 90.4,49.4833333 88.7,51.25 C87.0333333,53.0166667 84.8833333,54.4 82.25,55.4 C79.65,56.3333333 76.55,56.8 72.95,56.8 C69.4166667,56.8 66.3666667,56.3166667 63.8,55.35 C61.2333333,54.35 59.1166667,52.9666667 57.45,51.2 C55.7833333,49.4333333 54.55,47.3333333 53.75,44.9 C52.95,42.4333333 52.55,39.7333333 52.55,36.8" id="Shape" fill="#C83E3E"></path>
            <path d="M19.65,4.5 L19.25,4.5 L14.1,4.7 L12.15,4.85 L4.5,5.8 L4.5,55.4 L15.8,55.4 L15.8,37.05 L21.4,37.05 L24.35,40.95 L27.25,45.45 L30.2,50.4 L33,55.4 L45.65,55.4 L42.8,49.75 L39.65,44.3 L36.4,39.2 L33.15,34.85 C36.2166667,33.6166667 38.55,31.8833333 40.15,29.65 C41.7833333,27.45 42.6,24.6 42.6,21.1 C42.6,15.4333333 40.5833333,11.25 36.55,8.55 C34.0833333,6.88333333 30.9666667,5.73333333 27.2,5.1 L19.65,4.5 M15.8,14.4 L17.7,14.3 L19.9,14.2 C23.5333333,14.2 26.2666667,14.7166667 28.1,15.75 C29.9666667,16.7833333 30.9,18.5333333 30.9,21 C30.9,23.5666667 29.9833333,25.3833333 28.15,26.45 C26.75,27.2833333 24.5666667,27.7833333 21.6,27.95 L20.35,28.05 L19,28.05 L15.8,28.05 L15.8,14.4 M18.1,16.55 L18.1,25.75 L19,25.75 L20.35,25.75 C22.8833333,25.65 24.85,25.3333333 26.25,24.8 L27,24.5 C28.1,23.7666667 28.65,22.6 28.65,21 C28.65,19.5 28.1,18.4166667 27,17.75 C25.4,16.8833333 23.0333333,16.45 19.9,16.45 L18.1,16.55 M12,2.55 L19.25,2.25 C27.35,2.25 33.55,3.73333333 37.85,6.7 C40.4166667,8.36666667 42.2833333,10.5666667 43.45,13.3 C44.4166667,15.5333333 44.9,18.1333333 44.9,21.1 C44.9,25.1666667 43.9333333,28.4666667 42,31 C40.6333333,32.8666667 38.8666667,34.4166667 36.7,35.65 L38.25,37.9 L40.15,40.65 L41.65,43.1 L41.6,43.1 L44,47.15 L44.8,48.7 L47.7,54.45 C47.9333333,54.95 48,55.45 47.9,55.95 L47.05,57.2 L45.65,57.65 L33,57.65 L31.85,57.35 L31,56.55 L28.2,51.55 L25.35,46.65 L25.4,46.65 L22.45,42.2 L20.3,39.3 L18.1,39.3 L18.1,55.4 C18.1,56.0333333 17.8833333,56.5833333 17.45,57.05 C16.9833333,57.45 16.4333333,57.65 15.8,57.65 L4.5,57.65 C3.86666667,57.65 3.35,57.45 2.95,57.05 C2.48333333,56.5833333 2.25,56.0333333 2.25,55.4 L2.25,5.8 C2.25,5.26666667 2.43333333,4.78333333 2.8,4.35 C3.13333333,3.95 3.56666667,3.7 4.1,3.6 L12,2.55" id="Shape" fill="#E55C5C"></path>
            <path d="M19.65,4.5 L27.2,5.1 C30.9666667,5.73333333 34.0833333,6.88333333 36.55,8.55 C40.5833333,11.25 42.6,15.4333333 42.6,21.1 C42.6,24.6 41.7833333,27.45 40.15,29.65 C38.55,31.8833333 36.2166667,33.6166667 33.15,34.85 L36.4,39.2 L39.65,44.3 L42.8,49.75 L45.65,55.4 L33,55.4 L30.2,50.4 L27.25,45.45 L24.35,40.95 L21.4,37.05 L15.8,37.05 L15.8,55.4 L4.5,55.4 L4.5,5.8 L12.15,4.85 L14.1,4.7 L19.25,4.5 L19.65,4.5 M15.8,14.4 L15.8,28.05 L19,28.05 L20.35,28.05 L21.6,27.95 C24.5666667,27.7833333 26.75,27.2833333 28.15,26.45 C29.9833333,25.3833333 30.9,23.5666667 30.9,21 C30.9,18.5333333 29.9666667,16.7833333 28.1,15.75 C26.2666667,14.7166667 23.5333333,14.2 19.9,14.2 L17.7,14.3 L15.8,14.4" id="Shape" fill="#C83E3E"></path>
            <path d="M20.35,23.25 L20.35,23.5 L22.15,23.4 C23.7166667,23.2 24.95,22.9 25.85,22.5 C26.1833333,22.2 26.35,21.7 26.35,21 C26.35,20.4333333 26.2,20 25.9,19.7 C24.6,19.1 22.75,18.7833333 20.35,18.75 L20.35,23.25 M18.1,16.55 L19.9,16.45 C23.0333333,16.45 25.4,16.8833333 27,17.75 C28.1,18.4166667 28.65,19.5 28.65,21 C28.65,22.6 28.1,23.7666667 27,24.5 L26.25,24.8 C24.85,25.3333333 22.8833333,25.65 20.35,25.75 L19,25.75 L18.1,25.75 L18.1,16.55 M0,55.65 L0,5.8 C0,4.73333333 0.35,3.76666667 1.05,2.9 C1.75,2.06666667 2.63333333,1.55 3.7,1.35 L11.8,0.3 L19.25,0 C27.9166667,0 34.55,1.61666667 39.15,4.85 L39.1,4.8 C44.4666667,8.26666667 47.15,13.7 47.15,21.1 L47.1,23.35 C46.7666667,26.9833333 45.6833333,30 43.85,32.4 L43.7,32.55 C42.6666667,33.95 41.4,35.2 39.9,36.3 L40.15,36.6 L41.85,39.2 L43.55,41.95 L43.7,42.15 L46.7,47.45 L46.8,47.6 L49.75,53.5 C50.2166667,54.4333333 50.3166667,55.4166667 50.05,56.45 L50.05,56.5 L49.6,57.65 L48.5,58.95 L48.45,59 C47.6166667,59.6333333 46.6833333,59.95 45.65,59.95 L33,59.95 C32.1666667,59.95 31.4,59.7333333 30.7,59.3 C29.9666667,58.9 29.4166667,58.35 29.05,57.65 L29,57.65 L26.2,52.65 L23.45,47.9 L23.4,47.85 L20.55,43.45 L20.45,43.3 L20.4,43.15 L20.35,43.2 L20.35,47.75 L20.35,55.5 C20.3166667,56.7333333 19.8833333,57.7666667 19.05,58.6 C18.15,59.5 17.0666667,59.95 15.8,59.95 L4.5,59.95 C3.26666667,59.95 2.2,59.5 1.3,58.6 C0.466666667,57.8 0.0333333333,56.8166667 0,55.65 M12,2.55 L4.1,3.6 C3.56666667,3.7 3.13333333,3.95 2.8,4.35 C2.43333333,4.78333333 2.25,5.26666667 2.25,5.8 L2.25,55.4 C2.25,56.0333333 2.48333333,56.5833333 2.95,57.05 C3.35,57.45 3.86666667,57.65 4.5,57.65 L15.8,57.65 C16.4333333,57.65 16.9833333,57.45 17.45,57.05 C17.8833333,56.5833333 18.1,56.0333333 18.1,55.4 L18.1,39.3 L20.3,39.3 L22.45,42.2 L25.4,46.65 L25.35,46.65 L28.2,51.55 L31,56.55 L31.85,57.35 L33,57.65 L45.65,57.65 L47.05,57.2 L47.9,55.95 C48,55.45 47.9333333,54.95 47.7,54.45 L44.8,48.7 L44,47.15 L41.6,43.1 L41.65,43.1 L40.15,40.65 L38.25,37.9 L36.7,35.65 C38.8666667,34.4166667 40.6333333,32.8666667 42,31 C43.9333333,28.4666667 44.9,25.1666667 44.9,21.1 C44.9,18.1333333 44.4166667,15.5333333 43.45,13.3 C42.2833333,10.5666667 40.4166667,8.36666667 37.85,6.7 C33.55,3.73333333 27.35,2.25 19.25,2.25 L12,2.55" id="Shape" fill="#8A2323"></path>
            <path d="M22.15,23.4 L20.35,23.25 L20.35,18.75 C22.75,18.7833333 24.6,19.1 25.9,19.7 C26.2,20 26.35,20.4333333 26.35,21 C26.35,21.7 26.1833333,22.2 25.85,22.5 C24.95,22.9 23.7166667,23.2 22.15,23.4 M47.1,23.35 L47.15,25.6 C47.15,30.2666667 46.05,34.0333333 43.85,36.9 L43.7,37.1 L41.85,39.2 L40.15,36.6 L39.9,36.3 C41.4,35.2 42.6666667,33.95 43.7,32.55 L43.85,32.4 C45.6833333,30 46.7666667,26.9833333 47.1,23.35 M49.6,57.65 L49.75,58 L49.75,58.05 C50.2166667,58.9833333 50.3166667,59.9666667 50.05,61 L50.05,61.05 C49.8166667,62.05 49.3,62.8666667 48.5,63.5 L48.45,63.55 C47.6166667,64.1833333 46.6833333,64.5 45.65,64.5 L33,64.5 C32.1666667,64.5 31.4,64.2833333 30.7,63.85 C29.9666667,63.45 29.4166667,62.9 29.05,62.2 L29,62.15 L26.2,57.2 L23.45,52.45 L23.4,52.4 L20.55,48 L20.45,47.85 L20.4,47.7 L20.35,47.75 L20.35,43.2 L20.4,43.15 L20.45,43.3 L20.55,43.45 L23.4,47.85 L23.45,47.9 L26.2,52.65 L29,57.65 L29.05,57.65 C29.4166667,58.35 29.9666667,58.9 30.7,59.3 C31.4,59.7333333 32.1666667,59.95 33,59.95 L45.65,59.95 C46.6833333,59.95 47.6166667,59.6333333 48.45,59 L48.5,58.95 L49.6,57.65 M20.35,55.5 L20.35,59.95 C20.35,61.2166667 19.9166667,62.2833333 19.05,63.15 C18.15,64.05 17.0666667,64.5 15.8,64.5 L4.5,64.5 C3.26666667,64.5 2.2,64.05 1.3,63.15 C0.433333333,62.2833333 0,61.2166667 0,59.95 L0,55.65 C0.0333333333,56.8166667 0.466666667,57.8 1.3,58.6 C2.2,59.5 3.26666667,59.95 4.5,59.95 L15.8,59.95 C17.0666667,59.95 18.15,59.5 19.05,58.6 C19.8833333,57.7666667 20.3166667,56.7333333 20.35,55.5" id="Shape" fill-opacity="0.101960784" fill="#000000"></path>
        </g>
    </g>
</svg>
