<?xml version="1.0" encoding="UTF-8" standalone="no"?>
<svg viewBox="0 0 257 69" version="1.1" xmlns="http://www.w3.org/2000/svg" xmlns:xlink="http://www.w3.org/1999/xlink">
    <!-- Generator: Sketch 3.7.2 (28276) - http://www.bohemiancoding.com/sketch -->
    <title>score</title>
    <desc>Created with Sketch.</desc>
    <defs></defs>
    <g id="Page-1" stroke="none" stroke-width="1" fill="none" fill-rule="evenodd">
        <g id="score">
            <path d="M254.45,16.05 L254.45,20.35 C254.45,21.6166667 254.016667,22.6833333 253.15,23.55 C252.75,23.95 252.3,24.2666667 251.8,24.5 C251.6,23.7666667 251.2,23.1 250.6,22.5 C249.733333,21.6333333 248.666667,21.2 247.4,21.2 L231.85,21.2 L231.85,20.35 L249.95,20.35 C251.216667,20.35 252.283333,19.9166667 253.15,19.05 C253.983333,18.2166667 254.416667,17.2166667 254.45,16.05 M251.95,35.1 L251.95,39.5 C251.95,40.7 251.55,41.7333333 250.75,42.6 L231.85,42.6 L231.85,39.5 L247.4,39.5 C248.666667,39.5 249.733333,39.0666667 250.6,38.2 C251.466667,37.3333333 251.916667,36.3 251.95,35.1 M256.15,56.7 L256.15,61.15 C256.15,62.4166667 255.7,63.4833333 254.8,64.35 C253.933333,65.25 252.866667,65.7 251.6,65.7 L216,65.7 C214.733333,65.7 213.666667,65.25 212.8,64.35 C211.9,63.4833333 211.45,62.4166667 211.45,61.15 L211.45,56.7 C211.483333,57.9333333 211.933333,58.9666667 212.8,59.8 C213.666667,60.7 214.733333,61.15 216,61.15 L251.6,61.15 C252.866667,61.15 253.933333,60.7 254.8,59.8 C255.666667,58.9666667 256.116667,57.9333333 256.15,56.7" id="Shape" fill-opacity="0.101960784" fill="#000000"></path>
            <path d="M256.15,56.7 C256.116667,57.9333333 255.666667,58.9666667 254.8,59.8 C253.933333,60.7 252.866667,61.15 251.6,61.15 L216,61.15 C214.733333,61.15 213.666667,60.7 212.8,59.8 C211.933333,58.9666667 211.483333,57.9333333 211.45,56.7 L211.45,6.35 C211.45,5.08333333 211.9,4 212.8,3.1 C213.666667,2.23333333 214.733333,1.8 216,1.8 L249.95,1.8 C251.216667,1.8 252.283333,2.23333333 253.15,3.1 C254.016667,4 254.45,5.08333333 254.45,6.35 L254.45,16.05 C254.416667,17.2166667 253.983333,18.2166667 253.15,19.05 C252.283333,19.9166667 251.216667,20.35 249.95,20.35 L231.85,20.35 L231.85,21.2 L247.4,21.2 C248.666667,21.2 249.733333,21.6333333 250.6,22.5 C251.2,23.1 251.6,23.7666667 251.8,24.5 L251.95,25.7 L251.95,35.1 C251.916667,36.3 251.466667,37.3333333 250.6,38.2 C249.733333,39.0666667 248.666667,39.5 247.4,39.5 L231.85,39.5 L231.85,42.6 L250.75,42.6 L251.6,42.6 C252.866667,42.6 253.933333,43.0333333 254.8,43.9 C255.7,44.8 256.15,45.8666667 256.15,47.1 L256.15,56.7 M214.4,4.75 C213.933333,5.18333333 213.7,5.71666667 213.7,6.35 L213.7,56.6 C213.7,57.2333333 213.933333,57.7833333 214.4,58.25 C214.833333,58.65 215.366667,58.85 216,58.85 L251.6,58.85 C252.233333,58.85 252.783333,58.65 253.25,58.25 C253.65,57.7833333 253.85,57.2333333 253.85,56.6 L253.85,47.1 C253.85,46.4666667 253.65,45.95 253.25,45.55 C252.783333,45.0833333 252.233333,44.85 251.6,44.85 L229.55,44.85 L229.55,37.25 L247.4,37.25 C248.033333,37.25 248.583333,37.0333333 249.05,36.6 C249.45,36.1666667 249.65,35.6333333 249.65,35 L249.65,25.7 L249.5,24.9 L249.05,24.15 C248.583333,23.6833333 248.033333,23.45 247.4,23.45 L229.55,23.45 L229.55,18.1 L249.95,18.1 C250.583333,18.1 251.116667,17.8833333 251.55,17.45 C251.983333,16.9833333 252.2,16.4333333 252.2,15.8 L252.2,6.35 C252.2,5.71666667 251.983333,5.18333333 251.55,4.75 C251.116667,4.28333333 250.583333,4.05 249.95,4.05 L216,4.05 C215.366667,4.05 214.833333,4.28333333 214.4,4.75" id="Shape" fill="#5DA3BD"></path>
            <path d="M214.4,4.75 C214.833333,4.28333333 215.366667,4.05 216,4.05 L249.95,4.05 C250.583333,4.05 251.116667,4.28333333 251.55,4.75 C251.983333,5.18333333 252.2,5.71666667 252.2,6.35 L252.2,15.8 C252.2,16.4333333 251.983333,16.9833333 251.55,17.45 C251.116667,17.8833333 250.583333,18.1 249.95,18.1 L229.55,18.1 L229.55,23.45 L247.4,23.45 C248.033333,23.45 248.583333,23.6833333 249.05,24.15 L249.5,24.9 L249.65,25.7 L249.65,35 C249.65,35.6333333 249.45,36.1666667 249.05,36.6 C248.583333,37.0333333 248.033333,37.25 247.4,37.25 L229.55,37.25 L229.55,44.85 L251.6,44.85 C252.233333,44.85 252.783333,45.0833333 253.25,45.55 C253.65,45.95 253.85,46.4666667 253.85,47.1 L253.85,56.6 C253.85,57.2333333 253.65,57.7833333 253.25,58.25 C252.783333,58.65 252.233333,58.85 251.6,58.85 L216,58.85 C215.366667,58.85 214.833333,58.65 214.4,58.25 C213.933333,57.7833333 213.7,57.2333333 213.7,56.6 L213.7,6.35 C213.7,5.71666667 213.933333,5.18333333 214.4,4.75 M227.3,25.7 L227.3,15.8 L249.95,15.8 L249.95,6.35 L216,6.35 L216,56.6 L251.6,56.6 L251.6,47.1 L227.3,47.1 L227.3,35 L247.4,35 L247.4,25.7 L227.3,25.7" id="Shape" fill="#D5EDF7"></path>
            <polyline id="Shape" fill="#ACDCEE" points="227.3 25.7 247.4 25.7 247.4 35 227.3 35 227.3 47.1 251.6 47.1 251.6 56.6 216 56.6 216 6.35 249.95 6.35 249.95 15.8 227.3 15.8 227.3 25.7"></polyline>
            <path d="M177.75,6 L177.35,6 L172.2,6.2 L170.25,6.35 L162.6,7.3 L162.6,56.9 L173.9,56.9 L173.9,38.55 L179.5,38.55 L182.45,42.45 L185.35,46.95 L188.3,51.9 L191.1,56.9 L203.75,56.9 L200.9,51.25 L197.75,45.8 L194.5,40.7 L191.25,36.35 C194.316667,35.1166667 196.65,33.3833333 198.25,31.15 C199.883333,28.95 200.7,26.1 200.7,22.6 C200.7,16.9333333 198.683333,12.75 194.65,10.05 C192.183333,8.38333333 189.066667,7.23333333 185.3,6.6 L177.75,6 M173.9,15.9 L175.8,15.8 L178,15.7 C181.633333,15.7 184.366667,16.2166667 186.2,17.25 C188.066667,18.2833333 189,20.0333333 189,22.5 C189,25.0666667 188.083333,26.8833333 186.25,27.95 C184.85,28.7833333 182.666667,29.2833333 179.7,29.45 L178.45,29.55 L177.1,29.55 L173.9,29.55 L173.9,15.9 M176.2,18.05 L176.2,27.25 L177.1,27.25 L178.45,27.25 C180.983333,27.15 182.95,26.8333333 184.35,26.3 L185.1,26 C186.2,25.2666667 186.75,24.1 186.75,22.5 C186.75,21 186.2,19.9166667 185.1,19.25 C183.5,18.3833333 181.133333,17.95 178,17.95 L176.2,18.05 M170.1,4.05 L177.35,3.75 C185.45,3.75 191.65,5.23333333 195.95,8.2 C198.516667,9.86666667 200.383333,12.0666667 201.55,14.8 C202.516667,17.0333333 203,19.6333333 203,22.6 C203,26.6666667 202.033333,29.9666667 200.1,32.5 C198.733333,34.3666667 196.966667,35.9166667 194.8,37.15 L196.35,39.4 L198.25,42.15 L199.75,44.6 L199.7,44.6 L202.1,48.65 L202.9,50.2 L205.8,55.95 C206.033333,56.45 206.1,56.95 206,57.45 L205.15,58.7 L203.75,59.15 L191.1,59.15 L189.95,58.85 L189.1,58.05 L186.3,53.05 L183.45,48.15 L183.5,48.15 L180.55,43.7 L178.4,40.8 L176.2,40.8 L176.2,56.9 C176.2,57.5333333 175.983333,58.0833333 175.55,58.55 C175.083333,58.95 174.533333,59.15 173.9,59.15 L162.6,59.15 C161.966667,59.15 161.45,58.95 161.05,58.55 C160.583333,58.0833333 160.35,57.5333333 160.35,56.9 L160.35,7.3 C160.35,6.76666667 160.533333,6.28333333 160.9,5.85 C161.233333,5.45 161.666667,5.2 162.2,5.1 L170.1,4.05" id="Shape" fill="#D5EDF7"></path>
            <path d="M177.75,6 L185.3,6.6 C189.066667,7.23333333 192.183333,8.38333333 194.65,10.05 C198.683333,12.75 200.7,16.9333333 200.7,22.6 C200.7,26.1 199.883333,28.95 198.25,31.15 C196.65,33.3833333 194.316667,35.1166667 191.25,36.35 L194.5,40.7 L197.75,45.8 L200.9,51.25 L203.75,56.9 L191.1,56.9 L188.3,51.9 L185.35,46.95 L182.45,42.45 L179.5,38.55 L173.9,38.55 L173.9,56.9 L162.6,56.9 L162.6,7.3 L170.25,6.35 L172.2,6.2 L177.35,6 L177.75,6 M173.9,15.9 L173.9,29.55 L177.1,29.55 L178.45,29.55 L179.7,29.45 C182.666667,29.2833333 184.85,28.7833333 186.25,27.95 C188.083333,26.8833333 189,25.0666667 189,22.5 C189,20.0333333 188.066667,18.2833333 186.2,17.25 C184.366667,16.2166667 181.633333,15.7 178,15.7 L175.8,15.8 L173.9,15.9" id="Shape" fill="#ACDCEE"></path>
            <path d="M178.45,24.75 L178.45,25 L180.25,24.9 C181.816667,24.7 183.05,24.4 183.95,24 C184.283333,23.7 184.45,23.2 184.45,22.5 C184.45,21.9333333 184.3,21.5 184,21.2 C182.7,20.6 180.85,20.2833333 178.45,20.25 L178.45,24.75 M176.2,18.05 L178,17.95 C181.133333,17.95 183.5,18.3833333 185.1,19.25 C186.2,19.9166667 186.75,21 186.75,22.5 C186.75,24.1 186.2,25.2666667 185.1,26 L184.35,26.3 C182.95,26.8333333 180.983333,27.15 178.45,27.25 L177.1,27.25 L176.2,27.25 L176.2,18.05 M158.1,57.15 L158.1,7.3 C158.1,6.23333333 158.45,5.26666667 159.15,4.4 C159.85,3.56666667 160.733333,3.05 161.8,2.85 L169.9,1.8 L177.35,1.5 C186.016667,1.5 192.65,3.11666667 197.25,6.35 L197.2,6.3 C202.566667,9.76666667 205.25,15.2 205.25,22.6 L205.2,24.85 C204.866667,28.4833333 203.783333,31.5 201.95,33.9 L201.8,34.05 C200.766667,35.45 199.5,36.7 198,37.8 L198.25,38.1 L199.95,40.7 L201.65,43.45 L201.8,43.65 L204.8,48.95 L204.9,49.1 L207.85,55 C208.316667,55.9333333 208.416667,56.9166667 208.15,57.95 L208.15,58 L207.7,59.15 L206.6,60.45 L206.55,60.5 C205.716667,61.1333333 204.783333,61.45 203.75,61.45 L191.1,61.45 C190.266667,61.45 189.5,61.2333333 188.8,60.8 C188.066667,60.4 187.516667,59.85 187.15,59.15 L187.1,59.15 L184.3,54.15 L181.55,49.4 L181.5,49.35 L178.65,44.95 L178.55,44.8 L178.5,44.65 L178.45,44.7 L178.45,49.25 L178.45,57 C178.416667,58.2333333 177.983333,59.2666667 177.15,60.1 C176.25,61 175.166667,61.45 173.9,61.45 L162.6,61.45 C161.366667,61.45 160.3,61 159.4,60.1 C158.566667,59.3 158.133333,58.3166667 158.1,57.15 M170.1,4.05 L162.2,5.1 C161.666667,5.2 161.233333,5.45 160.9,5.85 C160.533333,6.28333333 160.35,6.76666667 160.35,7.3 L160.35,56.9 C160.35,57.5333333 160.583333,58.0833333 161.05,58.55 C161.45,58.95 161.966667,59.15 162.6,59.15 L173.9,59.15 C174.533333,59.15 175.083333,58.95 175.55,58.55 C175.983333,58.0833333 176.2,57.5333333 176.2,56.9 L176.2,40.8 L178.4,40.8 L180.55,43.7 L183.5,48.15 L183.45,48.15 L186.3,53.05 L189.1,58.05 L189.95,58.85 L191.1,59.15 L203.75,59.15 L205.15,58.7 L206,57.45 C206.1,56.95 206.033333,56.45 205.8,55.95 L202.9,50.2 L202.1,48.65 L199.7,44.6 L199.75,44.6 L198.25,42.15 L196.35,39.4 L194.8,37.15 C196.966667,35.9166667 198.733333,34.3666667 200.1,32.5 C202.033333,29.9666667 203,26.6666667 203,22.6 C203,19.6333333 202.516667,17.0333333 201.55,14.8 C200.383333,12.0666667 198.516667,9.86666667 195.95,8.2 C191.65,5.23333333 185.45,3.75 177.35,3.75 L170.1,4.05" id="Shape" fill="#5DA3BD"></path>
            <path d="M180.25,24.9 L178.45,24.75 L178.45,20.25 C180.85,20.2833333 182.7,20.6 184,21.2 C184.3,21.5 184.45,21.9333333 184.45,22.5 C184.45,23.2 184.283333,23.7 183.95,24 C183.05,24.4 181.816667,24.7 180.25,24.9 M205.2,24.85 L205.25,27.1 C205.25,31.7666667 204.15,35.5333333 201.95,38.4 L201.8,38.6 L199.95,40.7 L198.25,38.1 L198,37.8 C199.5,36.7 200.766667,35.45 201.8,34.05 L201.95,33.9 C203.783333,31.5 204.866667,28.4833333 205.2,24.85 M207.7,59.15 L207.85,59.5 L207.85,59.55 C208.316667,60.4833333 208.416667,61.4666667 208.15,62.5 L208.15,62.55 C207.916667,63.55 207.4,64.3666667 206.6,65 L206.55,65.05 C205.716667,65.6833333 204.783333,66 203.75,66 L191.1,66 C190.266667,66 189.5,65.7833333 188.8,65.35 C188.066667,64.95 187.516667,64.4 187.15,63.7 L187.1,63.65 L184.3,58.7 L181.55,53.95 L181.5,53.9 L178.65,49.5 L178.55,49.35 L178.5,49.2 L178.45,49.25 L178.45,44.7 L178.5,44.65 L178.55,44.8 L178.65,44.95 L181.5,49.35 L181.55,49.4 L184.3,54.15 L187.1,59.15 L187.15,59.15 C187.516667,59.85 188.066667,60.4 188.8,60.8 C189.5,61.2333333 190.266667,61.45 191.1,61.45 L203.75,61.45 C204.783333,61.45 205.716667,61.1333333 206.55,60.5 L206.6,60.45 L207.7,59.15 M178.45,57 L178.45,61.45 C178.45,62.7166667 178.016667,63.7833333 177.15,64.65 C176.25,65.55 175.166667,66 173.9,66 L162.6,66 C161.366667,66 160.3,65.55 159.4,64.65 C158.533333,63.7833333 158.1,62.7166667 158.1,61.45 L158.1,57.15 C158.133333,58.3166667 158.566667,59.3 159.4,60.1 C160.3,61 161.366667,61.45 162.6,61.45 L173.9,61.45 C175.166667,61.45 176.25,61 177.15,60.1 C177.983333,59.2666667 178.416667,58.2333333 178.45,57" id="Shape" fill-opacity="0.101960784" fill="#000000"></path>
            <path d="M148.65,21.45 C147.35,18.1833333 145.566667,15.4333333 143.3,13.2 C141,11 138.333333,9.33333333 135.3,8.2 C133.433333,7.53333333 131.483333,7.06666667 129.45,6.8 L125.75,6.55 L125.6,6.55 L125.45,6.55 L121.8,6.8 C119.833333,7.06666667 117.916667,7.53333333 116.05,8.2 C113.016667,9.33333333 110.35,11 108.05,13.2 C105.75,15.4333333 103.933333,18.1833333 102.6,21.45 C101.233333,24.7166667 100.55,28.5 100.55,32.8 C100.55,37.1333333 101.2,40.9166667 102.5,44.15 C103.833333,47.45 105.633333,50.1833333 107.9,52.35 C110.2,54.55 112.866667,56.2166667 115.9,57.35 C118.966667,58.45 122.2,59 125.6,59 C129.1,59 132.4,58.45 135.5,57.35 C138.6,56.2166667 141.25,54.55 143.45,52.35 C145.683333,50.1833333 147.433333,47.45 148.7,44.15 C150,40.9166667 150.65,37.1333333 150.65,32.8 C150.65,28.5 149.983333,24.7166667 148.65,21.45 M149.9,18.7 L150.8,20.6 C152.2,24.1 152.9,28.1666667 152.9,32.8 C152.9,37.4666667 152.216667,41.5333333 150.85,45 C149.416667,48.5666667 147.483333,51.5666667 145.05,54 C142.616667,56.4333333 139.7,58.2666667 136.3,59.5 C132.966667,60.7 129.4,61.3 125.6,61.3 C121.9,61.3 118.416667,60.7 115.15,59.5 L115.1,59.5 C111.766667,58.2666667 108.85,56.45 106.35,54.05 L106.35,54 C103.85,51.6 101.883333,48.6166667 100.45,45.05 C99.0166667,41.55 98.3,37.4666667 98.3,32.8 C98.3,28.1666667 99.0333333,24.1 100.5,20.6 L101.3,18.8 C102.633333,16 104.35,13.6 106.45,11.6 L106.5,11.6 C109.033333,9.13333333 111.966667,7.3 115.3,6.1 C118.533333,4.9 121.966667,4.3 125.6,4.3 C129.3,4.3 132.8,4.9 136.1,6.1 C139.433333,7.3 142.366667,9.13333333 144.9,11.6 C146.9,13.6 148.566667,15.9666667 149.9,18.7 M138.95,32.8 C138.95,35.3 138.65,37.5333333 138.05,39.5 C137.45,41.4666667 136.566667,43.1666667 135.4,44.6 C134.266667,46.0666667 132.883333,47.1666667 131.25,47.9 C129.75,48.6 128.116667,49 126.35,49.1 L125.6,49.1 L124.8,49.1 C123,49 121.366667,48.6 119.9,47.9 C118.3,47.1666667 116.916667,46.0666667 115.75,44.6 C114.616667,43.1666667 113.75,41.4666667 113.15,39.5 C112.55,37.5333333 112.25,35.3 112.25,32.8 C112.25,30.4 112.55,28.2 113.15,26.2 C113.75,24.1666667 114.616667,22.45 115.75,21.05 C116.916667,19.6166667 118.3,18.4833333 119.9,17.65 C121.566667,16.8833333 123.466667,16.5 125.6,16.5 C127.666667,16.5 129.55,16.8833333 131.25,17.65 C132.883333,18.4166667 134.266667,19.5 135.4,20.9 C136.566667,22.3666667 137.45,24.1 138.05,26.1 C138.65,28.1 138.95,30.3333333 138.95,32.8 M117.55,22.45 C116.583333,23.65 115.85,25.1 115.35,26.8 C114.783333,28.6333333 114.5,30.6333333 114.5,32.8 C114.5,35.0333333 114.783333,37.0666667 115.35,38.9 C115.85,40.5333333 116.583333,41.9666667 117.55,43.2 L117.75,43.5 C118.65,44.5333333 119.7,45.3166667 120.9,45.85 C122.266667,46.4833333 123.833333,46.8 125.6,46.8 C127.333333,46.8 128.9,46.4833333 130.3,45.85 C131.533333,45.2833333 132.6,44.4666667 133.5,43.4 L133.65,43.2 C134.616667,41.9666667 135.366667,40.5333333 135.9,38.9 C136.433333,37.0666667 136.7,35.0333333 136.7,32.8 C136.7,30.5666667 136.433333,28.55 135.9,26.75 L135.9,26.8 C135.366667,25.0666667 134.616667,23.5833333 133.65,22.35 C132.75,21.2166667 131.65,20.3333333 130.35,19.7 L130.25,19.65 C128.85,19.05 127.3,18.75 125.6,18.75 C123.833333,18.75 122.266667,19.0833333 120.9,19.75 L120.95,19.7 C119.616667,20.3666667 118.483333,21.2833333 117.55,22.45" id="Shape" fill="#D5EDF7"></path>
            <path d="M148.65,21.45 C149.983333,24.7166667 150.65,28.5 150.65,32.8 C150.65,37.1333333 150,40.9166667 148.7,44.15 C147.433333,47.45 145.683333,50.1833333 143.45,52.35 C141.25,54.55 138.6,56.2166667 135.5,57.35 C132.4,58.45 129.1,59 125.6,59 C122.2,59 118.966667,58.45 115.9,57.35 C112.866667,56.2166667 110.2,54.55 107.9,52.35 C105.633333,50.1833333 103.833333,47.45 102.5,44.15 C101.2,40.9166667 100.55,37.1333333 100.55,32.8 C100.55,28.5 101.233333,24.7166667 102.6,21.45 C103.933333,18.1833333 105.75,15.4333333 108.05,13.2 C110.35,11 113.016667,9.33333333 116.05,8.2 C117.916667,7.53333333 119.833333,7.06666667 121.8,6.8 L125.45,6.55 L125.6,6.55 L125.75,6.55 L129.45,6.8 C131.483333,7.06666667 133.433333,7.53333333 135.3,8.2 C138.333333,9.33333333 141,11 143.3,13.2 C145.566667,15.4333333 147.35,18.1833333 148.65,21.45 M138.95,32.8 C138.95,30.3333333 138.65,28.1 138.05,26.1 C137.45,24.1 136.566667,22.3666667 135.4,20.9 C134.266667,19.5 132.883333,18.4166667 131.25,17.65 C129.55,16.8833333 127.666667,16.5 125.6,16.5 C123.466667,16.5 121.566667,16.8833333 119.9,17.65 C118.3,18.4833333 116.916667,19.6166667 115.75,21.05 C114.616667,22.45 113.75,24.1666667 113.15,26.2 C112.55,28.2 112.25,30.4 112.25,32.8 C112.25,35.3 112.55,37.5333333 113.15,39.5 C113.75,41.4666667 114.616667,43.1666667 115.75,44.6 C116.916667,46.0666667 118.3,47.1666667 119.9,47.9 C121.366667,48.6 123,49 124.8,49.1 L125.6,49.1 L126.35,49.1 C128.116667,49 129.75,48.6 131.25,47.9 C132.883333,47.1666667 134.266667,46.0666667 135.4,44.6 C136.566667,43.1666667 137.45,41.4666667 138.05,39.5 C138.65,37.5333333 138.95,35.3 138.95,32.8" id="Shape" fill="#ACDCEE"></path>
            <path d="M149.9,18.7 C148.566667,15.9666667 146.9,13.6 144.9,11.6 C142.366667,9.13333333 139.433333,7.3 136.1,6.1 C132.8,4.9 129.3,4.3 125.6,4.3 C121.966667,4.3 118.533333,4.9 115.3,6.1 C111.966667,7.3 109.033333,9.13333333 106.5,11.6 L106.45,11.6 C104.35,13.6 102.633333,16 101.3,18.8 L100.5,20.6 C99.0333333,24.1 98.3,28.1666667 98.3,32.8 C98.3,37.4666667 99.0166667,41.55 100.45,45.05 C101.883333,48.6166667 103.85,51.6 106.35,54 L106.35,54.05 C108.85,56.45 111.766667,58.2666667 115.1,59.5 L115.15,59.5 C118.416667,60.7 121.9,61.3 125.6,61.3 C129.4,61.3 132.966667,60.7 136.3,59.5 C139.7,58.2666667 142.616667,56.4333333 145.05,54 C147.483333,51.5666667 149.416667,48.5666667 150.85,45 C152.216667,41.5333333 152.9,37.4666667 152.9,32.8 C152.9,28.1666667 152.2,24.1 150.8,20.6 L149.9,18.7 M96.1,35.1 L96,32.8 C96,27.8666667 96.8,23.5 98.4,19.7 C100,15.8666667 102.15,12.6333333 104.85,10 L104.85,9.95 L104.9,9.9 C107.666667,7.26666667 110.866667,5.28333333 114.5,3.95 C118.033333,2.65 121.733333,2 125.6,2 C129.566667,2 133.316667,2.65 136.85,3.95 C140.483333,5.28333333 143.7,7.28333333 146.5,9.95 L146.5,10 C149.2,12.6333333 151.316667,15.8833333 152.85,19.75 C154.416667,23.5166667 155.2,27.8666667 155.2,32.8 L155.15,35.1 C154.95,39.1 154.216667,42.6833333 152.95,45.85 C151.416667,49.75 149.316667,53 146.65,55.6 C143.983333,58.2666667 140.8,60.2833333 137.1,61.65 L136.75,61.75 C133.25,62.95 129.533333,63.55 125.6,63.55 C121.633333,63.55 117.883333,62.9166667 114.35,61.65 L114.3,61.65 L114.3,61.6 C110.666667,60.2333333 107.483333,58.25 104.75,55.65 L104.6,55.5 C101.966667,52.9 99.8666667,49.6833333 98.3,45.85 C97.0333333,42.7166667 96.3,39.1333333 96.1,35.1 M134.3,35.05 L134.4,32.8 C134.4,30.9 134.2,29.1666667 133.8,27.6 L133.7,27.4 C133.266667,26 132.65,24.7833333 131.85,23.75 C131.216667,22.9833333 130.466667,22.35 129.6,21.85 L129.4,21.8 C128.266667,21.3 127,21.05 125.6,21.05 L122.8,21.4 C121.066667,22.0666667 119.733333,23.1333333 118.8,24.6 C118.266667,25.4333333 117.833333,26.4 117.5,27.5 L117.5,27.45 C117,29.0833333 116.75,30.8666667 116.75,32.8 L116.9,35.1 C117,36.2 117.2,37.2333333 117.5,38.2 C117.9,39.5333333 118.466667,40.6833333 119.2,41.65 L119.25,41.7 L119.3,41.8 C120,42.6666667 120.85,43.3333333 121.85,43.8 C122.916667,44.3 124.166667,44.55 125.6,44.55 C126.966667,44.55 128.216667,44.3 129.35,43.8 C130.35,43.3333333 131.183333,42.6666667 131.85,41.8 L131.9,41.8 C132.666667,40.7666667 133.266667,39.5666667 133.7,38.2 L134.3,35.05 M117.55,22.45 C118.483333,21.2833333 119.616667,20.3666667 120.95,19.7 L120.9,19.75 C122.266667,19.0833333 123.833333,18.75 125.6,18.75 C127.3,18.75 128.85,19.05 130.25,19.65 L130.35,19.7 C131.65,20.3333333 132.75,21.2166667 133.65,22.35 C134.616667,23.5833333 135.366667,25.0666667 135.9,26.8 L135.9,26.75 C136.433333,28.55 136.7,30.5666667 136.7,32.8 C136.7,35.0333333 136.433333,37.0666667 135.9,38.9 C135.366667,40.5333333 134.616667,41.9666667 133.65,43.2 L133.5,43.4 C132.6,44.4666667 131.533333,45.2833333 130.3,45.85 C128.9,46.4833333 127.333333,46.8 125.6,46.8 C123.833333,46.8 122.266667,46.4833333 120.9,45.85 C119.7,45.3166667 118.65,44.5333333 117.75,43.5 L117.55,43.2 C116.583333,41.9666667 115.85,40.5333333 115.35,38.9 C114.783333,37.0666667 114.5,35.0333333 114.5,32.8 C114.5,30.6333333 114.783333,28.6333333 115.35,26.8 C115.85,25.1 116.583333,23.65 117.55,22.45" id="Shape" fill="#5DA3BD"></path>
            <path d="M155.15,35.1 L155.2,37.35 C155.2,42.2833333 154.45,46.6166667 152.95,50.35 C151.416667,54.2833333 149.316667,57.5333333 146.65,60.1 L146.65,60.15 C143.983333,62.8166667 140.8,64.8166667 137.1,66.15 C137,66.2166667 136.883333,66.2666667 136.75,66.3 C133.25,67.5 129.533333,68.1 125.6,68.1 C121.633333,68.1 117.883333,67.45 114.35,66.15 L114.3,66.15 C110.666667,64.7833333 107.483333,62.8 104.75,60.2 L104.6,60.05 C101.966667,57.45 99.8666667,54.2333333 98.3,50.4 C96.7666667,46.6666667 96,42.3166667 96,37.35 L96.1,35.1 C96.3,39.1333333 97.0333333,42.7166667 98.3,45.85 C99.8666667,49.6833333 101.966667,52.9 104.6,55.5 L104.75,55.65 C107.483333,58.25 110.666667,60.2333333 114.3,61.6 L114.3,61.65 L114.35,61.65 C117.883333,62.9166667 121.633333,63.55 125.6,63.55 C129.533333,63.55 133.25,62.95 136.75,61.75 L137.1,61.65 C140.8,60.2833333 143.983333,58.2666667 146.65,55.6 C149.316667,53 151.416667,49.75 152.95,45.85 C154.216667,42.6833333 154.95,39.1 155.15,35.1 M134.3,35.05 L133.8,32.15 L133.7,31.95 C133.266667,30.55 132.65,29.3333333 131.85,28.3 C131.216667,27.5 130.466667,26.8666667 129.6,26.4 L129.4,26.35 C128.266667,25.8166667 127,25.55 125.6,25.55 L122.8,25.95 C121.066667,26.6166667 119.733333,27.6666667 118.8,29.1 C118.266667,29.9333333 117.833333,30.9166667 117.5,32.05 L117.5,32 C117.2,32.9666667 117,34 116.9,35.1 L116.75,32.8 C116.75,30.8666667 117,29.0833333 117.5,27.45 L117.5,27.5 C117.833333,26.4 118.266667,25.4333333 118.8,24.6 C119.733333,23.1333333 121.066667,22.0666667 122.8,21.4 L125.6,21.05 C127,21.05 128.266667,21.3 129.4,21.8 L129.6,21.85 C130.466667,22.35 131.216667,22.9833333 131.85,23.75 C132.65,24.7833333 133.266667,26 133.7,27.4 L133.8,27.6 C134.2,29.1666667 134.4,30.9 134.4,32.8 L134.3,35.05" id="Shape" fill-opacity="0.101960784" fill="#000000"></path>
            <path d="M96.7,11.75 L97,12.45 L97,12.4 C97.3666667,13.4 97.3666667,14.4166667 97,15.45 L93.75,24.6 C93.45,25.4 92.9666667,26.0833333 92.3,26.65 C91.5666667,27.2166667 90.7666667,27.5333333 89.9,27.6 C89,27.6666667 88.1666667,27.4833333 87.4,27.05 C86.0666667,26.3833333 84.55,25.8166667 82.85,25.35 L82.65,25.25 L77.05,24.6 L73.8,25.1 L73.45,25.25 C72.4166667,25.6166667 71.5166667,26.1833333 70.75,26.95 L70.7,26.95 C69.8666667,27.8166667 69.1833333,28.9333333 68.65,30.3 C68.2833333,31.3333333 68.0333333,32.5166667 67.9,33.85 L67.8,31.55 C67.8,29.2833333 68.0833333,27.3666667 68.65,25.8 C69.1833333,24.4 69.8666667,23.2666667 70.7,22.4 L70.75,22.4 C71.5166667,21.6333333 72.4166667,21.0666667 73.45,20.7 L73.8,20.55 L77.05,20.1 L82.65,20.7 L82.85,20.8 C84.55,21.2666667 86.0666667,21.85 87.4,22.55 C88.1666667,22.9833333 89,23.15 89.9,23.05 C90.7666667,22.9833333 91.5666667,22.6666667 92.3,22.1 C92.9666667,21.5666667 93.45,20.8833333 93.75,20.05 L96.7,11.75 M97.45,56.4 L97.75,57.25 C98.0833333,58.25 98.0833333,59.2666667 97.75,60.3 C97.3833333,61.3 96.7333333,62.0833333 95.8,62.65 L95.85,62.65 C93.9833333,63.7833333 91.3333333,64.8166667 87.9,65.75 C84.6666667,66.6166667 80.9,67.05 76.6,67.05 C66.9666667,67.05 59.6666667,64.3 54.7,58.8 L54.65,58.8 C49.55,53.5333333 47,46.0333333 47,36.3 L47.05,34.15 C47.4166667,42.75 49.95,49.45 54.65,54.25 L54.7,54.3 C59.6666667,59.8 66.9666667,62.55 76.6,62.55 C80.9,62.55 84.6666667,62.1 87.9,61.2 C91.3333333,60.2666667 93.9833333,59.2333333 95.85,58.1 L95.8,58.1 C96.5,57.6666667 97.05,57.1 97.45,56.4" id="Shape" fill-opacity="0.101960784" fill="#000000"></path>
            <path d="M97.45,56.4 C97.05,57.1 96.5,57.6666667 95.8,58.1 L95.85,58.1 C93.9833333,59.2333333 91.3333333,60.2666667 87.9,61.2 C84.6666667,62.1 80.9,62.55 76.6,62.55 C66.9666667,62.55 59.6666667,59.8 54.7,54.3 L54.65,54.25 C49.95,49.45 47.4166667,42.75 47.05,34.15 L47,31.75 C47,26.9833333 47.7666667,22.7166667 49.3,18.95 C50.8666667,15.0833333 52.9833333,11.8333333 55.65,9.2 C58.4166667,6.46666667 61.6666667,4.41666667 65.4,3.05 L65.4,3 C69.0333333,1.66666667 72.9666667,1 77.2,1 L83.6,1.5 L83.65,1.5 L83.85,1.5 L88.9,2.75 C90.5,3.21666667 91.8,3.73333333 92.8,4.3 L95.15,5.5 L95.15,5.55 C96.05,6.11666667 96.6666667,6.9 97,7.9 L97,7.85 C97.3666667,8.88333333 97.3666667,9.9 97,10.9 L96.7,11.75 L93.75,20.05 C93.45,20.8833333 92.9666667,21.5666667 92.3,22.1 C91.5666667,22.6666667 90.7666667,22.9833333 89.9,23.05 C89,23.15 88.1666667,22.9833333 87.4,22.55 C86.0666667,21.85 84.55,21.2666667 82.85,20.8 L82.65,20.7 L77.05,20.1 L73.8,20.55 L73.45,20.7 C72.4166667,21.0666667 71.5166667,21.6333333 70.75,22.4 L70.7,22.4 C69.8666667,23.2666667 69.1833333,24.4 68.65,25.8 C68.0833333,27.3666667 67.8,29.2833333 67.8,31.55 L67.9,33.85 L68.45,36.8 L68.5,36.95 C68.8333333,38.3166667 69.35,39.5 70.05,40.5 L70.15,40.55 C70.85,41.3833333 71.75,42.05 72.85,42.55 C74.1833333,43.15 75.7833333,43.45 77.65,43.45 L81.4,43.15 L81.6,43.15 L84.4,42.6 L84.35,42.6 L86.35,41.95 L88.5,41 C89.3,40.6333333 90.1166667,40.5166667 90.95,40.65 C91.7833333,40.7833333 92.5333333,41.1 93.2,41.6 L93.25,41.65 C93.9166667,42.1833333 94.3833333,42.85 94.65,43.65 L94.6,43.65 L97.75,52.75 C98.0833333,53.7166667 98.0833333,54.7166667 97.75,55.75 L97.45,56.4 M68.3,41.85 C67.3333333,40.65 66.6666667,39.2 66.3,37.5 L66.25,37.45 C65.7833333,35.6833333 65.55,33.7166667 65.55,31.55 C65.55,28.9833333 65.8833333,26.8 66.55,25 C67.2166667,23.2666667 68.0833333,21.8833333 69.15,20.85 C70.1833333,19.7833333 71.3666667,19.0166667 72.7,18.55 C74.1333333,18.05 75.5833333,17.8 77.05,17.8 C79.45,17.8 81.5833333,18.0666667 83.45,18.6 C85.35,19.1333333 87.0166667,19.7833333 88.45,20.55 L89.7,20.8 L90.9,20.35 L91.65,19.3 L94.9,10.15 L95,9.95 C95.1,9.48333333 95.0666667,9.03333333 94.9,8.6 C94.7333333,8.1 94.4166667,7.71666667 93.95,7.45 L91.8,6.3 C90.8666667,5.8 89.6833333,5.33333333 88.25,4.9 L83.4,3.75 L77.2,3.25 C73.2666667,3.25 69.6,3.88333333 66.2,5.15 C62.7666667,6.41666667 59.7833333,8.3 57.25,10.8 C55.25,12.7666667 53.6,15.1 52.3,17.8 L51.4,19.8 C49.9666667,23.3 49.25,27.2833333 49.25,31.75 C49.25,40.8166667 51.6,47.8 56.3,52.7 C60.9333333,57.7333333 67.7,60.25 76.6,60.25 C80.6666667,60.25 84.25,59.8333333 87.35,59 C90.4833333,58.1666667 92.9166667,57.2333333 94.65,56.2 L95.65,55 C95.8166667,54.4666667 95.8166667,53.9666667 95.65,53.5 L92.5,44.4 L91.75,43.4 C91.45,43.1333333 91.0833333,42.9666667 90.65,42.9 L89.45,43.05 L87.3,44.05 L84.95,44.8 L81.8,45.45 L81.75,45.45 L77.65,45.7 C75.3833333,45.7 73.4833333,45.35 71.95,44.65 C70.6833333,44.0833333 69.6166667,43.35 68.75,42.45 L68.25,41.9 L68.3,41.85" id="Shape" fill="#5DA3BD"></path>
            <path d="M68.3,41.85 L68.25,41.85 L68.25,41.9 L68.75,42.45 C69.6166667,43.35 70.6833333,44.0833333 71.95,44.65 C73.4833333,45.35 75.3833333,45.7 77.65,45.7 L81.75,45.45 L81.8,45.45 L84.95,44.8 L87.3,44.05 L89.45,43.05 L90.65,42.9 C91.0833333,42.9666667 91.45,43.1333333 91.75,43.4 L92.5,44.4 L95.65,53.5 C95.8166667,53.9666667 95.8166667,54.4666667 95.65,55 L94.65,56.2 C92.9166667,57.2333333 90.4833333,58.1666667 87.35,59 C84.25,59.8333333 80.6666667,60.25 76.6,60.25 C67.7,60.25 60.9333333,57.7333333 56.3,52.7 C51.6,47.8 49.25,40.8166667 49.25,31.75 C49.25,27.2833333 49.9666667,23.3 51.4,19.8 L52.3,17.8 C53.6,15.1 55.25,12.7666667 57.25,10.8 C59.7833333,8.3 62.7666667,6.41666667 66.2,5.15 C69.6,3.88333333 73.2666667,3.25 77.2,3.25 L83.4,3.75 L88.25,4.9 C89.6833333,5.33333333 90.8666667,5.8 91.8,6.3 L93.95,7.45 C94.4166667,7.71666667 94.7333333,8.1 94.9,8.6 C95.0666667,9.03333333 95.1,9.48333333 95,9.95 L94.9,10.15 L91.65,19.3 L90.9,20.35 L89.7,20.8 L88.45,20.55 C87.0166667,19.7833333 85.35,19.1333333 83.45,18.6 C81.5833333,18.0666667 79.45,17.8 77.05,17.8 C75.5833333,17.8 74.1333333,18.05 72.7,18.55 C71.3666667,19.0166667 70.1833333,19.7833333 69.15,20.85 C68.0833333,21.8833333 67.2166667,23.2666667 66.55,25 C65.8833333,26.8 65.55,28.9833333 65.55,31.55 C65.55,33.7166667 65.7833333,35.6833333 66.25,37.45 L66.3,37.5 C66.6666667,39.2 67.3333333,40.65 68.3,41.85 M92.75,9.4 L90.85,8.35 C90.0166667,7.91666667 88.9166667,7.48333333 87.55,7.05 L83,6 L81.7,5.8 L77.2,5.5 L77,5.5 L73.05,5.8 C70.95,6.06666667 68.9166667,6.55 66.95,7.25 C63.85,8.41666667 61.15,10.1333333 58.85,12.4 C56.5833333,14.6333333 54.8,17.3833333 53.5,20.65 C52.1666667,23.8833333 51.5,27.5833333 51.5,31.75 C51.5,40.15 53.65,46.6166667 57.95,51.15 C62.2166667,55.7166667 68.4333333,58 76.6,58 C80.4333333,58 83.8166667,57.6 86.75,56.8 C89.65,56.0333333 91.8833333,55.1666667 93.45,54.2 L90.35,45.15 L88.25,46.1 L85.55,47 L82.1,47.65 L79.65,47.95 L77.65,47.95 L77.6,47.95 L76.25,47.95 C74.1833333,47.8166667 72.4166667,47.4 70.95,46.7 C69.1166667,45.8333333 67.6333333,44.6833333 66.5,43.25 C65.3666667,41.7833333 64.55,40.05 64.05,38.05 C63.5166667,36.0833333 63.25,33.9166667 63.25,31.55 C63.25,28.65 63.65,26.1833333 64.45,24.15 C65.2166667,22.1166667 66.2333333,20.4666667 67.5,19.2 C68.8,17.9333333 70.2833333,17 71.95,16.4 C73.6166667,15.8333333 75.3166667,15.55 77.05,15.55 C79.6833333,15.55 82.0166667,15.8333333 84.05,16.4 C86.1166667,17 87.9333333,17.7166667 89.5,18.55 L92.75,9.4" id="Shape" fill="#D5EDF7"></path>
            <path d="M92.75,9.4 L89.5,18.55 C87.9333333,17.7166667 86.1166667,17 84.05,16.4 C82.0166667,15.8333333 79.6833333,15.55 77.05,15.55 C75.3166667,15.55 73.6166667,15.8333333 71.95,16.4 C70.2833333,17 68.8,17.9333333 67.5,19.2 C66.2333333,20.4666667 65.2166667,22.1166667 64.45,24.15 C63.65,26.1833333 63.25,28.65 63.25,31.55 C63.25,33.9166667 63.5166667,36.0833333 64.05,38.05 C64.55,40.05 65.3666667,41.7833333 66.5,43.25 C67.6333333,44.6833333 69.1166667,45.8333333 70.95,46.7 C72.4166667,47.4 74.1833333,47.8166667 76.25,47.95 L77.6,47.95 L77.65,47.95 L79.65,47.95 L82.1,47.65 L85.55,47 L88.25,46.1 L90.35,45.15 L93.45,54.2 C91.8833333,55.1666667 89.65,56.0333333 86.75,56.8 C83.8166667,57.6 80.4333333,58 76.6,58 C68.4333333,58 62.2166667,55.7166667 57.95,51.15 C53.65,46.6166667 51.5,40.15 51.5,31.75 C51.5,27.5833333 52.1666667,23.8833333 53.5,20.65 C54.8,17.3833333 56.5833333,14.6333333 58.85,12.4 C61.15,10.1333333 63.85,8.41666667 66.95,7.25 C68.9166667,6.55 70.95,6.06666667 73.05,5.8 L77,5.5 L77.2,5.5 L81.7,5.8 L83,6 L87.55,7.05 C88.9166667,7.48333333 90.0166667,7.91666667 90.85,8.35 L92.75,9.4" id="Shape" fill="#ACDCEE"></path>
            <path d="M1.25,22.6 L1.15,20.35 C1.15,17.3166667 1.71666667,14.6 2.85,12.2 L2.95,12 C4.11666667,9.56666667 5.75,7.5 7.85,5.8 C9.81666667,4.2 12.1666667,2.96666667 14.9,2.1 L15.15,2 C17.8166667,1.16666667 20.8333333,0.75 24.2,0.75 C28.0666667,0.75 31.4166667,1.16666667 34.25,2 L34.45,2.1 C37.1833333,2.86666667 39.4666667,3.75 41.3,4.75 C42.2333333,5.31666667 42.9,6.11666667 43.3,7.15 C43.7,8.18333333 43.7,9.23333333 43.3,10.3 L43,11.1 L40.05,19.2 L40.05,19.25 C39.75,20.05 39.25,20.7166667 38.55,21.25 C37.85,21.7833333 37.0666667,22.1 36.2,22.2 L36.25,22.15 C35.3833333,22.25 34.55,22.1 33.75,21.7 L33.7,21.7 C32.5333333,21.0666667 31.2166667,20.5333333 29.75,20.1 C28.3833333,19.6666667 26.7666667,19.45 24.9,19.45 L22.25,19.65 L22.25,19.7 C22.75,20.0333333 23.3333333,20.3166667 24,20.55 L24.25,20.65 L27.4,21.85 L27.6,21.9 C30.3333333,22.9 32.7333333,23.9166667 34.8,24.95 L35.05,25.1 L37.45,26.45 L40.85,29.1 L41.05,29.4 C42.6833333,31.0333333 43.9,32.95 44.7,35.15 L44.75,35.15 L44.8,35.35 L44.85,35.4 C45.6166667,37.4666667 46,39.9666667 46,42.9 L45.95,45.05 C45.45,50.3166667 43.2333333,54.45 39.3,57.45 L39.2,57.5 C35.3,60.6666667 29.45,62.25 21.65,62.25 L14.95,61.8 L9.7,60.75 L9.35,60.65 L5.5,59.3 L2.5,57.75 L2.5,57.8 C1.76666667,57.3666667 1.21666667,56.8 0.85,56.1 L0.55,55.45 C0.15,54.4166667 0.15,53.3833333 0.55,52.35 L3.75,43.35 C4.05,42.5166667 4.56666667,41.8333333 5.3,41.3 L5.25,41.3 C5.98333333,40.7333333 6.8,40.4166667 7.7,40.35 C8.6,40.2833333 9.45,40.4666667 10.25,40.9 C11.35,41.5333333 12.7333333,42.1166667 14.4,42.65 L14.8,42.75 L14.85,42.75 C16.6833333,43.25 18.95,43.5 21.65,43.5 L24.55,43.25 L25.2,43.05 L25.2,42.95 L24.9,42.5 C23.5333333,41.6333333 21.2333333,40.65 18,39.55 L17.75,39.45 L17.65,39.4 L12.95,37.45 L12.65,37.35 C10.5833333,36.45 8.73333333,35.2833333 7.1,33.85 L7.05,33.8 C5.31666667,32.2666667 3.93333333,30.4333333 2.9,28.3 L2.9,28.35 C2.03333333,26.6833333 1.48333333,24.7666667 1.25,22.6 M37.95,55.65 C41.8166667,52.65 43.75,48.4 43.75,42.9 C43.75,40.2 43.3833333,37.9 42.65,36 L42.6,35.95 L42.4,35.45 C41.6666667,33.6833333 40.6166667,32.1166667 39.25,30.75 L39.2,30.7 C37.8,29.3 36,28.0666667 33.8,27 L33.85,27 C31.8166667,26.0333333 29.4833333,25.05 26.85,24.05 L26.8,24.05 L23.4,22.75 C22.5,22.4166667 21.7166667,22.05 21.05,21.65 L21,21.6 C20.5,21.3 20.1,20.95 19.8,20.55 L19.55,19.5 C19.5166667,18.8 19.7666667,18.2833333 20.3,17.95 C21.2333333,17.4166667 22.7666667,17.15 24.9,17.15 C27.0666667,17.15 28.9166667,17.4 30.45,17.9 L34.8,19.7 L36.05,19.95 L37.2,19.5 L37.95,18.45 L41.2,9.55 L41.3,9.3 C41.4,8.86666667 41.35,8.41666667 41.15,7.95 C40.95,7.41666667 40.6166667,7.03333333 40.15,6.8 C38.45,5.83333333 36.2666667,4.96666667 33.6,4.2 C30.9666667,3.4 27.8333333,3 24.2,3 C21.1333333,3 18.3666667,3.38333333 15.9,4.15 C13.3,4.91666667 11.1,6.05 9.3,7.55 C7.4,9.08333333 5.93333333,10.95 4.9,13.15 L4.75,13.6 C3.85,15.6333333 3.4,17.8833333 3.4,20.35 C3.4,23.0833333 3.9,25.4 4.9,27.3 C5.83333333,29.1333333 7.06666667,30.7333333 8.6,32.1 L8.6,32.15 C10.0666667,33.4166667 11.7333333,34.4666667 13.6,35.3 L13.55,35.3 L18.65,37.35 L18.7,37.4 C22.2,38.5666667 24.6833333,39.65 26.15,40.65 C26.9833333,41.2166667 27.4333333,41.95 27.5,42.85 L27.3,44.2 L26.8,44.75 L26.7,44.8 C26.3,45.0666667 25.7666667,45.3 25.1,45.5 L22.5,45.8 L21.65,45.8 C18.7166667,45.8 16.2333333,45.5166667 14.2,44.95 C12.2,44.35 10.5166667,43.6666667 9.15,42.9 L7.85,42.6 C7.41666667,42.6333333 7.01666667,42.8 6.65,43.1 L5.9,44.1 L2.7,53.1 C2.5,53.6333333 2.5,54.15 2.7,54.65 C2.86666667,55.1833333 3.18333333,55.5833333 3.65,55.85 L6.4,57.2 L10.3,58.55 L15.3,59.6 L21.65,60 C28.8833333,60 34.3,58.5333333 37.9,55.6 L37.9,55.65 L37.95,55.65" id="Shape" fill="#5DA3BD"></path>
            <path d="M37.95,55.65 L37.9,55.6 C34.3,58.5333333 28.8833333,60 21.65,60 L15.3,59.6 L10.3,58.55 L6.4,57.2 L3.65,55.85 C3.18333333,55.5833333 2.86666667,55.1833333 2.7,54.65 C2.5,54.15 2.5,53.6333333 2.7,53.1 L5.9,44.1 L6.65,43.1 C7.01666667,42.8 7.41666667,42.6333333 7.85,42.6 L9.15,42.9 C10.5166667,43.6666667 12.2,44.35 14.2,44.95 C16.2333333,45.5166667 18.7166667,45.8 21.65,45.8 L22.5,45.8 L25.1,45.5 C25.7666667,45.3 26.3,45.0666667 26.7,44.8 L26.8,44.75 L27.3,44.2 L27.5,42.85 C27.4333333,41.95 26.9833333,41.2166667 26.15,40.65 C24.6833333,39.65 22.2,38.5666667 18.7,37.4 L18.65,37.35 L13.55,35.3 L13.6,35.3 C11.7333333,34.4666667 10.0666667,33.4166667 8.6,32.15 L8.6,32.1 C7.06666667,30.7333333 5.83333333,29.1333333 4.9,27.3 C3.9,25.4 3.4,23.0833333 3.4,20.35 C3.4,17.8833333 3.85,15.6333333 4.75,13.6 L4.9,13.15 C5.93333333,10.95 7.4,9.08333333 9.3,7.55 C11.1,6.05 13.3,4.91666667 15.9,4.15 C18.3666667,3.38333333 21.1333333,3 24.2,3 C27.8333333,3 30.9666667,3.4 33.6,4.2 C36.2666667,4.96666667 38.45,5.83333333 40.15,6.8 C40.6166667,7.03333333 40.95,7.41666667 41.15,7.95 C41.35,8.41666667 41.4,8.86666667 41.3,9.3 L41.2,9.55 L37.95,18.45 L37.2,19.5 L36.05,19.95 L34.8,19.7 L30.45,17.9 C28.9166667,17.4 27.0666667,17.15 24.9,17.15 C22.7666667,17.15 21.2333333,17.4166667 20.3,17.95 C19.7666667,18.2833333 19.5166667,18.8 19.55,19.5 L19.8,20.55 C20.1,20.95 20.5,21.3 21,21.6 L21.05,21.65 C21.7166667,22.05 22.5,22.4166667 23.4,22.75 L26.8,24.05 L26.85,24.05 C29.4833333,25.05 31.8166667,26.0333333 33.85,27 L33.8,27 C36,28.0666667 37.8,29.3 39.2,30.7 L39.25,30.75 C40.6166667,32.1166667 41.6666667,33.6833333 42.4,35.45 L42.6,35.95 L42.65,36 C43.3833333,37.9 43.75,40.2 43.75,42.9 C43.75,48.4 41.8166667,52.65 37.95,55.65 M39.05,8.75 C37.45,7.85 35.4166667,7.05 32.95,6.35 L29.05,5.55 L24.55,5.25 L24.4,5.25 L24.2,5.25 L24.05,5.25 L20.95,5.4 C19.35,5.6 17.8666667,5.9 16.5,6.3 C14.2333333,7 12.3,8.01666667 10.7,9.35 C9.1,10.65 7.85,12.2166667 6.95,14.05 C6.08333333,15.9166667 5.65,18.0166667 5.65,20.35 C5.65,22.6833333 6.06666667,24.6666667 6.9,26.3 C7.73333333,27.8666667 8.8,29.2333333 10.1,30.4 C11.4,31.5333333 12.8666667,32.4666667 14.5,33.2 L19.45,35.25 C23.2166667,36.5166667 25.8833333,37.6833333 27.45,38.75 C28.9833333,39.85 29.75,41.2166667 29.75,42.85 C29.75,43.6166667 29.6333333,44.3166667 29.4,44.95 C29.1666667,45.5833333 28.7333333,46.1333333 28.1,46.6 C27.5,47.0666667 26.6833333,47.4333333 25.65,47.7 L22.95,48 L21.8,48.05 L21.65,48.05 L21.4,48.05 L17.85,47.85 L13.55,47.1 C11.35,46.4666667 9.5,45.7333333 8,44.9 L4.8,53.9 L7.3,55.1 L10.9,56.35 L15.6,57.3 L21.65,57.75 C28.25,57.75 33.2,56.45 36.5,53.85 C39.8,51.2833333 41.45,47.6333333 41.45,42.9 C41.45,40.5 41.1333333,38.45 40.5,36.75 C39.9,35.05 38.9333333,33.5833333 37.6,32.35 C36.3333333,31.0833333 34.7333333,29.9833333 32.8,29.05 C30.8666667,28.0833333 28.6,27.1166667 26,26.15 L22.55,24.9 C21.5166667,24.5 20.6,24.0333333 19.8,23.5 C19,23 18.3666667,22.4333333 17.9,21.8 C17.5,21.1666667 17.3,20.4 17.3,19.5 C17.3,17.9333333 17.8833333,16.7833333 19.05,16.05 C20.25,15.2833333 22.2,14.9 24.9,14.9 C27.3,14.9 29.3666667,15.1833333 31.1,15.75 C32.8333333,16.2833333 34.4,16.9166667 35.8,17.65 L39.05,8.75" id="Shape" fill="#D5EDF7"></path>
            <path d="M43,11.1 L43.3,11.7 C43.7,12.7333333 43.7,13.7833333 43.3,14.85 L40.05,23.75 L40.05,23.8 C39.75,24.6 39.25,25.2666667 38.55,25.8 L37.45,26.45 L35.05,25.1 L34.8,24.95 C32.7333333,23.9166667 30.3333333,22.9 27.6,21.9 L27.4,21.85 L24.25,20.65 L24,20.55 C23.3333333,20.3166667 22.75,20.0333333 22.25,19.7 L22.25,19.65 L24.9,19.45 C26.7666667,19.45 28.3833333,19.6666667 29.75,20.1 C31.2166667,20.5333333 32.5333333,21.0666667 33.7,21.7 L33.75,21.7 C34.55,22.1 35.3833333,22.25 36.25,22.15 L36.2,22.2 C37.0666667,22.1 37.85,21.7833333 38.55,21.25 C39.25,20.7166667 39.75,20.05 40.05,19.25 L40.05,19.2 L43,11.1 M45.95,45.05 L46,47.45 C46,53.7166667 43.7666667,58.55 39.3,61.95 L39.2,62.05 C35.3,65.2166667 29.45,66.8 21.65,66.8 L14.95,66.35 L9.7,65.3 L9.35,65.2 C7.81666667,64.7333333 6.53333333,64.2666667 5.5,63.8 L2.5,62.3 L2.5,62.35 C1.56666667,61.7833333 0.916666667,61 0.55,60 L0.55,59.95 C0.15,58.9166667 0.15,57.9 0.55,56.9 L0.85,56.1 C1.21666667,56.8 1.76666667,57.3666667 2.5,57.8 L2.5,57.75 L5.5,59.3 L9.35,60.65 L9.7,60.75 L14.95,61.8 L21.65,62.25 C29.45,62.25 35.3,60.6666667 39.2,57.5 L39.3,57.45 C43.2333333,54.45 45.45,50.3166667 45.95,45.05 M14.4,42.65 L12.95,42 L12.65,41.9 C10.5833333,41 8.73333333,39.8333333 7.1,38.4 L7.05,38.35 C5.31666667,36.8166667 3.93333333,34.9833333 2.9,32.85 L2.9,32.9 C1.73333333,30.6666667 1.15,28 1.15,24.9 L1.25,22.6 C1.48333333,24.7666667 2.03333333,26.6833333 2.9,28.35 L2.9,28.3 C3.93333333,30.4333333 5.31666667,32.2666667 7.05,33.8 L7.1,33.85 C8.73333333,35.2833333 10.5833333,36.45 12.65,37.35 L12.95,37.45 L17.65,39.4 L17.75,39.45 L18,39.55 C21.2333333,40.65 23.5333333,41.6333333 24.9,42.5 L25.2,42.95 L25.2,43.05 L24.55,43.25 L21.65,43.5 C18.95,43.5 16.6833333,43.25 14.85,42.75 L14.8,42.75 L14.4,42.65" id="Shape" fill-opacity="0.101960784" fill="#000000"></path>
            <path d="M39.05,8.75 L35.8,17.65 C34.4,16.9166667 32.8333333,16.2833333 31.1,15.75 C29.3666667,15.1833333 27.3,14.9 24.9,14.9 C22.2,14.9 20.25,15.2833333 19.05,16.05 C17.8833333,16.7833333 17.3,17.9333333 17.3,19.5 C17.3,20.4 17.5,21.1666667 17.9,21.8 C18.3666667,22.4333333 19,23 19.8,23.5 C20.6,24.0333333 21.5166667,24.5 22.55,24.9 L26,26.15 C28.6,27.1166667 30.8666667,28.0833333 32.8,29.05 C34.7333333,29.9833333 36.3333333,31.0833333 37.6,32.35 C38.9333333,33.5833333 39.9,35.05 40.5,36.75 C41.1333333,38.45 41.45,40.5 41.45,42.9 C41.45,47.6333333 39.8,51.2833333 36.5,53.85 C33.2,56.45 28.25,57.75 21.65,57.75 L15.6,57.3 L10.9,56.35 L7.3,55.1 L4.8,53.9 L8,44.9 C9.5,45.7333333 11.35,46.4666667 13.55,47.1 L17.85,47.85 L21.4,48.05 L21.65,48.05 L21.8,48.05 L22.95,48 L25.65,47.7 C26.6833333,47.4333333 27.5,47.0666667 28.1,46.6 C28.7333333,46.1333333 29.1666667,45.5833333 29.4,44.95 C29.6333333,44.3166667 29.75,43.6166667 29.75,42.85 C29.75,41.2166667 28.9833333,39.85 27.45,38.75 C25.8833333,37.6833333 23.2166667,36.5166667 19.45,35.25 L14.5,33.2 C12.8666667,32.4666667 11.4,31.5333333 10.1,30.4 C8.8,29.2333333 7.73333333,27.8666667 6.9,26.3 C6.06666667,24.6666667 5.65,22.6833333 5.65,20.35 C5.65,18.0166667 6.08333333,15.9166667 6.95,14.05 C7.85,12.2166667 9.1,10.65 10.7,9.35 C12.3,8.01666667 14.2333333,7 16.5,6.3 C17.8666667,5.9 19.35,5.6 20.95,5.4 L24.05,5.25 L24.2,5.25 L24.4,5.25 L24.55,5.25 L29.05,5.55 L32.95,6.35 C35.4166667,7.05 37.45,7.85 39.05,8.75" id="Shape" fill="#ACDCEE"></path>
        </g>
    </g>
</svg>
