<?xml version="1.0" encoding="UTF-8" standalone="no"?>
<svg width="536px" height="364px" viewBox="0 0 536 364" version="1.1" xmlns="http://www.w3.org/2000/svg" xmlns:xlink="http://www.w3.org/1999/xlink">
    <!-- Generator: Sketch 3.7.2 (28276) - http://www.bohemiancoding.com/sketch -->
    <title>Path 1</title>
    <desc>Created with Sketch.</desc>
    <defs>
        <path d="M14.3710396,57.7304687 C25.0610799,30.9179687 61.5292657,4.2109375 105.895739,4.2109375 C150.262212,4.2109375 141.2837,33.3398437 187.330136,33.3398437 C233.376571,33.3398437 268.833481,1.29748871 308.122678,4.875 C347.411874,8.45251129 351.205503,48.078125 382.325155,57.7304687 C413.444808,67.3828125 463.042982,51.2460937 497.394544,80.1210937 C531.746107,108.996094 538.429701,159.105469 523.578138,208.097656 C508.726576,257.089844 450.335542,260.073848 418.886732,285.773437 C387.437922,311.473027 377.8429,359.058594 301.532582,359.058594 C225.222264,359.058594 227.978953,309.667969 180.080694,299.804687 C132.182435,289.941406 85.9466093,331.910157 53.9326049,294.824219 C21.9186005,257.73828 61.557326,236.296876 27.8738795,181.0625 C-5.80956701,125.828124 3.68099938,84.5429687 14.3710396,57.7304687 Z" id="path-1"></path>
        <mask id="mask-2" maskContentUnits="userSpaceOnUse" maskUnits="objectBoundingBox" x="0" y="0" width="526.577393" height="354.847656" fill="white">
            <use xlink:href="#path-1"></use>
        </mask>
        <mask id="mask-3" maskContentUnits="userSpaceOnUse" maskUnits="objectBoundingBox" x="-4" y="-4" width="534.577393" height="362.847656">
            <rect x="0.447889194" y="0.2109375" width="534.577393" height="362.847656" fill="white"></rect>
            <use xlink:href="#path-1" fill="black"></use>
        </mask>
    </defs>
    <g id="Page-1" stroke="none" stroke-width="1" fill="none" fill-rule="evenodd">
        <g id="Path-1" stroke-width="8">
            <use stroke="#C8F5FF" mask="url(#mask-2)" fill="#86D0E9" fill-rule="evenodd" xlink:href="#path-1"></use>
            <use stroke="#34B0DD" mask="url(#mask-3)" xlink:href="#path-1"></use>
        </g>
    </g>
</svg>