<svg viewBox="0 0 295 229" xmlns="http://www.w3.org/2000/svg" xmlns:xlink="http://www.w3.org/1999/xlink"><defs><path d="M55.333 0c24.213 0 22.953 13.044 48.083 13.044S144.256-1.828 165.698.417c21.442 2.244 33.704 14.1 50.688 20.157 16.983 6.056 45.65-5.11 64.398 13.007 18.747 18.118 5.376 46.645-2.73 77.386-8.104 30.74 19.504 56.268 2.73 84.666-16.774 28.398-46.154 11.95-73.086 11.95-26.932 0-44.253 13.85-74.267 16.448-30.014 2.597-54.68-21.642-72.634-16.448-17.955 5.194-37.262 8.756-47.974-21.362-10.713-30.117 18.382-51.93 0-86.588C-5.56 64.975-.45 50.404 5.384 33.582 11.218 16.756 31.12 0 55.334 0z" id="a"/><mask id="b" x="-2" y="-2" width="294.296" height="228.226"><path fill="#fff" d="M-2-2h294.296v228.226H-2z"/><use xlink:href="#a"/></mask><mask id="c" x="0" y="0" width="290.296" height="224.226" fill="#fff"><use xlink:href="#a"/></mask></defs><g transform="translate(2 2)" fill="none" fill-rule="evenodd"><use fill="#87D7F4" xlink:href="#a"/><use stroke="#34B0DD" mask="url(#b)" stroke-width="4" xlink:href="#a"/><use stroke="#D2F0FB" mask="url(#c)" stroke-width="4" xlink:href="#a"/></g></svg>