<?xml version="1.0" encoding="UTF-8" standalone="no"?>
<svg width="284px" height="133px" viewBox="0 0 284 133" version="1.1" xmlns="http://www.w3.org/2000/svg" xmlns:xlink="http://www.w3.org/1999/xlink">
    <!-- Generator: Sketch 3.7.2 (28276) - http://www.bohemiancoding.com/sketch -->
    <title>start</title>
    <desc>Created with Sketch.</desc>
    <defs></defs>
    <g id="Page-1" stroke="none" stroke-width="1" fill="none" fill-rule="evenodd">
        <g id="restart">
            <g id="Page-1">
                <g id="start">
                    <g id="box">
                        <path d="M269.088447,3.325 L14.6535502,3.325 C7.70177704,3.325 4.22589048,6.09583333 4.22589048,11.6375 L4.22589048,109.725 C4.22589048,115.266667 7.70177704,118.0375 14.6535502,118.0375 L269.088447,118.0375 C276.04022,118.0375 279.516106,115.266667 279.516106,109.725 L279.516106,11.6375 C279.516106,6.09583333 276.04022,3.325 269.088447,3.325 M0.0548266068,110.473125 L0.0548266068,11.6375 C0.0548266068,3.87916667 4.9210678,0 14.6535502,0 L269.088447,0 C278.820929,0 283.68717,3.87916667 283.68717,11.6375 L283.68717,110.473125 C283.409099,117.732708 278.542858,121.3625 269.088447,121.3625 L14.6535502,121.3625 C5.19913872,121.3625 0.332897532,117.732708 0.0548266068,110.473125" id="Shape" fill="#C6A726"></path>
                        <path d="M275.345042,11.6375 C275.345042,8.3125 273.25951,6.65 269.088447,6.65 L14.6535502,6.65 C10.4824863,6.65 8.39695434,8.3125 8.39695434,11.6375 L8.39695434,109.725 C8.39695434,113.05 10.4824863,114.7125 14.6535502,114.7125 L269.088447,114.7125 C273.25951,114.7125 275.345042,113.05 275.345042,109.725 L275.345042,11.6375 M269.088447,3.325 C276.04022,3.325 279.516106,6.09583333 279.516106,11.6375 L279.516106,109.725 C279.516106,115.266667 276.04022,118.0375 269.088447,118.0375 L14.6535502,118.0375 C7.70177704,118.0375 4.22589048,115.266667 4.22589048,109.725 L4.22589048,11.6375 C4.22589048,6.09583333 7.70177704,3.325 14.6535502,3.325 L269.088447,3.325" id="Shape" fill="#FADD69"></path>
                        <path d="M275.345042,11.6375 L275.345042,109.725 C275.345042,113.05 273.25951,114.7125 269.088447,114.7125 L14.6535502,114.7125 C10.4824863,114.7125 8.39695434,113.05 8.39695434,109.725 L8.39695434,11.6375 C8.39695434,8.3125 10.4824863,6.65 14.6535502,6.65 L269.088447,6.65 C273.25951,6.65 275.345042,8.3125 275.345042,11.6375" id="Shape" fill="#F1CC36"></path>
                        <path d="M283.68717,110.473125 L283.68717,121.3625 C283.68717,129.120833 278.820929,133 269.088447,133 L14.6535502,133 C4.9210678,133 0.0548266068,129.120833 0.0548266068,121.3625 L0.0548266068,110.473125 C0.332897532,117.732708 5.19913872,121.3625 14.6535502,121.3625 L269.088447,121.3625 C278.542858,121.3625 283.409099,117.732708 283.68717,110.473125" id="Shape" fill="#C29B00"></path>
                    </g>
                    <g id="word" transform="translate(25.000000, 29.000000)">
                        <path d="M184.55,15.1 L184.55,5.35 C184.55,4.08333333 184.983333,3 185.85,2.1 C186.75,1.23333333 187.833333,0.8 189.1,0.8 L230.8,0.8 C232.033333,0.8 233.1,1.23333333 234,2.1 C234.866667,3 235.3,4.08333333 235.3,5.35 L235.3,15.1 C235.266667,16.3 234.833333,17.3333333 234,18.2 C233.1,19.0666667 232.033333,19.5 230.8,19.5 L220.1,19.5 L220.1,24.05 L220.1,55.85 C220.066667,57.0166667 219.633333,58 218.8,58.8 C217.9,59.7 216.833333,60.15 215.6,60.15 L204.3,60.15 C203.033333,60.15 201.95,59.7 201.05,58.8 C200.216667,57.9666667 199.783333,56.9333333 199.75,55.7 L199.75,24.05 L199.75,19.5 L189.1,19.5 C187.833333,19.5 186.75,19.0666667 185.85,18.2 C185.016667,17.3333333 184.583333,16.3 184.55,15.1 M232.4,3.75 C231.933333,3.28333333 231.4,3.05 230.8,3.05 L189.1,3.05 C188.466667,3.05 187.933333,3.28333333 187.5,3.75 C187.033333,4.18333333 186.8,4.71666667 186.8,5.35 L186.8,14.95 C186.8,15.5833333 187.033333,16.1333333 187.5,16.6 C187.933333,17.0333333 188.466667,17.25 189.1,17.25 L202,17.25 L202,55.6 C202,56.2333333 202.233333,56.7833333 202.7,57.25 C203.133333,57.65 203.666667,57.85 204.3,57.85 L215.6,57.85 C216.2,57.85 216.733333,57.65 217.2,57.25 C217.633333,56.7833333 217.85,56.2333333 217.85,55.6 L217.85,17.25 L230.8,17.25 C231.4,17.25 231.933333,17.0333333 232.4,16.6 C232.833333,16.1333333 233.05,15.5833333 233.05,14.95 L233.05,5.35 C233.05,4.71666667 232.833333,4.18333333 232.4,3.75" id="Shape" fill="#417505"></path>
                        <path d="M232.4,3.75 C232.833333,4.18333333 233.05,4.71666667 233.05,5.35 L233.05,14.95 C233.05,15.5833333 232.833333,16.1333333 232.4,16.6 C231.933333,17.0333333 231.4,17.25 230.8,17.25 L217.85,17.25 L217.85,55.6 C217.85,56.2333333 217.633333,56.7833333 217.2,57.25 C216.733333,57.65 216.2,57.85 215.6,57.85 L204.3,57.85 C203.666667,57.85 203.133333,57.65 202.7,57.25 C202.233333,56.7833333 202,56.2333333 202,55.6 L202,17.25 L189.1,17.25 C188.466667,17.25 187.933333,17.0333333 187.5,16.6 C187.033333,16.1333333 186.8,15.5833333 186.8,14.95 L186.8,5.35 C186.8,4.71666667 187.033333,4.18333333 187.5,3.75 C187.933333,3.28333333 188.466667,3.05 189.1,3.05 L230.8,3.05 C231.4,3.05 231.933333,3.28333333 232.4,3.75 M230.8,14.95 L230.8,5.35 L189.1,5.35 L189.1,14.95 L204.3,14.95 L204.3,55.6 L215.6,55.6 L215.6,14.95 L230.8,14.95" id="Shape" fill="#B0E17E"></path>
                        <path d="M235.3,15.1 L235.3,19.5 C235.3,20.7666667 234.866667,21.8333333 234,22.7 C233.1,23.6 232.033333,24.05 230.8,24.05 L220.1,24.05 L220.1,19.5 L230.8,19.5 C232.033333,19.5 233.1,19.0666667 234,18.2 C234.833333,17.3333333 235.266667,16.3 235.3,15.1 M220.1,55.85 L220.1,60.15 C220.1,61.4166667 219.666667,62.4833333 218.8,63.35 C217.9,64.25 216.833333,64.7 215.6,64.7 L204.3,64.7 C203.033333,64.7 201.95,64.25 201.05,63.35 C200.183333,62.4833333 199.75,61.4166667 199.75,60.15 L199.75,55.7 C199.783333,56.9333333 200.216667,57.9666667 201.05,58.8 C201.95,59.7 203.033333,60.15 204.3,60.15 L215.6,60.15 C216.833333,60.15 217.9,59.7 218.8,58.8 C219.633333,58 220.066667,57.0166667 220.1,55.85 M199.75,24.05 L189.1,24.05 C187.833333,24.05 186.75,23.6 185.85,22.7 C184.983333,21.8333333 184.55,20.7666667 184.55,19.5 L184.55,15.1 C184.583333,16.3 185.016667,17.3333333 185.85,18.2 C186.75,19.0666667 187.833333,19.5 189.1,19.5 L199.75,19.5 L199.75,24.05" id="Shape" fill-opacity="0.101960784" fill="#000000"></path>
                        <polyline id="Shape" fill="#7ED321" points="230.8 14.95 215.6 14.95 215.6 55.6 204.3 55.6 204.3 14.95 189.1 14.95 189.1 5.35 230.8 5.35 230.8 14.95"></polyline>
                        <path d="M158.65,4.5 L158.25,4.5 L153.1,4.7 L151.15,4.85 L143.5,5.8 L143.5,55.4 L154.8,55.4 L154.8,37.05 L160.4,37.05 L163.35,40.95 L166.25,45.45 L169.2,50.4 L172,55.4 L184.65,55.4 L181.8,49.75 L178.65,44.3 L175.4,39.2 L172.15,34.85 C175.216667,33.6166667 177.55,31.8833333 179.15,29.65 C180.783333,27.45 181.6,24.6 181.6,21.1 C181.6,15.4333333 179.583333,11.25 175.55,8.55 C173.083333,6.88333333 169.966667,5.73333333 166.2,5.1 L158.65,4.5 M154.8,14.4 L156.7,14.3 L158.9,14.2 C162.533333,14.2 165.266667,14.7166667 167.1,15.75 C168.966667,16.7833333 169.9,18.5333333 169.9,21 C169.9,23.5666667 168.983333,25.3833333 167.15,26.45 C165.75,27.2833333 163.566667,27.7833333 160.6,27.95 L159.35,28.05 L158,28.05 L154.8,28.05 L154.8,14.4 M157.1,16.55 L157.1,25.75 L158,25.75 L159.35,25.75 C161.883333,25.65 163.85,25.3333333 165.25,24.8 L166,24.5 C167.1,23.7666667 167.65,22.6 167.65,21 C167.65,19.5 167.1,18.4166667 166,17.75 C164.4,16.8833333 162.033333,16.45 158.9,16.45 L157.1,16.55 M151,2.55 L158.25,2.25 C166.35,2.25 172.55,3.73333333 176.85,6.7 C179.416667,8.36666667 181.283333,10.5666667 182.45,13.3 C183.416667,15.5333333 183.9,18.1333333 183.9,21.1 C183.9,25.1666667 182.933333,28.4666667 181,31 C179.633333,32.8666667 177.866667,34.4166667 175.7,35.65 L177.25,37.9 L179.15,40.65 L180.65,43.1 L180.6,43.1 L183,47.15 L183.8,48.7 L186.7,54.45 C186.933333,54.95 187,55.45 186.9,55.95 L186.05,57.2 L184.65,57.65 L172,57.65 L170.85,57.35 L170,56.55 L167.2,51.55 L164.35,46.65 L164.4,46.65 L161.45,42.2 L159.3,39.3 L157.1,39.3 L157.1,55.4 C157.1,56.0333333 156.883333,56.5833333 156.45,57.05 C155.983333,57.45 155.433333,57.65 154.8,57.65 L143.5,57.65 C142.866667,57.65 142.35,57.45 141.95,57.05 C141.483333,56.5833333 141.25,56.0333333 141.25,55.4 L141.25,5.8 C141.25,5.26666667 141.433333,4.78333333 141.8,4.35 C142.133333,3.95 142.566667,3.7 143.1,3.6 L151,2.55" id="Shape" fill="#B0E17E"></path>
                        <path d="M158.65,4.5 L166.2,5.1 C169.966667,5.73333333 173.083333,6.88333333 175.55,8.55 C179.583333,11.25 181.6,15.4333333 181.6,21.1 C181.6,24.6 180.783333,27.45 179.15,29.65 C177.55,31.8833333 175.216667,33.6166667 172.15,34.85 L175.4,39.2 L178.65,44.3 L181.8,49.75 L184.65,55.4 L172,55.4 L169.2,50.4 L166.25,45.45 L163.35,40.95 L160.4,37.05 L154.8,37.05 L154.8,55.4 L143.5,55.4 L143.5,5.8 L151.15,4.85 L153.1,4.7 L158.25,4.5 L158.65,4.5 M154.8,14.4 L154.8,28.05 L158,28.05 L159.35,28.05 L160.6,27.95 C163.566667,27.7833333 165.75,27.2833333 167.15,26.45 C168.983333,25.3833333 169.9,23.5666667 169.9,21 C169.9,18.5333333 168.966667,16.7833333 167.1,15.75 C165.266667,14.7166667 162.533333,14.2 158.9,14.2 L156.7,14.3 L154.8,14.4" id="Shape" fill="#7ED321"></path>
                        <path d="M159.35,23.25 L159.35,23.5 L161.15,23.4 C162.716667,23.2 163.95,22.9 164.85,22.5 C165.183333,22.2 165.35,21.7 165.35,21 C165.35,20.4333333 165.2,20 164.9,19.7 C163.6,19.1 161.75,18.7833333 159.35,18.75 L159.35,23.25 M157.1,16.55 L158.9,16.45 C162.033333,16.45 164.4,16.8833333 166,17.75 C167.1,18.4166667 167.65,19.5 167.65,21 C167.65,22.6 167.1,23.7666667 166,24.5 L165.25,24.8 C163.85,25.3333333 161.883333,25.65 159.35,25.75 L158,25.75 L157.1,25.75 L157.1,16.55 M139,55.65 L139,5.8 C139,4.73333333 139.35,3.76666667 140.05,2.9 C140.75,2.06666667 141.633333,1.55 142.7,1.35 L150.8,0.3 L158.25,0 C166.916667,0 173.55,1.61666667 178.15,4.85 L178.1,4.8 C183.466667,8.26666667 186.15,13.7 186.15,21.1 L186.1,23.35 C185.766667,26.9833333 184.683333,30 182.85,32.4 L182.7,32.55 C181.666667,33.95 180.4,35.2 178.9,36.3 L179.15,36.6 L180.85,39.2 L182.55,41.95 L182.7,42.15 L185.7,47.45 L185.8,47.6 L188.75,53.5 C189.216667,54.4333333 189.316667,55.4166667 189.05,56.45 L189.05,56.5 L188.6,57.65 L187.5,58.95 L187.45,59 C186.616667,59.6333333 185.683333,59.95 184.65,59.95 L172,59.95 C171.166667,59.95 170.4,59.7333333 169.7,59.3 C168.966667,58.9 168.416667,58.35 168.05,57.65 L168,57.65 L165.2,52.65 L162.45,47.9 L162.4,47.85 L159.55,43.45 L159.45,43.3 L159.4,43.15 L159.35,43.2 L159.35,47.75 L159.35,55.5 C159.316667,56.7333333 158.883333,57.7666667 158.05,58.6 C157.15,59.5 156.066667,59.95 154.8,59.95 L143.5,59.95 C142.266667,59.95 141.2,59.5 140.3,58.6 C139.466667,57.8 139.033333,56.8166667 139,55.65 M151,2.55 L143.1,3.6 C142.566667,3.7 142.133333,3.95 141.8,4.35 C141.433333,4.78333333 141.25,5.26666667 141.25,5.8 L141.25,55.4 C141.25,56.0333333 141.483333,56.5833333 141.95,57.05 C142.35,57.45 142.866667,57.65 143.5,57.65 L154.8,57.65 C155.433333,57.65 155.983333,57.45 156.45,57.05 C156.883333,56.5833333 157.1,56.0333333 157.1,55.4 L157.1,39.3 L159.3,39.3 L161.45,42.2 L164.4,46.65 L164.35,46.65 L167.2,51.55 L170,56.55 L170.85,57.35 L172,57.65 L184.65,57.65 L186.05,57.2 L186.9,55.95 C187,55.45 186.933333,54.95 186.7,54.45 L183.8,48.7 L183,47.15 L180.6,43.1 L180.65,43.1 L179.15,40.65 L177.25,37.9 L175.7,35.65 C177.866667,34.4166667 179.633333,32.8666667 181,31 C182.933333,28.4666667 183.9,25.1666667 183.9,21.1 C183.9,18.1333333 183.416667,15.5333333 182.45,13.3 C181.283333,10.5666667 179.416667,8.36666667 176.85,6.7 C172.55,3.73333333 166.35,2.25 158.25,2.25 L151,2.55" id="Shape" fill="#417505"></path>
                        <path d="M161.15,23.4 L159.35,23.25 L159.35,18.75 C161.75,18.7833333 163.6,19.1 164.9,19.7 C165.2,20 165.35,20.4333333 165.35,21 C165.35,21.7 165.183333,22.2 164.85,22.5 C163.95,22.9 162.716667,23.2 161.15,23.4 M186.1,23.35 L186.15,25.6 C186.15,30.2666667 185.05,34.0333333 182.85,36.9 L182.7,37.1 L180.85,39.2 L179.15,36.6 L178.9,36.3 C180.4,35.2 181.666667,33.95 182.7,32.55 L182.85,32.4 C184.683333,30 185.766667,26.9833333 186.1,23.35 M188.6,57.65 L188.75,58 L188.75,58.05 C189.216667,58.9833333 189.316667,59.9666667 189.05,61 L189.05,61.05 C188.816667,62.05 188.3,62.8666667 187.5,63.5 L187.45,63.55 C186.616667,64.1833333 185.683333,64.5 184.65,64.5 L172,64.5 C171.166667,64.5 170.4,64.2833333 169.7,63.85 C168.966667,63.45 168.416667,62.9 168.05,62.2 L168,62.15 L165.2,57.2 L162.45,52.45 L162.4,52.4 L159.55,48 L159.45,47.85 L159.4,47.7 L159.35,47.75 L159.35,43.2 L159.4,43.15 L159.45,43.3 L159.55,43.45 L162.4,47.85 L162.45,47.9 L165.2,52.65 L168,57.65 L168.05,57.65 C168.416667,58.35 168.966667,58.9 169.7,59.3 C170.4,59.7333333 171.166667,59.95 172,59.95 L184.65,59.95 C185.683333,59.95 186.616667,59.6333333 187.45,59 L187.5,58.95 L188.6,57.65 M159.35,55.5 L159.35,59.95 C159.35,61.2166667 158.916667,62.2833333 158.05,63.15 C157.15,64.05 156.066667,64.5 154.8,64.5 L143.5,64.5 C142.266667,64.5 141.2,64.05 140.3,63.15 C139.433333,62.2833333 139,61.2166667 139,59.95 L139,55.65 C139.033333,56.8166667 139.466667,57.8 140.3,58.6 C141.2,59.5 142.266667,59.95 143.5,59.95 L154.8,59.95 C156.066667,59.95 157.15,59.5 158.05,58.6 C158.883333,57.7666667 159.316667,56.7333333 159.35,55.5" id="Shape" fill-opacity="0.101960784" fill="#000000"></path>
                        <path d="M80.588235,58 L80.238235,57.15 L80.188235,57.15 C79.921569,56.1833333 79.938235,55.2333333 80.238235,54.3 L80.238235,54.35 L85.638235,39.25 L85.788235,38.95 L90.638235,26.1 L90.688235,26.1 C92.288235,22.0333333 93.871569,18.2 95.438235,14.6 L95.488235,14.4 L100.488235,3.55 C100.854902,2.78333333 101.404902,2.16666667 102.138235,1.7 L102.188235,1.7 C102.921569,1.23333333 103.721569,1 104.588235,1 L115.438235,1 C116.271569,1 117.071569,1.23333333 117.838235,1.7 L117.788235,1.7 C118.521569,2.16666667 119.071569,2.78333333 119.438235,3.55 L124.288235,14.15 L124.438235,14.4 L129.288235,26.1 L129.388235,26.45 L134.338235,39.25 L139.688235,54.35 L139.688235,54.3 C140.021569,55.2333333 140.038235,56.1833333 139.738235,57.15 L139.388235,58.05 C139.088235,58.5833333 138.671569,59.05 138.138235,59.45 L138.088235,59.5 C137.288235,60.0666667 136.404902,60.35 135.438235,60.35 L123.288235,60.35 C122.288235,60.35 121.371569,60.05 120.538235,59.45 C119.738235,58.8166667 119.204902,58.0166667 118.938235,57.05 L118.938235,57.1 L117.388235,52.25 L117.288235,52.05 L116.338235,49.45 L101.738235,49.45 L102.388235,50.45 C102.521569,50.8833333 102.538235,51.3333333 102.438235,51.8 L102.388235,51.9 L100.588235,57.2 L100.638235,57.2 C100.338235,58.1333333 99.788235,58.9 98.988235,59.5 C98.188235,60.0666667 97.288235,60.35 96.288235,60.35 L84.538235,60.35 C83.538235,60.35 82.638235,60.0666667 81.838235,59.5 L81.838235,59.45 C81.304902,59.05 80.888235,58.5666667 80.588235,58 M116.588235,3.65 C116.221569,3.38333333 115.821569,3.25 115.388235,3.25 L104.588235,3.25 C104.154902,3.25 103.738235,3.36666667 103.338235,3.6 C102.971569,3.83333333 102.704902,4.15 102.538235,4.55 L101.488235,6.8 C100.154902,9.6 98.854902,12.45 97.588235,15.35 C96.021569,18.9833333 94.421569,22.85 92.788235,26.95 C91.154902,31.05 89.488235,35.4 87.788235,40 L87.788235,40.05 L82.438235,55.05 C82.238235,55.5166667 82.221569,56 82.388235,56.5 L83.188235,57.65 C83.588235,57.95 84.038235,58.1 84.538235,58.1 L96.288235,58.1 L97.638235,57.65 C98.038235,57.35 98.304902,56.9666667 98.438235,56.5 L100.238235,51.2 L101.638235,47.2 L117.988235,47.2 L119.438235,51.25 L121.138235,56.45 C121.271569,56.9166667 121.538235,57.3166667 121.938235,57.65 C122.338235,57.95 122.788235,58.1 123.288235,58.1 L135.438235,58.1 L136.788235,57.65 C137.188235,57.3166667 137.454902,56.9333333 137.588235,56.5 C137.721569,56 137.721569,55.5166667 137.588235,55.05 L132.188235,40.05 L127.188235,26.95 L122.338235,15.35 L118.488235,6.8 L117.438235,4.55 L116.588235,3.65 M109.788235,23.3 L110.488235,25.1 L112.538235,30.45 L112.538235,30.5 L113.738235,33.65 L105.838235,33.65 L107.038235,30.5 L109.088235,25.1 L109.088235,25.05 L109.788235,23.3 M110.338235,31 L109.838235,29.6 L109.138235,31.3 L109.088235,31.4 L110.488235,31.4 L110.388235,31.25 L110.338235,31" id="Shape" fill="#417505"></path>
                        <path d="M116.313636,3.4 L117.163636,4.3 L118.213636,6.55 L122.063636,15.1 L126.913636,26.7 L131.913636,39.8 L137.313636,54.8 C137.44697,55.2666667 137.44697,55.75 137.313636,56.25 C137.180303,56.6833333 136.913636,57.0666667 136.513636,57.4 L135.163636,57.85 L123.013636,57.85 C122.513636,57.85 122.063636,57.7 121.663636,57.4 C121.263636,57.0666667 120.99697,56.6666667 120.863636,56.2 L119.163636,51 L117.713636,46.95 L101.363636,46.95 L99.963636,50.95 L98.163636,56.25 C98.030303,56.7166667 97.763636,57.1 97.363636,57.4 L96.013636,57.85 L84.263636,57.85 C83.763636,57.85 83.313636,57.7 82.913636,57.4 L82.113636,56.25 C81.94697,55.75 81.963636,55.2666667 82.163636,54.8 L87.513636,39.8 L87.513636,39.75 C89.213636,35.15 90.880303,30.8 92.513636,26.7 C94.14697,22.6 95.74697,18.7333333 97.313636,15.1 C98.580303,12.2 99.880303,9.35 101.213636,6.55 L102.263636,4.3 C102.430303,3.9 102.69697,3.58333333 103.063636,3.35 C103.463636,3.11666667 103.880303,3 104.313636,3 L115.113636,3 C115.54697,3 115.94697,3.13333333 116.313636,3.4 M108.363636,19.6 L109.413636,16.65 L110.613636,19.6 L112.313636,24 L114.363636,29.45 L116.663636,35.7 L102.313636,35.7 L104.613636,29.45 L106.663636,24 L108.363636,19.6 M109.513636,23.05 L108.813636,24.8 L108.813636,24.85 L106.763636,30.25 L105.563636,33.4 L113.463636,33.4 L112.263636,30.25 L112.263636,30.2 L110.213636,24.85 L109.513636,23.05 M119.963636,16 L115.113636,5.3 L104.313636,5.3 C102.613636,8.76666667 100.963636,12.3333333 99.363636,16 L94.613636,27.5 L89.613636,40.55 L84.263636,55.55 L96.013636,55.55 L97.813636,50.2 L99.713636,44.7 L119.363636,44.7 L121.263636,50.2 L123.013636,55.55 L135.163636,55.55 L129.763636,40.55 L124.763636,27.5 L119.963636,16" id="Shape" fill="#B0E17E"></path>
                        <path d="M119.7,15.7 L124.5,27.2 L129.5,40.25 L134.9,55.25 L122.75,55.25 L121,49.9 L119.1,44.4 L99.45,44.4 L97.55,49.9 L95.75,55.25 L84,55.25 L89.35,40.25 L94.35,27.2 L99.1,15.7 C100.7,12.0333333 102.35,8.46666667 104.05,5 L114.85,5 L119.7,15.7 M108.1,19.3 L106.4,23.7 L104.35,29.15 L102.05,35.4 L116.4,35.4 L114.1,29.15 L112.05,23.7 L110.35,19.3 L109.15,16.35 L108.1,19.3" id="Shape" fill="#7ED321"></path>
                        <path d="M139.388235,57.45 L139.688235,58.25 C140.021569,59.1833333 140.038235,60.1166667 139.738235,61.05 L139.738235,61.1 C139.438235,62.0333333 138.904902,62.8 138.138235,63.4 L138.088235,63.4 C137.288235,64 136.404902,64.3 135.438235,64.3 L123.288235,64.3 C122.288235,64.3 121.371569,64 120.538235,63.4 C119.738235,62.7666667 119.204902,61.9666667 118.938235,61 L118.938235,61.05 L117.388235,56.2 L117.288235,55.95 L116.338235,53.4 L101.738235,53.4 L102.388235,54.4 C102.521569,54.8 102.538235,55.25 102.438235,55.75 L102.388235,55.85 L100.588235,61.15 L100.638235,61.1 L100.638235,61.15 C100.338235,62.0833333 99.788235,62.8333333 98.988235,63.4 C98.188235,64 97.288235,64.3 96.288235,64.3 L84.538235,64.3 C83.538235,64.3 82.638235,64 81.838235,63.4 C81.038235,62.8 80.504902,62.0333333 80.238235,61.1 L80.188235,61.05 C79.921569,60.1166667 79.938235,59.1833333 80.238235,58.25 L80.588235,57.4 C80.888235,57.9666667 81.304902,58.45 81.838235,58.85 L81.838235,58.9 C82.638235,59.4666667 83.538235,59.75 84.538235,59.75 L96.288235,59.75 C97.288235,59.75 98.188235,59.4666667 98.988235,58.9 C99.788235,58.3 100.338235,57.5333333 100.638235,56.6 L100.638235,56.55 L100.588235,56.6 L102.388235,51.3 L102.438235,51.2 C102.538235,50.7333333 102.521569,50.2833333 102.388235,49.85 L101.738235,48.85 L116.338235,48.85 L117.288235,51.45 L117.388235,51.65 L118.938235,56.5 L118.938235,56.45 C119.204902,57.4166667 119.738235,58.2166667 120.538235,58.85 C121.371569,59.45 122.288235,59.75 123.288235,59.75 L135.438235,59.75 C136.404902,59.75 137.288235,59.4666667 138.088235,58.9 L138.138235,58.85 C138.671569,58.45 139.088235,57.9833333 139.388235,57.45 M110.338235,30.4 L110.388235,30.65 L110.488235,30.8 L109.088235,30.8 L109.138235,30.7 L109.838235,29 L110.338235,30.4" id="Shape" fill-opacity="0.101960784" fill="#000000"></path>
                        <path d="M42.55,15.1 L42.55,5.35 C42.55,4.08333333 42.983333,3 43.85,2.1 C44.75,1.23333333 45.833333,0.8 47.1,0.8 L88.8,0.8 C90.033333,0.8 91.1,1.23333333 92,2.1 C92.866667,3 93.3,4.08333333 93.3,5.35 L93.3,15.1 C93.266667,16.3 92.833333,17.3333333 92,18.2 C91.1,19.0666667 90.033333,19.5 88.8,19.5 L78.1,19.5 L78.1,24.05 L78.1,55.85 C78.066667,57.0166667 77.633333,58 76.8,58.8 C75.9,59.7 74.833333,60.15 73.6,60.15 L62.3,60.15 C61.033333,60.15 59.95,59.7 59.05,58.8 C58.216667,57.9666667 57.783333,56.9333333 57.75,55.7 L57.75,24.05 L57.75,19.5 L47.1,19.5 C45.833333,19.5 44.75,19.0666667 43.85,18.2 C43.016667,17.3333333 42.583333,16.3 42.55,15.1 M90.4,3.75 C89.933333,3.28333333 89.4,3.05 88.8,3.05 L47.1,3.05 C46.466667,3.05 45.933333,3.28333333 45.5,3.75 C45.033333,4.18333333 44.8,4.71666667 44.8,5.35 L44.8,14.95 C44.8,15.5833333 45.033333,16.1333333 45.5,16.6 C45.933333,17.0333333 46.466667,17.25 47.1,17.25 L60,17.25 L60,55.6 C60,56.2333333 60.233333,56.7833333 60.7,57.25 C61.133333,57.65 61.666667,57.85 62.3,57.85 L73.6,57.85 C74.2,57.85 74.733333,57.65 75.2,57.25 C75.633333,56.7833333 75.85,56.2333333 75.85,55.6 L75.85,17.25 L88.8,17.25 C89.4,17.25 89.933333,17.0333333 90.4,16.6 C90.833333,16.1333333 91.05,15.5833333 91.05,14.95 L91.05,5.35 C91.05,4.71666667 90.833333,4.18333333 90.4,3.75" id="Shape" fill="#417505"></path>
                        <path d="M90.4,3.75 C90.833333,4.18333333 91.05,4.71666667 91.05,5.35 L91.05,14.95 C91.05,15.5833333 90.833333,16.1333333 90.4,16.6 C89.933333,17.0333333 89.4,17.25 88.8,17.25 L75.85,17.25 L75.85,55.6 C75.85,56.2333333 75.633333,56.7833333 75.2,57.25 C74.733333,57.65 74.2,57.85 73.6,57.85 L62.3,57.85 C61.666667,57.85 61.133333,57.65 60.7,57.25 C60.233333,56.7833333 60,56.2333333 60,55.6 L60,17.25 L47.1,17.25 C46.466667,17.25 45.933333,17.0333333 45.5,16.6 C45.033333,16.1333333 44.8,15.5833333 44.8,14.95 L44.8,5.35 C44.8,4.71666667 45.033333,4.18333333 45.5,3.75 C45.933333,3.28333333 46.466667,3.05 47.1,3.05 L88.8,3.05 C89.4,3.05 89.933333,3.28333333 90.4,3.75 M88.8,14.95 L88.8,5.35 L47.1,5.35 L47.1,14.95 L62.3,14.95 L62.3,55.6 L73.6,55.6 L73.6,14.95 L88.8,14.95" id="Shape" fill="#B0E17E"></path>
                        <path d="M93.3,15.1 L93.3,19.5 C93.3,20.7666667 92.866667,21.8333333 92,22.7 C91.1,23.6 90.033333,24.05 88.8,24.05 L78.1,24.05 L78.1,19.5 L88.8,19.5 C90.033333,19.5 91.1,19.0666667 92,18.2 C92.833333,17.3333333 93.266667,16.3 93.3,15.1 M78.1,55.85 L78.1,60.15 C78.1,61.4166667 77.666667,62.4833333 76.8,63.35 C75.9,64.25 74.833333,64.7 73.6,64.7 L62.3,64.7 C61.033333,64.7 59.95,64.25 59.05,63.35 C58.183333,62.4833333 57.75,61.4166667 57.75,60.15 L57.75,55.7 C57.783333,56.9333333 58.216667,57.9666667 59.05,58.8 C59.95,59.7 61.033333,60.15 62.3,60.15 L73.6,60.15 C74.833333,60.15 75.9,59.7 76.8,58.8 C77.633333,58 78.066667,57.0166667 78.1,55.85 M57.75,24.05 L47.1,24.05 C45.833333,24.05 44.75,23.6 43.85,22.7 C42.983333,21.8333333 42.55,20.7666667 42.55,19.5 L42.55,15.1 C42.583333,16.3 43.016667,17.3333333 43.85,18.2 C44.75,19.0666667 45.833333,19.5 47.1,19.5 L57.75,19.5 L57.75,24.05" id="Shape" fill-opacity="0.101960784" fill="#000000"></path>
                        <polyline id="Shape" fill="#7ED321" points="88.8 14.95 73.6 14.95 73.6 55.6 62.3 55.6 62.3 14.95 47.1 14.95 47.1 5.35 88.8 5.35 88.8 14.95"></polyline>
                        <path d="M1.05,21.85 L0.95,19.6 C0.95,16.5666667 1.516667,13.85 2.65,11.45 L2.75,11.25 C3.916667,8.81666667 5.55,6.75 7.65,5.05 C9.616667,3.45 11.966667,2.21666667 14.7,1.35 L14.95,1.25 C17.616667,0.416666667 20.633333,0 24,0 C27.866667,0 31.216667,0.416666667 34.05,1.25 L34.25,1.35 C36.983333,2.11666667 39.266667,3 41.1,4 C42.033333,4.56666667 42.7,5.36666667 43.1,6.4 C43.5,7.43333333 43.5,8.48333333 43.1,9.55 L42.8,10.35 L39.85,18.45 L39.85,18.5 C39.55,19.3 39.05,19.9666667 38.35,20.5 C37.65,21.0333333 36.866667,21.35 36,21.45 L36.05,21.4 C35.183333,21.5 34.35,21.35 33.55,20.95 L33.5,20.95 C32.333333,20.3166667 31.016667,19.7833333 29.55,19.35 C28.183333,18.9166667 26.566667,18.7 24.7,18.7 L22.05,18.9 L22.05,18.95 C22.55,19.2833333 23.133333,19.5666667 23.8,19.8 L24.05,19.9 L27.2,21.1 L27.4,21.15 C30.133333,22.15 32.533333,23.1666667 34.6,24.2 L34.85,24.35 L37.25,25.7 L40.65,28.35 L40.85,28.65 C42.483333,30.2833333 43.7,32.2 44.5,34.4 L44.55,34.4 L44.6,34.6 L44.65,34.65 C45.416667,36.7166667 45.8,39.2166667 45.8,42.15 L45.75,44.3 C45.25,49.5666667 43.033333,53.7 39.1,56.7 L39,56.75 C35.1,59.9166667 29.25,61.5 21.45,61.5 L14.75,61.05 L9.5,60 L9.15,59.9 L5.3,58.55 L2.3,57 L2.3,57.05 C1.566667,56.6166667 1.016667,56.05 0.65,55.35 L0.35,54.7 C-0.05,53.6666667 -0.05,52.6333333 0.35,51.6 L3.55,42.6 C3.85,41.7666667 4.366667,41.0833333 5.1,40.55 L5.05,40.55 C5.783333,39.9833333 6.6,39.6666667 7.5,39.6 C8.4,39.5333333 9.25,39.7166667 10.05,40.15 C11.15,40.7833333 12.533333,41.3666667 14.2,41.9 L14.6,42 L14.65,42 C16.483333,42.5 18.75,42.75 21.45,42.75 L24.35,42.5 L25,42.3 L25,42.2 L24.7,41.75 C23.333333,40.8833333 21.033333,39.9 17.8,38.8 L17.55,38.7 L17.45,38.65 L12.75,36.7 L12.45,36.6 C10.383333,35.7 8.533333,34.5333333 6.9,33.1 L6.85,33.05 C5.116667,31.5166667 3.733333,29.6833333 2.7,27.55 L2.7,27.6 C1.833333,25.9333333 1.283333,24.0166667 1.05,21.85 M37.75,54.9 C41.616667,51.9 43.55,47.65 43.55,42.15 C43.55,39.45 43.183333,37.15 42.45,35.25 L42.4,35.2 L42.2,34.7 C41.466667,32.9333333 40.416667,31.3666667 39.05,30 L39,29.95 C37.6,28.55 35.8,27.3166667 33.6,26.25 L33.65,26.25 C31.616667,25.2833333 29.283333,24.3 26.65,23.3 L26.6,23.3 L23.2,22 C22.3,21.6666667 21.516667,21.3 20.85,20.9 L20.8,20.85 C20.3,20.55 19.9,20.2 19.6,19.8 L19.35,18.75 C19.316667,18.05 19.566667,17.5333333 20.1,17.2 C21.033333,16.6666667 22.566667,16.4 24.7,16.4 C26.866667,16.4 28.716667,16.65 30.25,17.15 L34.6,18.95 L35.85,19.2 L37,18.75 L37.75,17.7 L41,8.8 L41.1,8.55 C41.2,8.11666667 41.15,7.66666667 40.95,7.2 C40.75,6.66666667 40.416667,6.28333333 39.95,6.05 C38.25,5.08333333 36.066667,4.21666667 33.4,3.45 C30.766667,2.65 27.633333,2.25 24,2.25 C20.933333,2.25 18.166667,2.63333333 15.7,3.4 C13.1,4.16666667 10.9,5.3 9.1,6.8 C7.2,8.33333333 5.733333,10.2 4.7,12.4 L4.55,12.85 C3.65,14.8833333 3.2,17.1333333 3.2,19.6 C3.2,22.3333333 3.7,24.65 4.7,26.55 C5.633333,28.3833333 6.866667,29.9833333 8.4,31.35 L8.4,31.4 C9.866667,32.6666667 11.533333,33.7166667 13.4,34.55 L13.35,34.55 L18.45,36.6 L18.5,36.65 C22,37.8166667 24.483333,38.9 25.95,39.9 C26.783333,40.4666667 27.233333,41.2 27.3,42.1 L27.1,43.45 L26.6,44 L26.5,44.05 C26.1,44.3166667 25.566667,44.55 24.9,44.75 L22.3,45.05 L21.45,45.05 C18.516667,45.05 16.033333,44.7666667 14,44.2 C12,43.6 10.316667,42.9166667 8.95,42.15 L7.65,41.85 C7.216667,41.8833333 6.816667,42.05 6.45,42.35 L5.7,43.35 L2.5,52.35 C2.3,52.8833333 2.3,53.4 2.5,53.9 C2.666667,54.4333333 2.983333,54.8333333 3.45,55.1 L6.2,56.45 L10.1,57.8 L15.1,58.85 L21.45,59.25 C28.683333,59.25 34.1,57.7833333 37.7,54.85 L37.7,54.9 L37.75,54.9" id="Shape" fill="#417505"></path>
                        <path d="M37.45,54.65 L37.4,54.6 C33.8,57.5333333 28.383333,59 21.15,59 L14.8,58.6 L9.8,57.55 L5.9,56.2 L3.15,54.85 C2.683333,54.5833333 2.366667,54.1833333 2.2,53.65 C2,53.15 2,52.6333333 2.2,52.1 L5.4,43.1 L6.15,42.1 C6.516667,41.8 6.916667,41.6333333 7.35,41.6 L8.65,41.9 C10.016667,42.6666667 11.7,43.35 13.7,43.95 C15.733333,44.5166667 18.216667,44.8 21.15,44.8 L22,44.8 L24.6,44.5 C25.266667,44.3 25.8,44.0666667 26.2,43.8 L26.3,43.75 L26.8,43.2 L27,41.85 C26.933333,40.95 26.483333,40.2166667 25.65,39.65 C24.183333,38.65 21.7,37.5666667 18.2,36.4 L18.15,36.35 L13.05,34.3 L13.1,34.3 C11.233333,33.4666667 9.566667,32.4166667 8.1,31.15 L8.1,31.1 C6.566667,29.7333333 5.333333,28.1333333 4.4,26.3 C3.4,24.4 2.9,22.0833333 2.9,19.35 C2.9,16.8833333 3.35,14.6333333 4.25,12.6 L4.4,12.15 C5.433333,9.95 6.9,8.08333333 8.8,6.55 C10.6,5.05 12.8,3.91666667 15.4,3.15 C17.866667,2.38333333 20.633333,2 23.7,2 C27.333333,2 30.466667,2.4 33.1,3.2 C35.766667,3.96666667 37.95,4.83333333 39.65,5.8 C40.116667,6.03333333 40.45,6.41666667 40.65,6.95 C40.85,7.41666667 40.9,7.86666667 40.8,8.3 L40.7,8.55 L37.45,17.45 L36.7,18.5 L35.55,18.95 L34.3,18.7 L29.95,16.9 C28.416667,16.4 26.566667,16.15 24.4,16.15 C22.266667,16.15 20.733333,16.4166667 19.8,16.95 C19.266667,17.2833333 19.016667,17.8 19.05,18.5 L19.3,19.55 C19.6,19.95 20,20.3 20.5,20.6 L20.55,20.65 C21.216667,21.05 22,21.4166667 22.9,21.75 L26.3,23.05 L26.35,23.05 C28.983333,24.05 31.316667,25.0333333 33.35,26 L33.3,26 C35.5,27.0666667 37.3,28.3 38.7,29.7 L38.75,29.75 C40.116667,31.1166667 41.166667,32.6833333 41.9,34.45 L42.1,34.95 L42.15,35 C42.883333,36.9 43.25,39.2 43.25,41.9 C43.25,47.4 41.316667,51.65 37.45,54.65 M38.55,7.75 C36.95,6.85 34.916667,6.05 32.45,5.35 L28.55,4.55 L24.05,4.25 L23.9,4.25 L23.7,4.25 L23.55,4.25 L20.45,4.4 C18.85,4.6 17.366667,4.9 16,5.3 C13.733333,6 11.8,7.01666667 10.2,8.35 C8.6,9.65 7.35,11.2166667 6.45,13.05 C5.583333,14.9166667 5.15,17.0166667 5.15,19.35 C5.15,21.6833333 5.566667,23.6666667 6.4,25.3 C7.233333,26.8666667 8.3,28.2333333 9.6,29.4 C10.9,30.5333333 12.366667,31.4666667 14,32.2 L18.95,34.25 C22.716667,35.5166667 25.383333,36.6833333 26.95,37.75 C28.483333,38.85 29.25,40.2166667 29.25,41.85 C29.25,42.6166667 29.133333,43.3166667 28.9,43.95 C28.666667,44.5833333 28.233333,45.1333333 27.6,45.6 C27,46.0666667 26.183333,46.4333333 25.15,46.7 L22.45,47 L21.3,47.05 L21.15,47.05 L20.9,47.05 L17.35,46.85 L13.05,46.1 C10.85,45.4666667 9,44.7333333 7.5,43.9 L4.3,52.9 L6.8,54.1 L10.4,55.35 L15.1,56.3 L21.15,56.75 C27.75,56.75 32.7,55.45 36,52.85 C39.3,50.2833333 40.95,46.6333333 40.95,41.9 C40.95,39.5 40.633333,37.45 40,35.75 C39.4,34.05 38.433333,32.5833333 37.1,31.35 C35.833333,30.0833333 34.233333,28.9833333 32.3,28.05 C30.366667,27.0833333 28.1,26.1166667 25.5,25.15 L22.05,23.9 C21.016667,23.5 20.1,23.0333333 19.3,22.5 C18.5,22 17.866667,21.4333333 17.4,20.8 C17,20.1666667 16.8,19.4 16.8,18.5 C16.8,16.9333333 17.383333,15.7833333 18.55,15.05 C19.75,14.2833333 21.7,13.9 24.4,13.9 C26.8,13.9 28.866667,14.1833333 30.6,14.75 C32.333333,15.2833333 33.9,15.9166667 35.3,16.65 L38.55,7.75" id="Shape" fill="#B0E17E"></path>
                        <path d="M42.8,11 L43.1,11.6 C43.5,12.6333333 43.5,13.6833333 43.1,14.75 L39.85,23.65 L39.85,23.7 C39.55,24.5 39.05,25.1666667 38.35,25.7 L37.25,26.35 L34.85,25 L34.6,24.85 C32.533333,23.8166667 30.133333,22.8 27.4,21.8 L27.2,21.75 L24.05,20.55 L23.8,20.45 C23.133333,20.2166667 22.55,19.9333333 22.05,19.6 L22.05,19.55 L24.7,19.35 C26.566667,19.35 28.183333,19.5666667 29.55,20 C31.016667,20.4333333 32.333333,20.9666667 33.5,21.6 L33.55,21.6 C34.35,22 35.183333,22.15 36.05,22.05 L36,22.1 C36.866667,22 37.65,21.6833333 38.35,21.15 C39.05,20.6166667 39.55,19.95 39.85,19.15 L39.85,19.1 L42.8,11 M45.75,44.95 L45.8,47.35 C45.8,53.6166667 43.566667,58.45 39.1,61.85 L39,61.95 C35.1,65.1166667 29.25,66.7 21.45,66.7 L14.75,66.25 L9.5,65.2 L9.15,65.1 C7.616667,64.6333333 6.333333,64.1666667 5.3,63.7 L2.3,62.2 L2.3,62.25 C1.366667,61.6833333 0.716667,60.9 0.35,59.9 L0.35,59.85 C-0.05,58.8166667 -0.05,57.8 0.35,56.8 L0.65,56 C1.016667,56.7 1.566667,57.2666667 2.3,57.7 L2.3,57.65 L5.3,59.2 L9.15,60.55 L9.5,60.65 L14.75,61.7 L21.45,62.15 C29.25,62.15 35.1,60.5666667 39,57.4 L39.1,57.35 C43.033333,54.35 45.25,50.2166667 45.75,44.95 M14.2,42.55 L12.75,41.9 L12.45,41.8 C10.383333,40.9 8.533333,39.7333333 6.9,38.3 L6.85,38.25 C5.116667,36.7166667 3.733333,34.8833333 2.7,32.75 L2.7,32.8 C1.533333,30.5666667 0.95,27.9 0.95,24.8 L1.05,22.5 C1.283333,24.6666667 1.833333,26.5833333 2.7,28.25 L2.7,28.2 C3.733333,30.3333333 5.116667,32.1666667 6.85,33.7 L6.9,33.75 C8.533333,35.1833333 10.383333,36.35 12.45,37.25 L12.75,37.35 L17.45,39.3 L17.55,39.35 L17.8,39.45 C21.033333,40.55 23.333333,41.5333333 24.7,42.4 L25,42.85 L25,42.95 L24.35,43.15 L21.45,43.4 C18.75,43.4 16.483333,43.15 14.65,42.65 L14.6,42.65 L14.2,42.55" id="Shape" fill-opacity="0.101960784" fill="#000000"></path>
                        <path d="M38.3,7.5 L35.05,16.4 C33.65,15.6666667 32.083333,15.0333333 30.35,14.5 C28.616667,13.9333333 26.55,13.65 24.15,13.65 C21.45,13.65 19.5,14.0333333 18.3,14.8 C17.133333,15.5333333 16.55,16.6833333 16.55,18.25 C16.55,19.15 16.75,19.9166667 17.15,20.55 C17.616667,21.1833333 18.25,21.75 19.05,22.25 C19.85,22.7833333 20.766667,23.25 21.8,23.65 L25.25,24.9 C27.85,25.8666667 30.116667,26.8333333 32.05,27.8 C33.983333,28.7333333 35.583333,29.8333333 36.85,31.1 C38.183333,32.3333333 39.15,33.8 39.75,35.5 C40.383333,37.2 40.7,39.25 40.7,41.65 C40.7,46.3833333 39.05,50.0333333 35.75,52.6 C32.45,55.2 27.5,56.5 20.9,56.5 L14.85,56.05 L10.15,55.1 L6.55,53.85 L4.05,52.65 L7.25,43.65 C8.75,44.4833333 10.6,45.2166667 12.8,45.85 L17.1,46.6 L20.65,46.8 L20.9,46.8 L21.05,46.8 L22.2,46.75 L24.9,46.45 C25.933333,46.1833333 26.75,45.8166667 27.35,45.35 C27.983333,44.8833333 28.416667,44.3333333 28.65,43.7 C28.883333,43.0666667 29,42.3666667 29,41.6 C29,39.9666667 28.233333,38.6 26.7,37.5 C25.133333,36.4333333 22.466667,35.2666667 18.7,34 L13.75,31.95 C12.116667,31.2166667 10.65,30.2833333 9.35,29.15 C8.05,27.9833333 6.983333,26.6166667 6.15,25.05 C5.316667,23.4166667 4.9,21.4333333 4.9,19.1 C4.9,16.7666667 5.333333,14.6666667 6.2,12.8 C7.1,10.9666667 8.35,9.4 9.95,8.1 C11.55,6.76666667 13.483333,5.75 15.75,5.05 C17.116667,4.65 18.6,4.35 20.2,4.15 L23.3,4 L23.45,4 L23.65,4 L23.8,4 L28.3,4.3 L32.2,5.1 C34.666667,5.8 36.7,6.6 38.3,7.5" id="Shape" fill="#7ED321"></path>
                    </g>
                </g>
            </g>
        </g>
    </g>
</svg>