<?xml version="1.0" encoding="UTF-8" standalone="no"?>
<svg viewBox="0 0 59 118" version="1.1" xmlns="http://www.w3.org/2000/svg" xmlns:xlink="http://www.w3.org/1999/xlink">
    <g id="Page-1" stroke="none" stroke-width="1" fill="none" fill-rule="evenodd">
        <polyline id="Shape" fill="#E5E5E5" points="8.05 16.05 50.6 16.05 50.6 101.55 8.05 101.5 8.05 16.05"></polyline>
        <path d="M8.05,16.05 L4,16.05 L4,4 L54.6,4.05 L54.6,16.05 L50.6,16.05 L8.05,16.05 M50.6,101.55 L54.6,101.55 L54.6,113.55 L4,113.55 L4,101.5 L8.05,101.5 L50.6,101.55" id="Shape" fill="#B6B6B6"></path>
        <path d="M50.6,101.55 L50.6,16.05 L54.6,16.05 L54.6,4.05 L4,4 L4,16.05 L8.05,16.05 L8.05,101.5 L4,101.5 L4,113.55 L54.6,113.55 L54.6,101.55 L50.6,101.55 M0,4 C0,2.9 0.4,1.96666667 1.2,1.2 C1.96666667,0.4 2.9,0 4,0 L54.6,0.05 C55.7,0.05 56.65,0.45 57.45,1.25 C58.2166667,2.01666667 58.6,2.95 58.6,4.05 L58.6,16.05 C58.6,17.15 58.2166667,18.1 57.45,18.9 C56.65,19.6666667 55.7,20.05 54.6,20.05 L54.6,97.55 C55.7,97.55 56.65,97.95 57.45,98.75 C58.2166667,99.5166667 58.6,100.45 58.6,101.55 L58.6,113.55 C58.6,114.65 58.2166667,115.6 57.45,116.4 C56.65,117.166667 55.7,117.55 54.6,117.55 L4,117.55 C2.9,117.55 1.96666667,117.166667 1.2,116.4 C0.4,115.6 0,114.65 0,113.55 L0,101.5 C0,100.4 0.4,99.4666667 1.2,98.7 C1.96666667,97.9 2.9,97.5 4,97.5 L4.05,97.5 L4.05,20.05 L4,20.05 C2.9,20.05 1.96666667,19.6666667 1.2,18.9 C0.4,18.1 0,17.15 0,16.05 L0,4" id="Shape" fill="#777777"></path>
    </g>
</svg>
