<svg viewBox="0 0 59 118" xmlns="http://www.w3.org/2000/svg"><g fill="none" fill-rule="evenodd"><path fill="#E5E5E5" d="M8.05 16.05H50.6v85.5l-42.55-.05V16.05"/><path d="M8.05 16.05H4V4l50.6.05v12H8.05m42.55 85.5h4v12H4V101.5h4.05l42.55.05" fill="#B6B6B6"/><path d="M50.6 101.55v-85.5h4v-12L4 4v12.05h4.05v85.45H4v12.05h50.6v-12h-4M0 4c0-1.1.4-2.033 1.2-2.8C1.967.4 2.9 0 4 0l50.6.05c1.1 0 2.05.4 2.85 1.2.767.767 1.15 1.7 1.15 2.8v12c0 1.1-.383 2.05-1.15 2.85-.8.767-1.75 1.15-2.85 1.15v77.5c1.1 0 2.05.4 2.85 1.2.767.767 1.15 1.7 1.15 2.8v12c0 1.1-.383 2.05-1.15 2.85-.8.767-1.75 1.15-2.85 1.15H4c-1.1 0-2.033-.383-2.8-1.15-.8-.8-1.2-1.75-1.2-2.85V101.5c0-1.1.4-2.033 1.2-2.8.767-.8 1.7-1.2 2.8-1.2h.05V20.05H4c-1.1 0-2.033-.383-2.8-1.15-.8-.8-1.2-1.75-1.2-2.85V4" fill="#777"/></g></svg>