<svg viewBox="0 0 118 118" xmlns="http://www.w3.org/2000/svg"><g fill="none" fill-rule="evenodd"><path d="M37.35 19.9v-3.85h42.7v5.75c-.8 37.367-18.967 56.783-54.5 58.25H16.1l-.05-38.6c4.333.067 8-.5 11-1.7 6.4-2.467 9.833-7.75 10.3-15.85v-4" fill="#E5E5E5"/><path d="M37.35 19.9v4c-.467 8.1-3.9 13.383-10.3 15.85-3 1.2-6.667 1.767-11 1.7v-4c4.333.067 8-.5 11-1.7 6.4-2.467 9.833-7.75 10.3-15.85" fill="#F3F3F3"/><path d="M37.35 16.05h-4v-12h8L79.95 4h4v12.05h-46.6m-21.25 64v4H4.05v-50.6h12v8l.05 38.6" fill="#B6B6B6"/><path d="M37.35 16.05v3.85c-.467 8.1-3.9 13.383-10.3 15.85-3 1.2-6.667 1.767-11 1.7v-4h-12v50.6H16.1v-4h9.45c35.533-1.467 53.7-20.883 54.5-58.25v-5.75h3.9V4h-4l-38.6.05h-8v12h4m-6.8 2.85c-.8-.8-1.2-1.75-1.2-2.85v-12c0-1.1.4-2.033 1.2-2.8.767-.8 1.7-1.2 2.8-1.2h8L79.95 0h4c1.1 0 2.05.4 2.85 1.2.767.767 1.15 1.7 1.15 2.8v12.05c0 1.1-.383 2.05-1.15 2.85-.767.733-1.683 1.117-2.75 1.15v1.85c-.867 39.933-20.3 60.65-58.3 62.15H20.1c0 1.1-.383 2.05-1.15 2.85-.8.767-1.75 1.15-2.85 1.15H4.05c-1.1 0-2.033-.383-2.8-1.15-.8-.8-1.2-1.75-1.2-2.85v-50.6c0-1.1.4-2.033 1.2-2.8.767-.8 1.7-1.2 2.8-1.2h12c1.1 0 2.05.4 2.85 1.2.733.733 1.117 1.617 1.15 2.65 2.067-.233 3.917-.65 5.55-1.25 4.7-1.967 7.283-5.967 7.75-12-1.1 0-2.033-.383-2.8-1.15" fill="#777"/></g></svg>