<?xml version="1.0" encoding="UTF-8" standalone="no"?>
<svg viewBox="0 0 118 118" version="1.1" xmlns="http://www.w3.org/2000/svg" xmlns:xlink="http://www.w3.org/1999/xlink">
    <g id="Page-1" stroke="none" stroke-width="1" fill="none" fill-rule="evenodd">
        <path d="M37.35,19.9 L37.35,16.05 L80.05,16.05 L80.05,20.2 L80.05,21.8 C79.25,59.1666667 61.0833333,78.5833333 25.55,80.05 L16.1,80.05 L16.05,41.45 C20.3833333,41.5166667 24.05,40.95 27.05,39.75 C33.45,37.2833333 36.8833333,32 37.35,23.9 L37.35,19.9" id="Shape" fill="#E5E5E5"></path>
        <path d="M37.35,19.9 L37.35,23.9 C36.8833333,32 33.45,37.2833333 27.05,39.75 C24.05,40.95 20.3833333,41.5166667 16.05,41.45 L16.05,37.45 C20.3833333,37.5166667 24.05,36.95 27.05,35.75 C33.45,33.2833333 36.8833333,28 37.35,19.9" id="Shape" fill="#F3F3F3"></path>
        <path d="M37.35,16.05 L33.35,16.05 L33.35,4.05 L41.35,4.05 L79.95,4 L83.95,4 L83.95,16.05 L80.05,16.05 L37.35,16.05 M16.1,80.05 L16.1,84.05 L4.05,84.05 L4.05,33.45 L16.05,33.45 L16.05,37.45 L16.05,41.45 L16.1,80.05" id="Shape" fill="#B6B6B6"></path>
        <path d="M37.35,16.05 L37.35,19.9 C36.8833333,28 33.45,33.2833333 27.05,35.75 C24.05,36.95 20.3833333,37.5166667 16.05,37.45 L16.05,33.45 L4.05,33.45 L4.05,84.05 L16.1,84.05 L16.1,80.05 L25.55,80.05 C61.0833333,78.5833333 79.25,59.1666667 80.05,21.8 L80.05,20.2 L80.05,16.05 L83.95,16.05 L83.95,4 L79.95,4 L41.35,4.05 L33.35,4.05 L33.35,16.05 L37.35,16.05 M30.55,18.9 C29.75,18.1 29.35,17.15 29.35,16.05 L29.35,4.05 C29.35,2.95 29.75,2.01666667 30.55,1.25 C31.3166667,0.45 32.25,0.05 33.35,0.05 L41.35,0.05 L79.95,0 L83.95,0 C85.05,0 86,0.4 86.8,1.2 C87.5666667,1.96666667 87.95,2.9 87.95,4 L87.95,16.05 C87.95,17.15 87.5666667,18.1 86.8,18.9 C86.0333333,19.6333333 85.1166667,20.0166667 84.05,20.05 L84.05,20.2 L84.05,21.8 L84.05,21.9 C83.1833333,61.8333333 63.75,82.55 25.75,84.05 L25.55,84.05 L20.1,84.05 C20.1,85.15 19.7166667,86.1 18.95,86.9 C18.15,87.6666667 17.2,88.05 16.1,88.05 L4.05,88.05 C2.95,88.05 2.01666667,87.6666667 1.25,86.9 C0.45,86.1 0.05,85.15 0.05,84.05 L0.05,33.45 C0.05,32.35 0.45,31.4166667 1.25,30.65 C2.01666667,29.85 2.95,29.45 4.05,29.45 L16.05,29.45 C17.15,29.45 18.1,29.85 18.9,30.65 C19.6333333,31.3833333 20.0166667,32.2666667 20.05,33.3 C22.1166667,33.0666667 23.9666667,32.65 25.6,32.05 C30.3,30.0833333 32.8833333,26.0833333 33.35,20.05 C32.25,20.05 31.3166667,19.6666667 30.55,18.9" id="Shape" fill="#777777"></path>
    </g>
</svg>
