<svg viewBox="-30 0 118 118" xmlns="http://www.w3.org/2000/svg"><g fill="none" fill-rule="evenodd"><path d="M42.6 16.1V18.05l.15 2.65c.3 3.533 1.017 6.65 2.15 9.35l-.05-.05c3.4 9.567 11.017 14.7 22.85 15.4H72v26.7H66.45C34.183 71.4 17.367 55.8 16 25.3v-9.15h1.7l24.9-.05m9.55 35.05c-1.033-1.033-2.3-1.55-3.8-1.55s-2.783.517-3.85 1.55c-1.033 1.067-1.55 2.35-1.55 3.85v.15c.033 1.433.55 2.65 1.55 3.65 1.067 1.067 2.35 1.6 3.85 1.6s2.767-.533 3.8-1.6c1.033-1 1.567-2.217 1.6-3.65V55c0-1.5-.533-2.783-1.6-3.85m-12.7.7c0-.767-.267-1.417-.8-1.95-.533-.533-1.183-.8-1.95-.8-.767 0-1.417.267-1.95.8-.533.533-.8 1.183-.8 1.95 0 .767.267 1.417.8 1.95.533.533 1.183.8 1.95.8.767 0 1.417-.267 1.95-.8.533-.533.8-1.183.8-1.95M23.3 39.35c.233.967.733 1.833 1.5 2.6 1.1 1.1 2.433 1.65 4 1.65 1.567 0 2.9-.55 4-1.65.767-.767 1.267-1.633 1.5-2.6l.15-1.4c0-1.567-.55-2.9-1.65-4-1.1-1.1-2.433-1.65-4-1.65-1.567 0-2.9.55-4 1.65-1.1 1.1-1.65 2.433-1.65 4l.15 1.4" fill="#1EA7E1"/><path d="M23.3 39.35l-.15-1.4c0-1.567.55-2.9 1.65-4 1.1-1.1 2.433-1.65 4-1.65 1.567 0 2.9.55 4 1.65 1.1 1.1 1.65 2.433 1.65 4l-.15 1.4c-.233.967-.733 1.833-1.5 2.6-1.1 1.1-2.433 1.65-4 1.65-1.567 0-2.9-.55-4-1.65-.767-.767-1.267-1.633-1.5-2.6m28.85 11.8c1.067 1.067 1.6 2.35 1.6 3.85v.15c-.033 1.433-.567 2.65-1.6 3.65-1.033 1.067-2.3 1.6-3.8 1.6s-2.783-.533-3.85-1.6c-1-1-1.517-2.217-1.55-3.65V55c0-1.5.517-2.783 1.55-3.85 1.067-1.033 2.35-1.55 3.85-1.55s2.767.517 3.8 1.55m-12.7.7c0 .767-.267 1.417-.8 1.95-.533.533-1.183.8-1.95.8-.767 0-1.417-.267-1.95-.8-.533-.533-.8-1.183-.8-1.95 0-.767.267-1.417.8-1.95.533-.533 1.183-.8 1.95-.8.767 0 1.417.267 1.95.8.533.533.8 1.183.8 1.95" fill="#2CB8F3"/></g></svg>