<svg viewBox="-30 0 118 118" xmlns="http://www.w3.org/2000/svg"><g fill="none" fill-rule="evenodd"><path d="M50.6 16.1v4c-.067 4.333.5 8 1.7 11 2.467 6.4 7.75 9.833 15.85 10.3H72v38.7h-5.75C28.883 79.3 9.467 61.133 8 25.6v-9.45l42.6-.05" fill="#E5E5E5"/><path d="M50.6 17.8c.1 3.6.667 6.7 1.7 9.3 2.467 6.4 7.75 9.833 15.85 10.3H72v4h-3.85c-8.1-.467-13.383-3.9-15.85-10.3-1.2-3-1.767-6.667-1.7-11v-2.3" fill="#F3F3F3"/><path d="M8 16.15H4V4.1h50.6v12h-4L8 16.15M72 37.4v-4h12v8l.05 38.6v4H72V37.4" fill="#B6B6B6"/><path d="M57.45 1.3c.767.767 1.15 1.7 1.15 2.8v12c0 1.1-.383 2.05-1.15 2.85-.767.733-1.667 1.117-2.7 1.15.233 2.067.667 3.917 1.3 5.55 1.933 4.7 5.917 7.283 11.95 7.75 0-1.1.4-2.033 1.2-2.8.767-.8 1.7-1.2 2.8-1.2h12c1.1 0 2.05.4 2.85 1.2.767.767 1.15 1.7 1.15 2.8v8l.05 38.6v4c0 1.1-.383 2.05-1.15 2.85-.8.767-1.75 1.15-2.85 1.15H72c-1.1 0-2.033-.383-2.8-1.15-.767-.767-1.167-1.683-1.2-2.75h-1.8C26.233 83.233 5.5 63.8 4 25.8v-5.65c-1.1 0-2.033-.383-2.8-1.15-.8-.8-1.2-1.75-1.2-2.85V4.1C0 3 .4 2.067 1.2 1.3 1.967.5 2.9.1 4 .1h50.6c1.1 0 2.05.4 2.85 1.2M50.6 16.1h4v-12H4v12.05h4v9.45c1.467 35.533 20.883 53.7 58.25 54.5H72V84h12.05v-4L84 41.4v-8H72v4h-3.85c-8.1-.467-13.383-3.9-15.85-10.3-1.033-2.6-1.6-5.7-1.7-9.3V16.1" fill="#777"/></g></svg>