<svg viewBox="0 0 118 118" xmlns="http://www.w3.org/2000/svg"><g fill="none" fill-rule="evenodd"><path fill="#E5E5E5" d="M80.3 16.05V41.5h21.45v38.55H80.3v21.5l-42.55-.05V80.05h-21.5l.05-38.55h21.45V16.05H80.3"/><path d="M80.3 37.5h21.45v4H80.3v-4m-64 0h21.45v4H16.3v-4" fill="#F3F3F3"/><path d="M16.3 37.5v4l-.05 38.55v4h-12v-50.6H16.3v4.05m21.45-21.45H33.7V4l50.6.05v12H37.75m64 21.45v-4.05h12.05l-.05 50.6h-12V37.5M80.3 101.55h4v12H33.7V101.5h4.05l42.55.05" fill="#B6B6B6"/><path d="M80.3 101.55v-21.5h21.45v4h12l.05-50.6h-12.05v4.05H80.3V16.05h4v-12L33.7 4v12.05h4.05V37.5H16.3v-4.05H4.25v50.6h12v-4h21.5v21.45H33.7v12.05h50.6v-12h-4m8-85.5c0 1.1-.383 2.05-1.15 2.85-.8.767-1.75 1.15-2.85 1.15V33.5h13.45v-.05c0-1.1.4-2.033 1.2-2.8.767-.8 1.7-1.2 2.8-1.2h12.05c1.1 0 2.05.4 2.85 1.2.767.767 1.15 1.7 1.15 2.8l-.05 50.6c0 1.1-.383 2.05-1.15 2.85-.8.767-1.75 1.15-2.85 1.15h-12c-1.1 0-2.033-.383-2.8-1.15-.8-.8-1.2-1.75-1.2-2.85H84.3v13.5c1.1 0 2.05.4 2.85 1.2.767.767 1.15 1.7 1.15 2.8v12c0 1.1-.383 2.05-1.15 2.85-.8.767-1.75 1.15-2.85 1.15H33.7c-1.1 0-2.033-.383-2.8-1.15-.8-.8-1.2-1.75-1.2-2.85V101.5c0-1.1.4-2.033 1.2-2.8.767-.8 1.7-1.2 2.8-1.2h.05V84.05h-13.5c0 1.1-.383 2.05-1.15 2.85-.8.767-1.75 1.15-2.85 1.15h-12c-1.1 0-2.033-.383-2.8-1.15-.8-.8-1.2-1.75-1.2-2.85v-50.6c0-1.1.4-2.033 1.2-2.8.767-.8 1.7-1.2 2.8-1.2H16.3c1.1 0 2.05.4 2.85 1.2.767.767 1.15 1.7 1.15 2.8v.05h13.45V20.05h-.05c-1.1 0-2.033-.383-2.8-1.15-.8-.8-1.2-1.75-1.2-2.85V4c0-1.1.4-2.033 1.2-2.8.767-.8 1.7-1.2 2.8-1.2l50.6.05c1.1 0 2.05.4 2.85 1.2.767.767 1.15 1.7 1.15 2.8v12" fill="#777"/></g></svg>